<svg xmlns="http://www.w3.org/2000/svg" width="20.938" height="20.938" viewBox="0 0 20.938 20.938">
  <path id="Icon_awesome-arrow-alt-circle-right" data-name="Icon awesome-arrow-alt-circle-right" d="M11.031.563A10.469,10.469,0,1,1,.563,11.031,10.467,10.467,0,0,1,11.031.563Zm-4.9,12.326h4.9v2.993a.507.507,0,0,0,.865.359l4.825-4.85a.5.5,0,0,0,0-.713L11.9,5.822a.507.507,0,0,0-.865.359V9.174h-4.9a.508.508,0,0,0-.507.507v2.7A.508.508,0,0,0,6.135,12.889Z" transform="translate(-0.563 -0.563)" fill="#5d5bea"/>
</svg>
