<svg id="Group_16" data-name="Group 16" xmlns="http://www.w3.org/2000/svg" xmlns:xlink="http://www.w3.org/1999/xlink" width="576.975" height="677.935" viewBox="0 0 576.975 677.935">
  <defs>
    <clipPath id="clip-path">
      <rect id="Rectangle_13" data-name="Rectangle 13" width="576.975" height="677.935" fill="none"/>
    </clipPath>
  </defs>
  <g id="Group_15" data-name="Group 15" clip-path="url(#clip-path)">
    <path id="Path_50" data-name="Path 50" d="M143.366,93.333c23.352,1.039,41.918,9.209,56.666,25.549a55,55,0,0,1,9.486,15.212c.771,1.781.8,1.843,2.614,1.172,5.148-1.906,10.3-3.815,15.4-5.82a72.382,72.382,0,0,1,35.346-4.367,81.465,81.465,0,0,1,45.668,20.667c6.333,5.638,12.031,11.884,16.01,19.449a55.286,55.286,0,0,1,3.07,8.245,4.442,4.442,0,0,1,.067,2.387,1.978,1.978,0,0,1-3.366.947,9.43,9.43,0,0,1-1.5-2.27c-3.708-6.683-7.676-13.161-13-18.739a78.084,78.084,0,0,0-38.086-22.485,78.933,78.933,0,0,0-19.651-2.211c-2.431.013-2.744.338-3.133,2.644-2.282,13.53-4.722,27.033-7.09,40.549q-5.13,29.285-10.23,58.576c-.384,2.2-.727,4.411-1.127,6.61-.164.911-.556,1.211-1.423.512a16.7,16.7,0,0,0-11.951-3.632c-.508.032-1.018.038-1.526.027-1.816-.04-1.949-.151-1.655-1.921.748-4.512,1.533-9.018,2.326-13.524q3.878-22.073,7.771-44.147,3.431-19.519,6.841-39.039c.053-.3.094-.605.176-.9.307-1.1.126-1.566-1.136-1.05-2.539,1.037-5.117,1.988-7.664,3.005q-5.656,2.257-11.29,4.565c-2.329.957-4.113.342-4.982-1.862-6.316-16.016-17.572-27.3-32.975-34.714a68.681,68.681,0,0,0-27.361-6.673,48.492,48.492,0,0,0-11.785,1.247c-8.25,1.745-16.476,3.668-24.608,5.889-5.178,1.413-10.177,3.488-15.252,5.276-.382.134-.726.38-1.109.506a3.158,3.158,0,0,1-3.212-5.329,16.324,16.324,0,0,1,3.956-2.213,132.366,132.366,0,0,1,21.564-6.553c5.848-1.321,11.645-2.883,17.519-4.077,3.968-.8,8.029-1.153,10.629-1.51" transform="translate(80.57 84.875)" fill="#5e5cea"/>
    <path id="Path_51" data-name="Path 51" d="M169.7,213.689A56.98,56.98,0,0,1,164.1,218.8a11.06,11.06,0,0,1-5.82,2.784,19.907,19.907,0,0,1,.472,8.247Q156.8,244.326,153.5,258.51c-2.068-.918-4.47-2.011-6.725-3.068,1.23-5.171,2.28-10.387,3.021-15.67.643-4.632,1.474-9.239,2.417-13.814.716-3.46,1.686-4.086,5.887-4.47-1.5-3.924-1.392-4.388,1.359-6.675a16.014,16.014,0,0,0,1.464-1.09q1.77-1.893,3.525-3.784Z" transform="translate(133.472 190.911)"/>
    <path id="Path_52" data-name="Path 52" d="M177.149,262.75a32.052,32.052,0,0,1-15.015-3.414,19.071,19.071,0,0,1-7.815-7.074c-2.037-3.4-4.055-6.822-5.808-10.37a25.611,25.611,0,0,1-2.327-15.747c1.228-7.525,2.574-15.029,3.939-22.529.147-.806.664-2.1,1.167-2.177a12.967,12.967,0,0,1,4.166.288c.176.031.3,1.069.239,1.617-.111,1.018.185,1.485,1.268,1.556,1.109.071,2.2.42,3.309.479.474.025,1.287-.269,1.4-.605.453-1.329,1.22-1.1,2.142-.674.46.216.938.4,1.407.59,2.068.863,2.056.861,1.657,3.112-.867,4.905-1.759,9.807-2.57,14.719-.72,4.372-.143,8.718.5,13.041a5.433,5.433,0,0,0,1.121,2.467c4.033,5.031,9.709,8.01,16.39,6.356,4.1-1.014,7.956-3.185,9.843-7.531a20.883,20.883,0,0,1,1.713-3.229,5.637,5.637,0,0,1,7.435-2.226c3.213,1.421,4.987,4.285,4.166,7.284a49.8,49.8,0,0,1-3.2,9.511c-4.678,9.2-12.367,14-22.687,14.548-.811.042-1.627.006-2.44.006" transform="translate(132.609 183.112)" fill="#5e5cea"/>
    <path id="Path_53" data-name="Path 53" d="M535.829,450.169c-2.4-6.488-4.859-12.944-7.277-19.422-.888-2.37-.92-2.427.936-4.038a18.389,18.389,0,0,0,5.3-7.311,12.926,12.926,0,0,1,2.328-3.443c.911-1.083,2.093-1.928,3.053-2.979,4.77-5.268,5.5-10.6,2.058-16.785-1.774-3.192-3.971-6.146-5.885-9.272-1.913-3.11-3.744-6.276-5.543-9.467-.538-.962-.579-1.938.878-2.28a6.6,6.6,0,0,0,5.046-3.991,3.7,3.7,0,0,0-.472-4c-.756-.9-1.97-1.025-3.719.424-3.078,2.555-6.553,1.27-7.725-2.2-.391-1.157-.985-2.232-1.482-3.347q-3.6-8.082-7.2-16.159c-7.244-16.369-14.555-32.69-22.956-48.515-4.957-9.337-9.459-18.91-14.181-28.37-2.547-5.088-5.054-10.207-7.733-15.223-4.428-8.3-10.467-15.491-16.127-22.939-2.971-3.9-6-7.718-10.322-10.249a1.822,1.822,0,0,1-.983-2.507,6.621,6.621,0,0,0,.5-1.749c.244-2.068-.2-3.2-2.255-3.632-1.8-.382-2.734-1.547-3.964-2.564-2.011-1.652-3.721-1.335-5.064.815a9.175,9.175,0,0,0-.684,1.7c-.359.993-1.165,1.043-1.97.838-1.774-.432-3.517-1.01-5.3-1.424a79.651,79.651,0,0,0-27.833-1.921c-8.409,1-15.67,4.168-21.507,10.345a44.064,44.064,0,0,0-4.094,5.3,6.55,6.55,0,0,1-3.826,2.776c-2.15.594-4.216,1.482-6.341,2.156a4.511,4.511,0,0,0-3.42,5.073,7.728,7.728,0,0,1-.342,4.159c-3.028,6.286-4.338,13.106-5.91,19.831-2.719,11.6-.636,22.2,6.977,31.543a11.966,11.966,0,0,1,1.489,1.923,4.07,4.07,0,0,1,.569,2.27c-.651,4.014-1.3,8.035-2.213,11.991-.92,3.973-4.43,5.952-8.4,4.924a14.457,14.457,0,0,1-2.759-1.27,2.526,2.526,0,0,0-3.265.726,2.806,2.806,0,0,0-.22,3.882,8.041,8.041,0,0,0,3.4,2.345,38.392,38.392,0,0,0,6.6.716c1.711.124,1.955.521,1.751,2.3-.424,3.525-2.14,5.535-5.51,7.147a256.485,256.485,0,0,0-35.207,20.677c-9.207,6.356-18.284,12.894-27.434,19.332-2.328,1.646-4.7,3.225-7.074,4.794a1.2,1.2,0,0,1-1.083.1,1.377,1.377,0,0,1-.357-1.075,41.441,41.441,0,0,1,.6-4.844c1.262-5.967,2.352-11.983,3.956-17.858q1.784-6.533,3.322-13.108c-2.068-.918-4.47-2.011-6.725-3.068-.691,2.931-1.449,5.852-2.23,8.758a246.337,246.337,0,0,0-6.992,34.646,6.2,6.2,0,0,1-2.891,5.006,32.878,32.878,0,0,0-4.348,3.338c-1.644,1.514-1.831,3.477-.691,4.9a3.455,3.455,0,0,0,4.437.676,44.357,44.357,0,0,0,4.086-2.654q19.292-13.407,38.56-26.838c1.337-.937,2.686-1.848,4.038-2.744a2.046,2.046,0,0,1,2.776.309,35.411,35.411,0,0,1,3.859,4.68c1.547,2.377,2.792,4.959,4.248,7.408,4.535,7.628,5.545,16.029,5.478,24.682a6.489,6.489,0,0,1-3.784,6.3A191.231,191.231,0,0,1,298.92,414q-10.05,3.577-20.058,7.269a150.093,150.093,0,0,1-19.292,5.675c-8.938,2-16.915-.449-24.406-5.079-5.014-3.1-6.4-8.224-6.862-13.637-.561-6.536.334-12.984,1.6-19.4a121.985,121.985,0,0,1,5.308-18.756c2.4-6.473,5.111-12.854,6.333-19.716.277-1.564.976-1.881,2.669-1.571a8.4,8.4,0,0,1,1.18.327c5.78,1.888,9.858-.441,12.911-5.258,3.166-5,4.542-10.372,3.362-16.291a15.314,15.314,0,0,1-.521-4.183c.292-3.7.187-7.286-1.327-10.778a4.876,4.876,0,0,1-.04-2.921c1.163-4.567-.913-8.418-3.013-12.033-.953-1.636-1.22-2.662-.529-4.33a77.259,77.259,0,0,0,2.547-7.5,14.609,14.609,0,0,1,4.617-7.531c3.517-2.988,3.614-5.967.464-9.5-1.564-1.759-1.319-2.931-.561-4.787,3.769-9.247,6.137-18.886,8.147-28.679,2.19-10.664,8.182-18.878,18.284-23.713,4.9-2.345,9.532-1.359,14.026.993a7.108,7.108,0,0,1,2.515,2.539,14.912,14.912,0,0,1,2.173,7.531c.042,1.554-.789,2.433-2.23,1.936-2.784-.951-6.057-.267-8.392-2.979-1.312-1.522-3.656-1.18-5.006.187-3.013,3.053-6.9,4.111-10.721,5.47a27.721,27.721,0,0,0-4.9,2.41,2.74,2.74,0,0,0-1.342,3.614,2.688,2.688,0,0,0,3.15,1.245c1.579-.342,3.093-.968,4.655-1.4,3.525-.978,7.017-2.068,10.591-2.8a29.631,29.631,0,0,1,6.675-.4c3.542.09,5.3,1.6,5.51,5.153a19.529,19.529,0,0,1-.943,6.538c-.693,2.36-1.751,2.824-4.143,2.133-6.553-1.9-13.253-1.9-19.968-1.646a14.95,14.95,0,0,0-4.12.93,1.971,1.971,0,0,0-1.449,2.36,3.513,3.513,0,0,0,1.726,2.205,20.619,20.619,0,0,0,5.4.651c4.689,0,9.369-.008,13.961,1.035a17.376,17.376,0,0,1,5.094,1.871c3.5,2.1,4.233,5.854,2.045,9.516a1.774,1.774,0,0,1-1.531.4,3.645,3.645,0,0,1-1.514-.976c-5.308-4.951-11.779-4.983-18.357-4.243a27.791,27.791,0,0,0-5.852,1.644c-2.2.766-2.906,1.589-2.711,2.761.195,1.222,1.367,1.831,3.395,1.726,1.831-.1,3.655-.294,5.478-.351,2.035-.065,4.071-.008,6.106-.023,4.989-.05,8.319,2.906,11.258,6.381,1.384,1.644,1.375,3.769.985,5.829-.115.642-1.392,1.3-1.946.968-.863-.521-1.661-1.148-2.517-1.684a18.848,18.848,0,0,0-11.607-3,8.615,8.615,0,0,0-6.057,2.482,3.2,3.2,0,0,0-.741,2.669,3.55,3.55,0,0,0,2.32,1.579,8.26,8.26,0,0,0,3.011-.17,13.634,13.634,0,0,1,11.389,3.141c2.043,1.776,4.054,2.622,6.65,1.434a1.175,1.175,0,0,1,1.05.309c.139.162-.008.773-.22,1q-2.346,2.589-4.7,5.146l5.251,3.752A49.47,49.47,0,0,0,314.525,272.5c1.823-5.593,3.4-11.3,4.747-17.03a88.914,88.914,0,0,0,2.14-13.22c.334-4.038.252-8.229-1.97-11.853-1.253-2.051-3.517-3.572-4.413-5.713-.976-2.354-.838-5.161-1.327-7.75a17.278,17.278,0,0,0-1.2-3.443,13.329,13.329,0,0,0-7.164-7.1c-7.212-3.347-14.213-3.15-20.994.943-10.714,6.456-17.259,15.924-19.31,28.24-.978,5.845-2.776,11.445-4.25,17.144a1.189,1.189,0,0,1-.846.684,1.156,1.156,0,0,1-.96-.506c-2.035-4.468-2.849-8.88.586-13.146a16.216,16.216,0,0,0,1.806-3.166,9.956,9.956,0,0,0-.162-9.386c-.756-1.432-1.669-2.792-2.522-4.168-1.718-2.767-3.412-5.543-5.178-8.279a15.523,15.523,0,0,1-2.32-10.5c.277-2.427.611-4.844,1.018-7.246,1.774-10.427.277-20.2-5.316-29.33A124.615,124.615,0,0,0,234.383,150.4c-5.111-5.837-10.492-11.388-17.786-14.58-.741-.317-1.384-.846-2.1-1.237-11.414-6.259-23.55-10.013-36.633-10.19-4.867-.057-9.759.267-14.628.594-8.791.586-16.713,3.353-23.069,9.751-.716.726-1.539,1.337-2.3,2a97.066,97.066,0,0,0-28.093,40.026c-.853,2.287-1.741,4.567-2.694,6.805A191.609,191.609,0,0,1,96.24,205.412c-3.508,6.007-8.222,10.551-14.79,13.041-1.709.651-3.378,1.409-5.071,2.1a54.206,54.206,0,0,0-24.967,20.742,43.843,43.843,0,0,0-7.765,24.031c-.05,3.248-.391,6.488-.7,9.726A15.544,15.544,0,0,1,36.4,286.319c-2.108,1.587-4.313,3.053-6.446,4.615-3.614,2.654-7.1,5.438-9.721,9.167-4.51,6.414-4.59,11.584-.08,17.975A69.778,69.778,0,0,0,32.86,331.182a3.832,3.832,0,0,0,1.579.869c.546.107,1.424.074,1.684-.267.432-.554.905-1.636.643-2.093a46.361,46.361,0,0,0-3.2-4.4c-2.916-3.9-5.927-7.743-8.718-11.739-2.272-3.24-1.734-6.505.544-9.6a30.256,30.256,0,0,1,7.523-7.065c2.532-1.711,5.111-3.345,7.571-5.146a22.337,22.337,0,0,0,9.694-17.519c.212-3.654.571-7.3.758-10.964a31.065,31.065,0,0,1,2.255-10.07,46.255,46.255,0,0,1,21.994-24.373,59.306,59.306,0,0,1,7.8-3.467c9.085-3.231,15.458-9.409,20.138-17.706A176.88,176.88,0,0,0,116,180.023c6.169-17.413,17.167-31.228,31.211-42.86a21.576,21.576,0,0,1,11.485-5.258c4.844-.546,9.721-.888,14.54-1.589,4.525-.651,8.921.05,13.358.619a3.845,3.845,0,0,1,2.914,1.923c.888,1.375.773,2.27-.708,2.8a81.814,81.814,0,0,0-17.925,9.035c-7.009,4.657-11.714,11.17-15.6,18.431a4.507,4.507,0,0,0-.034,4.615c1.646,3.036,3.192,6.139,4.584,9.3a42.951,42.951,0,0,1,2.4,6.87,29.418,29.418,0,0,1-.911,16.241c-.993,3.093-2.215,6.114-3.475,9.108a51.847,51.847,0,0,0-4.332,21.353,23.279,23.279,0,0,0,4.225,13.749c1.547,2.14,3.086,4.3,4.665,6.415a53.2,53.2,0,0,1,7.221,12.682c2.238,5.829,2.223,11.477-1.27,16.94a52.79,52.79,0,0,0-3.632,7.025,10.659,10.659,0,0,0,.579,10.511c.748,1.212,1.367,2.5,2.035,3.76a17.872,17.872,0,0,1,1.5,13.595c-.537,1.961-1.115,3.907-1.579,5.885a7.914,7.914,0,0,0-.294,3,3.005,3.005,0,0,0,1.409,1.726c.382.227,1.14-.065,1.676-.267a2.049,2.049,0,0,0,.873-.815c4.159-6.668,6.219-13.717,3.565-21.475a44.824,44.824,0,0,0-3.2-7.229,7.649,7.649,0,0,1-.187-7.561c.985-2,2.11-3.941,3.233-5.877a22.622,22.622,0,0,0,1.97-19.374,51.68,51.68,0,0,0-7-13.49c-1.873-2.654-3.989-5.151-5.78-7.863a61.249,61.249,0,0,1-3.435-6.415,1.41,1.41,0,0,1,.1-1.155c.514-.863,1.025-.1,1.377.18,7.244,5.795,14.977,10.509,24.511,11.4a1.335,1.335,0,0,1,1.26,1.686c-.055.4-.195.79-.267,1.188-.748,4.413-1.482,8.818-2.255,13.221-.309,1.741-.122,3.273,1.547,4.233,1.3.758,2.834.326,4.013-1.6a14.7,14.7,0,0,1,6.471-5.356,64.332,64.332,0,0,1,19.8-5.86,25.631,25.631,0,0,1,19.594,4.8,50.031,50.031,0,0,1,10.248,10.395c1.319,1.751,1.083,3.028-.96,3.819-5.226,2-9.556,5.331-13.814,8.823-1.237,1.01-2.6,1.856-3.916,2.776-1.382-1.3-.21-2.963-.594-4.4a6.16,6.16,0,0,0-.267-1.182c-.172-.325-.538-.813-.79-.789-.537.04-1.417.227-1.529.579-1.067,3.061-2.4,6.121-2.826,9.3a10.52,10.52,0,0,1-2.727,5.845c-5.161,6.022-10.412,11.981-15.279,18.242a311.186,311.186,0,0,1-26.2,28.931,68.706,68.706,0,0,1-5.545,4.77c-1.717,1.377-2.14,1.442-3.744.22-3.55-2.7-7.3-5.241-10.46-8.367-8.98-8.858-17.73-17.942-26.5-27.01-2.961-3.068-5.835-6.253-8.481-9.6-5.682-7.172-11.2-14.465-16.745-21.742-2.963-3.884-5.7-7.947-9.629-10.966a1.452,1.452,0,0,1-.327-2.133c3.068-4.844,6.521-9.346,11.34-12.609a18.55,18.55,0,0,1,16.272-2.694c6.929,2,12.113,6.488,16.518,11.958a4,4,0,0,1,.464,2.856,47.021,47.021,0,0,1-1.482,5.276c-.773,2.524-1.7,5.014-2.337,7.571-1.295,5.152-.863,10.093,2.265,14.6.7,1,1.26,2.093,1.953,3.093a8.729,8.729,0,0,1,1.612,6.91,19.649,19.649,0,0,0-.082,4.844,2.016,2.016,0,0,0,1.97,1.963,2.8,2.8,0,0,0,2.093-.953c2.734-4.1,4.021-8.451,1.489-13.156a49.117,49.117,0,0,0-3.126-5.234c-2.736-3.809-3-7.855-1.554-12.178.781-2.312,1.6-4.625,2.148-6.992a52.371,52.371,0,0,0,1.554-8.98c.179-3.427-.976-6.838-4.55-7.8-2.767-.749-4.665-2.392-6.683-4a28.111,28.111,0,0,0-22.939-5.789c-.79.132-1.564.449-2.352.6a4.772,4.772,0,0,1-1.172-.057c.155-.292.235-.684.479-.88,1.726-1.415,3.6-2.677,5.211-4.206a62.048,62.048,0,0,0,6.268-6.627c2.62-3.362,3.288-7.366,2.807-11.567-.162-1.377-1.188-2.541-2.238-2.467-1.474.1-1.986,1.23-2.328,2.434a8.776,8.776,0,0,0-.294,1.8c-.334,4.794-2.751,8.449-6.349,11.388-2.988,2.442-6.114,4.73-9.134,7.132-2.068,1.644-4.183,3.248-6.072,5.079a16.3,16.3,0,0,0-5.2,10.731,11.726,11.726,0,0,1-1.106,4.021c-.928,1.928-1.873,2.385-3.956,1.774a17.282,17.282,0,0,0-9.606-.414c-1.14.309-1.3-.733-1.344-1.491a6.2,6.2,0,0,1,2.639-5.258c2.245-1.741,4.59-3.362,6.96-4.932a46.079,46.079,0,0,0,14.042-14.223,22.249,22.249,0,0,0,3.477-10.3,2.206,2.206,0,0,0-1.359-2.467c-1.172-.432-1.946.237-2.507,1.14a13.4,13.4,0,0,0-1.043,2.2c-3.33,8.449-9.077,14.84-16.648,19.714-2.043,1.319-4.029,2.753-5.974,4.21a12.288,12.288,0,0,0-5.211,11.729c.554,4.176-.2,8.052-.846,12.023a8.513,8.513,0,0,0-.342,3.013c1.165,4.762-1.165,8.27-3.989,11.615-1.963,2.329-4.1,4.519-6.032,6.879-5.373,6.568-8.361,13.822-6.65,22.557.739,3.777.951,7.66,1.424,11.494a4.069,4.069,0,0,0,.414,1.749c.439.628,1.155,1.531,1.709,1.5a3.435,3.435,0,0,0,2.492-1.262A6.206,6.206,0,0,0,60,329.6c-.277-3.639-.636-7.286-1.237-10.885-1.035-6.2.611-11.664,4.159-16.68.115-.162.3-.389.449-.389a1.959,1.959,0,0,1,.9.22c-.017,3.362,1.01,6.626-.96,10.028-2.816,4.886-2.117,9.875,2.035,13.27,2.979,2.433,3.792,4.852,2.809,8.287a21.1,21.1,0,0,0-.342,2.417c-2.118,13.253-4.365,26.481-6.31,39.749-1.415,9.671-2.41,19.422-.708,29.168.905,5.194,2.182,10.322,3.427,15.451.481,1.961.319,3.45-1.253,4.932a111.169,111.169,0,0,0-8.059,8.319A200.076,200.076,0,0,0,27.691,474.6C16.2,497.611,7.925,521.837.42,546.355c-1.041,3.42-.235,4.34,3.435,4.241a10.937,10.937,0,0,0,2.427-.243,21.236,21.236,0,0,1,8.449.1c9.451,1.44,18.886,2.986,28.484,3.133,10.981.172,21.962.464,32.944.733,5.291.122,10.607.008,15.857.544,10.362,1.05,20.734.693,31.1.708a50.488,50.488,0,0,0,6.057-.529,4.483,4.483,0,0,0,3.737-2.7c2.173-4.355,4.535-8.628,6.837-12.926a3.931,3.931,0,0,1,.848-.806,4.182,4.182,0,0,1,.764,1.23c.873,4.378,1.613,8.791,2.557,13.154a5.072,5.072,0,0,0,4.649,4.193,63.016,63.016,0,0,0,7.244.918c5.9.065,11.8-.065,17.7-.2,7.1-.172,14.221-.693,21.328-.619,18.1.212,36.2.691,54.3,1,4.266.074,8.539-.032,12.812-.13,3.135-.073,4.934-2.5,7.025-4.315a2.778,2.778,0,0,0,.4-2.287c-.389-1.774-1.083-3.49-1.57-5.251q-2.054-7.323-4.038-14.675c-.733-2.751-1.27-5.552-2.108-8.264A282.469,282.469,0,0,0,244.5,481.005q-5.055-10.087-9.686-20.384c-2.165-4.819-4.029-9.776-5.917-14.708-1.295-3.38-.563-4.707,2.8-4.909a29.528,29.528,0,0,0,13.814-4.4,12.662,12.662,0,0,1,6.9-1.741,36.219,36.219,0,0,0,8.451-.928c6.683-1.709,13.358-3.532,19.9-5.707,7.132-2.36,14.131-5.144,21.165-7.788,3.809-1.434,7.683-2.736,11.33-4.51,7.678-3.721,15.206-7.75,22.842-11.561,2.11-1.048,3.924-2.849,6.521-2.8.6,1.906,1.18,3.817,1.823,5.715.262.764.733,1.464.97,2.23,1.025,3.313,2.091,6.553-.546,9.793-.8.976-.878,2.677-.968,4.069a15.322,15.322,0,0,0,3.817,11.267,4.563,4.563,0,0,1,.806,5.046A81.009,81.009,0,0,0,346,448.475c-5.152,22.387-10.167,44.805-15.393,67.176-2.213,9.474-3.964,19.09-7.326,28.272-.838,2.287-1.791,4.542-2.572,6.845-1.147,3.378.025,5.445,3.6,6.236,2.574.569,5.236.789,7.783,1.457,3.542.92,7.237.651,10.754,1.971A31.255,31.255,0,0,0,360.8,562.14c3.574-.781,7.326-.806,10.828-1.766,6.935-1.906,13.488-1.212,20.31.913a78.207,78.207,0,0,0,40.418,1.634,116.243,116.243,0,0,1,36.4-1.9,127.974,127.974,0,0,0,26.783-.391,40.264,40.264,0,0,0,16.671-5.47c6.685-4.069,7.718-6.381,4.926-13.488-3.412-8.7-6.8-17.436-11.3-25.658-1.489-2.711-1.212-3.233,1.963-3.964.8-.18,1.627-.214,2.4-.424,6.473-1.776,12.993-3.38,18.853-6.837,8.271-4.884,12.577-12.09,12.26-21.671-.374-11.2-1.554-22.321-5.487-32.952M310.586,245.381c1.993-2.158,2.2-5.144,2.442-7.97.1-1.188-.2-2.408-.18-3.613a7.987,7.987,0,0,1,.479-1.881c.474.626,1.182,1.188,1.359,1.9.554,2.133.905,4.323,1.434,6.977-.863,4.371-1.8,9.117-2.769,13.847-.048.252-.407.447-.619.668a5.109,5.109,0,0,1-.691-.937,19.107,19.107,0,0,0-1.711-3.842c-1.464-1.913-1.457-3.3.254-5.146m-1.043,22.794a12.973,12.973,0,0,1-.953,2.742c-.082.2-.472.279-.733.351a1.208,1.208,0,0,1-.252-.489c-.08-.382-.13-.766-.227-1.375a4.045,4.045,0,0,1,.325-1.449,5.456,5.456,0,0,1,1.254-1.132c.212.456.668.953.586,1.352M232.6,356.848c-.821,2.2-1.709,4.47-2.507,6.765-1.8,5.169-3.55,10.355-5.331,15.523-.668,1.953-1.392,2.362-3.093,1.686-1.132-.449-2.247-.96-3.33-1.516-8.825-4.518-8.775-3.191-1.644-9.614,5.119-4.607,10.013-9.474,15.019-14.221a1.841,1.841,0,0,1,.544-.26,7.069,7.069,0,0,1,.432.96c.057.17-.048.389-.09.676M217.915,223.092a8.162,8.162,0,0,1-5.373,3.664c-3.59.626-7.195,1.2-10.819,1.636a47.153,47.153,0,0,1-5.478.1,3.047,3.047,0,0,0-3.15,2.3c-.976,2.671-2.083,5.283-3.183,7.9A2.42,2.42,0,0,1,187,240.262a38.481,38.481,0,0,1-23.176-12.3c-4.657-5.146-4.623-3.891-2.442-11.26,1.09-3.687,2.776-7.195,4.208-10.776a42.834,42.834,0,0,0,3.07-17.282,31.7,31.7,0,0,0-3.452-14.076c-.472-.9-.928-1.806-1.384-2.711q-1.489-2.99-2.979-5.99c1.285-2.272,2.49-4.592,3.874-6.815a26.707,26.707,0,0,1,2.979-3.842c2.362-2.564,4.909-4.852,8.491-5.633a24.617,24.617,0,0,0,3.412-1.287,14.509,14.509,0,0,1,9.532-.651,2.693,2.693,0,0,0,3.086-1.449,2.3,2.3,0,0,0-.456-2.776c-.13-.162-.334-.26-.432-.432-.724-1.335-.594-1.652.724-2.27,1.507-.708,2.956-1.19,4.657-.481,1.686.7,3.477,1.125,5.2,1.711.628.21,1.018.748.416,1.27-2.15,1.864-2.255,3.947-1.457,6.593.813,2.686.853,5.6,1.417,8.376a22.565,22.565,0,0,0,5.087,10.272c1.621,1.881,3.045,3.567,2.654,6.408-.237,1.717,2.205,2.49,3.647,1.35a3.794,3.794,0,0,0,.481-.365,30.413,30.413,0,0,0,1.986-2.312c1.4-1.906,1.23-3.233-.586-4.714a22.5,22.5,0,0,1-2.442-1.791,6.322,6.322,0,0,1-.928-2.026,8.135,8.135,0,0,1-2.053-1.743,27.665,27.665,0,0,1-3.784-12.722c-.155-1.946.748-2.9,2.434-2.362,2.3.733,4.787,1.369,6.715,2.719,7.807,5.478,12.293,12.863,11.632,22.7-.292,4.348.741,8.489,1.491,12.667,1.415,7.823.968,15.246-2.574,22.565a99.629,99.629,0,0,1-8.132,14.261m25.114,28.158a7.82,7.82,0,0,1,.521-6.463c.609-1.058,1.31-2.058,1.946-3.1,3.215-5.341,3.508-10.778.22-16.151a37.247,37.247,0,0,1-5.56-16.606,12.743,12.743,0,0,0-.277-1.808c-.285-1.2-.6-2.4-2.068-2.677-1.165-.22-2.223,1.107-2.32,2.954a33.7,33.7,0,0,0,3.622,16.5c.7,1.466,1.547,2.866,2.3,4.308a9.871,9.871,0,0,1-.432,10.427c-.22.349-.432.691-.659,1.025-1.986,2.881-3.607,5.887-3.737,9.516-.032,1.01-.781,1.31-1.717.928a13.7,13.7,0,0,1-2.761-1.262,2.863,2.863,0,0,1-1.27-1.871,21.066,21.066,0,0,0-1.6-7.718,15.16,15.16,0,0,1-.178-9.574c.886-3.118,1.432-6.333,2.043-9.524a35.629,35.629,0,0,0,.332-3.647c-1.058-2.539-.055-4.787,1-7.017,3.467-7.277,3.752-14.889,2.3-22.655-.936-4.989-1.938-9.931-1.644-15.092.244-4.33-1.327-8.418-3.11-12.317-1.18-2.58-2.654-5.022-3.939-7.553-.122-.237.17-.684.269-1.043a2.034,2.034,0,0,1,.5.172,6.217,6.217,0,0,1,.951.756,95.622,95.622,0,0,1,16.079,22.882c2.946,5.992,4.313,12.237,2.906,18.928-.506,2.385-.733,4.819-1.165,7.221a23.507,23.507,0,0,0,3.208,17.559c1.978,3.076,3.826,6.244,5.95,9.222a7.692,7.692,0,0,1,.319,9.1,18.406,18.406,0,0,1-1.295,2.068c-3.574,4.5-3.265,9.482-1.507,14.448a39.157,39.157,0,0,0,3.866,7.586c1.295,2.06.741,3.884-.032,5.8a1.987,1.987,0,0,1-3.1.489c-4.1-4.772-8.117-9.589-9.948-15.81m-66.181,97.668c10.06-8.344,18.706-18.063,27.083-28.028,4.964-5.91,9.6-12.111,14.668-17.933,4.275-4.892,8.907-9.467,13.49-14.074,5.8-5.829,12.959-9.776,20.016-13.8,1.686-.962,3.851-1.092,5.814-1.524.292-.073.691.3,1.033.472-.172.359-.26.823-.537,1.052-1.27,1.008-2.549,2.018-3.9,2.914a40.7,40.7,0,0,1-4.688,2.839c-6.912,3.427-12.235,8.678-16.908,14.654-2,2.564-3.811,5.258-6.545,7.162a11.091,11.091,0,0,0-2.068,2.223c-.985,1.214-1.033,2.459-.22,3.3a2.162,2.162,0,0,0,2.767.334c2.158-1.14,4.348-2.23,6.433-3.492,4.288-2.606,9.092-3.467,13.927-4.078,3.607-.447,5.088.659,6.463,4.143.88,2.223.481,2.866-1.814,3.191-4.42.636-8.89,1.075-13.221,2.076-2.507.579-4.819,2.053-7.147,3.248a4.4,4.4,0,0,0-1.629,1.751,2.126,2.126,0,0,0-.05,1.684,1.936,1.936,0,0,0,1.337,1.027,15.6,15.6,0,0,0,3.557-.571,70.424,70.424,0,0,1,14.376-2.557,18.11,18.11,0,0,1,3.036.034,3.54,3.54,0,0,1,2.629,4.647,1.8,1.8,0,0,1-1.327.9c-3.036.269-6.072.407-9.11.628a19.027,19.027,0,0,0-8.474,3.173,5.578,5.578,0,0,0-1.547,1.8,1.872,1.872,0,0,0,1.245,2.362,24.532,24.532,0,0,0,2.988-.212c4.233-.456,8.451-1.132,12.7-1.335,3.24-.147,4.485,1.359,4.437,4.4-.294,3.933-1.254,7.613-4.071,10.584a3.339,3.339,0,0,1-3.248,1.2c-.88-.172-1.564-1.083-1.083-1.686.634-.781,1.375-1.482,2.043-2.238,1.539-1.776,1.384-3.721.472-5.69-.748-1.629-3.2-1.9-3.956-.294-1.9,4.029-5.446,6.463-8.546,9.346q-6.252,5.8-12.522,11.6-8.692,8.094-17.379,16.224c-1.13,1.058-2.352,1.676-3.817.781-9.362-5.74-18.676-11.559-26.913-18.893-1.482-1.312-1.417-2.02.2-3.355m74.695-58.879a4.044,4.044,0,0,1-.09.6c-.569,3.679-.569,3.679-4.273,4.046-.6.055-1.2.113-1.7.162a9.43,9.43,0,0,1-1.9.349,5.9,5.9,0,0,1-1.571-.464,4.949,4.949,0,0,1,.806-1.562c1.97-1.743,3.981-3.445,6.057-5.056.781-.6,2.116-1.531,2.622-1.254,1.382.766.023,2.077.048,3.175M70.736,352.265c1.27-7.825,2.459-15.663,3.844-23.462,1.033-5.795,1.293-6.024,6.2-2.253a49.316,49.316,0,0,1,8.606,8.579c5.241,6.626,11.1,12.4,18.8,16.109a7.526,7.526,0,0,1,2.272,1.978q4.76,5.556,9.417,11.21a5.388,5.388,0,0,1,.6,1.564,6.271,6.271,0,0,1-2.15-.074c-1.31-.521-2.522-1.3-3.792-1.936a54.026,54.026,0,0,0-11.479-4c-5.161-1.262-10.118-.382-15.052.863a69.455,69.455,0,0,0-16.386,6.521,7.509,7.509,0,0,1-1.083.554c-.561.2-1.148.351-1.726.514-.162-.563-.317-1.132-.432-1.514.806-5.024,1.571-9.843,2.352-14.653m-4.168,27.791a5.411,5.411,0,0,1,2.851-4.388c7.5-4.592,15.384-8.239,24.094-9.858a20.768,20.768,0,0,1,9.06.244,44.338,44.338,0,0,1,16.4,7.733c1.946,1.5,1.921,2.41-.073,3.59-4.372,2.581-8.858,4.982-13.163,7.66-3.093,1.928-6.009,4.151-8.947,6.316a6.572,6.572,0,0,0-2,2.23,2.433,2.433,0,0,0,.122,2.167,2.467,2.467,0,0,0,2.058.756,9.616,9.616,0,0,0,2.719-1.327c6.333-3.647,12.724-7.2,18.951-11.021a47.943,47.943,0,0,1,9.451-4.088c2.939-1.033,5.438-.227,7.636,2.142,7.319,7.888,14.735,15.693,22.166,23.483,2.11,2.2,4.42,4.2,6.6,6.326,1.978,1.921,2.011,2.392-.212,4.355-3.353,2.946-6.7,5.927-10.257,8.621-10.061,7.594-20.425,14.742-31.812,20.245-2.377,1.148-4.877,2.035-7.254,3.175-7.424,3.523-14.994,2.864-22.573.748a18.057,18.057,0,0,1-9.2-5.715,63.646,63.646,0,0,1-6.488-8.793A80.983,80.983,0,0,1,65.388,393.39c.4-4.445.806-8.888,1.18-13.333m107.723,74.338c-.269,4.46-.838,8.9-1.352,13.333a13.974,13.974,0,0,1-.789,2.939c-1.369,4.038-2.589,4.819-6.732,4.43-1.377-.132-2.053-.848-2.11-2.442-.065-1.823-.015-3.656-.015-5.488-.082-.008-.162-.015-.237-.025.514-4.64,1.043-9.28,1.556-13.919q1.317-11.82,2.637-23.623a16.693,16.693,0,0,1,.26-1.808c.783-3.492.873-3.851,4.225-3.907a20.269,20.269,0,0,1,2.417-.237c.424.05,1.172.684,1.132.945-1.734,9.891-.4,19.886-.993,29.8m-80.24,1.848c-.855.846-1.678,1.734-2.589,2.515-7.823,6.748-17.224,9.721-27.2,11.128-5.024.708-10.095,1.033-15.613,1.571a2.7,2.7,0,0,1-1.3-.138c-.357-.189-.773-1.035-.634-1.3,1.709-3.223,3.435-6.446,5.316-9.574A137.147,137.147,0,0,1,68.294,439.22c2.272-2.515,2.7-2.442,4.5.155,1.384,2,2.687,4.071,4.233,5.942a26.9,26.9,0,0,0,13.895,9.369,16.813,16.813,0,0,1,3.128,1.556M11.068,540.284a13,13,0,0,1-1.043,2.173A1.237,1.237,0,0,1,9,542.9a1.086,1.086,0,0,1-.659-.813,8,8,0,0,1,.342-2.385c7.471-22.573,15.523-44.9,26.716-65.978a206.83,206.83,0,0,1,22.979-34.394c2.581-3.133,5.041-6.366,7.58-9.532a1.14,1.14,0,0,1,1.953.359c.447.9.806,1.856,1.262,2.946a24.109,24.109,0,0,1-1.978,2.255,80.151,80.151,0,0,0-11.113,12.1c-2.425,3.255-4.917,6.5-7.017,9.965C38.241,475.34,28.43,493.777,21.415,513.608c-3.183,8.985-6.879,17.8-10.347,26.676M152.3,551.866c-.407.01-.813-.015-1.22-.015-1.392.025-2.352-.487-2.5-2-.105-1.008-.179-2.026-.3-3.028-.684-6.047-1.382-12.1-2.156-18.828a4.7,4.7,0,0,1,.023-1.115,3.838,3.838,0,0,1,.514-1.058,8.845,8.845,0,0,1,1.01.569.97.97,0,0,1,.3.514c2.068,7.635,4.153,15.256,6.163,22.9.432,1.659,0,2.043-1.833,2.066m81.706-77.918c8.394,16.289,15.972,32.92,21.572,50.388a41.653,41.653,0,0,1,1.2,4.094,162.653,162.653,0,0,0,6.1,22.949c.464,1.287-.032,1.928-1.384,1.906-2.026-.042-4.061-.147-6.089-.286-4.859-.325-9.719-.886-14.588-1q-25.313-.624-50.625-.945c-5.478-.065-10.956.424-16.444.611-4.672.155-9.344.252-14.017.342-.863.01-1.417-.342-1.459-1.417-.155-4.917-1.537-9.6-2.856-14.286s-2.564-9.409-3.784-14.131c-.741-2.856-.09-5.4,1.033-8.189,2.19-5.43,5.535-9.19,11.046-11.315,2.614-1,4.926-2.816,7.3-4.372a1.852,1.852,0,0,0,.609-2.662,3.114,3.114,0,0,0-2.033-.993,5.626,5.626,0,0,0-2.377.416c-7.279,2.53-13.505,6.414-17.763,13.137a206.129,206.129,0,0,0-14.425,26.132c-1.986,4.445-4.256,8.768-6.4,13.156a2.806,2.806,0,0,1-2.856,1.781c-11.177-.342-22.37-.357-33.523-.993-14.425-.831-28.858-.985-43.289-1.008-10.217-.025-20.27-1.426-30.332-2.841a18.777,18.777,0,0,1-2.37-.579c-1.228-.359-1.587-1.083-1.138-2.24,1.335-3.41,2.694-6.8,4.012-10.215q5.044-13.077,10.062-26.172a230.56,230.56,0,0,1,11.764-25.446,5.563,5.563,0,0,1,5.111-3.41c7.09-.506,14.148-1.426,21.206-2.272a55.242,55.242,0,0,0,16.3-4.827c5.268-2.385,9.973-5.528,13.415-10.257,1.434-1.963,3.013-3.068,5.577-2.923,8.2.481,15.556-2.475,22.744-5.917,10.866-5.2,20.749-12,30.4-19.145,1.8-1.329,3.508-2.776,5.316-4.088a8.892,8.892,0,0,1,2.034-.838,11.166,11.166,0,0,1,.22,2.37c-1.335,12.121-2.759,24.234-4.054,36.355a56.045,56.045,0,0,0-.26,9.125c.2,3.7,1.676,5.041,5.258,5.545,6.57.918,10.542-1.522,12.373-7.9a40.059,40.059,0,0,0,1.4-7.781c.512-6.276.813-12.579,1.2-18.863l-.439-.025c.179-6.3.349-12.592.571-18.893.055-1.442.748-1.839,1.928-1.123a117.655,117.655,0,0,0,20.384,9.572c1.856.685,2.205,1.955,2.433,3.712a121.942,121.942,0,0,0,2.108,12.594,29.062,29.062,0,0,0,7.88,13.553c4.413,4.487,9.509,7.695,16.134,7.3a3.624,3.624,0,0,1,3.819,2.312m-3.9-8.2a1.755,1.755,0,0,1-.187,1.554,2.17,2.17,0,0,1-1.661.3,22.406,22.406,0,0,1-12.976-8.432c-4.647-5.782-6.226-12.6-6.65-19.791-.09-1.587.773-2.28,2.255-1.969,3.769.789,7.521,1.627,11.265,2.473a2.244,2.244,0,0,1,1.938,2.622c-.04.4-.17.79-.374,1.743a57.5,57.5,0,0,0,2.9,12.43c1.14,3.036,2.377,6.032,3.492,9.07m7.334-32.473c-2.914.911-5.82,1.709-8.97,1.163-2.385-.414-4.827-.5-7.237-.748a23.008,23.008,0,0,1-3.028-.359c-14.507-3.572-28.394-8.6-40.41-17.818a173.666,173.666,0,0,1-19.153-16.965c-14.849-15.353-29.03-31.308-42.9-47.54a20.639,20.639,0,0,1-2.24-2.881c-.888-1.491-2.173-2.068-3.744-2.761-5.291-2.32-9.4-6.259-13.114-10.639-2.761-3.248-5.463-6.57-8.434-9.621a27.675,27.675,0,0,0-12.871-7.83,57.576,57.576,0,0,0-5.982-.888,1.2,1.2,0,0,1-.733-1.856,7.146,7.146,0,0,1,5.919-3.769,15.739,15.739,0,0,1,6,.472c3.63,1.237,7.107,2.939,10.631,4.485.741.327,1.375.88,2.083,1.262,1.489.806,2.614.691,3.248-.267.863-1.295.172-2.37-.611-3.282a15.438,15.438,0,0,0-3.1-2.914c-5.363-3.517-11.12-5.919-18.08-5.512a4.923,4.923,0,0,1-.846.082c-1.14.017-2.622.636-3.1-.943a3.727,3.727,0,0,1,1.392-4.348,8.223,8.223,0,0,1,7.548-1.115,37.31,37.31,0,0,1,10.33,5.129c1.652,1.188,3.288,2.392,5,3.492a5.143,5.143,0,0,0,2.23.806,2.088,2.088,0,0,0,1.554-.676,1.923,1.923,0,0,0,.359-1.619,15.558,15.558,0,0,0-5.455-6.415c-5.136-3.8-10.721-6.553-17.209-7.187-2.3-.22-3.011-1.768-1.823-3.681a8.45,8.45,0,0,1,9.11-3.385,19.535,19.535,0,0,1,8.019,4.241c1.692,1.466,3.271,3.053,4.94,4.535s3.338,2.988,5.129,4.306a2.6,2.6,0,0,0,2.223.212,1.9,1.9,0,0,0,.863-2.614,23.1,23.1,0,0,0-3.1-5.184,38.887,38.887,0,0,0-11.25-9.239c-2.23-1.148-4.021-2.32-4.926-4.957-.748-2.215-3.084-2.192-3.979.008a3.949,3.949,0,0,1-3.492,2.824c-.953.107-1.6-.342-1.629-1.287a19.2,19.2,0,0,1,.237-3.63c.8-4.582,3.206-6.154,7.83-5.089a18.578,18.578,0,0,1,10.347,6.057c2.622,3.11,5.1,6.333,7.561,9.556,11.372,14.857,23.111,29.4,36.379,42.623,5.186,5.171,10.494,10.209,15.745,15.306a12.114,12.114,0,0,0,.911.806c15.72,11.869,30.4,25.177,47.874,34.613,5.358,2.9,10.843,5.56,16.274,8.3,2.532,1.279,2.686,1.442,2.417,4.2-.227,2.427-.611,4.836-.871,7.261a51.288,51.288,0,0,0,.489,15.174c1.382,7.294,5.176,12.692,11.722,16.159,1.253.666,2.58,1.2,3.809,1.9a2.248,2.248,0,0,1,.888,1.23c.057.18-.439.708-.766.815m217.4-91.776a5.225,5.225,0,0,1,1.165-2.1c.512-.447,1.627-.871,2.076-.619,2.979,1.718,6.179,3.257,8.686,5.545a68.646,68.646,0,0,1,9.337,10.395C486.9,369.742,497.2,385.1,505.841,401.5c2.744,5.211,5.787,10.265,8.661,15.411.661,1.189.2,2.06-1.018,2.083-1.823.033-3.655.01-5.486.01-13.555-.286-23.892,5.3-30.812,17.037-.684,1.148-1.636,1.165-2.287.008-2.874-5.144-5.6-10.37-8.6-15.443-2.679-4.541-5.755-8.84-8.409-13.4a33.557,33.557,0,0,1-3.679-8.279c-2.19-8.457-4.046-17.02-4.485-25.773a75.91,75.91,0,0,1,5.111-31.65m-17.673-83.9c7.214-.661,12.153,4.183,12.031,11.794-.048,4.031-2.051,7.343-4,10.656a14.371,14.371,0,0,1-2.263,2.809,1.579,1.579,0,0,1-1.367-.317c-.96-3.3-1.873-6.6-2.614-9.948a2.409,2.409,0,0,1,.978-1.938c1.839-1.22,3.867-2.165,5.715-3.387a1.821,1.821,0,0,0,.554-2.645,2.571,2.571,0,0,0-2.068-.888,17.209,17.209,0,0,0-4.535,1.547c-1.963,1.035-2.824,1.434-3.819-1.734-.235-.773-.544-1.522-.789-2.3-.813-2.6-.326-3.42,2.173-3.654m-79.377,5.657c.17-.993.561-1.97.643-2.971.325-4.014,1.482-6.872,6.4-7.051,3.1-.105,5.6-2.287,7.391-4.892a2.445,2.445,0,0,0,.025-2.205,2.411,2.411,0,0,0-2.028-.9,30.933,30.933,0,0,0-3.939,1.587,20.116,20.116,0,0,1-3.444,1.083c-.3.057-1.14-.748-1.083-1.018.716-3.362,1.482-6.715,2.385-10.028a3.274,3.274,0,0,1,1.539-1.743c1.058-.579,2.3-.813,3.412-1.295a21.421,21.421,0,0,0,9.15-6.788c6.267-8.426,15.206-11.038,25.251-10.933a2.166,2.166,0,0,1,2.263,1.652,126.38,126.38,0,0,0,6.121,17.209,11.17,11.17,0,0,1,.447,4.762c-.317,6.895-.918,13.79-1.115,20.694-.5,17.883-.781,35.776-1.27,53.661-.252,9.15-.724,18.292-1.22,27.424-.147,2.629-.806,5.218-1.092,7.84-.691,6.471-1.392,12.944-1.921,19.422a10.726,10.726,0,0,0,7.237,11.422c8.166,3.15,18.439-.391,22.8-7.9.716-1.23,1.277-2.541,1.938-3.8,1.587-3.028,2.083-6.129.7-9.385a6.631,6.631,0,0,1-.706-2.32c-.01-.708.235-1.848.716-2.085,4.957-2.433,5.528-6.895,6.2-11.714a162.821,162.821,0,0,0,.9-31.046c-.292-5.635-1.928-11.185-2.874-16.795a64.457,64.457,0,0,1-.691-6.626c-.032-.432.212-1.312,1.1-.985.342.13.8.447.861.748,2.118,9.933,4.829,19.766,4.926,30.023.032,3.46,0,6.918,0,11.567-.3,4.086-.579,9.369-1.14,14.628-.359,3.4-.741,6.862-3.273,9.639a4.209,4.209,0,0,0-.521,2.841c.4,5.65-1.123,10.859-3.37,15.939a19.929,19.929,0,0,1-13.789,11.916c-7.708,1.963-14.962,1.035-21.181-4.346a5.886,5.886,0,0,0-4.462-1.442c-5.079.2-10.158.439-15.239.447a63.319,63.319,0,0,1-8.489-.731c-.563-.082-1.222-.953-1.442-1.6a6,6,0,0,1-.04-2.417,124.453,124.453,0,0,1,3.737-22.827,67.613,67.613,0,0,1,5.957-14.653c1.482-2.662,2.7-5.461,4.111-8.164a5.865,5.865,0,0,1,1.7-2.2c.254-.17,1.214.945,1.946,1.262a2.949,2.949,0,0,0,4.25-2.7,7.49,7.49,0,0,0-.309-1.789q-2.8-9.343-5.625-18.676c-.237-.773-.554-1.522-.781-2.3-.521-1.743-1-3.492-1.5-5.243-2.148-.554-4.281-1.163-6.438-1.661-3.168-.724-6.374-1.277-9.516-2.083a17.37,17.37,0,0,1-8.938-6.024,28.434,28.434,0,0,1-6.668-24.428M345.459,388.929c-.985,3.362-2.759,5.209-5.885,6.154-.391.122-.75.334-1.14.414-1.01.229-1.506-.317-1.589-1.237-.334-3.842-.439-7.716-1-11.527a35.65,35.65,0,0,0-2.158-8.2c-2.9-7.179-6.326-14.091-11.575-19.928-.7-.781-.456-1.424.252-2.011a8.473,8.473,0,0,1,.976-.716c10.185-6.326,20.19-12.944,31.186-17.835,3.347-1.489,6.652-3.061,10-4.527a12.186,12.186,0,0,1,2.906-.764c.244-.042.569.439.911.724a15.027,15.027,0,0,1-.609,1.678,113.164,113.164,0,0,0-9.329,27.627c-1.424,6.545-4.6,12.552-7.75,18.5a62.794,62.794,0,0,0-5.193,11.649m7.164,23.583c1,2.213,2.068,4.4,2.906,6.675.5,1.352,2.076,2.442,1.188,4.191-.9-1.073-2.1-2.018-2.629-3.246a68.715,68.715,0,0,1-2.4-7.426c-.1-.325.187-.756.3-1.14a6.5,6.5,0,0,1,.636.945m-.514-21.964c.561-1.447,1.14-2.889,1.783-4.306.105-.244.5-.349.773-.529.09.374.195.741.269,1.123a3.442,3.442,0,0,1,0,.579,3.835,3.835,0,0,1-1.946,3.385.883.883,0,0,1-.546.179c-.147-.048-.374-.332-.334-.432m4.737,14.189c-.055-.073.09-.317.147-.479.122.342.244.674.367,1.018a5.475,5.475,0,0,1-.514-.538m168.369,94.632a68.586,68.586,0,0,1-13.073,4.934,95.744,95.744,0,0,1-34.4,2.979,112.616,112.616,0,0,1-37.5-9.923q-13.8-6.484-27.5-13.146a82.647,82.647,0,0,1-16.346-10.574c-9.289-7.613-18.177-15.663-26.945-23.852a61.925,61.925,0,0,1-8.588-9.427,64.527,64.527,0,0,0-6.585-7.132c-1.709-1.766-3.41-3.507-3.971-6.007a1.649,1.649,0,0,1,.145-1.155c.554-.888,1.01-.082,1.337.235,2.043,1.978,3.939,4.119,6.079,5.976a14.97,14.97,0,0,0,4.2,2.4,2.38,2.38,0,0,0,2.125-.611c.414-.464.325-1.442.3-2.19-.01-.349-.384-.691-.611-1.025-.758-1.115-.472-1.4.846-1.831,2.622-.855,3.273-2.671,1.556-4.51a34.463,34.463,0,0,1-7.783-13.644,30.1,30.1,0,0,1-.8-4.884c.773,1.237,1.522,2.492,2.36,3.689,2.207,3.15,4.43,6.3,6.732,9.379a8.788,8.788,0,0,0,2.3,1.976,2.843,2.843,0,0,0,3.41-.057c1.065-.781,1.172-2.432.115-3.817-.995-1.295-2.158-2.434-3.192-3.7a39.46,39.46,0,0,1-9.068-22.849,16.969,16.969,0,0,1,.195-3.639,1.984,1.984,0,0,1,3.3-1.115,9.957,9.957,0,0,1,2.116,2.866c.92,2.035,1.579,4.183,2.377,6.268a61.048,61.048,0,0,0,6.563,13.049,38.553,38.553,0,0,0,11.347,10.916,16.189,16.189,0,0,0,3.328,1.449,1.605,1.605,0,0,0,1.89-1.734,15.557,15.557,0,0,0-3.362-6.423c-1.531-1.906-3.118-3.761-4.6-5.7a13.433,13.433,0,0,1-3-7.221,9.562,9.562,0,0,1,.2-2.4,2,2,0,0,1,2.475-1.09,3.52,3.52,0,0,1,.993.676c6.1,8.117,14.124,14.645,19.21,23.625,2.622,4.615,5.211,9.213,6.692,14.318a15.236,15.236,0,0,0,7.334,9.255,142.27,142.27,0,0,0,25.813,12.325c13.652,4.754,27.671,8.092,41.8,11.055,2.247.472,4.4.716,6.528-.374a2.8,2.8,0,0,0,1.629-2.965,2.536,2.536,0,0,0-2.15-1.863,4.382,4.382,0,0,0-1.212-.137c-3.622.277-4.779-1.823-5.593-5-.855-3.313-2.515-6.423-3.761-9.646-.267-.708-.609-1.751-.3-2.272,2.205-3.63,3.695-7.66,6.708-10.851a26.015,26.015,0,0,1,17.095-8.457c4.216-.359,8.514.227,12.772.39a3.86,3.86,0,0,1,3.744,2.581c6.855,16.549,13.677,33.107,14.026,51.439.025,1.222.025,2.442.082,3.656.332,7.326-3.061,12.61-9.386,15.783" transform="translate(0 113.112)"/>
    <path id="Path_54" data-name="Path 54" d="M457.953,209.249c-3.761-18.922-10.973-36.563-20.157-53.445a164.175,164.175,0,0,0-19.245-28.163A267.953,267.953,0,0,0,386.8,96.458c-18.834-15.825-39.518-28.576-62.648-37.187-1.333-.5-2.643-1.058-3.987-1.522a2.935,2.935,0,0,1-2.121-2.66c-.7-5.446-1.442-10.885-2.169-16.327a24.607,24.607,0,0,0-.428-3.013,3.05,3.05,0,0,0-5.22-1.56,25.583,25.583,0,0,0-2.891,3.9c-2.209,3.416-4.428,6.828-6.5,10.328-1.314,2.224-2.7,2.9-5.465,2.249a175.1,175.1,0,0,0-41.75-4.479c-10.374.094-20.728.113-31.075,1.3-10.108,1.163-20.165,2.562-30.138,4.544-17,3.38-33.387,8.823-49.565,14.947a238.767,238.767,0,0,0-37.011,17.211q-23.124,13.63-46.167,27.394c-.873.519-1.7,1.117-2.545,1.682C52.493,116.354,49,120.633,45.3,124.677a3.324,3.324,0,0,0-.355,2.788,2.629,2.629,0,0,0,2.977,1.631c1.8-.254,3.567-.794,5.348-1.2a69.837,69.837,0,0,1,35.006.521c10.922,3.07,20.81,8.124,28.727,16.526,4.138,4.392,7.252,9.289,8,15.43a10.277,10.277,0,0,0,.33,1.8c.5,1.6,1.239,3.175,3.026,3.515,1.846.351,3.017-.97,3.935-2.362a206.489,206.489,0,0,1,25.662-30.964,4.464,4.464,0,0,0,1.312-1.99,3.125,3.125,0,0,0-.6-2.144,1.664,1.664,0,0,0-1.592-.367,28.2,28.2,0,0,0-4.514,3.045,153.877,153.877,0,0,0-17.36,17.984c-1.163,1.411-2.287,2.858-3.508,4.218-.726.81-1.388.54-1.806-.411-4.541-10.3-12.357-17.526-21.891-23.046a71.616,71.616,0,0,0-36.028-9.994c-2.847-.013-5.7.1-8.544.059a7.9,7.9,0,0,1-2.022-.582,12.243,12.243,0,0,1,1.638-1.659c1.335-.924,2.746-1.743,4.14-2.583,7.836-4.726,15.743-9.337,23.5-14.187A329.97,329.97,0,0,1,166.924,65.6a284.027,284.027,0,0,1,98.692-12.642c4.449.2,8.877.876,13.314,1.333,0,.143,0,.286,0,.43-1.785.151-3.571.334-5.36.445a116.6,116.6,0,0,0-38.394,9.041A143.966,143.966,0,0,0,201.646,84c-8.93,7.067-17.58,14.488-26.334,21.775a7.71,7.71,0,0,0-2.028,2.221,2.369,2.369,0,0,0,.195,2.152,2.288,2.288,0,0,0,2.106.514,30.59,30.59,0,0,0,4.605-2.956q12.9-9.755,25.742-19.583a144.77,144.77,0,0,1,35.455-20.056,104.743,104.743,0,0,1,47.286-6.736,66.192,66.192,0,0,1,8.394,1.5c1.772.384,2.077,1.39,1.031,3.118a385.58,385.58,0,0,0-19.838,37.8C265.6,131.069,253.992,158.809,246.4,188.06a44.865,44.865,0,0,0-1,4.766,2.71,2.71,0,0,0,1.957,2.75,2.65,2.65,0,0,0,3.139-1.235c.642-1.705,1.123-3.473,1.615-5.23,1.808-6.458,3.28-13.028,5.442-19.363a654.057,654.057,0,0,1,43.5-98.694c1.338-2.486,2.914-4.842,4.378-7.259,2.973-.8,5.461,1.232,8.268,1.417.4.027.785.3,1.178.3,5.19,0,8.653,3.168,11.8,6.669a49.228,49.228,0,0,1,5.85,7.783c2.885,4.9,5.426,10,8.086,15.033.664,1.254,1.163,2.6,1.852,3.836a1.924,1.924,0,0,0,2.545,1.039,2.086,2.086,0,0,0,1.159-2.536,29.993,29.993,0,0,0-1.312-4.678,87.5,87.5,0,0,0-9.283-17.814c-.79-1.18-1.6-2.35-2.373-3.54-.094-.145-.126-.514-.067-.544.3-.157.72-.412.966-.313,1.507.609,3,1.26,4.458,1.976a213.445,213.445,0,0,1,40.022,25.57C392.242,109,405.163,120.831,416,134.649c21.584,27.512,34.672,58.643,38.47,93.525.264,2.421.25,4.873.307,7.313a1.219,1.219,0,0,1-.5.97,1.485,1.485,0,0,1-1.117-.208,9.317,9.317,0,0,1-1.457-1.1,89.273,89.273,0,0,0-21.666-13.53,74.126,74.126,0,0,0-44.689-5.5,54.647,54.647,0,0,0-14.866,5.344c-1.069.533-1.663.157-1.526-.928.714-5.646,1.583-11.277,2.163-16.938,1.354-13.211,1.375-26.428-.951-39.532A148.026,148.026,0,0,0,354.3,119.428c-.483-.894-.987-1.778-1.545-2.627-.932-1.413-2-1.9-2.981-1.449-1.157.537-1.361,1.89-.527,3.725.336.741.735,1.451,1.107,2.175a144.5,144.5,0,0,1,9.8,24.293c4.911,16.3,7.441,32.9,6.2,49.972-.8,10.954-1.806,21.876-4.1,32.648a13.479,13.479,0,0,0,.263,4.793c.179,1.1,2.312,1.459,3.032.573,1-1.233,1.686-2.975,2.96-3.691,5.673-3.189,11.5-6.127,17.971-7.4a68.227,68.227,0,0,1,28.452.748c11.756,2.644,21.946,8.5,31.337,15.785,2.52,1.955,4.411,4.735,6.532,7.185,1.2,1.38,2.205,2.925,3.423,4.281a2.084,2.084,0,0,0,3.49-.718,27.826,27.826,0,0,0,1.233-6.513,141.136,141.136,0,0,0-2.992-33.956" transform="translate(40.738 30.206)" fill="#5e5cea"/>
    <path id="Path_55" data-name="Path 55" d="M18.6,254.643a48.153,48.153,0,0,1,2.114-5.7,29.8,29.8,0,0,1,6.815-8.541q4.058-3.7,8.163-7.349a17.287,17.287,0,0,0,6.24-13.39c.008-2.438-.084-4.88,0-7.317.1-3.044.185-6.1.527-9.119.789-6.969,4.735-11.951,10.364-15.764a12.555,12.555,0,0,1,2.771-1.247,1.953,1.953,0,0,1,2.421,1.275,2.971,2.971,0,0,1-.533,2.154c-1.655,1.778-3.55,3.332-5.22,5.1a16.569,16.569,0,0,0-4.8,12.149c.074,3.25.153,6.509.019,9.759a59.3,59.3,0,0,1-.846,7.855,19.614,19.614,0,0,1-6.083,11.029c-2.518,2.368-5.253,4.51-7.7,6.941a80.252,80.252,0,0,0-6.916,7.678,8.013,8.013,0,0,0-.676,9.18c1.136,2.16,2.354,4.281,3.385,6.488a64.222,64.222,0,0,1,2.751,6.763,6.7,6.7,0,0,1-.027,2.963c-.132.886-1.806,1.426-2.505.911-.162-.12-.43-.168-.506-.321-3.126-6.351-7.664-12.008-9.367-19.056-.143-.588-.191-1.2-.38-2.436" transform="translate(16.913 169.261)"/>
    <path id="Path_56" data-name="Path 56" d="M90.2,158.426c-.214,6.816-2.287,12.94-4.842,18.928a2.472,2.472,0,0,1-3.023,1.472,14.673,14.673,0,0,1-4.941-2.148c-6.732-5.258-9.8-12.247-8.932-20.78a14.272,14.272,0,0,1,4.183-8.6,10.342,10.342,0,0,1,12.839-1.759,7.116,7.116,0,0,1,3.593,4.676c.361,1.577.632,3.181.855,4.785.168,1.2.193,2.421.267,3.423m-16.493.346a20.34,20.34,0,0,0,2.6,8.684c1.274,2,2.455,4.147,4.982,4.9.622-1.89,1.251-3.779,1.865-5.671.124-.382.174-.79.3-1.17a3.344,3.344,0,0,0-.785-3.876,5.293,5.293,0,0,1-1.161-1.382c-.527-1.043-1.293-2.148-1.289-3.227,0-1.526,1.516-1.52,2.7-1.785.376-.084.8-.829.84-1.3a4.256,4.256,0,0,0-.456-1.732c-.924-2.454-3.023-3.36-5.22-2.142a7.442,7.442,0,0,0-2.245,1.961,12.022,12.022,0,0,0-2.139,6.75" transform="translate(62.123 131.012)"/>
    <path id="Path_57" data-name="Path 57" d="M90.881,234.034c-.68,3.364-1.323,6.736-2.07,10.085a4.1,4.1,0,0,1-1.1,2.123,2.593,2.593,0,0,1-2.118.584,2.523,2.523,0,0,1-1.3-1.755,10.4,10.4,0,0,1,.256-3c.262-1.8.624-3.593.846-5.4.664-5.438-.239-10.505-3.658-14.958-.493-.64-.859-1.375-1.3-2.056-4.174-6.417-3.175-12.692.533-18.884.2-.342.464-.792.79-.892a3.586,3.586,0,0,1,2.211-.273,2.428,2.428,0,0,1,1.106,1.873,10.5,10.5,0,0,1-.8,2.9c-.428,1.352-.983,2.673-1.291,4.05a10.751,10.751,0,0,0,1.214,8.216c.846,1.382,1.718,2.751,2.633,4.09a22.934,22.934,0,0,1,4.054,13.3" transform="translate(70.675 181.425)"/>
    <path id="Path_58" data-name="Path 58" d="M21.592,77.679a6.926,6.926,0,0,0-1.266-2.07c-.523-.533-1.348-1.174-1.957-1.1a2.306,2.306,0,0,0-1.562,1.55c-.546,4.416-1.745,8.783-1.065,13.308.424,2.814.565,5.673,1.056,8.474.628,3.6,1.392,7.179,2.266,10.725a12.934,12.934,0,0,0,4.409,7.147c3.338,2.7,7.406,1.795,9-2.1a36.209,36.209,0,0,0,1.245-4.831c-.771-2.916-1.239-5.98-2.385-8.766-3.087-7.513-6.456-14.91-9.738-22.344" transform="translate(14.13 67.753)"/>
    <path id="Path_59" data-name="Path 59" d="M264.982,47.579a15.026,15.026,0,0,0-1.78-2.433,2.4,2.4,0,0,0-3.635.588,4.9,4.9,0,0,0-.512,1.709c-.214,4.046-.374,8.092-.634,14.028.218,2.969.447,7.83.995,12.655a15.3,15.3,0,0,0,1.825,5.734,13.654,13.654,0,0,0,4.012,4.414c3.555,2.408,7.422.815,8.543-3.28a9.688,9.688,0,0,0,.412-3,57.421,57.421,0,0,0-.754-9.047,71.272,71.272,0,0,0-8.472-21.37" transform="translate(235.001 40.514)"/>
    <path id="Path_60" data-name="Path 60" d="M112.1,16.16a5.693,5.693,0,0,0-1.352-1.174,1.863,1.863,0,0,0-2.5.968,12.7,12.7,0,0,0-.326,2.379c-.124,4.252-.254,8.508-.29,12.762a63.608,63.608,0,0,0,.221,7.893c.579,4.98,2.381,9.444,6.6,12.516,3.072,2.236,6.5,1.243,7.9-2.316a33.774,33.774,0,0,0,1.2-4.8c-.122-1.335-.172-2.142-.275-2.944-1.22-9.535-5.7-17.631-11.181-25.282" transform="translate(97.864 13.45)"/>
    <path id="Path_61" data-name="Path 61" d="M14.451,157.457a6.936,6.936,0,0,0-.638-1.02,1.567,1.567,0,0,0-2.551,0,12.673,12.673,0,0,0-1.291,3.347c-.8,4.972-1.474,9.967-2.154,14.679.544,3.966.894,7.586,1.592,11.137a16.592,16.592,0,0,0,2.085,4.978,5.183,5.183,0,0,0,5.6,2.772c2.467-.426,3.821-2.165,4.456-4.443a16.722,16.722,0,0,0,.357-7.2,94.7,94.7,0,0,0-7.46-24.243" transform="translate(7.109 141.662)"/>
    <path id="Path_62" data-name="Path 62" d="M291.325,162.263c-.777-2.075-1.619-4.134-2.572-6.133-.313-.657-1.031-1.5-1.627-1.56-1.067-.1-1.783.762-2.049,1.858a20.583,20.583,0,0,0-.567,2.36c-.464,4.015-.878,8.037-1.31,12.054.111.011.22.021.33.031a80.689,80.689,0,0,0,.6,8.481,51,51,0,0,0,2.509,9.944c1.285,3.294,3.876,4.477,6.731,3.914,2.383-.47,4.035-2.606,4.313-5.915a24.441,24.441,0,0,0-.943-10.219c-1.737-4.962-3.57-9.891-5.415-14.815" transform="translate(257.536 140.556)"/>
    <path id="Path_63" data-name="Path 63" d="M158.382,28.575c-1.839-6.072-5.111-11.479-8.292-16.913a7.643,7.643,0,0,0-.731-.976,1.6,1.6,0,0,0-2.816.7,14.919,14.919,0,0,0-.773,3.534c-.122,2.228-.036,4.466-.036,6.7.015,2.03-.136,4.075.046,6.087a35.972,35.972,0,0,0,3.3,12.909c2.053,4.141,4.571,6.024,7.2,5.426,2.868-.653,4.477-3.714,3.994-8.577a46.988,46.988,0,0,0-1.89-8.9" transform="translate(132.485 9.173)"/>
    <path id="Path_64" data-name="Path 64" d="M28.02,2.161a2.263,2.263,0,0,0-2.058-.7,2.461,2.461,0,0,0-1.354,1.736C23.893,9,23.3,14.828,22.637,21a44.172,44.172,0,0,0,1.077,6.232,14.32,14.32,0,0,0,2.578,4.726,6.391,6.391,0,0,0,7.137,2.087A5.573,5.573,0,0,0,37.5,28.575c.1-2.389.235-5.031-.634-7.158C34.191,14.885,31.076,8.531,28.02,2.161" transform="translate(20.586 1.287)"/>
    <path id="Path_65" data-name="Path 65" d="M285.429,15.9a10.728,10.728,0,0,0-2.194-2.093,2.252,2.252,0,0,0-3.727,1.38,9.974,9.974,0,0,0-.115,1.4c.424,6.505.741,11.985,1.157,17.459a10.965,10.965,0,0,0,2.368,6.179,6.162,6.162,0,0,0,6.469,2.459,5.577,5.577,0,0,0,4.491-5.171,18.365,18.365,0,0,0-.472-6.6c-1.568-5.541-4.649-10.362-7.977-15.006" transform="translate(254.069 12.055)"/>
    <path id="Path_66" data-name="Path 66" d="M286.035,117.3a39.7,39.7,0,0,0-8.014-16.8,2.464,2.464,0,0,0-4.367.514,8.074,8.074,0,0,0-.592,2.9c-.09,1.812-.025,3.634-.025,5.451.065,2.223-.036,4.451.088,6.668a17.54,17.54,0,0,0,2.816,9.152,5.192,5.192,0,0,0,5.268,2.284,5.311,5.311,0,0,0,4.46-3.609,11.249,11.249,0,0,0,.365-6.559" transform="translate(248.273 90.387)"/>
    <path id="Path_67" data-name="Path 67" d="M34.87,37.382a2.927,2.927,0,0,0-.8-.892,1.393,1.393,0,0,0-2.114.2,9.294,9.294,0,0,0-1.375,3.238,34.947,34.947,0,0,0-.055,5.085c.428,3.381.832,7.605,1.529,11.781.5,3.005,1.468,5.9,4.126,7.84,3.082,2.249,6.549,1.06,7.586-2.641a11.14,11.14,0,0,0-.309-5.967C41.691,49.3,38.393,43.292,34.87,37.382" transform="translate(27.698 32.833)"/>
    <path id="Path_68" data-name="Path 68" d="M233.376,49.191a14.348,14.348,0,0,0-2.3-2.8,1.855,1.855,0,0,0-1.638-.225,2.246,2.246,0,0,0-1.086,1.291,4.292,4.292,0,0,0-.019,1.787c.338,3.019.678,6.037,1.069,9.049.472,3.624.888,7.258,1.535,10.851a11.549,11.549,0,0,0,2.73,6.032,4.022,4.022,0,0,0,6.318-.4c1.384-1.906,1.732-4.077,2.108-6.456-.7-2.729-1.01-5.65-2.209-8.142a121.136,121.136,0,0,0-6.509-10.983" transform="translate(207.562 41.893)"/>
    <path id="Path_69" data-name="Path 69" d="M308.125,101.1a30.328,30.328,0,0,0-4.013-10.7c-1.781-3.154-3.561-6.309-5.428-9.411a1.811,1.811,0,0,0-1.527-.653,1.905,1.905,0,0,0-1.283,1.128,22.608,22.608,0,0,0-.391,3.315c.434,5.5.737,10.742,1.308,15.951a23.19,23.19,0,0,0,1.644,5.795,12.762,12.762,0,0,0,2.221,3.563,3.371,3.371,0,0,0,5.64-.311,12.044,12.044,0,0,0,1.831-8.672" transform="translate(268.703 73.044)"/>
    <path id="Path_70" data-name="Path 70" d="M69.8,39.232c-.609-1.054-2.419-.857-3.057.313a7.05,7.05,0,0,0-.947,2.784c-.137,2.215-.044,4.443-.044,6.668L65.225,49c.115,3.422.01,6.87.426,10.253a14.461,14.461,0,0,0,2.091,5.6c2.064,3.351,5.594,3.16,7.819-.174,1.44-2.158,1.554-4.577,1.415-7.007-.4-6.91-3.832-12.673-7.175-18.446" transform="translate(59.314 35.05)"/>
    <path id="Path_71" data-name="Path 71" d="M90.639,11.53C88.852,7.58,85.969,4.4,83.007,1.317A5.346,5.346,0,0,0,80.347.085a2.362,2.362,0,0,0-3.1,2.641c.126,1.619.4,3.225.432,3.5.214,3.574.174,5.835.521,8.035.563,3.58,2.2,6.5,5.749,8.044,2.011.876,3.935,1.056,5.772-.286a5.713,5.713,0,0,0,2.41-5.877,19.514,19.514,0,0,0-1.493-4.615" transform="translate(70.237 0.001)"/>
    <path id="Path_72" data-name="Path 72" d="M31.337,112.448a3.25,3.25,0,0,0-.376,1.142c.284,6.253.048,12.568,1.841,18.658a8.128,8.128,0,0,0,1.78,3.1,4.078,4.078,0,0,0,6.687-.792,22.307,22.307,0,0,0,1.375-4.008,38.784,38.784,0,0,0-7.821-18.825c-.874-1.169-2.963-.676-3.485.72" transform="translate(28.154 101.008)"/>
    <path id="Path_73" data-name="Path 73" d="M200.456,17.736c-.269,2.209-.4,4.435-.72,8.084a57.75,57.75,0,0,0,1.449,8.124c.892,2.956,3.34,4.235,5.528,3.635,1.879-.514,3.29-2.572,3.3-5.3.025-6.211-2.539-11.359-6.851-15.7a1.654,1.654,0,0,0-2.707,1.155" transform="translate(181.635 14.703)"/>
    <path id="Path_74" data-name="Path 74" d="M207.785,174.1c.989.174,1.793.246,2.557.46,5.843,1.638,9.05,5.761,10.589,11.391a2.23,2.23,0,0,1-1.142,2.564,2.047,2.047,0,0,1-2.707-.565,15.425,15.425,0,0,1-1.816-2.415c-2.043-3.049-4.206-5.961-7.825-7.326-.185-.071-.441-.168-.5-.319-.284-.7-.819-1.5-.676-2.121s.981-1.115,1.522-1.669" transform="translate(187.549 158.322)"/>
    <path id="Path_75" data-name="Path 75" d="M210.152,180.313A3.82,3.82,0,0,1,208,183.847c-1.123.647-2.406.951-3.42.1a3.84,3.84,0,0,1-1.333-2.507c-.031-1.568,1.142-2.505,2.58-3.024a3.2,3.2,0,0,1,3.422.462,5.786,5.786,0,0,1,.9,1.432" transform="translate(184.827 161.99)"/>
    <path id="Path_76" data-name="Path 76" d="M108.006,155.27a1.858,1.858,0,0,1,.9.021,17.4,17.4,0,0,1,7.511,5.785,1.951,1.951,0,0,1-.214,2.719,2.787,2.787,0,0,1-2.148.645,12.345,12.345,0,0,1-7.674-6.309,2.1,2.1,0,0,1,1.621-2.862" transform="translate(96.581 141.152)"/>
    <path id="Path_77" data-name="Path 77" d="M100.337,144.53a3.572,3.572,0,0,1-1.993,3.525,3.037,3.037,0,0,1-3.658-1.249c-.12-.158-.225-.33-.33-.5-1.081-1.738-1.136-3.278-.1-4.437a2.779,2.779,0,0,1,3.265-.76,3.924,3.924,0,0,1,2.813,3.422" transform="translate(85.036 128.114)"/>
    <path id="Path_78" data-name="Path 78" d="M111.35,148.561a12.57,12.57,0,0,1-.223-3.567,3.741,3.741,0,0,1,1.795-2.158c1.212-.647,2.331.034,3.137,1.046a6.051,6.051,0,0,1,.871,1.571,2.563,2.563,0,0,1-.827,3.24,4.714,4.714,0,0,1-2.729.59,7.089,7.089,0,0,1-2.2-.909Z" transform="translate(100.982 129.662)"/>
  </g>
</svg>
