<svg xmlns="http://www.w3.org/2000/svg" xmlns:xlink="http://www.w3.org/1999/xlink" width="469.913" height="475.979" viewBox="0 0 469.913 475.979">
  <defs>
    <clipPath id="clip-path">
      <rect id="Rectangle_415" data-name="Rectangle 415" width="469.913" height="219.843" fill="none"/>
    </clipPath>
    <clipPath id="clip-path-2">
      <rect id="Rectangle_416" data-name="Rectangle 416" width="409.251" height="300.479" fill="none"/>
    </clipPath>
  </defs>
  <g id="Group_473" data-name="Group 473" transform="translate(-1235 -236.5)">
    <g id="Group_462" data-name="Group 462" transform="translate(1235 236.5)">
      <g id="Group_461" data-name="Group 461" clip-path="url(#clip-path)">
        <path id="Path_1525" data-name="Path 1525" d="M236.764,53.161c-.716.36-1.4.665-2.051,1.037-19.843,11.392-39.648,22.849-59.532,34.171Q148.614,103.5,121.9,118.375q-39.846,22.163-78,47.117c-7.242,4.736-14.563,9.346-21.854,14.005-.484.309-1.014.547-1.527.811-1.172.595-2.294.548-3.032-.614a64.328,64.328,0,0,1-4.119-6.914c-1.341-2.823-.819-4.541,1.757-6.526,2.436-1.876,4.978-3.622,7.558-5.3C38.978,150.379,55.2,139.7,71.619,129.318Q105.5,107.881,139.627,86.83c24.873-15.377,50.523-29.388,76.4-42.993,5.442-2.86,10.773-5.938,16.1-9.013,1.611-.93,3.083-1.385,4.87-.556,12.385,5.74,24.738,11.571,36.212,19.015,14.035,9.1,28.156,18.1,41.845,27.7,36.684,25.743,73.53,51.235,111.188,75.543,9.523,6.149,18.673,12.882,27.93,19.438a38.949,38.949,0,0,1,5.128,4.624,3.312,3.312,0,0,1,.8,3.727,23.228,23.228,0,0,1-7.265,9.511c-1.12.9-2.2.356-3.188-.29-8.2-5.37-16.672-10.3-24.606-16.113-26.215-19.212-52.551-38.271-79.867-55.906-14.212-9.178-28.768-17.824-43.105-26.81Q278.114,79.7,254.282,64.493c-5.029-3.2-9.957-6.552-14.942-9.822-.791-.519-1.635-.962-2.576-1.511" transform="translate(9.553 25.539)" fill="#5d5bea"/>
        <path id="Path_1526" data-name="Path 1526" d="M0,63.834c.242-2.829.316-4.55.584-6.244a1.812,1.812,0,0,1,1.162-1.123A2.594,2.594,0,0,1,3.3,56.91a2.564,2.564,0,0,1,.756.844C9.388,65.307,14.146,73.153,16.85,82.1a17.321,17.321,0,0,1,.907,7.358c-.5,3.773-3.7,5.568-7.161,4.1A8.69,8.69,0,0,1,5.928,89.47a34.052,34.052,0,0,1-3.2-7.953C1.506,75.325.774,69.034,0,63.834" transform="translate(0 42.603)" fill="#5d5bea"/>
        <path id="Path_1527" data-name="Path 1527" d="M268.114,101.89a23.051,23.051,0,0,1-1.451,4.585,4.181,4.181,0,0,1-6.405,1.293,9.547,9.547,0,0,1-2.6-2.98A27.844,27.844,0,0,1,254.391,90.4c.284-6.1,1.07-12.185,1.671-18.273.033-.34.4-.955.509-.932.525.111,1.283.258,1.471.635a94.568,94.568,0,0,1,4.347,9.351c1.771,4.838,3.269,9.78,4.731,14.721a49.953,49.953,0,0,1,.995,5.982" transform="translate(191.994 53.742)" fill="#5d5bea"/>
        <path id="Path_1528" data-name="Path 1528" d="M94.626,60.964a18.86,18.86,0,0,1-.5,2.716,3.8,3.8,0,0,1-5.991,2.006,14.492,14.492,0,0,1-3.169-3.264c-2.65-3.808-4.638-7.916-4.845-12.677-.242-5.535-.5-11.071-.658-16.611-.018-.605.481-1.639.916-1.744a2.841,2.841,0,0,1,1.951.769,6.816,6.816,0,0,1,1.444,1.76A85.371,85.371,0,0,1,94.159,58.037c.242.916.3,1.879.467,2.927" transform="translate(59.981 23.675)" fill="#5d5bea"/>
        <path id="Path_1529" data-name="Path 1529" d="M263.2,41.572a29.926,29.926,0,0,1-.6,3.947c-.651,2.276-1.73,4.361-4.359,4.8-2.33.393-4-.949-5.394-2.608a17.916,17.916,0,0,1-3.48-7.156,33.508,33.508,0,0,1-1.035-5.045c-.5-4.931-.888-9.874-1.237-14.819a1.72,1.72,0,0,1,.855-1.311,2.285,2.285,0,0,1,1.534.209,2.226,2.226,0,0,1,.821.77c3.257,4.233,6.588,8.414,9.718,12.738,1.8,2.481,3.264,5.2,3.178,8.472" transform="translate(186.511 14.575)" fill="#5d5bea"/>
        <path id="Path_1530" data-name="Path 1530" d="M158.46,15.271c.649-5.043,1.256-9.809,1.9-14.57.037-.272.418-.719.6-.7a1.286,1.286,0,0,1,.9.577c1.423,2.939,2.76,5.917,4.187,8.853q2.269,4.664,4.659,9.272a12.015,12.015,0,0,1,1.249,7.821c-.623,3.515-4.022,5.142-6.956,3.118a14.779,14.779,0,0,1-3.864-4.166,19.769,19.769,0,0,1-2.671-10.206" transform="translate(119.607 0)" fill="#5d5bea"/>
        <path id="Path_1531" data-name="Path 1531" d="M70.01,41.216c-.014,3.318-1.5,5.935-3.8,6.363-2.9.54-4.752-1.207-6.033-3.432a14.68,14.68,0,0,1-1.972-5.277c-.644-5.1-.977-10.243-1.371-15.374A1.953,1.953,0,0,1,57.444,22a1.62,1.62,0,0,1,1.541-.067c5.565,4.877,10.12,10.39,10.936,18.139.04.379.061.76.089,1.141" transform="translate(42.898 16.433)" fill="#5d5bea"/>
        <path id="Path_1532" data-name="Path 1532" d="M207.929,11.057c0-2.111-.111-4.229.039-6.33.1-1.428-.488-3.153,1.228-4.136.618,1.169,1.244,2.33,1.851,3.5,1.235,2.383,2.525,4.743,3.669,7.17,1.306,2.773,2.615,5.557,3.648,8.435a14.189,14.189,0,0,1,.779,5.061c-.093,3.636-3.443,5.414-6.538,3.5a10.218,10.218,0,0,1-5.054-8.574c-.135-2.871-.028-5.754-.028-8.632h.405" transform="translate(156.61 0.446)" fill="#5d5bea"/>
        <path id="Path_1533" data-name="Path 1533" d="M183.715,40.262c.505-3.6,1-7.195,1.541-10.785a1.065,1.065,0,0,1,.712-.7,1.3,1.3,0,0,1,1.037.344,39.227,39.227,0,0,1,8.637,17.894,9.658,9.658,0,0,1-.068,3.418,4.027,4.027,0,0,1-5.185,3.185,8.028,8.028,0,0,1-5.068-4.35c-1.574-2.825-1.409-5.9-1.606-9.009" transform="translate(138.67 21.716)" fill="#5d5bea"/>
        <path id="Path_1534" data-name="Path 1534" d="M7.065,21.446c0-.191-.016-.384,0-.574.139-1.493.283-2.987.423-4.482,2.334-.5,3.408,1.379,4.736,2.623,3.792,3.553,5.547,8.141,6.314,13.163a13.738,13.738,0,0,1,.093,2.855c-.144,2.425-1.155,3.911-2.931,4.459a4.395,4.395,0,0,1-4.868-2.178A22.184,22.184,0,0,1,8.07,31.094,94.641,94.641,0,0,1,6.8,21.48l.267-.033" transform="translate(5.131 12.309)" fill="#5d5bea"/>
        <path id="Path_1535" data-name="Path 1535" d="M39.3,58.469c0-2.5-.019-5,.023-7.5a1.15,1.15,0,0,1,.525-.89,1.117,1.117,0,0,1,.976.3A37.755,37.755,0,0,1,48.564,64.4a10.121,10.121,0,0,1,.356,3.976,4.331,4.331,0,0,1-6.8,3.364,5.835,5.835,0,0,1-3.071-5.2c-.047-2.69-.012-5.38-.012-8.07h.26" transform="translate(29.455 37.779)" fill="#5d5bea"/>
        <path id="Path_1536" data-name="Path 1536" d="M105.037,16.352c.416-2.3.911-5.115,1.451-7.919a1.428,1.428,0,0,1,.6-.911c.16-.084.714.225.846.483a45.732,45.732,0,0,0,7.219,10.26,6.286,6.286,0,0,1,1.439,4.82c-.111,1.751-.619,3.443-2.439,4.224a4.408,4.408,0,0,1-4.791-.872,10.652,10.652,0,0,1-4.14-7.26c-.081-.756-.1-1.52-.188-2.825" transform="translate(79.283 5.667)" fill="#5d5bea"/>
        <path id="Path_1537" data-name="Path 1537" d="M208.673,48.2a17.357,17.357,0,0,1,.03-2.852c.226-1.337-.718-2.98.944-3.975a25.434,25.434,0,0,1,2.56,2.871,30.627,30.627,0,0,1,4.355,11.692,21.869,21.869,0,0,1,.153,5.106,2.757,2.757,0,0,1-2.055,2.488,3.248,3.248,0,0,1-3.61-1.034,5.032,5.032,0,0,1-1.179-1.923,53.357,53.357,0,0,1-1.339-6.67,49.849,49.849,0,0,1-.044-5.7Z" transform="translate(157.319 31.229)" fill="#5d5bea"/>
      </g>
    </g>
    <g id="Group_464" data-name="Group 464" transform="translate(1274.44 412)">
      <g id="Group_463" data-name="Group 463" clip-path="url(#clip-path-2)">
        <path id="Path_1538" data-name="Path 1538" d="M267.086,44.678c-.2-5.536-.023-11.036,2.3-16.227a30.211,30.211,0,0,1,13.323-14.877,17.43,17.43,0,0,1,6.509-2.14,1.742,1.742,0,0,1,2.1,1.729,13.965,13.965,0,0,1-.154,2.749,20.64,20.64,0,0,0,.087,6.52,44.263,44.263,0,0,0,3.324,11.2,27.685,27.685,0,0,0,8.454,10.734,73.678,73.678,0,0,0,11.358,7.175,44.628,44.628,0,0,0,10.449,3.426,5,5,0,0,0,2.667-.352,12.36,12.36,0,0,1,7.47-.027,12.674,12.674,0,0,1,2.521,1.09,16.221,16.221,0,0,1,7.785,12.029c.674,4.687-1.058,8.591-4.444,11.776-1.406,1.323-2.958,2.49-4.443,3.727a31.438,31.438,0,0,1,.946,5.376,70.821,70.821,0,0,1-.64,7.2c-.14,1.484-.287,2.97-.374,4.458a4.9,4.9,0,0,0,1.885,4.243c.531.44,1.053.892,1.582,1.334,5.658,4.728,7.211,10.951,6.54,17.979-.032.34-.175.668-.227,1.007-.1.647.354,1.026,1.057.861,1.23-.289,2.448-.628,3.68-.906a46.222,46.222,0,0,1,10.942-1.207,21.391,21.391,0,0,1,13.707,4.833q.8.656,1.637,1.254a.7.7,0,0,0,1.028-.51c.667-4.417-.386-8.233-4.015-11.074-1.446-1.132-3.017-2.1-4.5-3.191a8.551,8.551,0,0,1-3.721-7.392c.037-1.834.2-3.67.406-5.494a18.49,18.49,0,0,0-.3-6.505A14.847,14.847,0,0,0,361,87.05a25.206,25.206,0,0,1-2.271-2.114,13.392,13.392,0,0,1-3.7-8.346,13.933,13.933,0,0,1,.285-3.407c.138-.847.818-1.4,1.37-1.259a1.339,1.339,0,0,1,.976,1.267,5.107,5.107,0,0,1,.055.687,13.635,13.635,0,0,0,5.534,10.989,16.867,16.867,0,0,1,5.94,10.61,34.943,34.943,0,0,1,.255,6.183c.005,1.838-.131,3.676-.189,5.514a5.465,5.465,0,0,0,2.617,4.945c.953.643,1.971,1.2,2.881,1.892a35.6,35.6,0,0,1,3.962,3.3,12.772,12.772,0,0,1,3.47,8.781,8.62,8.62,0,0,1-1.941,5.421,1.159,1.159,0,0,0,.009,1.558c.143.179.266.375.411.554,6.026,7.454,8.993,16.211,10.808,25.449a123,123,0,0,1,1.96,20.577,259.434,259.434,0,0,1-1.075,28.941c-1.129,13.187-3.237,26.231-5.427,39.268-1.2,7.141-2.418,14.279-3.526,21.433-.44,2.837-.6,5.716-.9,8.574-.276,2.63-.546,5.26-.874,7.884a14.842,14.842,0,0,1-.613,2.684,1.918,1.918,0,0,1-2.138,1.343,1.809,1.809,0,0,1-1.387-1.761,25.409,25.409,0,0,1,.172-3.094q1.166-10.624,2.364-21.245c.109-.971-.225-1.263-1.2-.921-7.554,2.66-15.3,2.823-23.16,1.94a74.968,74.968,0,0,1-13.839-2.753,39.838,39.838,0,0,1-12.912-6.38c-1.159-.9-1.418-.8-1.689.735-.9,5.092-1.787,10.187-2.613,15.292s-1.105,10.284-2.734,15.245a21.709,21.709,0,0,0-.286,3.07,1.433,1.433,0,0,1-.8.982,1.345,1.345,0,0,1-1.177-.435,18.2,18.2,0,0,1-2.066-3.538c-1.239-3.216-2.352-6.483-3.443-9.753C309.048,262,303.79,246.917,297.527,232.2c-2.881-6.768-5.972-13.45-8.735-20.266-2.286-5.641-4.264-11.408-6.315-17.141-1.471-4.112-2.8-8.273-4.258-12.39a96.276,96.276,0,0,0-12.14-22.755,38.853,38.853,0,0,0-3.815-4.436,4.025,4.025,0,0,0-3.8-1.169,2.488,2.488,0,0,0-2.08,2.039,2.264,2.264,0,0,0,.389,1.583,76.894,76.894,0,0,0,4.879,6.682,31.075,31.075,0,0,1,7.24,15.036,11.276,11.276,0,0,0,1.953,4.345,43.128,43.128,0,0,1,3.051,5.379c.577,1.181.261,2.213-.462,2.408-.985.265-1.463-.483-1.947-1.092-3.074-3.871-6.092-7.787-9.193-11.637a63.089,63.089,0,0,0-9.05-9.455,21.032,21.032,0,0,0-10.768-5.079c-.228-.028-.452-.106-.68-.116-1.348-.064-3.164-.475-3.611,1.037-.416,1.407,1.277,2.222,2.327,3.068a1.98,1.98,0,0,0,.615.306c3.5,1.15,6.133,3.578,8.765,5.982,2.037,1.86,3.987,3.817,5.946,5.76q5.022,4.98,10,10a29.665,29.665,0,0,1,2.082,2.291,1.048,1.048,0,0,1,0,1.544,1.866,1.866,0,0,1-1.53.349,17.818,17.818,0,0,1-3.839-2.248c-2.291-1.915-4.459-3.98-6.619-6.045-3.075-2.94-6.075-5.958-9.152-8.9a28.525,28.525,0,0,0-3.7-3.093,12.884,12.884,0,0,0-3.7-1.748,6.522,6.522,0,0,0-3.027.1,1.641,1.641,0,0,0-1.027,2.676,14.745,14.745,0,0,0,2.131,2.226c2.413,2.131,4.818,4.275,7.31,6.311a35.087,35.087,0,0,1,7.853,9.087,12.737,12.737,0,0,0,3.884,4.3,7.406,7.406,0,0,1,1.921,2.354c.163.259-.055.878-.278,1.214a1.015,1.015,0,0,1-.925.263,19.289,19.289,0,0,1-2.512-1.1c-7-3.615-14.52-5.734-22.087-7.713a12.245,12.245,0,0,0-3.08-.3,5.806,5.806,0,0,0-2,.422,1.414,1.414,0,0,0-.588,2.466,12.72,12.72,0,0,0,2.787,1.984c1.645.809,3.387,1.421,5.09,2.112,3.087,1.252,6.2,2.436,9.259,3.764a15.982,15.982,0,0,1,9.039,9.872c.337.977.717,1.941,1.04,2.923A34.344,34.344,0,0,0,261.49,227.4a10.823,10.823,0,0,0,4.464,3.141c.54.194,1.074.41,1.6.652a7.446,7.446,0,0,1,3.751,3.837,79.627,79.627,0,0,1,5.506,17.387c1.778,8.549,3.31,17.149,4.919,25.732.572,3.05,1.036,6.12,1.6,9.171a5.67,5.67,0,0,1-.291,3.374,1.152,1.152,0,0,1-1.736.427,5.223,5.223,0,0,1-1.72-2.907c-.321-1.21-.705-2.4-1.061-3.6-1.462-.228-2.916-.558-4.387-.664-3.555-.258-7.12-.38-10.677-.614-4-.264-4.551-.963-3.988-4.938.676-4.779,1.381-9.554,2.059-14.333a2.083,2.083,0,0,0-.132-.663c-.209.075-.486.089-.615.234q-1.143,1.287-2.227,2.626a60.794,60.794,0,0,1-7.662,7.925,18.5,18.5,0,0,1-14.348,4.636c-1.717-.163-3.441-.316-5.135-.621a17.153,17.153,0,0,1-6.914-2.978,34.7,34.7,0,0,1-7.19-6.91,86.972,86.972,0,0,1-8.352-12.649c-.917-1.709-1.055-1.818-2.986-1.352-4.8,1.16-9.59,2.387-14.381,3.6a126.056,126.056,0,0,1-16.562,3.258c-1.65.189-1.881.4-2.046,2.168-.3,3.2-.48,6.421-.809,9.623-.693,6.745-1.449,13.485-2.182,20.226-.049.457-.1.915-.186,1.365a1.381,1.381,0,0,1-1.456,1.19,6.736,6.736,0,0,1-1.369-.092,1.406,1.406,0,0,1-1.288-1.387,17.336,17.336,0,0,1,.139-2.408q1.2-10.621,2.43-21.24c.314-2.741.569-5.491.98-8.217a20.6,20.6,0,0,1,1.091-3.963A1.664,1.664,0,0,1,172.2,257.2c2.471.542,4.789-.314,7.142-.7,6.813-1.117,13.468-2.951,20.14-4.689,3.778-.984,7.537-2.041,11.3-3.089.772-.215,1.519-.525,2.27-.811a3.768,3.768,0,0,0,.584-.351,4.056,4.056,0,0,0-.576-.3c-.215-.074-.457-.069-.675-.137-.822-.259-1.511-.717-1.459-1.667a2.089,2.089,0,0,1,1.421-1.8,8.8,8.8,0,0,1,1.633-.538,19.348,19.348,0,0,0,6.86-3.128c2-1.346,4.013-2.687,6.01-4.044A37.29,37.29,0,0,0,235.862,227a21.7,21.7,0,0,0,4.074-10.131,11.505,11.505,0,0,0-.657-5.081c-.257-.8-1.225-1.6-1.359-1.29a3.528,3.528,0,0,0-.3,1.587,16.446,16.446,0,0,1-2.775,10.132,57.709,57.709,0,0,1-7.513,9.857,27.848,27.848,0,0,1-9.6,6.6c-4.165,1.653-8.41,3.1-12.613,4.657a1.714,1.714,0,0,1-1.908-.289,1.49,1.49,0,0,1-.05-2.388,10.632,10.632,0,0,1,2.156-1.046c2.589-.953,5.181-1.9,7.795-2.78,9.027-3.046,15.081-9.4,19.552-17.518a10.771,10.771,0,0,0,1.372-6.977,1.2,1.2,0,0,0-1.8-.92,8.644,8.644,0,0,0-1.923,1.41,14.912,14.912,0,0,0-1.681,2.18,25.972,25.972,0,0,1-6.2,6.4c-7.7,5.723-16.167,9.68-25.724,11a74.541,74.541,0,0,1-14.809.165,9.018,9.018,0,0,1-2.023-.406,3.863,3.863,0,0,1-2.642-2.495,13.653,13.653,0,0,1,1.192-12.557,39.723,39.723,0,0,1,2.469-3.318c2.166-2.786,2.619-6.057,2.688-9.436a2.269,2.269,0,0,0-.173-.661,1.24,1.24,0,0,0-1.605-.877,11.914,11.914,0,0,0-2.595,1.626,28.6,28.6,0,0,0-3.044,3.284,93.509,93.509,0,0,1-14.608,14.114c-3.671,2.953-7.181,6.106-10.793,9.133a15.675,15.675,0,0,0-4.159,5.838,190.312,190.312,0,0,0-8.315,22.278c-3.116,10.223-6.089,20.489-9.069,30.752-.5,1.723-1.1,3.3-2.852,4.051a2.518,2.518,0,0,1-1.623.1c-.233-.073-.437-.828-.354-1.208a9.978,9.978,0,0,0-.524-5.077c-2.541-8.629-3.847-17.495-5.077-26.381-.487-3.523-1.241-7.01-1.9-10.508a.535.535,0,0,0-.98-.272c-.613.684-1.238,1.363-1.788,2.1-5.9,7.874-13.99,12.05-23.451,13.944a85.064,85.064,0,0,1-19.913,1.342c-3.329-.121-3.353-.1-2.27,3.093,2.772,8.166,5.573,16.321,9.491,24.034a7.952,7.952,0,0,1,1.036,4.3,1.184,1.184,0,0,1-1.749.977,6.8,6.8,0,0,1-2.95-3.272c-1.53-3.218-3.13-6.409-4.483-9.7-4.2-10.214-7.555-20.728-10.977-31.219-2.138-6.555-4.423-13.062-6.631-19.594a15.924,15.924,0,0,1-.743-2.645,1.257,1.257,0,0,1,1.842-1.161,8.293,8.293,0,0,1,2.081,2.215,43.689,43.689,0,0,1,2.757,5.931c2.148,5.944,4.166,11.935,6.234,17.908q.621,1.793,1.229,3.588a1.668,1.668,0,0,0,1.5,1.219c.343.038.688.066,1.032.08a90.569,90.569,0,0,0,21.98-1.35,40.55,40.55,0,0,0,10.1-3.405,27.259,27.259,0,0,0,9.193-7.136c.941-1.162,1.885-2.325,2.893-3.426a13.116,13.116,0,0,1,2.5-2.331,1.553,1.553,0,0,0,.751-2c-.8-3.471-1.552-6.954-2.327-10.431-.874-3.927-1.636-7.883-2.666-11.768-.883-3.326-2.089-6.566-3.128-9.852-1.317-4.163-2.541-8.358-3.936-12.494-1.064-3.156-2.2-6.3-3.538-9.347-2.445-5.579-5.046-11.09-7.613-16.616-.677-1.458-1.467-2.864-2.2-4.3a16.133,16.133,0,0,0-8.461-7.73,6.218,6.218,0,0,1-.944-.421c-4.613-2.913-9.6-2.768-14.666-1.742a41.773,41.773,0,0,0-9.976,3.76,25.561,25.561,0,0,0-11.885,12.484,53.773,53.773,0,0,0-2.073,5.108,179.689,179.689,0,0,0-8.719,33.657c-1.861,12.164-4.477,24.175-7.253,36.16-2.386,10.3-4.476,20.664-6.722,31a18.477,18.477,0,0,1-1.015,3.269,1.493,1.493,0,0,1-1.681.928,1.567,1.567,0,0,1-1.373-1.367,20.339,20.339,0,0,1,.1-4.442c.654-3.967,1.385-7.927,2.231-11.858,2.492-11.571,5.062-23.126,7.58-34.692.415-1.906.744-3.833,1.058-5.76a.889.889,0,0,0-.967-1.109A27.591,27.591,0,0,1,18.9,225.9a17.673,17.673,0,0,1-9.409-5.419c-2.551-2.816-3.8-6.084-2.839-9.838a7.263,7.263,0,0,0-1.206-6.188c-.382-.574-.747-1.16-1.114-1.744-5.345-8.489-5.575-17.294-1.589-26.339.6-1.364,1.333-2.674,2.047-3.987a10.244,10.244,0,0,0,1.15-7.319c-.658-3.03-1.162-6.093-1.782-9.132a26.2,26.2,0,0,1,1.272-13.909,53.549,53.549,0,0,1,5.017-10.191c1.889-3.156,3.74-6.337,5.667-9.471a20.232,20.232,0,0,0,2.648-7.767c1.247-8.3,2.577-16.58,3.819-24.877.85-5.683,1.629-11.377,2.4-17.071a104.331,104.331,0,0,1,8.977-29.59A52.833,52.833,0,0,1,44.7,27.122a1.024,1.024,0,0,0,0-1.725,5.809,5.809,0,0,1-1.084-1.324,1.852,1.852,0,0,1-.044-1.969,1.917,1.917,0,0,1,2.011-1.02,4.868,4.868,0,0,1,.988.3c.508.184.823-.05,1.188-.392,1.912-1.793,2.314-1.856,3.771-.068a1.421,1.421,0,0,0,2,.5,61.563,61.563,0,0,1,14.185-4.18,67.563,67.563,0,0,1,14.065-1.175,17.742,17.742,0,0,0,4.121-.18c4.268-.91,8.492-.425,12.684.307a74.156,74.156,0,0,1,16.437,5.062c9.125,3.909,15.022,10.773,18.468,19.886a86.1,86.1,0,0,1,4.063,15.664c.357,2.037.748,4.076.959,6.13a11.9,11.9,0,0,0,4.377,7.94,30.72,30.72,0,0,0,2.457,1.893c1.409,1,2.795,2.037,4.282,2.9,2.126,1.236,2.5,3.178.331,4.985-1.234,1.027-2.467,2.063-3.761,3.011s-2.656,1.785-3.988,2.671c-.173,1.59-.279,3.192-.533,4.769a81.781,81.781,0,0,1-4.1,16.355,24.689,24.689,0,0,1-12.424,13.747c-2.564,1.268-5.3,2.185-7.977,3.226a1.4,1.4,0,0,0-1.059,1.544c.55,5.494,1.109,11.007,3.1,16.2a29.192,29.192,0,0,0,3.058,5.369c1.195,1.825,2.6,3.51,3.846,5.3a25.411,25.411,0,0,1,4.574,13.189c.068,1.145.286,2.281.391,3.425a11.365,11.365,0,0,0,2.08,5.407,38.235,38.235,0,0,1,2.3,3.843,12.885,12.885,0,0,1,.983,10.353,4.137,4.137,0,0,0,.672,4.159c.961,1.287,1.75,2.7,2.65,4.035a45.986,45.986,0,0,1,7.414,21.276q.423,3.942.864,7.881a.6.6,0,0,0,1,.426c.093-.065.2-.12.283-.191,4.646-3.762,9.322-7.487,13.927-11.3a81.234,81.234,0,0,0,11.193-11.212,19.562,19.562,0,0,1,3.975-3.781c4.505-3.093,8.507-1.076,8.9,4.335a15.836,15.836,0,0,1-3.935,12.1,5.16,5.16,0,0,1-.449.524c-2.834,2.454-2.972,5.823-3.058,9.179-.036,1.421.585,1.939,2.145,2.088a54.661,54.661,0,0,0,37.841-9.987,16.39,16.39,0,0,0,3.231-3.064c1.678-2.038,3.513-3.953,5.365-5.838a6.589,6.589,0,0,1,5.22-2.247,5.844,5.844,0,0,0,2.618-.609c2.553-.975,4.444-.311,5.886,2.028a11.356,11.356,0,0,1,1.656,5.909c.046,3.677.038,7.355.064,11.032a17.438,17.438,0,0,1-5.408,12.661,40.333,40.333,0,0,1-13.215,9.216c-3.283,1.376-6.653,2.544-9.987,3.8a24.633,24.633,0,0,0-2.578.955,1.25,1.25,0,0,0-.466,1.1,6.137,6.137,0,0,0,.906,1.844q3.6,5.265,7.256,10.49a11.812,11.812,0,0,0,1.118,1.312c5.748,6.115,8.65,7.454,17.295,7.542a12.014,12.014,0,0,0,7.443-2.316A39.244,39.244,0,0,0,251.535,268c3.317-3.505,6.437-7.2,9.661-10.79a6.9,6.9,0,0,0,1.884-4.683,22.254,22.254,0,0,1,.272-3.091,21.947,21.947,0,0,0-.386-9.9,30.545,30.545,0,0,1-.822-5.441,4.166,4.166,0,0,0-1.344-2.679,39.533,39.533,0,0,1-10.535-16.756c-.205-.657-.457-1.3-.719-1.939a12.1,12.1,0,0,0-6.446-6.86c-3.374-1.459-6.8-2.788-10.2-4.191a54.408,54.408,0,0,1-5.369-2.331,13.88,13.88,0,0,1-3.518-2.718c-2.076-2.252-1.738-4.988.692-6.893a7.661,7.661,0,0,1,6.158-1.619,59.012,59.012,0,0,1,6.065,1.291c2.879.794,5.709,1.765,8.574,2.61.6.178,1.278.875,1.849.182.132-.16-.423-.988-.772-1.419a18.137,18.137,0,0,0-1.88-2.009c-3.067-2.781-6.174-5.517-9.234-8.307a35.044,35.044,0,0,1-3.146-3.187c-2.579-3.039-1.707-6.07,1.242-7.855a6.2,6.2,0,0,0,1.169-.7,1.257,1.257,0,0,0,.154-.886c-.017-.207-.233-.39-.321-.6-1.329-3.165.125-6.169,3.512-6.74a18.066,18.066,0,0,1,5.477.057,23.754,23.754,0,0,1,12,5.7c1.928,1.628,3.678,3.468,5.5,5.217.5.476.973.972,1.469,1.449a.535.535,0,0,0,.26.085c.08-.2.263-.475.19-.6a40.514,40.514,0,0,0-2.289-3.825c-2.084-2.886-4.259-5.706-6.4-8.553-1.326-1.767-1.939-3.636-.885-5.778a5.828,5.828,0,0,1,5.4-3.645,8.7,8.7,0,0,1,7.032,3.071c1.562,1.834,2.928,3.835,4.378,5.764.481.64.922,1.313,1.454,1.907a.851.851,0,0,0,.8-.126,10.407,10.407,0,0,0,.633-1.59c3.638-9.729,9.7-17.429,18.948-22.389,5.166-2.77,10.391-5.431,15.622-8.077,1.428-.723,2.98-1.2,4.465-1.814a.721.721,0,0,0,.389-1.107c-1.972-3.638-3.949-7.273-5.96-10.889-.116-.209-.541-.3-.834-.33-.1-.011-.316.315-.349.508a10.712,10.712,0,0,0,.168,5.119c.244.766.462,1.542.667,2.32a6.105,6.105,0,0,1-2,6.226c-.4.39-.986.782-1.528.314a1.465,1.465,0,0,1-.466-1.168,11.271,11.271,0,0,0-.561-6.436,11.733,11.733,0,0,1-.248-6.8,11.913,11.913,0,0,0,.313-2.378c.007-.208-.437-.644-.613-.614-2.263.379-4.522.792-6.762,1.284a1.649,1.649,0,0,0-.911.9c-1.4,3.166-2.075,6.358-.09,9.567a7.383,7.383,0,0,1,.453.929,8.431,8.431,0,0,1-1.953,10.067,3.277,3.277,0,0,1-.573.368.927.927,0,0,1-1.314-.644A3.6,3.6,0,0,1,290,133.57c.2-.777.44-1.547.711-2.3a6.711,6.711,0,0,0-.57-5.948,11.3,11.3,0,0,1-.653-10.289c.085-.214.186-.423.253-.642.284-.921.111-1.275-.705-1.6q-3.04-1.2-6.07-2.432c-.531-.217-.943-.075-1.084.432a22.7,22.7,0,0,1-3.069,6.149,6.576,6.576,0,0,0,.03,7.753c.5.77.959,1.571,1.4,2.375a7.738,7.738,0,0,1,.683,6.345c-.873,2.605-2.047,5.111-3.168,7.626a1.247,1.247,0,0,1-1.125.459,1.31,1.31,0,0,1-.776-.984,50.382,50.382,0,0,1,.71-5.085c.172-.893.637-1.725.881-2.609a5.3,5.3,0,0,0-.512-4.326c-.536-.884-1.068-1.772-1.581-2.671a9.62,9.62,0,0,1,.177-10.453c.48-.784,1.022-1.532,1.481-2.327.631-1.094,1.217-2.215,1.811-3.33a1.958,1.958,0,0,0-.429-2.736,20.473,20.473,0,0,1-2.341-2.526c-1.021-1.237-1.977-2.528-2.96-3.795-1.446,1.2-2.05,2.975-3.021,4.494a20.108,20.108,0,0,0-1.518,3.089,9.86,9.86,0,0,0-.13,7.4c.472,1.294,1.024,2.561,1.581,3.822a5.639,5.639,0,0,1-.723,5.863,17.807,17.807,0,0,1-1.96,2.4c-2.923,2.9-3.017,6.27-1.738,9.892.267.757.613,1.492.8,2.267a1.061,1.061,0,0,1-.432.858,1.551,1.551,0,0,1-.973.1,1.192,1.192,0,0,1-.576-.356,9.952,9.952,0,0,1-1.655-12.891,31.628,31.628,0,0,1,2.731-3.551,3.338,3.338,0,0,0,.54-4.117,29.494,29.494,0,0,1-1.21-2.856,12.924,12.924,0,0,1,.371-10.706c.639-1.344,1.4-2.632,2.145-3.922.518-.895,1.12-1.74,1.662-2.622a6.45,6.45,0,0,0,.515-6.758,57.932,57.932,0,0,1-4.446-13.745,2.833,2.833,0,0,0-1.584-2.1c-.911-.491-1.82-.992-2.689-1.551a26.95,26.95,0,0,1-3.106-2.165c-2.062-1.781-2.094-3.23-.248-5.247.232-.253.52-.455.754-.708.593-.642.548-1.064-.185-1.7a9.2,9.2,0,0,0-1.083-.85c-2.819-1.786-4.16-4.534-4.874-7.637a18.669,18.669,0,0,1-.5-4.1c-.012-6.151.8-12.157,3.526-17.77q1.206-2.481,2.488-4.925a35.382,35.382,0,0,1,8.115-10.627c3.572-3.074,7.03-6.3,10.742-9.19A50.329,50.329,0,0,1,300.694.77a71.533,71.533,0,0,1,34.329,3.3c3.362,1.176,6.736,2.345,10,3.752a64.039,64.039,0,0,1,7.962,4.094,36.033,36.033,0,0,1,15,17.088c1.991,4.768,3.7,9.657,5.482,14.51,1.19,3.235,2.27,6.511,3.447,9.751a22.959,22.959,0,0,0,10.651,12.641c1.6.9,3.168,1.878,4.68,2.923a40.9,40.9,0,0,1,3.795,2.974,10.351,10.351,0,0,1,3.675,7.9,95.859,95.859,0,0,1-.36,10.67c-.3,2.888.255,5.209,2.546,7.068a28.6,28.6,0,0,1,2.492,2.384,19.157,19.157,0,0,1,4.1,6.722,12.282,12.282,0,0,1-.4,9.4,4.057,4.057,0,0,1-.8,1.075.844.844,0,0,1-1.179-.269,3.916,3.916,0,0,1-.255-1.32,18.152,18.152,0,0,0-.716-5.795,14.726,14.726,0,0,0-4.162-7.416c-1-.951-2.009-1.892-2.991-2.862a9.407,9.407,0,0,1-2.774-7.85c.194-2.406.369-4.815.468-7.227.061-1.49-.029-2.988-.065-4.482a6.624,6.624,0,0,0-2.457-5.128c-1.412-1.172-2.906-2.253-4.424-3.287-1.328-.9-2.731-1.7-4.116-2.524a25.186,25.186,0,0,1-10.642-12.3c-1.148-2.756-2.16-5.571-3.17-8.382-1.438-4-2.815-8.025-4.226-12.037-.305-.867-.66-1.716-.972-2.581-3.554-9.866-10.361-16.69-19.8-20.975-8.194-3.721-16.644-6.747-25.609-7.908a63.828,63.828,0,0,0-26.983,1.93,42.61,42.61,0,0,0-15.4,8.267c-4.376,3.723-8.572,7.657-12.836,11.511a14.76,14.76,0,0,0-3.4,4.727c-2.016,4.26-4.221,8.453-4.99,13.175A43.27,43.27,0,0,0,256,54.929a14.109,14.109,0,0,0,3.044,7.2,5.345,5.345,0,0,0,2.289,1.372,1.388,1.388,0,0,0,1.236-.3,13.035,13.035,0,0,0,1.878-2.447,19.384,19.384,0,0,0,2.632-9.535c.016-2.184,0-4.368,0-6.551M221.7,244.448a6.419,6.419,0,0,0,1.337-.243,36.958,36.958,0,0,0,12.877-9,24.011,24.011,0,0,0,2.672-3.981c.139-.222,0-.618-.011-.933a2.454,2.454,0,0,0-.538.313,11.837,11.837,0,0,0-.916,1.023,39.5,39.5,0,0,1-9.5,8.4q-2.451,1.6-4.873,3.237c-.449.3-1.04.533-.995,1.248-.221,0-.443-.019-.662,0a1.038,1.038,0,0,0-.308.134c.153.088.349.282.45.242.184-.075.312-.289.464-.444m167.223-57.754c-.013-8.511-.144-17.014-1.626-25.432a64.659,64.659,0,0,0-5.5-17.713,37.5,37.5,0,0,0-7.908-10.789,17.111,17.111,0,0,0-11.852-4.819,53.78,53.78,0,0,0-7.2.563,34.835,34.835,0,0,0-18.919,8.446,36.227,36.227,0,0,1-2.982,2.329,9.443,9.443,0,0,0-3.564,4.938,13.327,13.327,0,0,1-1.278,3.17,57.193,57.193,0,0,1-4.142,5.5,22.559,22.559,0,0,1-9.009,6.19,11.416,11.416,0,0,1-15.664-13.33,18.946,18.946,0,0,1,2.928-6.575c.587-.851,1.234-1.66,1.827-2.507a1.63,1.63,0,0,0,.129-.6c-.2-.026-.447-.139-.605-.066a79.717,79.717,0,0,0-14.657,8.322,30.484,30.484,0,0,0-4.049,3.73c-4.49,4.9-7.488,10.712-10.04,16.783a2.195,2.195,0,0,0,.037,1.973c1.96,3.9,3.887,7.814,5.829,11.721.239.481.781.565,1.047.142a23.112,23.112,0,0,1,5.268-6.323,3.44,3.44,0,0,0,.927-1.763c.368-1.326.511-2.719.933-4.025a14.652,14.652,0,0,1,1.483-3.067,1.135,1.135,0,0,1,1.533-.361,2,2,0,0,1,.8,1.02,2.911,2.911,0,0,1,.05,1.36c-.346,2.155-.76,4.3-1.1,6.455a4.958,4.958,0,0,1-2.058,3.45c-2.62,1.86-4.084,4.617-5.692,7.269a4.276,4.276,0,0,0-.243,3.931q2.432,7,4.606,14.087a58.083,58.083,0,0,0,4.7,11.45c1.011,1.8,1.831,3.709,2.7,5.586a476.222,476.222,0,0,1,20.61,53.348c.673,2.076,1.387,4.139,2.1,6.2.056.162.267.272.4.406a2.256,2.256,0,0,0,.34-.58,23.132,23.132,0,0,0,.467-2.364c1.152-9.359,2.8-18.637,4.763-27.852,2.367-11.124,4.96-22.2,7.431-33.3.924-4.149,1.865-8.3,2.642-12.476s2.4-8.155,2.553-12.446a1.378,1.378,0,0,1,.11-.324,1.228,1.228,0,0,1,1.721-.59,3.406,3.406,0,0,1,1,.9,10.5,10.5,0,0,1,1.421,5.6,1.516,1.516,0,0,1-.581,1.153c-1.2.7-1.2,1.9-1.406,3-.455,2.368-.824,4.754-1.251,7.128-1.934,10.747-4.412,21.375-6.927,32-.979,4.136-1.808,8.307-2.674,12.469-.267,1.283-.166,1.523.768,1.987a80.285,80.285,0,0,0,13.622,5.784,78.092,78.092,0,0,0,21.786,2.988,36.138,36.138,0,0,0,13.195-2.2c3.962-1.557,3.212-.765,3.878-4.793,1.594-9.634,3.026-19.295,4.457-28.955a260.143,260.143,0,0,0,2.851-38.135M287.176,19.753V18.374a9.837,9.837,0,0,0-.032-1.71c-.038-.213-.5-.548-.684-.5a5.887,5.887,0,0,0-1.57.675c-8.2,4.865-12.767,12.074-13.522,21.559-.3,3.772-.13,7.581-.17,11.374-.075,7.115-2.392,13.276-7.707,18.171-.759.7-1.493,1.429-2.215,2.168a.793.793,0,0,0,.042,1.205,3.9,3.9,0,0,0,.816.628c1.486.874,2.972,1.747,4.476,2.589a4.313,4.313,0,0,1,2.217,2.9,35.274,35.274,0,0,0,1.39,3.889,1.377,1.377,0,0,0,1.621.966c1.579-.289,3.138-.69,4.715-1a19.725,19.725,0,0,1,3.389-.5,3.133,3.133,0,0,1,3.085,2.311,4.276,4.276,0,0,1-.651,4.24,15.089,15.089,0,0,1-2.17,2.206c-1.519,1.222-3.119,2.344-4.685,3.507a1.014,1.014,0,0,0-.34,1.483c1.523,2.431,2.967,4.919,4.623,7.257a18.328,18.328,0,0,0,9.5,6.541,12.317,12.317,0,0,0,6.464.444c2.815-.565,5.645-1.025,8.193-2.491a1.686,1.686,0,0,1,2.44.457,10.178,10.178,0,0,1,1.031,1.376,97.806,97.806,0,0,1,7.419,13.606c.41.946.711,1.94,1.046,2.917a6.856,6.856,0,0,1-1.614,7.313c-1.089,1.183-2.281,2.274-3.343,3.48-1.667,1.9-3.348,3.789-4.864,5.8a14.585,14.585,0,0,0-2.449,5.647c-1.093,4.82,3.118,10.326,9.272,8.189,5.751-2,10.223-5.669,12.655-11.422a18.928,18.928,0,0,1,4.322-6.576c3.422-3.23,6.705-6.671,11.03-8.732a3.1,3.1,0,0,0,1.891-3.314c-.1-2.3-.2-4.6-.432-6.881a12.8,12.8,0,0,0-4.227-8.436q-1.274-1.16-2.623-2.237a8.579,8.579,0,0,1-3.361-7.221c.024-1.375.122-2.753.265-4.121.179-1.714.507-3.414.64-5.13a18.749,18.749,0,0,0-.11-3.422,4.763,4.763,0,0,0-2.393-3.948,33.4,33.4,0,0,1-2.993-2.312,13.975,13.975,0,0,1-4.941-6.5c-1.887-5.135-3.153-10.353-1.341-15.814.25-.754-.225-1.043-.793-1.225-.656-.209-1.33-.362-2-.518-1.048-.242-1.31-.144-1.448.821a22.129,22.129,0,0,1-2.126,6.166c-.533,1.146-1.018,2.317-1.6,3.436a8.424,8.424,0,0,0,.61,9.418c1.261,1.782,2.526,3.562,3.744,5.373a53.652,53.652,0,0,1,2.947,4.648,11.5,11.5,0,0,1,.768,9.348,32.085,32.085,0,0,0-1.088,3.63,48.653,48.653,0,0,0-.83,5.43,5.348,5.348,0,0,0,3.6,5.986,29.02,29.02,0,0,1,3.087,1.529,6.075,6.075,0,0,1,3.427,5.9c-.081,3.111-.171,6.213-1.588,9.085a7.1,7.1,0,0,0-.339,5.357,16.193,16.193,0,0,1,.505,3.392,1.1,1.1,0,0,1-1.706.958,6.286,6.286,0,0,1-3.284-4.6,13.46,13.46,0,0,1,.591-8.125c.585-1.5,1.247-2.972,1.714-4.506.709-2.333.241-3.293-1.987-4.438-1.022-.524-2.094-.948-3.124-1.457a8.38,8.38,0,0,1-5.019-7.641,20.719,20.719,0,0,1,.718-7.165c.484-1.533.91-3.092,1.513-4.578a7.054,7.054,0,0,0-.407-6.308c-.877-1.607-1.929-3.122-2.955-4.643-1.285-1.9-2.663-3.746-3.928-5.662a11.5,11.5,0,0,1-.91-11.8c.767-1.67,1.57-3.325,2.314-5.005.6-1.364,1.226-2.729,1.694-4.141.633-1.91.493-1.961-1.187-2.969C308.55,52.533,304.8,50.484,301.367,48c-9.58-6.923-13.312-16.9-14.191-28.249M94.325,105.4h-.163c0,7.243-.056,14.486.027,21.728.034,2.984.347,5.966.571,8.946.086,1.14.288,1.306,1.445,1.6.335.083.672.158,1.011.219,1.871.337,2.1.153,2.306-1.888.047-.457.048-.92.11-1.375.328-2.389.62-4.785,1.022-7.162a4.712,4.712,0,0,1,3.077-3.852c.64-.244,1.329-.359,1.994-.54,3.545-.966,7.137-1.79,10.618-2.949a49.316,49.316,0,0,0,7.563-3.3,20.222,20.222,0,0,0,9.217-10.36,72.294,72.294,0,0,0,3.292-11.591.674.674,0,0,0-.693-.911,24.41,24.41,0,0,1-3.1.008,27.827,27.827,0,0,1-3.971-.978c-.209-.063-.419-.582-.387-.862a1.029,1.029,0,0,1,.576-.752c.662-.147,1.366-.088,2.041-.19,1.7-.257,3.4-.5,5.074-.86a2.106,2.106,0,0,0,1.75-1.889c.095-.682.318-1.348.386-2.031a4.737,4.737,0,0,1,1.818-3.216,26.651,26.651,0,0,1,2.2-1.651c.854-.584,1.76-1.089,2.613-1.674,1.576-1.081,1.584-1.356.146-2.406-.558-.406-1.113-.817-1.694-1.188a19.678,19.678,0,0,1-7.693-9.049,24.152,24.152,0,0,1-1.435-6,120.745,120.745,0,0,0-3.816-16.79,34.877,34.877,0,0,0-6.355-11.756,20.994,20.994,0,0,0-5.094-4.606c-.628-.4-1.079-.285-1.382.342-2.753,5.687-5.433,11.393-7.679,17.318A206.931,206.931,0,0,1,96.262,74.8a13.737,13.737,0,0,0-1.957,7.154c.055,7.818.02,15.636.02,23.455m49.424,121.511c-.448-3.239-.945-6.416-1.318-9.609a41.017,41.017,0,0,0-6.32-17.326A102.38,102.38,0,0,0,121.994,182.2c-4.48-4.488-9.481-8.355-14.29-12.452-.236-.2-.834-.393-.893-.314a2.116,2.116,0,0,0-.464,1.143c-.022,1.723.074,3.447.046,5.17a1.87,1.87,0,0,0,1.4,2.055,27.434,27.434,0,0,1,4.421,1.907c6.048,3.479,9.942,8.478,10.392,15.652a74.627,74.627,0,0,1-.1,7.912,21.392,21.392,0,0,1-6.138,14.579,5.02,5.02,0,0,0-.943,1,2.692,2.692,0,0,0-.441,1.549c.716,3.835,1.437,7.672,2.3,11.475,2.987,13.109,5.512,26.3,7.253,39.637.414,3.176,1.275,6.294,1.952,9.435.029.133.258.242.417.314.044.02.211-.115.246-.208.243-.642.5-1.283.689-1.941,4.179-14.215,8.191-28.485,14.119-42.115a4.11,4.11,0,0,0,.475-1.978c-.19-1.552.366-2.949.639-4.406.233-1.236.449-2.475.669-3.7m131.371,53.31a6.307,6.307,0,0,0,1.368.174c1.234.036,1.466-.191,1.323-1.319-.114-.911-.219-1.824-.394-2.724-1.333-6.862-2.64-13.729-4.038-20.578a158.363,158.363,0,0,0-5-18.226,4.456,4.456,0,0,0-2.246-2.872c-.178-.087-.494-.169-.586-.082a.748.748,0,0,0-.171.62c.506,2,1.016,4,1.579,5.979a13.309,13.309,0,0,1,.6,4.739,161.008,161.008,0,0,1-2.081,16.019c-.979,5.413-1.864,10.843-2.774,16.268-.147.875.2,1.3,1.084,1.356,3.776.228,7.552.433,11.329.646M324.46,64.011c.042.495.1,1.526.236,2.548a1.172,1.172,0,0,0,.458.824c.2.1.639-.08.854-.27,1.63-1.442,3.176-2.986,4.864-4.355a9.874,9.874,0,0,1,2.992-1.638,2.551,2.551,0,0,1,3.286,2.813c-.051.537-.649,1.142-1.145,1.067-.445-.067-.864-.3-1.31-.383-1.057-.194-1.7.533-2.316,1.188-.463.492-.158,1.031.1,1.571a3.569,3.569,0,0,1-.81,4.392,1.476,1.476,0,0,1-1.23.335,1.5,1.5,0,0,1-.721-1,7.958,7.958,0,0,1,.048-1.353.709.709,0,0,0-.392-.491.668.668,0,0,0-.6.1c-.535.591-1.026,1.222-1.521,1.848a2.812,2.812,0,0,0-.053,3.5,13.287,13.287,0,0,0,4.985,4.627,2.148,2.148,0,0,0,2.281-.075,16.125,16.125,0,0,0,4.523-3.662,9.464,9.464,0,0,0,1.792-9.667,14.81,14.81,0,0,0-1.5-3.084c-2.5-3.994-5.98-5.5-10.567-4.638-3.788.709-4.328,1.377-4.246,5.8M76.805,90.758c-.056-2.067-.022-4.133-.07-6.2-.023-1.033-.746-1.941-1.237-1.732-.648.277-.615.9-.71,1.448-.04.225-.031.46-.079.683-.2.941-.69,1.47-1.228,1.336-.832-.208-.964-.909-1.034-1.6a7.292,7.292,0,0,1,.52-4.043,1.529,1.529,0,0,0-.318-1.875c-.866-.95-1.753-1.765-3.232-1.624-.374.036-.974-.556-1.191-1a1.521,1.521,0,0,1,.6-1.821,2.565,2.565,0,0,1,1.253-.485,3.806,3.806,0,0,1,3.167,1.054c1.01.927,1.89,1.994,2.861,2.966a2.848,2.848,0,0,0,.86.406,4.082,4.082,0,0,0,.35-.878c.173-1.133.288-2.275.447-3.411a4.094,4.094,0,0,0-3.624-4.869,5.606,5.606,0,0,0-6.057,3.051C65.7,76.571,64.8,81.3,66.631,86.1a24.315,24.315,0,0,0,7.236,9.914,13.745,13.745,0,0,0,1.707,1.156c.59.36,1.216.078,1.223-.557.021-1.95.008-3.9.008-5.852m202.333-6.74-4.922,1.115c-2.5.567-2.567.69-1.671,3.181a3.966,3.966,0,0,0,.5,1.249c.237.274.841.578,1.068.459a16.537,16.537,0,0,0,5.656-4.772,1.187,1.187,0,0,0-.02-.907c-.05-.147-.368-.2-.613-.325M97.076,141.253c-1.191-.076-1.718.338-1.545,1.116.448,2,.976,3.984,1.484,5.971a.387.387,0,0,0,.238.233,2.085,2.085,0,0,0,.563.048c.332-2.134.659-4.27.913-6.413.026-.218-.343-.588-.61-.709a4.125,4.125,0,0,0-1.043-.246M215.311,246.834l.271.13.045-.165Z"/>
        <path id="Path_1539" data-name="Path 1539" d="M387.348,90.631c-.118,1.373-.248,2.746-.351,4.12-.085,1.146-.189,2.293-.2,3.44a8.775,8.775,0,0,0,2.84,6.79c1.264,1.17,2.643,2.218,3.881,3.413a31.367,31.367,0,0,1,4,4.245,7.347,7.347,0,0,1-.454,9.257,3.73,3.73,0,0,1-.475.5c-.446.381-.931.735-1.541.4a.987.987,0,0,1-.4-1.46c1.822-3.362.44-5.98-1.969-8.3a43.5,43.5,0,0,0-3.937-3.349c-4.97-3.765-6.816-8.737-6.021-14.853a43.072,43.072,0,0,0,.313-6.189,10.7,10.7,0,0,0-5.137-9.238c-1.344-.875-2.8-1.585-4.2-2.359-1.509-.83-3.1-1.539-4.524-2.49a12.563,12.563,0,0,1-5.728-9.4,9.064,9.064,0,0,1,.267-3.048,1.893,1.893,0,0,1,1.107-1.121c.6-.2,1.064.324,1.27.888a11.6,11.6,0,0,1,.542,1.986,11.107,11.107,0,0,0,6.746,8.561c1.042.484,2.106.928,3.118,1.469a40.547,40.547,0,0,1,4.177,2.4,14.774,14.774,0,0,1,6.585,11.918c.041.8.005,1.609.005,2.414l.084,0"/>
        <path id="Path_1540" data-name="Path 1540" d="M283.072,39.994a18.878,18.878,0,0,1,10.954,3.528,4,4,0,0,1,.732.705c.329.373.032,1.374-.439,1.421a5.9,5.9,0,0,1-1.694.011c-1.459-.287-2.915-.609-4.345-1.015a18.326,18.326,0,0,0-10.17-.077,6.18,6.18,0,0,1-2,.376,2.205,2.205,0,0,1-1.4-.768,1.293,1.293,0,0,1,.326-1.835,10.113,10.113,0,0,1,2.3-1.431,8.548,8.548,0,0,1,2.31-.638c1.131-.161,2.28-.191,3.421-.277"/>
        <path id="Path_1541" data-name="Path 1541" d="M283.579,56.263a1.978,1.978,0,0,1-2.474,1.945,4.764,4.764,0,0,1-2.762-4.608,1.914,1.914,0,0,1,2.862-1.326,6.037,6.037,0,0,1,2.374,3.989"/>
        <path id="Path_1542" data-name="Path 1542" d="M126.647,49.125a3.483,3.483,0,0,1,3.41,4.856,2.04,2.04,0,0,1-1.889,1.267c-3.38-.063-6.168,1.543-9.012,3.045-1.619.854-3.275,1.644-4.953,2.372a1.6,1.6,0,0,1-1.255-.224,1.2,1.2,0,0,1-.355-1.541,4.1,4.1,0,0,1,.854-1.454c3.306-3.221,6.862-6.1,11.265-7.718.745-.275,1.518-.474,1.935-.6"/>
        <path id="Path_1543" data-name="Path 1543" d="M128.953,72.13a6.1,6.1,0,0,1-1.167.821,1.459,1.459,0,0,1-.992-.128q-3.154-1.323-6.284-2.705a.9.9,0,0,1-.463-.48,1.407,1.407,0,0,1-.064-.932,1.521,1.521,0,0,1,.775-.582,1.228,1.228,0,0,1,.667.064c.663.152,1.441.6,1.942.391.373-.159.391-1.167.554-1.8a1.864,1.864,0,0,1,1.572-1.6,2.1,2.1,0,0,1,1.977,1.133c1.16,1.68,1.052,3.693,1.483,5.817"/>
        <path id="Path_1544" data-name="Path 1544" d="M204.708,160.4q9.138.089,18.276.178c3.563.037,7.126.075,10.689.137a14.445,14.445,0,0,1,2.387.228c.187.034.488.6.415.713a12.087,12.087,0,0,1-1.623,2.2,2.61,2.61,0,0,1-1.522.626,34.186,34.186,0,0,1-3.788.1c-13.217-.306-26.432-.766-39.65-.888-6.657-.062-13.319.477-19.979.75-2.181.089-4.362.2-6.543.289-1.493.063-1.487.06-1.941,1.393-1.074,3.154-2.168,6.3-3.224,9.461-.286.853.035,1.345.9,1.438a48.439,48.439,0,0,0,6.844.351c4.707-.159,9.425-.033,14.137.068,4.6.1,9.19.314,13.786.473a126.552,126.552,0,0,0,17.193-1.052c4.457-.453,8.923-.81,13.386-1.193,2.176-.187,4.352-.375,6.532-.476a2.318,2.318,0,0,1,1.544.489,19.42,19.42,0,0,1,2.516,2.807,4.207,4.207,0,0,1,.883,2.179c.075,3.56.022,7.121-.018,10.682a.865.865,0,0,1-1.265.682c-.416-.19-.82-.411-1.22-.635a2.743,2.743,0,0,1-1.543-2.816c.206-2.864.322-5.733.49-8.6.057-.969-.2-1.263-1.155-1.2-7.68.542-15.347,1.18-22.973,2.3-8.226,1.206-16.5,1-24.78.61-5.74-.267-11.492-.26-17.238-.369a4.907,4.907,0,0,0-1.027.086.858.858,0,0,0-.76.966c.192,1.595.439,3.185.677,4.775.8,5.341,1.637,10.675,2.391,16.022.321,2.274.522,4.569.667,6.862a6.217,6.217,0,0,1-.4,2.333,1.313,1.313,0,0,1-2.254.209,10.392,10.392,0,0,1-1.043-2.872c-.377-1.915-.578-3.863-.887-5.791q-1.663-10.38-3.352-20.755c-.073-.453-.125-.912-.23-1.359a1.285,1.285,0,0,0-1.194-1.057c-.914-.089-1.846-.048-2.747-.2a2.545,2.545,0,0,1-2.252-3.237,1.875,1.875,0,0,1,.058-.339c1.514-4.333,2.717-8.778,4.9-12.86a5.316,5.316,0,0,1,4.614-3.08c4.356-.312,8.7-.862,13.057-1.053a243,243,0,0,1,28.264.424"/>
        <path id="Path_1545" data-name="Path 1545" d="M234.9,204.286c-.094,1.383-.124,2.533-.269,3.669a4.4,4.4,0,0,1-.562,1.589,1.508,1.508,0,0,1-1.773.73,2.814,2.814,0,0,1-1.3-.985,2.1,2.1,0,0,1-.33-1.3q.238-3.946.583-7.886c.045-.524.436-.764.979-.606.33.1.655.211.979.327,2.009.713,2.072.808,1.871,2.991-.052.571-.134,1.139-.174,1.471"/>
        <path id="Path_1546" data-name="Path 1546" d="M238.8,170.184a14.676,14.676,0,0,1-1.838-.377c-.253-.082-.412-.451-.614-.69.252-.1.538-.334.748-.279a21.062,21.062,0,0,1,2.2.752,2.271,2.271,0,0,1,.506.378c-.185.072-.366.157-.556.211a2.064,2.064,0,0,1-.442.005"/>
        <path id="Path_1547" data-name="Path 1547" d="M218.835,114.454a33.4,33.4,0,0,0-2.16-14.365,10.834,10.834,0,0,0-.945-1.58,13.038,13.038,0,0,0-1.244,1.336,14.226,14.226,0,0,0-2.4,10.666,32.446,32.446,0,0,0,1.3,5.169,10.451,10.451,0,0,0,2.978,4.775,2.5,2.5,0,0,1,.686,3.122,17.636,17.636,0,0,1-1.575,3.059c-1.952,2.767-4.011,5.46-6.009,8.195-1.726,2.362-3.445,4.729-5.129,7.121-.621.883-1.21,1.238-1.968.974a1.561,1.561,0,0,1-.908-1.986c.281-1.408.686-2.791.96-4.2a42.089,42.089,0,0,0-2.2-24.213A50.447,50.447,0,0,0,192.376,100a8.119,8.119,0,0,0-.589-.628c-.367-.369-.708-.295-1.024.074-.112.131-.229.26-.331.4a38.329,38.329,0,0,0-6.775,14.22,25.167,25.167,0,0,0,1.592,15.69,52.956,52.956,0,0,0,9.634,14.828,19.427,19.427,0,0,0,1.658,1.5c1.172,1.03,1.445,2.111.448,3.314-2.275,2.746-2.466,5.827-1.856,9.122a3.793,3.793,0,0,1,.035,1.525,1.2,1.2,0,0,1-2.2.565,5.129,5.129,0,0,1-.994-1.977,11.782,11.782,0,0,1,1.2-9.473,1.3,1.3,0,0,0-.2-1.9,58.045,58.045,0,0,1-9.914-15.066,29.286,29.286,0,0,1,.106-25.672,43.8,43.8,0,0,1,5.258-8.685,8.583,8.583,0,0,1,1.163-1.266,2.539,2.539,0,0,1,3.329-.133,6.067,6.067,0,0,1,1.154,1.032c4.741,5.64,8.777,11.685,10.53,18.972a51.281,51.281,0,0,1,1.334,16.6,3.987,3.987,0,0,0,.048.66,2.31,2.31,0,0,0,.553-.349,58.67,58.67,0,0,0,6.978-9.187c.763-1.322.737-1.328-.27-2.514a18,18,0,0,1-3.695-8.436,19.114,19.114,0,0,1,4.8-17.26c1.478-1.656,2.624-1.548,3.752.4a29.406,29.406,0,0,1,3.48,11.3c.316,2.558.306,5.157.45,7.737a4.266,4.266,0,0,0,.128.632,2.566,2.566,0,0,0,.589-.291c2.357-2.032,5.152-2.43,8.1-2.106,2.341.258,4.676.595,7,.978,2.121.35,2.871,1.52,2.252,3.574a20.275,20.275,0,0,1-4.386,7.939c-3.365,3.682-7.5,4.674-12.247,3.3-1.316-.381-1.23-.347-1.9.776-1.295,2.166-2.692,4.27-4.042,6.4-.12.19-.2.4-.305.6a3.365,3.365,0,0,0,.8-.019c2.551-.67,5.062-1.574,7.653-1.993,4.338-.7,8.721-.27,13.072.125a2.262,2.262,0,0,1,2.089,3.094,14.08,14.08,0,0,1-1.74,3.913c-4.433,6.6-10.265,11.264-18.282,12.762-2.372.444-4.748.869-7.118,1.326a17.787,17.787,0,0,1-6.349.118,2.187,2.187,0,0,0-2.578,1.161c-.336.6-.714,1.177-1.066,1.769a12,12,0,0,1-.6,1.042c-.362.487-.9.9-1.469.6a2.086,2.086,0,0,1-1.019-1.23,3.16,3.16,0,0,1,.245-2,27.565,27.565,0,0,1,2.7-3.968,3.206,3.206,0,0,1,1.838-.737,5.692,5.692,0,0,1,1.887.077,22.17,22.17,0,0,0,8.048-.384c2.311-.453,4.667-.744,6.93-1.368,6.488-1.79,11.194-5.9,14.6-11.606a7.518,7.518,0,0,0,.442-.934c.184-.434-.031-.641-.441-.716-.112-.021-.227-.03-.342-.04-7.351-.645-14.439.156-21.15,3.513-3.574,1.788-7.07,3.631-9.7,6.725a36.8,36.8,0,0,0-2.167,3.083c-.129.188-.2.414-.315.613-.569.982-1.093,1.319-1.726,1.047a1.533,1.533,0,0,1-.824-1.892,8.272,8.272,0,0,1,.913-2.564,13.59,13.59,0,0,1,2.042-2.546c2.145-2.164,4.309-4.312,6.537-6.389a42.357,42.357,0,0,0,9.1-11.836,11.913,11.913,0,0,1,.6-1.046c.872-1.361,1.03-1.251,2.648-.83a26.125,26.125,0,0,0,5.586.831,6.4,6.4,0,0,0,4.361-1.836,16.864,16.864,0,0,0,4.445-6.884c.186-.477.117-.777-.439-.849a36.636,36.636,0,0,0-8.579-.592,6.175,6.175,0,0,0-4,2.182c-.535.6-.982,1.279-1.532,1.863a2.4,2.4,0,0,1-1.1.727c-1.718.391-2.329-.1-2.37-1.9-.04-1.721-.009-3.444-.009-5.166" fill="#5d5bea"/>
        <path id="Path_1548" data-name="Path 1548" d="M225.553,107.016c-.086-.418-.233-1.138-.381-1.857-.564-2.751-1.237-5.485-1.662-8.257a16.217,16.217,0,0,1,.775-7.814,9.96,9.96,0,0,1,1.41-2.734,4.114,4.114,0,0,1,6.337-.526,7.764,7.764,0,0,1,2.346,5.217c.089.851.106,1.71.156,2.565.756-.373,1.509-.751,2.267-1.119a9.575,9.575,0,0,1,6.169-1.035,6.688,6.688,0,0,1,2.224.856,3.343,3.343,0,0,1,.951,5.072,11.614,11.614,0,0,1-3.1,2.672c-2.17,1.284-4.444,2.4-6.72,3.491-3.007,1.443-6.048,2.8-8.426,5.256a1.4,1.4,0,0,1-1.7.459c-.814-.4-.889-1.124-.644-2.246" fill="#5d5bea"/>
      </g>
    </g>
  </g>
</svg>
