<svg id="Group_468" data-name="Group 468" xmlns="http://www.w3.org/2000/svg" xmlns:xlink="http://www.w3.org/1999/xlink" width="181.193" height="156.59" viewBox="0 0 181.193 156.59">
  <defs>
    <clipPath id="clip-path">
      <rect id="Rectangle_418" data-name="Rectangle 418" width="181.193" height="156.59" fill="none"/>
    </clipPath>
  </defs>
  <g id="Group_467" data-name="Group 467" clip-path="url(#clip-path)">
    <path id="Path_1557" data-name="Path 1557" d="M151.592,46.384c-.207.908-.452,1.806-.726,2.693a16.258,16.258,0,0,1-2.078,3.91,21.735,21.735,0,0,1-3.313,4.08,26.1,26.1,0,0,1-5.257,3.728,39.69,39.69,0,0,1-10.2,3.909c-1.458.35-2.951.578-4.435.8-1.176.178-2.365.275-3.55.389-.572.055-1.147.063-1.72.1a5.6,5.6,0,0,0-.559.094h-4.04a1.346,1.346,0,0,0-.3-.09c-.717-.041-1.438-.046-2.154-.117-1.079-.107-2.162-.206-3.226-.406-1.391-.261-2.779-.559-4.14-.942a21.821,21.821,0,0,1-8.063-4.157A21.382,21.382,0,0,1,93.4,55.242a30.125,30.125,0,0,1-2.96-6.034,5.949,5.949,0,0,0,.924-.166,3.744,3.744,0,0,0,1.37-.629,1.768,1.768,0,0,0,.73-1.1c.14-.977-.861-1.448-1.637-1.67-.581-.167-1.169-.315-1.753-.471-.261-.07-.522-.138-.783-.21-.214-1.074-.417-2.15-.576-3.233-.069-.471-.124-.944-.164-1.417a2.35,2.35,0,0,1,1-.423c.607-.133,1.22-.236,1.831-.353l1.9-.365,3.759-.724c.6-.116,1.209-.209,1.8-.369a3.135,3.135,0,0,0,1.394-.73,1.745,1.745,0,0,0,.56-1.235,1.336,1.336,0,0,0-.591-1.074.966.966,0,0,0-.176-.09,4.7,4.7,0,0,0,2.007-1.2,1.485,1.485,0,0,0,.519-1.14,1.389,1.389,0,0,0-.633-.972,2.91,2.91,0,0,0-1.264-.407,1.361,1.361,0,0,0,.555-1.015,1.7,1.7,0,0,0-.66-1.394,3.391,3.391,0,0,0-1.731-.682c-.71-.1-1.435-.16-2.152-.2a10,10,0,0,0-2.149.085,1.353,1.353,0,0,0,.231-1.285,1.948,1.948,0,0,0-1.541-1.17,8.617,8.617,0,0,0-2.428.081,22.7,22.7,0,0,1,2.453-4.943,21.029,21.029,0,0,1,5.527-5.678,6.214,6.214,0,0,1,5.18-1.124.51.51,0,0,1,.306.2,5.668,5.668,0,0,1,.661,1.256q1.8,5.821,4.02,11.5c.928,2.377,1.81,4.776,2.842,7.107.945,2.137,2.057,4.2,3.107,6.289.246.488.376.537.918.435.671-.125,1.346-.246,2.006-.418,2.539-.663,5.061-1.384,7.607-2.011,2.851-.7,5.716-1.349,8.584-1.977l.157-.034c.947.279,1.926.468,2.884.655a18.713,18.713,0,0,1,5.494,1.671,17.94,17.94,0,0,1,2.514,1.716c.8.636,1.587,1.3,2.369,1.958a29.19,29.19,0,0,1,4.184,4.13" transform="translate(-21.228 -3.298)"/>
    <path id="Path_1558" data-name="Path 1558" d="M158.842,19.48a1.352,1.352,0,0,1-.952,1.083q-1.227.489-2.462.953a6.961,6.961,0,0,1-2.3-1.945c-.712-.874-1.346-1.809-2.04-2.7a52.343,52.343,0,0,0-4.7-5.241q-.636-.619-1.292-1.217a4.15,4.15,0,0,0-1.288-.949,1.112,1.112,0,0,0-1.146.2,1.05,1.05,0,0,0-.008,1.276,6.378,6.378,0,0,0,.507.716c.19.25.382.5.574.75q.594.774,1.183,1.551l2.361,3.1c.131.17.259.341.389.511a29.029,29.029,0,0,1-4.987-3.145A12.085,12.085,0,0,0,137.262,12a2.452,2.452,0,0,0-1.779.335,1.3,1.3,0,0,0-.526,1.222,2.1,2.1,0,0,0-2.088.1,1.012,1.012,0,0,0-.363.879,1.571,1.571,0,0,0,.449.861,6.187,6.187,0,0,0,.956.779l1.172.846,2.394,1.727,2.233,1.612a22.4,22.4,0,0,0-7.137-1.426,10.618,10.618,0,0,0-2.134.24.088.088,0,0,0-.06.106,3.107,3.107,0,0,0,1.652,1.93c.891.506,1.877.829,2.805,1.261a27.9,27.9,0,0,1,5.79,3.611q.349.283.687.576c-3.754,1.442-7.467,2.991-11.149,4.616-1.5.66-3,1.3-4.514,1.919-.8.325-1.135.179-1.457-.626-.79-1.969-1.576-3.942-2.31-5.933-1.495-4.066-2.914-8.161-4.445-12.215-.955-2.535-2.056-5.015-3.094-7.52-.188-.457-.383-.911-.587-1.4-.528-.075-.579-.133-.626-.657-.027-.315-.083-.626-.107-.941a1.328,1.328,0,0,1,.439-1.024,4.949,4.949,0,0,1,1.986-1.219A20.579,20.579,0,0,1,119.8.575c1.139-.151,2.272-.371,3.416-.438A48.749,48.749,0,0,1,128.3.03a40.755,40.755,0,0,1,8.751,1.564,50.273,50.273,0,0,1,6.193,1.952,34.447,34.447,0,0,1,10.3,6.445,14.283,14.283,0,0,1,3.285,4.438c.506,1.083,1.142,2.1,1.694,3.163a2.823,2.823,0,0,1,.32,1.887" transform="translate(-27.094 0)" fill="#5d5bea"/>
    <path id="Path_1559" data-name="Path 1559" d="M0,75.506a1.332,1.332,0,0,0,.089-.314,25.682,25.682,0,0,1,1.023-5.827,52.335,52.335,0,0,1,4.016-9.96,52.762,52.762,0,0,1,4.293-7.036,42.551,42.551,0,0,1,7.281-7.69,50.4,50.4,0,0,1,15.307-8.5,125.119,125.119,0,0,1,12.335-3.767,3.451,3.451,0,0,0,.791-.321,23.094,23.094,0,0,1,4.017-1.534c3.4-1.075,6.789-2.212,10.2-3.267a74.652,74.652,0,0,1,7.761-2.047c1.378-.27,2.768-.5,4.162-.664a9.53,9.53,0,0,1,1.96.07,1.325,1.325,0,0,1,.975.634,1.409,1.409,0,0,1,.071.913,4.575,4.575,0,0,1-.363.9c.773-.058,1.552-.136,2.333-.171a7.793,7.793,0,0,1,2.8.271,3.172,3.172,0,0,1,1.229.718,1.252,1.252,0,0,1,.3,1.646c-.163.342-.335.68-.483.978.489.31.948.588,1.393.889a1.093,1.093,0,0,1,.06,1.8c-.472.373-1,.677-1.507,1-.147.094-.311.162-.479.248.149.2.3.387.43.588a1.555,1.555,0,0,1-.2,2.019,4.039,4.039,0,0,1-1.436.933,13.231,13.231,0,0,1-3.415.834,47.444,47.444,0,0,0-7.092,1.168c-.852.246-1.672.6-2.5.929-.709.281-1.41.585-2.111.886-.215.092-.421.205-.647.317a3.678,3.678,0,0,0,1.776.863c.516.085,1.013.282,1.529.364.63.1,1.272.124,1.908.2A8.927,8.927,0,0,1,72.3,45.2a3.648,3.648,0,0,1,.7.715,1.528,1.528,0,0,1,.141,1.546.786.786,0,0,1-.387.4,26.33,26.33,0,0,1-2.57,1.006,7.337,7.337,0,0,1-1.88.271c-1.2.04-2.4.02-3.605.007-2.355-.024-4.709-.081-7.064-.084-1.7,0-3.4.052-5.094.094a15.319,15.319,0,0,0-1.916.114,11.821,11.821,0,0,0-1.756.453,98.771,98.771,0,0,0-11.919,4.508,18.226,18.226,0,0,0-5.808,4.018,19.9,19.9,0,0,0-4.5,7.921,31.4,31.4,0,0,0-.887,4.143,26.367,26.367,0,0,0-.252,5.735,17.944,17.944,0,0,0,2.111,8.14,21.437,21.437,0,0,0,3.729,4.495,41.491,41.491,0,0,0,8.981,6.359A109.47,109.47,0,0,0,51.3,99.932q1.809.761,3.621,1.514c.161.068.331.116.5.17.858.275,1.338.179,1.716-.623a4.468,4.468,0,0,0,.662-2.208,4.945,4.945,0,0,0-.154-.731.932.932,0,0,0-.171-.043,5.816,5.816,0,0,1-3.722-1.14q-1.9-1.2-3.731-2.5A6.888,6.888,0,0,1,47.324,90.3c-.333-1.316-.69-2.631-.937-3.963a8.786,8.786,0,0,1-.043-3.055c.128-.767.223-1.54.341-2.367-.246-.143-.547-.349-.873-.5a2.106,2.106,0,0,1-.938-2.544,4.418,4.418,0,0,1,1.8-2.223c.067-.042.135-.084.2-.127a1.3,1.3,0,0,0-.051-.545,1.74,1.74,0,0,1,.007-1.081.954.954,0,0,1,1.418-.737,9.633,9.633,0,0,1,1.205.671,2.934,2.934,0,0,1,.267-.392c.684-.761,1.378-1.513,2.066-2.27.722-.793,1.46-1.571,2.16-2.385a24.228,24.228,0,0,1,7.94-6.253,21.969,21.969,0,0,1,4-1.573,3.939,3.939,0,0,1,2.266.023c.648.215,1.3.427,1.941.656a1.5,1.5,0,0,1,.964,1.464c.014.173,0,.35,0,.517.711-.155,1.391-.322,2.078-.449a6.637,6.637,0,0,1,3.58.324,2.671,2.671,0,0,1,1.74,2.376,5.093,5.093,0,0,1-.807,3.233,21.191,21.191,0,0,1-1.272,1.852,3.011,3.011,0,0,1-.5.446c-.175.151-.351.3-.546.466a24.89,24.89,0,0,0,3.466,3.663,4.236,4.236,0,0,0,2.156.966c.6.076,1.207.135,1.812.161.357.015.664.035.818.427a1,1,0,0,1-.158.9,1.4,1.4,0,0,1-.23.307,1.989,1.989,0,0,0-.427,2.047q.255.99.568,1.964a21.634,21.634,0,0,1,.817,3.709,20.2,20.2,0,0,1,.16,3.683,7.8,7.8,0,0,1-1.676,4.786,6.589,6.589,0,0,1-.948.873c-.669.541-1.36,1.057-2.032,1.6a9.436,9.436,0,0,1-2.6,1.5.5.5,0,0,0-.346.392c-.619,2.071-1.26,4.135-1.89,6.2a.761.761,0,0,0-.012.537,1.619,1.619,0,0,1-.036.837c-.156.709-.349,1.409-.52,2.114a2.545,2.545,0,0,0-.035.384A21.538,21.538,0,0,0,77.8,110.4a18.609,18.609,0,0,1,5.345,2.735,46.058,46.058,0,0,1,7.456,6.694c.8.895,1.558,1.827,2.346,2.732.7.809,1.407,1.619,2.141,2.4a29.155,29.155,0,0,1,3.689,4.758c.811,1.331,1.679,2.628,2.489,3.96.454.747.841,1.533,1.259,2.3.075.137.154.271.281.5.116-.287.2-.5.289-.714.8-1.917,1.554-3.851,2.406-5.743a26.653,26.653,0,0,1,3.5-5.88,9.454,9.454,0,0,1,1.3-1.34,2.375,2.375,0,0,1,2.171-.482c-.306-.475-.639-.918-.893-1.4a12.54,12.54,0,0,1-1.387-4.178,10.147,10.147,0,0,1,.772-5.507,2.5,2.5,0,0,1,1.08-1.182.419.419,0,0,0,.222-.579,14.567,14.567,0,0,1-.615-4.948,8.169,8.169,0,0,1,2.6-5.823,27.868,27.868,0,0,1,5.65-3.866c.449-.243.91-.466,1.4-.716q-.088-1.042-.178-2.124a10.353,10.353,0,0,1-1.08-.1,3.924,3.924,0,0,1-2.395-1.731,9.4,9.4,0,0,1-1.72-3.753,10.213,10.213,0,0,1-.067-3.475,22.681,22.681,0,0,1,1.975-5.961q.806-1.794,1.651-3.571a3.431,3.431,0,0,0,.173-2.594,2.088,2.088,0,0,1,.157-1.654c.16-.309.318-.377.623-.245a6.129,6.129,0,0,0,4.493-.1,17.358,17.358,0,0,0,3.807-1.9A13.819,13.819,0,0,1,133.315,65a16.574,16.574,0,0,1,4.346-.286,12.217,12.217,0,0,1,6.558,2.5,15.733,15.733,0,0,1,3.011,3.276,16.966,16.966,0,0,1,3.23,7.331c.219,1.156.3,2.338.42,3.511.065.652.076,1.309.1,1.965a16.24,16.24,0,0,1-1.4,6.951c-.062.146-.116.295-.2.506.328-.057.617-.1.9-.159a14.572,14.572,0,0,1,4.1-.356,11.564,11.564,0,0,1,5.939,1.739,2.119,2.119,0,0,0,.6.309c-.121-.447-.239-.895-.363-1.341a67.134,67.134,0,0,0-4.125-10.676,100.039,100.039,0,0,0-5.089-9.592,121.869,121.869,0,0,0-6.975-10.2c-1.229-1.614-2.488-3.211-3.817-4.743-1.184-1.366-2.453-2.661-3.738-3.934-1.194-1.183-2.44-2.316-3.694-3.435s-2.556-2.228-3.861-3.31c-1.525-1.264-3.062-2.516-4.623-3.734-.9-.7-1.866-1.33-2.8-2-.531-.378-1.03-.807-1.591-1.131a6.385,6.385,0,0,0-1.45-.572c-.949-.271-1.9-.536-2.872-.722-1.032-.2-2.086-.282-3.125-.449-.69-.11-1.367-.306-2.057-.414a7.81,7.81,0,0,1-3.81-1.977,3.2,3.2,0,0,1-.669-.916.6.6,0,0,1,.027-.534,2.334,2.334,0,0,1,.968-.895,10.53,10.53,0,0,1,4.781-.75c.588.06,1.181.07,1.77.113.572.041,1.143.1,1.808.153-.614-.477-1.169-.91-1.726-1.34-.908-.7-1.786-1.447-2.732-2.092a21.514,21.514,0,0,0-6.007-2.77,4.1,4.1,0,0,1-2.556-2.408,1.009,1.009,0,0,1,.37-1.345,3.024,3.024,0,0,1,2.7-.412c1.124.255,2.212.674,3.314,1.028a13.7,13.7,0,0,0,1.61.459c-.309-.263-.62-.524-.927-.79a14.417,14.417,0,0,0-2.342-1.57,6.2,6.2,0,0,1-2.525-2.553c-.036-.07-.071-.141-.1-.214-.388-.947,0-1.575,1.039-1.621.54-.024,1.082.02,1.666.034.021-.341,0-.668.288-.9a2.156,2.156,0,0,1,1.283-.586,7.755,7.755,0,0,1,3.484.725,27.628,27.628,0,0,1,5.311,3.216c.668.515,1.368.99,2.06,1.488a.851.851,0,0,0-.1-.205c-.654-.785-1.285-1.59-1.974-2.342a18.062,18.062,0,0,1-2.015-2.548,4.816,4.816,0,0,1-.8-2.263.849.849,0,0,1,1.3-.852,14.323,14.323,0,0,1,2.251,1.338,20.75,20.75,0,0,1,2.4,2.2,16.468,16.468,0,0,1,1.413,1.925c.436.626.8,1.305,1.287,1.891.772.937,1.624,1.806,2.424,2.721.386.442.748.909,1.091,1.386s.587,1.023,1.258,1.222a7.885,7.885,0,0,1,1.379.756,110.271,110.271,0,0,1,14.155,8.922A103.062,103.062,0,0,1,157.546,45.89,79.083,79.083,0,0,1,166.43,57.5a118.031,118.031,0,0,1,8.6,16.484,113.192,113.192,0,0,1,4.318,12.083c.507,1.691,1.023,3.38,1.494,5.081a9.466,9.466,0,0,1,.353,2.454,3.247,3.247,0,0,1-.379,1.161c-.029.081-.25.16-.359.134a.782.782,0,0,1-.6-.563c-.388-1.31-.76-2.626-1.169-3.93q-1.17-3.733-2.377-7.454A106.106,106.106,0,0,0,169.69,67.3,95.616,95.616,0,0,0,162.9,55.8c-1.6-2.282-3.321-4.466-5.139-6.579A101.456,101.456,0,0,0,150.3,41.4c-.444-.417-.9-.818-1.343-1.237a.655.655,0,0,0-.6-.185,8.473,8.473,0,0,0-3.653,1.558,14.277,14.277,0,0,0-4.334,4.478,1.023,1.023,0,0,1-.165.157c-.11-.179-.2-.314-.109-.528.429-1.047.823-2.109,1.27-3.148a6.051,6.051,0,0,1,2.447-2.821,11.638,11.638,0,0,1,2.713-1.3,1.658,1.658,0,0,0,.242-.128c-.546-.465-1.064-.915-1.591-1.355a94.709,94.709,0,0,0-12.854-8.916c-1.262-.741-2.548-1.441-3.839-2.132a8.615,8.615,0,0,1-1.32-.736,5,5,0,0,1-1.29-1.4,25.341,25.341,0,0,0-1.51-2.2c-.817-1.111-1.549-2.285-2.3-3.442a13.19,13.19,0,0,0-1.5-1.918,16.828,16.828,0,0,0-2.743-2.393c-.5-.335-1.027-.62-1.543-.928l-.11.075a3.637,3.637,0,0,0,.05.525,4.783,4.783,0,0,0,1.174,2c.921,1.064,1.882,2.095,2.831,3.135a8.516,8.516,0,0,1,1.213,1.877c.276.533.586,1.048.882,1.57.047.084.106.161.144.248a.423.423,0,0,1-.152.55c-.084.054-.3-.021-.408-.1a3.8,3.8,0,0,1-.661-.55,17.55,17.55,0,0,0-3.271-2.721,46.523,46.523,0,0,0-4.6-2.931,8.736,8.736,0,0,0-3.969-1.121,1.164,1.164,0,0,0-.937.293c.075.377.382.531.671.693.986.554,1.978,1.1,2.964,1.651a44.853,44.853,0,0,1,4.813,3.3c1.009.754,1.949,1.6,2.908,2.418a3.077,3.077,0,0,1,.449.559.521.521,0,0,1,.019.625c-.2.333-.386.4-.7.159-.579-.451-1.124-.946-1.7-1.4-.97-.755-1.946-1.5-2.938-2.229a39.9,39.9,0,0,0-4.938-3.214,10.024,10.024,0,0,0-3.167-1.16,8.519,8.519,0,0,0-1.153-.008,2.786,2.786,0,0,0,.256.473,5.939,5.939,0,0,0,1.749,1.4,14.409,14.409,0,0,1,2.419,1.711c1.6,1.267,3.087,2.678,4.8,3.807a11.724,11.724,0,0,1,1.521,1.445c.125.12.269.22.4.338a4.109,4.109,0,0,1,.506.5.7.7,0,0,1-.1,1.015.5.5,0,0,1-.427.047,4.832,4.832,0,0,1-.748-.426c-1.459-.95-2.912-1.907-4.372-2.853a8.6,8.6,0,0,0-2.124-.968c-1.121-.351-2.234-.733-3.358-1.077a4.131,4.131,0,0,0-1.993-.061,1.2,1.2,0,0,0-.265.124,1.492,1.492,0,0,0,.947.835c.6.208,1.207.4,1.8.618a23.039,23.039,0,0,1,4.374,2.342,69.026,69.026,0,0,1,6.046,4.53,10.318,10.318,0,0,1,.957.938.751.751,0,0,1,.085.89.6.6,0,0,1-.679.4q-1.244-.088-2.488-.148c-1.118-.054-2.238-.144-3.356-.128a10.572,10.572,0,0,0-3.12.624,2.408,2.408,0,0,0,1.231.713c.743.174,1.483.364,2.232.5.484.09.983.1,1.476.149a19.736,19.736,0,0,1,3.554.684,31.627,31.627,0,0,1,3.5,1.06,3.945,3.945,0,0,1,1.15.756c.224.2.452.4.694.584a.479.479,0,0,0,.458.132c.16-.04.4.153.576.281,1.225.9,2.462,1.785,3.658,2.722,3.052,2.389,6.044,4.851,8.919,7.453a74.194,74.194,0,0,1,9.151,9.838,117.967,117.967,0,0,1,9.821,14.773c1.218,2.209,2.3,4.5,3.393,6.772a61.005,61.005,0,0,1,3.347,8.394,24.784,24.784,0,0,1,.994,4.328,3.792,3.792,0,0,1,.025,1.052,1.123,1.123,0,0,0,.277.866,25.532,25.532,0,0,1,1.518,2.431,5.046,5.046,0,0,1,.231,4.406c.654.045,1.284.078,1.912.135a10.7,10.7,0,0,1,5.575,1.936,8.456,8.456,0,0,1,3.439,5.452,5.673,5.673,0,0,1-1.427,4.791,11.413,11.413,0,0,1-3.535,2.74,30.611,30.611,0,0,1-6.814,2.7,16.135,16.135,0,0,1-4.264.529,8.98,8.98,0,0,1-5.161-1.514,10.786,10.786,0,0,1-2.457-2.541c-.409-.572-.817-1.143-1.228-1.714a2.824,2.824,0,0,0-.2-.23,18.547,18.547,0,0,1-.858,1.91,10,10,0,0,1-5.751,4.487,12.126,12.126,0,0,1-4.723.564,9.171,9.171,0,0,1-4.561-1.733c-1.038-.718-2.043-1.485-3.091-2.25-.14.423-.273.867-.433,1.3a11.467,11.467,0,0,1-2.449,3.852,12.538,12.538,0,0,1-3.184,2.6,11.8,11.8,0,0,1-4.241,1.362c-.547.065-1.077.255-1.619.375a4.563,4.563,0,0,1-3.026-.363,12.278,12.278,0,0,1-3.106-2.231c-.116-.11-.23-.224-.346-.334a.265.265,0,0,0-.106.236.649.649,0,0,1-.764.689.979.979,0,0,0-.86.3,12.113,12.113,0,0,0-2.062,2.51,34.314,34.314,0,0,0-2.995,5.818c-.8,1.937-1.543,3.9-2.324,5.849a1.287,1.287,0,0,0-.006.963q1.5,4.352,2.975,8.713c.192.57.327,1.16.5,1.736a1.945,1.945,0,0,1-.077,1.127.346.346,0,0,1-.439.277c-.465-.184-1-.123-1.422-.471a1.4,1.4,0,0,1-.512-.665,13.449,13.449,0,0,1-.694-2.683.9.9,0,0,0-.03-.141c-.3-1.141-.585-2.285-.788-3.452a4.959,4.959,0,0,0-.641-1.643,30.094,30.094,0,0,1-1.971-4.511,31.528,31.528,0,0,0-3.419-6.466c-.652-.94-1.238-1.927-1.911-2.852a20.038,20.038,0,0,0-1.429-1.616c-1.153-1.268-2.335-2.509-3.455-3.8a44.143,44.143,0,0,0-4.024-4.187,57.93,57.93,0,0,0-5.081-3.931,16.325,16.325,0,0,0-4.147-2.048c-.693-.239-1.383-.486-2.075-.729-3.233-1.137-6.3-2.669-9.434-4.033-2.6-1.13-5.195-2.26-7.815-3.336-.972-.4-2.006-.652-3.015-.963-.23-.071-.442-.122-.536-.4-.036-.109-.2-.2-.321-.251-2.666-1.1-5.337-2.188-8-3.287-1.231-.507-2.5-.953-3.675-1.559A61.312,61.312,0,0,1,31.972,92a25.647,25.647,0,0,1-5.6-5.954,13.516,13.516,0,0,1-1.841-4.738c-.208-1.025-.328-2.066-.492-3.1a22.7,22.7,0,0,1-.17-5.545,31.919,31.919,0,0,1,1.908-9.2,21.59,21.59,0,0,1,5.076-7.705,17.965,17.965,0,0,1,5.134-3.31A117.038,117.038,0,0,1,48.628,47.78a16.056,16.056,0,0,1,4.577-.641c2.515-.059,5.029-.141,7.544-.165,1.2-.011,2.4.091,3.6.144,1.328.059,2.656.163,3.984.166a8.534,8.534,0,0,0,3.229-.617c.071-.028.137-.069.241-.123a4.132,4.132,0,0,0-1.711-.858,26.375,26.375,0,0,0-4.413-.588,23.954,23.954,0,0,1-2.706-.611,1.47,1.47,0,0,1-.456-.26,4.623,4.623,0,0,0-1.748-.758c-.56-.116-.522-.135-.652-.7a1.545,1.545,0,0,1,.08-1.09h.921a2.867,2.867,0,0,1,1.828-1.518c1.457-.563,2.893-1.191,4.369-1.7a23.252,23.252,0,0,1,4.494-.939,37.95,37.95,0,0,0,5.437-.869c.483-.138.95-.332,1.465-.515a1.694,1.694,0,0,0-1.09-.919,12.5,12.5,0,0,0-1.914-.381c-.97-.086-1.948-.094-2.923-.111a17.232,17.232,0,0,0-4.111.535c-1.44.324-2.865.713-4.3,1.042a1.981,1.981,0,0,1-1.175.062c-.325-.122-.336-.16-.248-.488a1.4,1.4,0,0,1,1.1-1.057c1.863-.511,3.719-1.035,5.624-1.374a19.164,19.164,0,0,1,5.591-.258c.84.1,1.669.294,2.509.377a2.828,2.828,0,0,0,1.162-.16c.645-.223,1.263-.526,1.908-.8a1.181,1.181,0,0,0-.73-.637,6.387,6.387,0,0,0-2.218-.509c-.686-.036-1.372-.078-2.059-.1a22.523,22.523,0,0,0-4.108.278c-1.272.2-2.555.351-3.812.618-1.6.338-3.177.775-4.767,1.161a5.738,5.738,0,0,1-.937.145,1.484,1.484,0,0,1-.452-.122,1.344,1.344,0,0,1,.972-1.022c1.661-.448,3.309-.956,4.99-1.318,1.589-.341,3.207-.572,4.822-.764a25.081,25.081,0,0,1,5.513-.114c.1.01.189.043.284.046.217.006.534.089.633-.02a1.75,1.75,0,0,0,.441-.875c.047-.347-.266-.589-.58-.674A7.354,7.354,0,0,0,77.2,28.4a17.91,17.91,0,0,0-3.9.35q-4.006.764-8.009,1.543c-1.248.243-2.491.506-3.737.755a1.283,1.283,0,0,1-.381.023c-.449-.047-.482-.177-.34-.614a1.35,1.35,0,0,1,1.051-.941c1.068-.258,2.138-.514,3.216-.731,1.923-.388,3.854-.746,5.781-1.116a8.888,8.888,0,0,1,1.175-.214.629.629,0,0,0,.575-.416c.1-.21.2-.424.325-.695a4.271,4.271,0,0,0-1.509-.03c-4.369.528-8.433,2.128-12.553,3.54-2.766.948-5.549,1.844-8.326,2.76-.8.263-1.6.509-2.407.765-1.705.541-3.41,1.086-5.116,1.624-1.556.49-3.113.973-4.669,1.461-.12.037-.237.084-.306.109.835.605,1.729,1.172,2.526,1.851a13.439,13.439,0,0,1,3.685,4.591c.2.429.3.9.454,1.347.078.224.189.438.26.664.078.249.137.51-.266.617-.964-1.2-1.917-2.417-2.905-3.6A15.2,15.2,0,0,0,37.5,38.42a2.825,2.825,0,0,0-.652-.3.968.968,0,0,1-.8-.588c-.076-.21-.25-.243-.475-.167a55.344,55.344,0,0,0-15.008,7.3A42.7,42.7,0,0,0,14.317,50.1,44.006,44.006,0,0,0,8.2,58.544,57.207,57.207,0,0,0,3.529,69a29.014,29.014,0,0,0-1.238,5.389,26.718,26.718,0,0,0-.2,4.736,39.781,39.781,0,0,0,3.2,13.378,35.129,35.129,0,0,0,3.491,6.135c1.418,2.063,2.865,4.107,4.375,6.1a24.523,24.523,0,0,0,11.1,8.26c.774.293,1.54.613,2.329.858a7.127,7.127,0,0,1,1.692.866.931.931,0,0,1,.547.89.431.431,0,0,0,.135.29.964.964,0,0,1,.218.924,28.949,28.949,0,0,1-1.271,4.691c-.819,2.561-1.744,5.089-2.37,7.708-.525,2.2-1.007,4.4-1.5,6.606-.311,1.381-.647,2.758-.908,4.148-.255,1.362-.439,2.737-.63,4.11a1.9,1.9,0,0,1-.921,1.434.412.412,0,0,1-.6-.084,9.279,9.279,0,0,1-.687-1.229,2.609,2.609,0,0,1,.021-1.511c.145-1.186.336-2.367.55-3.542.239-1.316.493-2.631.8-3.934.645-2.773,1.292-5.548,2-8.305a52.749,52.749,0,0,1,2.088-6.291c.506-1.27.912-2.58,1.369-3.87.132-.373.285-.738.432-1.115-1.033-.332-2.1-.648-3.139-1.014a26,26,0,0,1-6.95-3.588,27.713,27.713,0,0,1-4.439-4.085A76.566,76.566,0,0,1,5.5,96.628a33.16,33.16,0,0,1-3.963-9.455c-.379-1.549-.732-3.1-1.034-4.67-.17-.886-.212-1.8-.313-2.7C.131,79.237.065,78.671,0,78.1Zm71.932,33.383a2.49,2.49,0,0,0,.1-.236c.428-1.531,1.061-2.991,1.454-4.54.552-2.186,1.276-4.327,1.9-6.494a1.48,1.48,0,0,1,1.061-1.149,7.749,7.749,0,0,0,3.609-2.085,4.144,4.144,0,0,1,.4-.341,6.726,6.726,0,0,0,2.419-4.73,26.005,26.005,0,0,0,.009-3.021,9.006,9.006,0,0,0-.162-1.129,3.572,3.572,0,0,1-.718.106,2.812,2.812,0,0,1-2.042-1.036,1.852,1.852,0,0,1,.6-2.994c.347-.149.707-.267,1.066-.4V78.406c-.037,0-.147-.016-.258-.017A5.318,5.318,0,0,1,77.6,76.875c-.928-.9-1.822-1.849-2.669-2.829a15.65,15.65,0,0,0-4.148-3.6,10.6,10.6,0,0,0-3.741-1.26,4.812,4.812,0,0,1,.617,5.365c-.142.312-.281.626-.434.97.16.034.281.065.4.084s.256.014.38.04a5.563,5.563,0,0,1,3.5,2.5,2.862,2.862,0,0,1,.314,2.779c-.178.457-.4.9-.607,1.344-.238.513-.48,1.024-.726,1.546a1.08,1.08,0,0,1,.485,1.048.413.413,0,0,1-.649.3,2.488,2.488,0,0,1-.243-.232,3.012,3.012,0,0,0-2.5-.747,3.236,3.236,0,0,0-2.391,3.985,5.23,5.23,0,0,0,4.6,3.3,7.985,7.985,0,0,0,4.041-1.189,3.013,3.013,0,0,0,.43-.308.351.351,0,0,1,.059.549c-.112.156-.244.3-.361.449a4.449,4.449,0,0,1-3.518,1.84c-.679.024-1.362-.068-2.046-.107-.113.208-.255.452-.383.7a32.65,32.65,0,0,0-2.624,7.308,11.882,11.882,0,0,1-.465,1.5c-.162.427-.343.5-.776.484a6.135,6.135,0,0,0-.669,0,15.461,15.461,0,0,1-3.958-.251c-.48-.094-.965-.172-1.453-.258l-.481.651c.1.033.16.056.218.07a21.3,21.3,0,0,1,5.242,2.022,44.666,44.666,0,0,0,4.406,2.076c1.488.6,2.964,1.237,4.487,1.876m55.027-23.578c-.764,0-1.465.052-2.155-.014a2.163,2.163,0,0,1-1.857-1.328.578.578,0,0,1,.038-.606c.067.005.107,0,.128.012a4.287,4.287,0,0,0,3.144.709,5.988,5.988,0,0,0,4.172-2.194,1.966,1.966,0,0,0,.538-1.715,6.935,6.935,0,0,0-.52-1.426,1.29,1.29,0,0,0-1.224-.706,3.924,3.924,0,0,0-.853.1,7.459,7.459,0,0,0-2.868,1.234.775.775,0,0,1-.76.113,1.579,1.579,0,0,1,.689-1.591,5.968,5.968,0,0,1,1.976-.95c.258-.073.517-.138.7-.188.366-1.235.693-2.409,1.066-3.567a10.113,10.113,0,0,1,1.508-3.059c.473-.623.974-1.227,1.486-1.819.476-.55.982-1.073,1.533-1.671-.4.1-.722.182-1.04.268a12.331,12.331,0,0,0-4.1,2.2,9.685,9.685,0,0,1-7.244,2.255c-.04,0-.084.026-.168.054a4.869,4.869,0,0,1-.372,2.372c-.281.75-.565,1.5-.871,2.309.238,0,.42,0,.6,0a3.583,3.583,0,0,1,.526-.008c.287.041.6.347.578.537a1.583,1.583,0,0,1-.69,1.255c-.7.412-1.419.779-2.124,1.177a.706.706,0,0,0-.319.306A17.728,17.728,0,0,0,117.4,83.2a7.064,7.064,0,0,0,.406,3.75,6.028,6.028,0,0,0,3.183,3.467,8.988,8.988,0,0,1,1.27.757c.076.049.166.2.141.259a1.531,1.531,0,0,0,.026.889c.062.412.141.822.2,1.181l2.89-.5a24.426,24.426,0,0,1,1.441-7.7M81.906,81.97c-.493.235-.938.407-1.341.649-.362.217-.363.43-.068.734a2.267,2.267,0,0,0,2.035.709l-.626-2.092m38.5-4.735a4.075,4.075,0,0,0-1.023.017l-.236.5a8.572,8.572,0,0,0,1.259-.515" transform="translate(0 -2.696)"/>
    <path id="Path_1560" data-name="Path 1560" d="M159.757,186.1c-.459,1.153-.943,2.277-1.354,3.428-.566,1.587-1.092,3.187-1.6,4.793a1.782,1.782,0,0,1-1.022,1.185.522.522,0,0,1-.737-.3,3.571,3.571,0,0,0-.252-.436,2.238,2.238,0,0,1-.274-1.746,49.593,49.593,0,0,1,1.77-5.349,36.073,36.073,0,0,1,5.66-10.069c.376-.476.82-.9,1.222-1.354a3.12,3.12,0,0,1,1.4-.768c.338-.123.9.355.941.81a1.9,1.9,0,0,1-.487,1.381c-.968,1.3-1.87,2.658-2.767,4.013-.519.782-.982,1.6-1.454,2.379a5.423,5.423,0,0,1,.347.649,14.831,14.831,0,0,0,5.116,6.888,31.807,31.807,0,0,1,3.937,3.439,2.011,2.011,0,0,1,.6,1.5c-.009.484-.388.574-.694.755-.281.166-.48.024-.677-.167-.793-.768-1.569-1.555-2.39-2.291-.63-.563-1.307-1.076-1.981-1.587a15.078,15.078,0,0,1-4.844-6.307q-.164-.393-.331-.788c0-.01-.025-.012-.13-.059" transform="translate(-37.026 -42.063)"/>
    <path id="Path_1561" data-name="Path 1561" d="M106.257,185.238c-.711,1.06-1.36,2.1-2.082,3.088-1.166,1.594-2.367,3.164-3.581,4.722-.706.907-1.47,1.767-2.2,2.656a2.754,2.754,0,0,1-1.1.828.481.481,0,0,1-.7-.322,1.486,1.486,0,0,0-.263-.431,1.28,1.28,0,0,1,.011-1.641c1.1-1.312,2.175-2.645,3.262-3.968,1.687-2.053,3.227-4.217,4.764-6.384.174-.246.388-.465.58-.693-.231-.511-.491-1-.679-1.522a7.2,7.2,0,0,1-.265-1.2c-.044-.243.094-.341.332-.353.2-.011.4-.075.607-.084a.715.715,0,0,1,.449.071,4.416,4.416,0,0,1,.811.858,55.292,55.292,0,0,1,5.763,11.525c.6,1.673,1.188,3.347,1.737,5.035a5.561,5.561,0,0,1,.2,1.505c.016.447-.395.584-.718.744-.306.15-.535-.039-.7-.266a8.35,8.35,0,0,1-1.087-2.057q-1.095-3.086-2.212-6.164a38.4,38.4,0,0,0-2.8-5.744c-.039-.068-.088-.132-.136-.2" transform="translate(-23.024 -43.135)"/>
    <path id="Path_1562" data-name="Path 1562" d="M90.334,110.794a6.193,6.193,0,0,0-2.815-.1c-.056-.059-.094-.078-.1-.1-.162-.9.056-1.143.984-1.166a7.851,7.851,0,0,1,3.053.491,2.694,2.694,0,0,1,1.327.905,1.082,1.082,0,0,1-.272,1.559,3.163,3.163,0,0,1-2.058.484c-.406-.033-.585-.246-.649-.648a1.352,1.352,0,0,1,.528-1.426m.479,1.014,1.2-.275c-.633-.541-.715-.434-1.2.275" transform="translate(-20.946 -26.233)"/>
    <path id="Path_1563" data-name="Path 1563" d="M98.038,97.817c0,.59-.117.785-.414.905a.672.672,0,0,1-.817-.208,5.01,5.01,0,0,1-1.136-1.963,1.312,1.312,0,0,1-.039-.332c0-.237-.056-.531.2-.645a.683.683,0,0,1,.8.153,14.175,14.175,0,0,1,1.056,1.346,4.241,4.241,0,0,1,.354.744" transform="translate(-22.924 -22.896)"/>
    <path id="Path_1564" data-name="Path 1564" d="M168.468,100.239c-.065.375-.065.375-1.5,1.095a6.853,6.853,0,0,1,.178,1.3,1.555,1.555,0,0,1-1.627,1.583,1.1,1.1,0,0,1-1.127-.664,2.186,2.186,0,0,1-.083-1.764,1.36,1.36,0,0,1,.541-.633,6.249,6.249,0,0,1,3.452-.966.931.931,0,0,1,.167.049m-3.589,1.949a1.066,1.066,0,0,0,0,.575.792.792,0,0,0,1.366.325.584.584,0,0,0,.073-.7c-.142-.278-.335-.165-.525-.083a.7.7,0,0,1-.914-.117" transform="translate(-39.353 -24.016)"/>
    <path id="Path_1565" data-name="Path 1565" d="M166.63,91.059c.047-.346,0-.734.472-.883.1-.032.169-.184.24-.289a2.439,2.439,0,0,1,1.213-.817.648.648,0,0,1,.77.215.81.81,0,0,1-.232.955c-.373.3-.752.591-1.143.865-.571.4-.718.389-1.321-.047" transform="translate(-39.946 -21.342)"/>
    <path id="Path_1566" data-name="Path 1566" d="M145.753,100.378a1.745,1.745,0,0,1-1.5.386,17.385,17.385,0,0,1-5.295-1.56,4.03,4.03,0,0,1-2.115-2.116c-.056-.154-.081-.318-.139-.556a12.576,12.576,0,0,1,1.532.423,32.225,32.225,0,0,0,5.656,1.5c.278.061.553.141.829.213a1.6,1.6,0,0,1,1.031.841Z" transform="translate(-32.772 -23.142)" fill="#5d5bea"/>
    <path id="Path_1567" data-name="Path 1567" d="M122.014,113.937c-.061-.036-.125-.109-.183-.1a4.279,4.279,0,0,1-2.386-.558c-1.073-.563-2.13-1.154-3.178-1.762a1.714,1.714,0,0,1-.771-.923,5.138,5.138,0,0,1-.381-1.114c-.035-.257.049-.395.322-.414.156-.012.309-.081.465-.09a.876.876,0,0,1,.455.049c1.427.814,2.856,1.625,4.261,2.476a3.786,3.786,0,0,1,1.479,1.468.712.712,0,0,0,.125.139c.3.319.31.455.081.833Z" transform="translate(-27.595 -26.122)" fill="#5d5bea"/>
    <path id="Path_1568" data-name="Path 1568" d="M142.347,88.056a8.648,8.648,0,0,0,.6.669,22.7,22.7,0,0,1,3.528,3.909,2.781,2.781,0,0,1,.414.952,1.636,1.636,0,0,1-.078.835.832.832,0,0,1-1.248.227,19.818,19.818,0,0,1-2.581-4.074c-.274-.677-.541-1.357-.794-2.043a1.68,1.68,0,0,1-.032-.474Z" transform="translate(-34.078 -21.11)" fill="#5d5bea"/>
    <path id="Path_1569" data-name="Path 1569" d="M114.624,94.893a.933.933,0,0,1,.47-.886c1.064-.677,2.089-1.416,3.161-2.081a4.365,4.365,0,0,1,1.841-.639c.136-.014.262-.119.4-.143s.392-.043.413.009a.673.673,0,0,1,.033.52,13.4,13.4,0,0,1-3.253,3.538c-.411.3-.812.615-1.243.881a3.822,3.822,0,0,1-.876.363.474.474,0,0,1-.634-.288c-.131-.417-.211-.85-.312-1.276" transform="translate(-27.479 -21.844)" fill="#5d5bea"/>
    <path id="Path_1570" data-name="Path 1570" d="M121.369,101.406c.321.062.693.138,1.065.2a3.685,3.685,0,0,1,.518.054.435.435,0,0,1,.273.255.41.41,0,0,1-.147.358,12.384,12.384,0,0,1-2.763,1.116c-.987.166-1.965.378-2.95.551-.579.1-1.163.165-1.745.252a.537.537,0,0,1-.7-.406,6.224,6.224,0,0,1-.2-.776.463.463,0,0,1,.376-.576c.553-.141,1.105-.3,1.667-.4.922-.163,1.852-.29,2.78-.419.585-.081,1.172-.138,1.826-.214" transform="translate(-27.499 -24.31)" fill="#5d5bea"/>
    <path id="Path_1571" data-name="Path 1571" d="M145.416,107.348c.091.434-.17.684-.531.838-1.021.432-2.033.893-3.081,1.248a8.554,8.554,0,0,1-1.918.327.9.9,0,0,1-.868-.744.917.917,0,0,1,.439-.969c1.224-.578,2.453-1.148,3.692-1.69a6.111,6.111,0,0,1,1.149-.31,1.1,1.1,0,0,1,1.117.948,2.708,2.708,0,0,1,0,.353" transform="translate(-33.322 -25.419)" fill="#5d5bea"/>
  </g>
</svg>
