<svg id="Group_53" data-name="Group 53" xmlns="http://www.w3.org/2000/svg" xmlns:xlink="http://www.w3.org/1999/xlink" width="271.525" height="140.251" viewBox="0 0 271.525 140.251">
  <defs>
    <clipPath id="clip-path">
      <rect id="Rectangle_30" data-name="Rectangle 30" width="271.525" height="140.251" fill="none"/>
    </clipPath>
  </defs>
  <g id="Group_52" data-name="Group 52" transform="translate(0 0)" clip-path="url(#clip-path)">
    <path id="Path_197" data-name="Path 197" d="M196.865,75.73c-.106,3.875-.176,7.751-.333,11.623a32.838,32.838,0,0,1-1.5,8.015,10.491,10.491,0,0,1-4.724,6.051,22.123,22.123,0,0,1-9.454,3.186c-2.39.271-4.8.35-7.206.482-1.3.073-1.615.4-1.516,1.769.151,2.09.326,4.178.441,6.269a6.491,6.491,0,0,1-.183,1.858,1.149,1.149,0,0,1-1.986.426c-.469-.558-.854-1.187-1.271-1.789-1.669-2.416-3.355-4.819-4.995-7.255a2.174,2.174,0,0,0-2.1-1.077c-1.047.067-2.1.092-3.142.146-3.139.166-6.277.36-9.418.5-3.456.152-6.913.3-10.372.376-8.072.185-16.144.38-24.218.463-4.508.047-9.02-.046-13.527-.2-5.343-.187-10.68-.583-16.025-.756-4.187-.135-8.383-.133-12.572-.067A101.644,101.644,0,0,1,60.5,105.42a28.055,28.055,0,0,1-11.216-3.832,13.361,13.361,0,0,1-5.746-7.627,67.055,67.055,0,0,1-3.274-15.013c-.406-3.872-.4-7.743-.519-11.617a21.083,21.083,0,0,1,.323-4.377A15.754,15.754,0,0,1,49,51.131,53.831,53.831,0,0,1,62.1,46.792,243.4,243.4,0,0,1,87.87,42.811q10.335-1.023,20.71-1.342c4.611-.135,9.236-.15,13.826-.539a117.859,117.859,0,0,1,13.511-.384c4.5.135,9,.446,13.5.675,2.618.133,5.234.33,7.854.375a114.628,114.628,0,0,1,26.072,3.8c1.318.331,2.6.788,3.9,1.21a11.036,11.036,0,0,1,6.629,5.893,22.979,22.979,0,0,1,2,6.594,67.285,67.285,0,0,1,.847,11.283c-.012,1.783,0,3.565,0,5.348l.15,0" transform="translate(13.803 14.065)" fill="#5d5bea"/>
    <path id="Path_198" data-name="Path 198" d="M34.926,108.783c-.734-1.068-1.49-2.122-2.192-3.212-.357-.554-.7-.67-1.277-.309a21.843,21.843,0,0,1-1.943,1.023,1.442,1.442,0,0,1-1.863-.22,1.409,1.409,0,0,1-.14-1.865,20.931,20.931,0,0,1,1.308-2.141,1.715,1.715,0,0,0-.043-2.467c-.885-1.027-1.625-2.18-2.427-3.279-.214-.3-.426-.6-.629-.9a1.233,1.233,0,0,1-.085-1.469,1.19,1.19,0,0,1,1.407-.4c1.358.384,2.716.768,4.068,1.175s1.346.418,2-.865a26.282,26.282,0,0,1,1.271-2.34c.334-.517.794-1.086,1.524-.864A1.687,1.687,0,0,1,37.052,92.2c.063.622.031,1.256.043,1.882.063,2.979-.439,2.187,2.391,3,.954.273,1.932.463,2.894.706.715.181,1.264.558,1.285,1.37a1.415,1.415,0,0,1-1.113,1.361c-1.518.567-3.031,1.164-4.586,1.61a1.711,1.711,0,0,0-1.4,1.777,18.248,18.248,0,0,0-.124,2.506,2.88,2.88,0,0,1-.884,2.373Z" transform="translate(8.832 31.468)" fill="#5d5bea"/>
    <path id="Path_199" data-name="Path 199" d="M194.318,11.594c-4.034-.116-8.069-.209-12.1-.356s-8.056-.457-12.084-.493-8.075.055-12.1.309a116.217,116.217,0,0,1-20.254-.09c-4.58-.513-9.175-.92-13.776-1.191a36.262,36.262,0,0,0-7.06.256c-5.028.7-10.039,1.533-15.025,2.479a29.43,29.43,0,0,0-5.665,1.818,9.439,9.439,0,0,0-5.931,7.734,48.623,48.623,0,0,0-.481,10.812A160.4,160.4,0,0,0,92.7,53.857c.152.769.256,1.551.349,2.33.058.482.049.99-.567,1.126a.948.948,0,0,1-1.207-.726,26.241,26.241,0,0,1-.907-3.17c-.808-4.69-1.588-9.387-2.309-14.092a60.649,60.649,0,0,1-.907-11.576,55.334,55.334,0,0,1,.719-7.025,11.518,11.518,0,0,1,4.555-7.3,21.835,21.835,0,0,1,8.714-3.8,79.825,79.825,0,0,1,12.889-1.842,145.223,145.223,0,0,1,15.082-.323c3.349.137,6.685.54,10.034.736,2.875.17,5.76.35,8.635.288,7.917-.174,15.828-.221,23.747.031,4.449.141,8.909-.046,13.363.005,4.875.055,9.751.147,14.62.346,4.084.168,8.161.486,12.238.787a137.235,137.235,0,0,1,17.27,2.346,41.227,41.227,0,0,1,5.445,1.477,8.5,8.5,0,0,1,5.672,6.041,27.307,27.307,0,0,1,1.117,8.213c-.109,3.614-.143,7.228-.284,10.841-.082,2.091-.331,4.175-.477,6.265-.141,2.039-.182,4.086-.387,6.117a24.341,24.341,0,0,1-.834,5.089c-.794,2.431-1.875,4.771-2.9,7.118-2.21,5.043-6.242,7.724-11.521,8.735a66.788,66.788,0,0,1-12.673.99c-1.04,0-2.08.225-3.122.257-.738.023-.926.407-1.117,1.033a53.633,53.633,0,0,1-6.308,14.163c-.29.437-.586.869-.9,1.292a1.767,1.767,0,0,1-1.925.76,1.574,1.574,0,0,1-1.137-1.544c-.178-1.455-.274-2.92-.387-4.382A43.025,43.025,0,0,0,195,74.537a1.287,1.287,0,0,0-1.425-.966c-.838.035-1.676.077-2.514.079-3.092.009-6.183-.005-9.274.008-1.359.005-2.719.054-4.078.084a10.739,10.739,0,0,1-2.191.015,3.314,3.314,0,0,1-1.615-.839.946.946,0,0,1,.507-1.591,1.983,1.983,0,0,1,.465-.053c1.99-.077,3.98-.226,5.969-.212,4.245.03,8.491.154,12.736.221,2.22.036,2.824.422,3.554,2.567a50.525,50.525,0,0,1,2.638,11.611c.019.206.069.41.105.613.143-.12.335-.212.423-.364a56.27,56.27,0,0,0,5.471-12.661c.516-1.789.447-1.878,2.37-2.121,2.022-.255,4.061-.377,6.09-.589,2.137-.224,4.272-.451,6.4-.737,1.659-.222,3.322-.453,4.95-.827a11.3,11.3,0,0,0,7.936-6.117,36.951,36.951,0,0,0,4.255-12.579q.447-3.979.683-7.982c.179-2.98.42-5.974.314-8.95-.129-3.6-.558-7.2-.938-10.791a18.893,18.893,0,0,0-.764-2.877,4.216,4.216,0,0,0-2.467-2.887,23.631,23.631,0,0,0-3.793-1.489,137.329,137.329,0,0,0-17.479-3.034,144.14,144.14,0,0,0-19.007-.477" transform="translate(30.261 2.561)" fill="#5d5bea"/>
    <path id="Path_200" data-name="Path 200" d="M67.359,26.829c6.388.1,12.782.051,19.16.346a39.607,39.607,0,0,1,13.891,3.044,10.9,10.9,0,0,1,6.646,7.992,40.015,40.015,0,0,1,.821,11.71c-.024.418-.109.831-.166,1.246a.826.826,0,0,1-1.645-.011c-.1-1.2-.212-2.4-.319-3.593-.207-2.292-.4-4.584-.633-6.873a14.19,14.19,0,0,0-.331-1.532,9.333,9.333,0,0,0-5.827-6.919,34.026,34.026,0,0,0-8.62-2.312,89.725,89.725,0,0,0-15.531-.6c-3.455.1-6.9.446-10.353.686-2.351.164-4.7.31-7.053.507-3.235.269-6.462.635-9.7.86-5.591.388-11.171.951-16.8.807A40.507,40.507,0,0,0,20.5,33.552a59.962,59.962,0,0,0-6.04,1.694,17.826,17.826,0,0,0-8.551,6.66,12.59,12.59,0,0,0-2.037,5.233,33.873,33.873,0,0,0-.544,8.434,43.516,43.516,0,0,1-.346,7.363A26.949,26.949,0,0,0,4.066,73.958a8.214,8.214,0,0,0,6.04,5.467,43.747,43.747,0,0,0,11.986,1.343c.887-.008,1.77-.21,2.658-.238,1.593-.051,2.1.345,2.269,1.931.271,2.5.461,5.005.662,7.51.133,1.671.224,3.344.342,5.016a1.683,1.683,0,0,0,.133.4c.1-.113.237-.209.287-.34.819-2.152,1.65-4.3,2.433-6.464.641-1.772,1.23-3.562,1.827-5.35a3.617,3.617,0,0,1,3.512-2.641,126.594,126.594,0,0,0,13.51-1.958c2.936-.505,5.908-.8,8.863-1.19.728-.1,1.451-.232,2.18-.284,1.222-.09,2.012.279,2.1.915s-.318,1.036-1.633,1.355a17.041,17.041,0,0,1-2.94.48c-5.45.341-10.762,1.59-16.148,2.355-1.5.214-3.017.333-4.527.493-.416.043-.834.071-1.25.117a1.807,1.807,0,0,0-1.695,1.369c-.608,1.95-1.291,3.874-1.933,5.811a42.357,42.357,0,0,1-3.258,7.988,6.061,6.061,0,0,1-.895,1.281,1.369,1.369,0,0,1-2.383-.535,5.84,5.84,0,0,1-.313-1.537c-.247-3.133-.459-6.269-.7-9.4-.1-1.3-.244-2.606-.342-3.911-.051-.7-.276-.967-1.078-.9a58.4,58.4,0,0,1-6.118.265,32.418,32.418,0,0,1-8.542-1.132A11.368,11.368,0,0,1,.662,72.808a38.888,38.888,0,0,1-.42-11.571c.331-3.283.484-6.584.728-9.876a23.384,23.384,0,0,1,1.749-8.1,19.352,19.352,0,0,1,10.493-9.9,45.728,45.728,0,0,1,10.622-2.754c2.99-.488,6.032-.662,9.054-.938q8.765-.8,17.534-1.549c3.027-.259,6.055-.5,9.085-.7,2.614-.177,5.232-.292,7.848-.435,0-.05,0-.1.005-.151" transform="translate(0 9.318)"/>
    <path id="Path_201" data-name="Path 201" d="M155.428,37.842a32.214,32.214,0,0,0,9.441-2.545c.628-.247.67-.721.752-1.244a6.522,6.522,0,0,1,3.491-4.768,4.662,4.662,0,0,1,1.009-.43,2.11,2.11,0,0,1,2.565,3.184,8.863,8.863,0,0,1-3.273,3.1c-1.477.969-1.493,1.43.013,2.355a4.882,4.882,0,0,0,1.723.729,27.238,27.238,0,0,0,4.974.54,39.89,39.89,0,0,0,12.677-2.78,2.373,2.373,0,0,0,1.729-2.09,16.179,16.179,0,0,1,4.849-8.972,6.969,6.969,0,0,1,3.786-2.111c2.719-.435,4.231,1.094,3.822,3.818a8.984,8.984,0,0,1-2.339,4.546,23.309,23.309,0,0,1-6.183,4.8,8.969,8.969,0,0,0-1.055.835,5.716,5.716,0,0,0,1.2.9,8.574,8.574,0,0,0,5.114.116c2.033-.451,4-1.211,5.993-1.836a1.485,1.485,0,0,0,1.1-1.341,6.2,6.2,0,0,1,2.381-4.121,5.733,5.733,0,0,1,2.387-1.074,2.22,2.22,0,0,1,2.462,3.289,5.305,5.305,0,0,1-1.168,1.653,27.985,27.985,0,0,1-2.44,1.97c-.777.591-.834.969-.048,1.552a3.991,3.991,0,0,0,3.538.841,5.678,5.678,0,0,0,2.687-1.547c.765-.787,1.273-.936,1.722-.587.419.327.364,1.106-.193,1.84a6.982,6.982,0,0,1-8.318,2.231,5.67,5.67,0,0,1-2.121-1.793c-.507-.631-.885-.624-1.582-.4a53.935,53.935,0,0,1-6.186,1.734,21.469,21.469,0,0,1-4.845.248,4.749,4.749,0,0,1-3.758-2.017,1,1,0,0,0-1.419-.423A44.772,44.772,0,0,1,178.7,40.918a21.072,21.072,0,0,1-7.188-.212,7.825,7.825,0,0,1-4.946-3.1c-.4-.579-.724-.535-1.289-.318-1.857.709-3.72,1.415-5.62,2a13.9,13.9,0,0,1-6.509.573,5.7,5.7,0,0,1-3.491-1.619,1.076,1.076,0,0,0-1.487-.252,28.373,28.373,0,0,1-7.805,2.311,14.371,14.371,0,0,1-3.6.108,5.564,5.564,0,0,1-4.957-4c-.228-.717-.489-.759-1.113-.451-2.16,1.063-4.315,2.144-6.529,3.088a16.649,16.649,0,0,1-7.649,1.444,5.643,5.643,0,0,1-4.995-2.744c-.388-.684-.706-.7-1.343-.348a12.622,12.622,0,0,1-2.856,1.28,12.385,12.385,0,0,1-2.94.209.791.791,0,0,1-.831-.93c.026-.516.377-.713.847-.74,2.026-.11,3.639-1.225,5.318-2.183a1.433,1.433,0,0,0,.764-1.253,17.106,17.106,0,0,1,.539-2.924,5.648,5.648,0,0,1,2.106-3.054,4.685,4.685,0,0,1,1.222-.688c2.014-.7,3.511.57,3.146,2.66a6.175,6.175,0,0,1-1.547,3.049c-.66.741-1.4,1.413-2.114,2.1-.691.668-.718.764-.139,1.558a4.468,4.468,0,0,0,4.491,1.642,22.206,22.206,0,0,0,4.877-1.116c2.5-.915,4.915-2.071,7.369-3.119a2.137,2.137,0,0,0,1.346-1.752c.728-3.688,3.038-6.237,6.146-8.149a4.617,4.617,0,0,1,1.315-.5,2.332,2.332,0,0,1,2.563.749,2.2,2.2,0,0,1,.085,2.524,8.453,8.453,0,0,1-1.656,2.266c-1.723,1.524-3.569,2.908-5.342,4.376-.59.49-1.669.6-1.435,1.795a3.513,3.513,0,0,0,2.493,2.746,9.582,9.582,0,0,0,4.823-.133c2.162-.6,4.271-1.39,6.4-2.107a1.867,1.867,0,0,0,1.377-1.661,7.409,7.409,0,0,1,4.181-5.391,5.77,5.77,0,0,1,2.569-.5,1.827,1.827,0,0,1,1.862,2.332,5.053,5.053,0,0,1-1.174,2.336,38.022,38.022,0,0,1-3.742,3.083c-.741.574-.8.8.046,1.116a30.324,30.324,0,0,0,3.137.833m45.2-11.38c.151-1.2-.4-1.675-1.285-1.2a8.976,8.976,0,0,0-2.633,1.925,34.035,34.035,0,0,0-2.815,4.143,9.274,9.274,0,0,0-.733,1.9c-.042.123.051.29.082.437a1.452,1.452,0,0,0,.423-.1,17.127,17.127,0,0,0,6.249-5.618,14.154,14.154,0,0,0,.711-1.489m-66.449,5.112a2.814,2.814,0,0,0,.472-.247c1.6-1.334,3.217-2.661,4.8-4.028a4.2,4.2,0,0,0,.815-1.14,1.983,1.983,0,0,0,.1-.7,1.9,1.9,0,0,0-.746-.057,5.606,5.606,0,0,0-1.246.644,12.493,12.493,0,0,0-3.546,3.727,13.186,13.186,0,0,0-.722,1.39c-.043.093.043.248.077.406M168.323,33.7c.927-.934,1.723-1.734,2.507-2.546.007-.005-.156-.252-.228-.247a4.439,4.439,0,0,0-2.483,2.235c-.024.088.07.206.2.558m-14.179-2.714c-.084-.022-.206-.092-.244-.059q-.948.8-1.871,1.624c-.031.028.039.168.062.256.567-.437,1.138-.868,1.7-1.312a1.852,1.852,0,0,0,.292-.364.741.741,0,0,0,.063-.144m-40.755.853c.1-.065.162-.082.191-.121.379-.492.76-.984,1.125-1.487.042-.059-.012-.189-.022-.286-.123.034-.3.026-.36.106-.341.454-.663.923-.967,1.4-.051.081.016.234.032.385" transform="translate(35.966 7.898)"/>
    <path id="Path_202" data-name="Path 202" d="M165.329,69.486c-2.509.048-4.809-.476-6.52-2.484-.519-.609-.943-.19-1.376.026a38.282,38.282,0,0,1-8.688,3.166,18.05,18.05,0,0,1-5.616.482c-2.39-.213-4.546-.892-5.7-3.271-.318-.659-.662-.284-.994-.075a37.556,37.556,0,0,1-8.82,4.077,23.322,23.322,0,0,1-8.041,1.167c-2.825-.123-5.276-.918-6.7-3.6-.392-.738-.806-.426-1.276-.186a39.8,39.8,0,0,1-9.689,3.615,17.183,17.183,0,0,1-7.168.2,6.481,6.481,0,0,1-4.809-3.428c-.372-.733-.7-.7-1.323-.373a35.923,35.923,0,0,1-11.882,3.9,20.824,20.824,0,0,1-6.72.2,6.614,6.614,0,0,1-3.448-1.386c-.624-.571-1.041-.4-1.632-.05a22.543,22.543,0,0,1-6.288,2.811,15.765,15.765,0,0,1-3.1.2.819.819,0,0,1-.913-.86c-.039-.679.376-.931.962-.988,3.115-.3,5.791-1.718,8.419-3.273a1.953,1.953,0,0,0,1.087-1.711,10.17,10.17,0,0,1,3.368-6.727,5.431,5.431,0,0,1,1.882-1.089,2.18,2.18,0,0,1,2.94,2.091,4.4,4.4,0,0,1-1.036,3.067c-1.133,1.363-2.386,2.629-3.63,3.9-.707.719-.748.939.174,1.248a8.933,8.933,0,0,0,2.6.516A33.334,33.334,0,0,0,88.471,66.01a1.734,1.734,0,0,0,.927-1.345,8.074,8.074,0,0,1,1.482-3.6,3.169,3.169,0,0,1,2.342-1.417,2,2,0,0,1,2.293,2.44A6.212,6.212,0,0,1,94.4,64.462,10.011,10.011,0,0,1,92.5,66.32a1.108,1.108,0,0,0-.3,1.52,3.741,3.741,0,0,0,1.85,1.85,9.162,9.162,0,0,0,4.446.763,24.424,24.424,0,0,0,8.364-1.975c1.551-.628,3.05-1.382,4.58-2.068a2.178,2.178,0,0,0,1.272-1.47,6.758,6.758,0,0,1,2.638-3.623,6.357,6.357,0,0,1,1.847-.819,1.776,1.776,0,0,1,1.911.792,1.4,1.4,0,0,1,0,1.888c-.806.95-1.735,1.8-2.627,2.674a4.752,4.752,0,0,1-.64.453c-1.417.993-1.4,2.069.119,2.951a8.351,8.351,0,0,0,5.016.963A32.013,32.013,0,0,0,135.719,64.8a2.938,2.938,0,0,0,1.446-2.1,8.268,8.268,0,0,1,2.412-4.334c1.234-1.24,2.579-1.524,3.5-.794.792.628.931,1.929.039,3.314a28.532,28.532,0,0,1-2.964,3.632c-.822.9-.926,1.252-.193,2.258a4.414,4.414,0,0,0,3.57,1.677,17.723,17.723,0,0,0,6.652-.959c2.13-.707,4.183-1.645,6.276-2.47a1.27,1.27,0,0,0,.892-1.543,5.1,5.1,0,0,1,4.724-5.447c1.993-.062,3.007,1.343,2.289,3.216a7.918,7.918,0,0,1-2.714,3.2c-1.144.922-1.13,1.182.179,1.913a7.492,7.492,0,0,0,4.729.756,25.916,25.916,0,0,0,8.511-2.631,4.06,4.06,0,0,1,1.318-.431.914.914,0,0,1,.775.344,1.331,1.331,0,0,1-.028,1.02,2.134,2.134,0,0,1-.821.7,21.508,21.508,0,0,1-10.979,3.354m-94.384-6.9c-.039-.125-.054-.287-.1-.3a.633.633,0,0,0-.423.023A6.389,6.389,0,0,0,68.214,65.1a4.972,4.972,0,0,0-.243,1.016,3.225,3.225,0,0,0,.83-.507c.616-.707,1.19-1.454,1.75-2.207a4.584,4.584,0,0,0,.393-.822m89.146.381,1.982-2.346c-.092-.077-.2-.229-.275-.218a3.037,3.037,0,0,0-1.981,2.024c-.007.105.106.218.274.54" transform="translate(18.976 19.862)" fill="#fff"/>
    <path id="Path_203" data-name="Path 203" d="M22.7,57.188c-2.294.054-4.275-.52-5.6-2.555-.265-.41-.509-.41-.9-.17-.8.5-1.618.969-2.448,1.412a16.962,16.962,0,0,1-1.576.7,1.086,1.086,0,0,1-1.439-.594c-.38-.612.053-.977.465-1.311a4.871,4.871,0,0,1,.684-.38c.637-.36,1.266-.734,1.908-1.086a4.712,4.712,0,0,0,2.739-4.194,7.715,7.715,0,0,1,2.149-4.791,3.719,3.719,0,0,1,2.3-1.245,2.08,2.08,0,0,1,2.526,2.106,4.186,4.186,0,0,1-.734,2.839c-.974,1.291-2.012,2.538-3.091,3.742-.837.934-.891,1.351.039,2.175a4.083,4.083,0,0,0,3.225.957,25.2,25.2,0,0,0,10.9-4.167c.563-.356.529-.827.486-1.362a5.53,5.53,0,0,1,.534-3.364,9.582,9.582,0,0,1,1.859-2.285,2.345,2.345,0,0,1,3.824,2.586,15.472,15.472,0,0,1-1.409,2.778,6.555,6.555,0,0,1-1.141,1.292c-.414.4-.348.7.062,1.025A5.827,5.827,0,0,0,42.5,52.522a15,15,0,0,0,3.143-.9c.934-.335,1.475-.36,1.664.133.29.756-.209,1.149-.75,1.529A8.694,8.694,0,0,1,36.4,53.129c-.936-.7-.936-.7-1.972-.057a27.635,27.635,0,0,1-8.931,3.754c-.916.189-1.861.245-2.793.361m-3.15-9.112a5.984,5.984,0,0,0,.662-.85,13.232,13.232,0,0,0,.54-1.324c-.318.361-.662.7-.946,1.089a3.434,3.434,0,0,0-.381.825c-.022.054.069.151.125.261m18.593-1.811c-.059-.2-.088-.291-.123-.383a19.378,19.378,0,0,0-1.229,1.873c-.02.035,0,.094,0,.143.081-.012.2,0,.236-.042.392-.543.771-1.1,1.116-1.591" transform="translate(3.681 14.908)" fill="#5d5bea"/>
    <path id="Path_204" data-name="Path 204" d="M63.886,17.523c-1.459,0-2.049-.814-1.64-1.991a8.073,8.073,0,0,1,.581-1.11c.7-1.291,1.342-2.612,2.1-3.863a1.686,1.686,0,0,0-.238-2.238c-.837-1.006-1.582-2.09-2.366-3.141a3.2,3.2,0,0,1-.624-.893,2.156,2.156,0,0,1-.022-1.3,1.058,1.058,0,0,1,1.35-.521c.7.206,1.361.538,2.048.791.825.3,1.657.582,2.487.872.373-.741.74-1.485,1.122-2.22A4.764,4.764,0,0,1,69.473.562,2.21,2.21,0,0,1,70.827,0,1.045,1.045,0,0,1,71.8,1.064c.105,1.252.172,2.506.226,3.76S72.066,6.067,73.2,6.5c1.027.395,2.053.791,3.083,1.178.7.263,1.411.521,1.506,1.408s-.538,1.331-1.153,1.729c-.878.567-1.783,1.1-2.711,1.583a1.72,1.72,0,0,0-1.047,1.593c-.031.837-.121,1.671-.177,2.507-.028.418-.031.838-.05,1.257a1.475,1.475,0,0,1-1.028,1.44c-.655.209-1.077-.282-1.408-.764Q69.5,17.4,68.863,16.313c-.34-.575-.721-.606-1.289-.31-.88.461-1.795.858-2.709,1.245a6.285,6.285,0,0,1-.978.275" transform="translate(21.392 0)" fill="#5d5bea"/>
    <path id="Path_205" data-name="Path 205" d="M174.184,92.686a4.435,4.435,0,0,1-.628,0c-.826-.119-1.23.229-1.407,1.051-.3,1.377-.68,2.736-1.039,4.1a1.837,1.837,0,0,1-.329.862,1.908,1.908,0,0,1-1.151.62,1.487,1.487,0,0,1-1.035-.776c-.352-.808-.49-1.707-.773-2.549-.757-2.261-.769-2.257-3.1-2.251-.419,0-.838,0-1.258-.008a1.621,1.621,0,0,1-1.2-2.856,16.547,16.547,0,0,1,1.513-1.365c.361-.3.757-.563,1.132-.849,1-.761.994-.763.56-1.932-.309-.834-.648-1.659-.92-2.5a1.53,1.53,0,0,1,.524-1.827c.643-.5,1.19-.2,1.718.167.73.508,1.448,1.037,2.146,1.59a1.04,1.04,0,0,0,1.629-.055c.614-.64,1.322-1.191,1.987-1.781a6.081,6.081,0,0,1,.589-.517,1.484,1.484,0,0,1,1.884-.112c.574.547.342,1.125.07,1.725-.477,1.044-.92,2.1-1.378,3.158a.911.911,0,0,0,.365,1.222q.823.606,1.6,1.277a5.7,5.7,0,0,1,.984,1.008,1.536,1.536,0,0,1-1.07,2.579,10.138,10.138,0,0,1-1.407.081v-.053" transform="translate(56.156 28.273)" fill="#5d5bea"/>
  </g>
</svg>
