<svg id="Group_466" data-name="Group 466" xmlns="http://www.w3.org/2000/svg" xmlns:xlink="http://www.w3.org/1999/xlink" width="244.055" height="133.298" viewBox="0 0 244.055 133.298">
  <defs>
    <clipPath id="clip-path">
      <rect id="Rectangle_417" data-name="Rectangle 417" width="244.055" height="133.298" fill="none"/>
    </clipPath>
  </defs>
  <g id="Group_465" data-name="Group 465" clip-path="url(#clip-path)">
    <path id="Path_1549" data-name="Path 1549" d="M170.693,33.311l-.908.007c-.7-3.763.056-7.5.311-11.29a54.866,54.866,0,0,0,.08-6.126c-.043-.98-.1-1.961-.209-2.937a13.557,13.557,0,0,0-.353-2.334q.33.144.659.292c.561.252,1.057-.566.488-.837a104.215,104.215,0,0,0-12.572-4.7c-2.149-.7-4.3-1.4-6.438-2.126-2.014-.682-4-1.467-6.024-2.114a.368.368,0,0,0-.4-.124.231.231,0,0,0-.2.073c-3.978,1.53-7.923,3.146-11.874,4.745L127.3,8.249c-1.013.41-2.025.82-3.033,1.244a16.047,16.047,0,0,0-2.814,1.351.264.264,0,0,0,.2.48c.114-.021.227-.045.339-.071a.333.333,0,0,0,.292.2c.612.049,1.226.085,1.841.11a106.383,106.383,0,0,0,.11,11.07q.164,2.724.422,5.441c.086.906.181,1.811.292,2.714a18.05,18.05,0,0,0,.41,2.832.438.438,0,0,0,.193.259l-.078.008a.293.293,0,0,0,0,.585c1.493.152,3.022.084,4.521.1,1.424.011,2.848,0,4.272,0,2.931-.011,5.862-.042,8.793-.069q8.793-.08,17.585-.162,4.16-.042,8.321-.08a.505.505,0,0,0,.924-.009l.8-.007a.461.461,0,0,0,0-.922m-45.95-23.017c1.018-.394,2.03-.805,3.042-1.213q2.981-1.2,5.96-2.4c3.972-1.6,7.953-3.184,11.9-4.854a.441.441,0,0,0,.073-.04,47.03,47.03,0,0,0,5.58,2.246c2.093.745,4.208,1.427,6.317,2.121,3.8,1.252,7.557,2.568,11.23,4.139-.014.108-.025.217-.031.327a118.928,118.928,0,0,0-17.938-.229c-6.07.209-12.146.269-18.221.287-2.972.008-5.972-.1-8.947.023.347-.135.694-.275,1.04-.409M143.895,29.75c.02-1.374.043-2.747.057-4.121.016-1.344.008-2.69.055-4.033a9.669,9.669,0,0,1,.641-3.537c.8-1.839,3.217-3.4,5-1.829a4.381,4.381,0,0,1,1.158,3.282c.049,1.366-.012,2.741-.021,4.108-.019,3.149.034,6.309.117,9.457a.462.462,0,0,0,.2.38q-3.68.028-7.359.063a23.419,23.419,0,0,0,.154-3.77m7.812,3.7a.45.45,0,0,0,.179-.375c.009-3.19-.016-6.393-.109-9.582-.044-1.507-.019-3.044-.195-4.543a6,6,0,0,0-1.261-3.194c-1.484-1.759-4.081-1.131-5.518.336-1.819,1.858-1.775,4.744-1.809,7.162q-.037,2.622-.066,5.245a29.876,29.876,0,0,0,.048,5.027q-3.728.039-7.455.09c-1.676.025-3.35.036-5.025.077-1.448.035-2.928,0-4.378.124a.442.442,0,0,0,.144-.326A21.391,21.391,0,0,0,126,30.785c-.093-.9-.186-1.809-.272-2.714q-.265-2.778-.429-5.565c-.215-3.637-.332-7.277-.416-10.919,2.214.065,4.438.018,6.646.024,3.039.008,6.08.006,9.119-.032,6.048-.075,12.09-.4,18.138-.471a80.88,80.88,0,0,1,10.032.409c.033.57.109,1.144.145,1.695.064.979.123,1.956.149,2.937.056,2.083.021,4.17-.129,6.249-.257,3.572-1.073,7.372-.268,10.932q-8.5.07-17.005.124" transform="translate(-21.716 -0.179)"/>
    <path id="Path_1550" data-name="Path 1550" d="M127.98,35.571a25.933,25.933,0,0,1-2.608-.106,1.318,1.318,0,0,1-.918-.5l-1.184.1.922-.84q0-.016,0-.032a1.3,1.3,0,0,1,.13-.58,13.8,13.8,0,0,1-.288-1.964c-.025-.258-.049-.5-.078-.739-.1-.841-.2-1.738-.3-2.742-.172-1.8-.315-3.646-.425-5.475-.21-3.513-.26-6.932-.15-10.181-.3-.018-.594-.039-.883-.062a1.4,1.4,0,0,1-.477-.125q-.066.007-.131.007a1.266,1.266,0,0,1-1.008-.492l-2.889.123,2.632-1.021a1.27,1.27,0,0,1,.563-.926,13.981,13.981,0,0,1,2.55-1.263l.435-.18c1-.421,2.011-.831,3.045-1.249l5.958-2.411,1.911-.775c3.22-1.306,6.548-2.656,9.85-3.927A1.216,1.216,0,0,1,145.2.021a1.348,1.348,0,0,1,1.02.231c1.117.362,2.23.766,3.308,1.156.833.3,1.695.615,2.542.9,1.91.648,3.862,1.285,5.749,1.9l.8.26a104.386,104.386,0,0,1,12.575,4.714,1.392,1.392,0,0,1,.786,1.585,1.551,1.551,0,0,1-1.113,1.153c.02.179.038.354.055.523.014.139.027.276.042.411.095.866.163,1.82.214,3a56.143,56.143,0,0,1-.081,6.237c-.067.992-.168,1.987-.266,2.95a31.618,31.618,0,0,0-.189,7.266h.06a1.461,1.461,0,0,1,0,2.922l-.364,0a1.536,1.536,0,0,1-.93.31h0a1.468,1.468,0,0,1-.889-.292c-2.92.027-5.5.052-7.865.075-4.193.042-8.456.08-12.578.117l-5.008.045L141.6,35.5c-2.4.023-4.887.046-7.332.055l-.9,0c-.668,0-1.359.006-2.039.006-.487,0-.925,0-1.339,0-.394,0-.789,0-1.185,0C128.528,35.569,128.254,35.571,127.98,35.571ZM125.905,12.61c.1,3.9.22,6.969.39,9.838.108,1.837.251,3.7.426,5.529.087.915.181,1.826.271,2.707.027.266.065.537.105.825.057.406.115.821.145,1.244.641-.024,1.279-.03,1.9-.036.437,0,.889-.009,1.327-.019,1.166-.029,2.349-.043,3.492-.057l1.543-.02c1.883-.027,3.925-.052,6.359-.079-.053-.9-.016-1.814.02-2.7.019-.469.037-.912.042-1.348.016-1.51.036-3.129.066-5.248l0-.311c.03-2.438.068-5.471,2.09-7.536a5.6,5.6,0,0,1,3.895-1.7,3.989,3.989,0,0,1,3.1,1.423,6.906,6.906,0,0,1,1.49,3.721c.136,1.161.157,2.335.176,3.469.007.382.014.778.025,1.161.079,2.712.115,5.655.111,8.978l5.619-.04c2.955-.021,6-.042,9.013-.066a30.127,30.127,0,0,1,.2-7.326c.1-.931.2-1.809.261-2.687.141-1.96.184-4.029.127-6.15-.026-1-.089-2.021-.147-2.9-.016-.242-.04-.491-.066-.754l-.01-.1c-2.267-.222-4.684-.327-7.527-.327-.5,0-1.026,0-1.564.01-3.013.037-6.081.138-9.048.235s-6.055.2-9.09.236c-1.947.024-4.073.036-6.5.036-.813,0-1.675,0-2.634,0h-.4c-.571,0-1.153,0-1.717.006s-1.155.006-1.734.006C127.022,12.622,126.441,12.618,125.905,12.61ZM148,16.585a3.042,3.042,0,0,0-2.436,1.874,8.778,8.778,0,0,0-.558,3.173c-.032.927-.039,1.879-.044,2.8,0,.4-.005.806-.01,1.208-.01,1.01-.026,2.037-.041,3.03q-.008.547-.016,1.094c0,.3,0,.593,0,.909,0,.6.007,1.218-.031,1.836,1.552-.014,3.212-.029,5.026-.043-.084-3.384-.116-6.211-.1-8.853,0-.451.011-.907.019-1.347.017-.9.034-1.824,0-2.719a3.542,3.542,0,0,0-.82-2.567A1.455,1.455,0,0,0,148,16.585ZM129.039,9.655l.631.007c.873.009,1.775.019,2.657.019h.32c5.007-.014,11.6-.06,18.19-.286l1.017-.035c2.673-.093,5.438-.19,8.164-.19,1.2,0,2.328.018,3.4.056-2.161-.8-4.239-1.5-6.124-2.119l-1.071-.352c-1.73-.568-3.518-1.155-5.268-1.777l-.169-.06a50.459,50.459,0,0,1-5.1-2.024c-3.155,1.332-6.375,2.627-9.493,3.88l-2.079.837q-2.282.92-4.568,1.839Z" transform="translate(-21.716 -0.179)" fill="#5d5bea"/>
    <path id="Path_1551" data-name="Path 1551" d="M142.084,31.452c-.338-.039-.681-.059-1.027-.067.032-.681-.089-1.406-.12-2.055-.048-.986-.08-1.973-.117-2.96-.076-2-.183-4.006-.383-6a.353.353,0,0,0-.476-.3.381.381,0,0,0-.213-.557,11.972,11.972,0,0,0-3.924-.156,19.064,19.064,0,0,0-3.924.334c-.452.115-.3.705.1.755l.115.012c-.1,1.787-.112,3.573-.07,5.363l-.214.007c-.459.014-.461.729,0,.715l.236,0c.026.842.062,1.684.115,2.525a8.468,8.468,0,0,0,.3,2.552.34.34,0,0,0,.1.656c1.52.158,3.013.3,4.54.312.135.148.4.208.509,0a15.505,15.505,0,0,0,4.537-.478.333.333,0,0,0-.088-.65m-4.205-1.8q-.031-1.552-.115-3.1a14.139,14.139,0,0,0,1.979-.122c0,.024,0,.048,0,.071.023.985.039,1.971.074,2.956a11.418,11.418,0,0,0,.141,1.944c-.691.026-1.385.078-2.066.111a17.235,17.235,0,0,0-.015-1.857m1.869-9.423a.322.322,0,0,0,.052-.02.377.377,0,0,0-.043.163c-.067,1.7-.063,3.406-.032,5.109a14.475,14.475,0,0,0-2.024,0q-.174-2.528-.548-5.033a8.69,8.69,0,0,0,2.594-.215m-6.85.279c1.013.029,2.051-.068,3.05-.081.14,0,.283,0,.427,0q.2,2.552.337,5.11c-.178.011-.355.021-.531.03-1.034.053-2.07.14-3.105.2-.085-1.752-.131-3.507-.177-5.261m.46,11.1a9.243,9.243,0,0,0-.1-2.8c-.054-.761-.1-1.522-.142-2.285,1.021,0,2.046.026,3.065.019.192,0,.386,0,.58,0q.065,1.429.088,2.858c.01.658-.068,1.429,0,2.141-1.16.034-2.329.075-3.491.068" transform="translate(-23.536 -3.449)"/>
    <path id="Path_1552" data-name="Path 1552" d="M171.995,24.249l0,0a36.127,36.127,0,0,0-.071-5.649c-.042-.332-.6-.5-.656-.089-.012.082-.021.164-.031.246a.323.323,0,0,0-.027-.02,3.693,3.693,0,0,0-1.745-.21c-.691.012-1.383.034-2.074.053a21.126,21.126,0,0,0-3.981.259.246.246,0,0,0-.112.057.288.288,0,0,0-.481.207c-.113,1.972-.066,3.949-.024,5.923.021.987.039,1.974.076,2.961a5.881,5.881,0,0,0,.343,2.6.258.258,0,0,0,.094.089c-.109.025-.218.052-.323.083a.318.318,0,0,0,0,.609,18.742,18.742,0,0,0,4.157.145c.7,0,1.4-.024,2.1-.038a4.684,4.684,0,0,0,1.885-.2.446.446,0,0,0,.492-.291,13.636,13.636,0,0,0,.244-2.989c.047-1.024.09-2.048.117-3.074l.025-.012a.384.384,0,0,0,0-.658M171.17,19.3c-.154,1.574-.14,3.173-.177,4.754-.353,0-.713.038-1.049.054-.773.039-1.545.085-2.317.147-.024-.757-.048-1.513-.076-2.269a21.694,21.694,0,0,0-.1-2.441c.629,0,1.258,0,1.887,0a4.1,4.1,0,0,0,1.833-.241m-4.473.254a19.11,19.11,0,0,0-.045,2.433c0,.786,0,1.571.019,2.356-1.009.1-2.011.228-3.015.385-.066-1.777-.107-3.556-.243-5.328a16.177,16.177,0,0,0,3.284.154M163.654,30.6c0-.007.009-.011.012-.018a5.877,5.877,0,0,0,.131-2.6c-.034-.847-.076-1.694-.111-2.541q1.5-.038,3-.1c.04,1.688.1,3.371.274,5.052a25.634,25.634,0,0,0-3.311.209m7.2-2.734c-.032.782-.142,1.634-.112,2.441a6.558,6.558,0,0,0-1.391-.007c-.53.018-1.062.034-1.593.054.016-1.687-.048-3.37-.1-5.057l.056,0c.743-.033,1.485-.071,2.228-.1.319-.013.67,0,1.014-.025-.032.9-.062,1.8-.1,2.7" transform="translate(-29.13 -3.27)"/>
    <path id="Path_1553" data-name="Path 1553" d="M34.182,50.84c-.208-.469-.25-1.053-.875-1.267l-.149.5a1.61,1.61,0,0,0,1.024.771m118.651-6.2a17.917,17.917,0,0,0,5.48-1.713,6.861,6.861,0,0,0,2.935-3.906c.122-.317.083-.333-.232-.647a7.19,7.19,0,0,1-3.354,3.66c-1.369.773-2.773,1.488-4.158,2.231-.225.121-.442.256-.663.384l-.232.035a.217.217,0,0,0,.224-.045m-2.906-3.963a1.02,1.02,0,0,0,.262-.017c1.244-.42,2.5-.8,3.724-1.285a6.1,6.1,0,0,0,2.843-2.064,11.721,11.721,0,0,0,1.989-5.144c.124-.841.237-1.685.323-2.53a10.946,10.946,0,0,0,.059-1.64,1.018,1.018,0,0,0-.55-.906l-.946.658c-.056.347-.1.67-.161.992-.146.814-.27,1.635-.45,2.442a24.862,24.862,0,0,1-1.944,5.061,5.51,5.51,0,0,1-1.9,2.232q-1.618,1.11-3.241,2.21c-.1.055-.057.022-.01-.011m8.345-17.533c.569.188.1.87.128,1.307a7.574,7.574,0,0,1-.028.782l-.007-.01a1.192,1.192,0,0,0,.313.1c1.033.025,1.625.646,1.823,2.116a8.736,8.736,0,0,1,.007,1.138,1.706,1.706,0,0,1,1.053,1.021,4.114,4.114,0,0,1,.4,1.777c-.01.748.029,1.5-.011,2.243s-.152,1.478-.228,2.217c-.018.174-.021.349-.032.527a3.227,3.227,0,0,1,1.131,2.165,4.213,4.213,0,0,1-.213,1.537,8.124,8.124,0,0,1-2.88,4.368,10.056,10.056,0,0,1-3.071,1.291,54.817,54.817,0,0,1-6.753,1.559,2.854,2.854,0,0,1-.723.039,4.312,4.312,0,0,0-1.9.387c-.423.154-.854.286-1.241.415,1.517,6.4,2.849,12.775,4.7,19.024s3.718,12.474,5.6,18.767a4.056,4.056,0,0,0,.632,0c3.181-.513,6.319-1.223,9.446-1.988,4.7-1.15,9.4-2.351,14.119-3.419,3.31-.75,6.661-1.323,10-1.957,1.183-.225,2.376-.4,3.644-.6-.207-.288-.4-.589-.625-.861a3.038,3.038,0,0,1-.651-1.957,1.7,1.7,0,0,1,.86-1.588,17.157,17.157,0,0,1,3.388-1.589c.739-.269,1.484-.524,2.227-.785a.613.613,0,0,0-.06-.156c-1.052-1.158-1.307-2.686-1.879-4.066-.55-1.326-1.06-2.668-1.578-3.978-1.121-.165-2.182-.306-3.239-.479a13.982,13.982,0,0,1-5.162-1.639,11.694,11.694,0,0,1-5.681-7.574,10.428,10.428,0,0,1-.211-4.045,1.752,1.752,0,0,0,.017-.328,19.3,19.3,0,0,1,.721-4.9,35.8,35.8,0,0,1,2.323-6.245c.537-1.216,1.039-2.448,1.525-3.685a4.366,4.366,0,0,0,.115-2.948,2.608,2.608,0,0,1,.476-2.468c.206.053.409.111.616.155a20.3,20.3,0,0,0,2.438.5,6.119,6.119,0,0,0,3.359-.767c1.226-.638,2.425-1.332,3.6-2.062a26.506,26.506,0,0,1,4.731-2.293c.182-.068.364-.139.539-.206a5.578,5.578,0,0,1,1.329-5.126,8.846,8.846,0,0,1,4.2-2.841,5.2,5.2,0,0,1,6.2,2.025c.41.561.742,1.179,1.13,1.8l1.21-.622a7.375,7.375,0,0,1,4.491-.677,6.188,6.188,0,0,1,4.054,2.361,9.641,9.641,0,0,1,2.252,6.171c0,.517-.1,1.034-.162,1.6a10.185,10.185,0,0,1,1.014-.13,4.818,4.818,0,0,1,4.374,2.2,8.257,8.257,0,0,1,1.232,2.746,7.031,7.031,0,0,1-.471,4.491l-.4.92a9.578,9.578,0,0,1,2.756,4.383,7.519,7.519,0,0,1,.094,4.392,4.664,4.664,0,0,1-2.023,2.59c-.555.38-1.135.722-1.712,1.085a5.367,5.367,0,0,1,1.608,1.787,5.279,5.279,0,0,1-.853,5.813,11.66,11.66,0,0,1-6.379,3.416,9.309,9.309,0,0,1-4.861-.264c-.1-.034-.207-.048-.316-.074-1.241,1.791-3.116,1.946-5.082,1.943a9.416,9.416,0,0,0,.739,2.677,2.082,2.082,0,0,0,.506-.006,4.984,4.984,0,0,1,2.027.072,3.05,3.05,0,0,1,2.094,1.464,13.3,13.3,0,0,1,1.567,3.319,102.39,102.39,0,0,0,5,12.327A135.881,135.881,0,0,1,232.9,96.927c1.843,5.268,3.687,10.536,5.431,15.836,1.795,5.455,3.461,10.952,5.2,16.425a8,8,0,0,1,.514,2.746.866.866,0,0,1-.375.839,5.194,5.194,0,0,1-1.155-1.562,19.16,19.16,0,0,1-1.1-3.074c-1.377-4.365-2.795-8.719-4.135-13.1-2.465-8.041-5.224-15.979-8.186-23.849-1.064-2.827-2.364-5.55-3.663-8.272A100.174,100.174,0,0,1,221.3,72.695a19.931,19.931,0,0,0-1.372-2.971,2.7,2.7,0,0,0-3.074-1.254,106.158,106.158,0,0,0-11.269,2.914q-3.917,1.181-7.8,2.47a23.68,23.68,0,0,0-2.564,1.164,7.739,7.739,0,0,0-.7.429l1.51,2.274a.818.818,0,0,0,.215.035,20.894,20.894,0,0,1,9.316,1.895,18.262,18.262,0,0,1,4.935,2.717,4.53,4.53,0,0,1,1.826,2.14l-.379,1.105-1.147.111c-.571-.482-1.093-.952-1.644-1.385a22.09,22.09,0,0,0-6.49-3.268,15.5,15.5,0,0,0-6.258-.889c-1.35.092-2.693.3-4.033.5-1.36.2-2.715.428-4.066.673-1.909.347-3.82.685-5.716,1.094-2.425.525-4.837,1.117-7.253,1.682a4.787,4.787,0,0,0-.47.167,6.121,6.121,0,0,1,.684,2.649c.126.863.238,1.729.344,2.6.113.933.214,1.869.318,2.8q.185,1.661.364,3.323c.053.5.108,1,.149,1.5.056.676.091,1.354.149,2.03.063.741.144,1.481.214,2.222q.086.916.166,1.833c.094,1.069.161,2.141.287,3.206.109.932.292,1.855.429,2.783.171,1.167.354,2.333.479,3.506.1.976.134,1.961.2,3,.433-.039.887-.059,1.332-.125,1.666-.245,3.328-.521,5-.753,1.213-.168,2.435-.273,3.65-.429,2.236-.287,4.474-.56,6.7-.895,2.1-.316,4.182-.71,6.274-1.057a2.464,2.464,0,0,1,1.821.373l.23.565-1.082.865a6.918,6.918,0,0,1,2.873,2.255,2.482,2.482,0,0,1-.484,0c-1.034-.273-2.058-.58-3.1-.826a8.218,8.218,0,0,0-3.381-.039l-.781-.69L185.517,116.8c.241,1.747.509,3.535.731,5.328a76.261,76.261,0,0,1,.539,8.871c.007,1.032.062,2.064.122,3.1a1.6,1.6,0,0,1-.69,1.486c-.557.159-.812-.351-1.153-.6a1.97,1.97,0,0,1-.57-.919,3.216,3.216,0,0,1-.11-.978c-.06-2.153-.093-4.309-.169-6.461-.045-1.272-.155-2.541-.235-3.812-.053-.854-.1-1.708-.158-2.562-.047-.7-.113-1.4-.154-2.1-.021-.366,0-.734,0-1.131-1.128.182-2.2.387-3.282.521a12.644,12.644,0,0,1-2.1.081,1.341,1.341,0,0,1-.782-.4,5.009,5.009,0,0,1-1.331-3.333c-.056-.678-.094-1.359-.147-2.037a1.561,1.561,0,0,0-.1-.3c-.327.073-.643.129-.951.213-3.785,1.048-7.593,2-11.453,2.722-1.671.314-3.34.657-5.024.882a31.6,31.6,0,0,1-5.974.285,22.725,22.725,0,0,1-8.812-2.135,17.258,17.258,0,0,1-7.522-7.232,39.6,39.6,0,0,1-3.277-8.118,70.547,70.547,0,0,1-1.885-7.923c-.34-1.883-.7-3.763-1.025-5.649-.175-1.03-.276-2.072-.424-3.107-.158-1.1-.34-2.194-.494-3.293-.112-.8-.193-1.6-.3-2.4-.117-.906-.243-1.812-.361-2.719-.057-.432-.117-.865-.159-1.3-.139-1.434-.255-2.87-.41-4.3-.148-1.365-.338-2.725-.5-4.089-.152-1.255-.294-2.512-.5-3.768,0,1.1,0,2.2,0,3.294-.01,2.485-.015,4.97-.04,7.456-.012,1.253-.053,2.5-.1,3.757-.083,2.283-.168,4.566-.273,6.848q-.1,2.236-.263,4.471c-.1,1.4-.25,2.795-.368,4.192-.059.7-.094,1.4-.141,2.1-.093,1.4-.157,2.8-.289,4.2-.13,1.373-.337,2.739-.494,4.11a27.422,27.422,0,0,1-.947,4.686,15.23,15.23,0,0,1-4.219,7.145,14.156,14.156,0,0,1-6.343,3.578,16.278,16.278,0,0,1-4.907.287c-.766-.057-1.533-.113-2.295-.21-1.824-.232-3.653-.437-5.465-.741-4.062-.681-7.985-1.95-11.99-2.872a46.912,46.912,0,0,1-5.946-1.856c-.282-.106-.572-.19-.869-.288-.468.979-.9,1.935-1.377,2.87-.645,1.267-1.316,2.52-1.99,3.772a5.393,5.393,0,0,1-.526.754,1.477,1.477,0,0,1-1.763.525c-1.114-.383-2.215-.8-3.322-1.209l-.386-.143c-.25.682-.466,1.368-.747,2.025a11.788,11.788,0,0,1-3.1,4.436,9.425,9.425,0,0,1-3.093,1.7,17.49,17.49,0,0,0-2.89,1.242,3.027,3.027,0,0,0-1.343,1.381c-.635,1.365-1.359,2.688-1.992,4.054a15.985,15.985,0,0,0-.766,2.16,4.728,4.728,0,0,1-1.865,2.76h-.264l-.447-1.055c.205-.516.4-.976.575-1.447a50.615,50.615,0,0,1,3.672-7.541,4.956,4.956,0,0,1,2.657-2.237q1.47-.565,2.911-1.2a7.446,7.446,0,0,0,1.315-.736,10.746,10.746,0,0,0,3.857-6.194c-.2-.1-.4-.2-.59-.294Q65.2,112.9,59.96,110.4c-3-1.424-6.009-2.836-9.011-4.259a4.367,4.367,0,0,1-.731-.439c-.642-.478-.621-1.028.062-1.549a2.745,2.745,0,0,1,1.547.392c1.835.892,3.649,1.827,5.493,2.7q6.723,3.179,13.47,6.305c1.729.8,3.5,1.494,5.268,2.21a5.709,5.709,0,0,0,1.115.208c.288-.5.576-.91.782-1.361.6-1.311,1.118-2.659,1.752-3.952a82.259,82.259,0,0,0,4.077-9.926,125.833,125.833,0,0,0,3.544-12.711c.184-.82.326-1.649.486-2.465-2.631-.986-5.227-1.939-7.809-2.933-4.478-1.723-8.976-3.393-13.574-4.765A80.655,80.655,0,0,0,52.6,74.722a16.6,16.6,0,0,0-5.1.216A14.912,14.912,0,0,0,40.4,78.494a46.687,46.687,0,0,0-8.085,9.246c-1.191,1.791-2.339,3.61-3.523,5.406-1.856,2.817-3.735,5.621-5.373,8.574-2.626,4.735-4.947,9.625-7.295,14.5-1.853,3.849-3.626,7.737-5.445,11.6-.644,1.367-1.289,2.735-1.993,4.071A2.978,2.978,0,0,1,6.7,133.282c-.356-.521-.591-1.053-.237-1.564A16.981,16.981,0,0,0,7.7,129.257q3.278-6.873,6.578-13.737c.443-.921.906-1.832,1.383-2.794a3.363,3.363,0,0,1-1.339-2.062,1.066,1.066,0,0,0-.091-.174,11.2,11.2,0,0,1-1.3-4.5,13.722,13.722,0,0,1,.326-4.5c.183-.754.365-1.508.565-2.329-.228.033-.394.066-.562.079a14.174,14.174,0,0,1-2.221.142,11.653,11.653,0,0,1-2.373-.5,19.563,19.563,0,0,1-4.945-2.108,5.736,5.736,0,0,1-2.339-2.843A11.726,11.726,0,0,1,.736,91.07a16.409,16.409,0,0,1-.064-4.2,24.72,24.72,0,0,1,2.053-6.891c.328-.726.686-1.439,1.047-2.195-.674,0-1.287.03-1.894-.007A1.647,1.647,0,0,1,.237,76.7,2.074,2.074,0,0,0,0,76.314v-.264a4.116,4.116,0,0,1,1.91-.406,3.034,3.034,0,0,0,2.15-.833,16.876,16.876,0,0,0,4.752-7.824,11.562,11.562,0,0,0,.4-3.45,93.128,93.128,0,0,1,.262-9.477c.13-1.108.211-2.223.261-3.338a25.77,25.77,0,0,1,.542-4.022,35.479,35.479,0,0,1,1.768-6.148,29.546,29.546,0,0,1,3.707-6.34c.668-.916,1.381-1.8,2.111-2.747-.645-.236-1.254-.475-1.874-.681A1.455,1.455,0,0,1,14.933,29.6c.061-.176.131-.379.2-.58l.741-.327,1.881.846a3.143,3.143,0,0,1-.13-1.962l.692-.3c.736.706.638,1.709,1.024,2.578a29.255,29.255,0,0,1,5.575-4.419c0-.228,7.49-3.753,13.237-3.753s11.494-1.642,13.136,0,3.059,3.621,2.965,5.166a19.991,19.991,0,0,1-.317,1.983c.17.089.4.206.628.333.575.32,1.167.613,1.716.974a4.026,4.026,0,0,1,1.743,4.29,5.356,5.356,0,0,1-.734,2.023,3.113,3.113,0,0,0,1.984.518,11.28,11.28,0,0,0,1.769-.447,2.877,2.877,0,0,1,1.762-.126,3.614,3.614,0,0,1,.147.979,4.159,4.159,0,0,1-.432,1.566,12.22,12.22,0,0,0-.821,1.789,9.374,9.374,0,0,0-.552,2.078,16.737,16.737,0,0,0,.314,4.046,15.841,15.841,0,0,1,.232,3.788,22.618,22.618,0,0,1-.834,4.093,10.488,10.488,0,0,1-2.016,4.152c-.68.768-1.49,1.42-2.33,2.206l-.455,1.4a2.8,2.8,0,0,0-.929.694c.6.1,1.045.167,1.49.255a26.3,26.3,0,0,1,4.823,1.521,14.367,14.367,0,0,1,7.782,7.487,7.075,7.075,0,0,1,.843,3.539c.2.07.41.138.615.212q4.762,1.715,9.524,3.434c4.04,1.461,8.075,2.936,12.118,4.388a57.751,57.751,0,0,1,5.53,1.892,2.4,2.4,0,0,0,.447-.886c.621-2.417,1.256-4.831,1.837-7.258.594-2.476,1.138-4.965,1.688-7.451.509-2.3,1-4.6,1.5-6.9.43-1.979.854-3.96,1.3-5.936.317-1.4.677-2.793,1-4.194.109-.479.152-.972.228-1.479-.3-.067-.508-.123-.722-.159-.926-.158-1.858-.291-2.779-.471-1.606-.316-3.2-.671-4.809-.991a30.534,30.534,0,0,1-6.586-2.124A6.548,6.548,0,0,1,87.124,43.9c-.224-.745-.3-1.534-.458-2.3a5.816,5.816,0,0,1,.373-3.53c-.1-.705-.193-1.351-.269-2a10.315,10.315,0,0,1-.089-3.526,1.413,1.413,0,0,1,.941-1.215,13.419,13.419,0,0,1-.418-3.395,4.036,4.036,0,0,1,.607-2.049,1.648,1.648,0,0,1,1.151-.795c.253-.052.522-.218.719-.167s2.934-2.869,3.618-1.409.6.869.828,1.339q1.41,2.889,2.773,5.8a8.31,8.31,0,0,0,2.538,3.062,8.641,8.641,0,0,0,4.5,1.511c1.918.213,3.851.294,5.777.435.678.049,1.356.108,2.035.158q1.477.112,2.954.219c.722.053,1.45.063,2.166.161a23.319,23.319,0,0,1,5.212,1.326,6.26,6.26,0,0,1,3.722,2.741,5.184,5.184,0,0,1,2.358-2.034,10.325,10.325,0,0,1,1.086-.47,32.84,32.84,0,0,1,9.313-1.859c.876-.048,1.749-.169,2.625-.206,1.183-.05,2.371-.11,3.552-.057a7.188,7.188,0,0,0,3.86-.849,8,8,0,0,0,2.855-2.676c.691-1.034,1.287-2.135,1.886-3.227.935-1.7,1.657-3.539,3.11-4.847,0,0,1.257-1.088,1.827-.9M82.925,107.587c1.242.44,2.411.959,3.633,1.268q6.7,1.7,13.438,3.274a37.744,37.744,0,0,0,5.978.863c.832.06,1.66.177,2.493.214a16.451,16.451,0,0,0,4.465-.135,10.3,10.3,0,0,0,7.291-5.716,27.017,27.017,0,0,0,2.1-8.963c.117-1.045.181-2.1.285-3.144.161-1.614.355-3.225.5-4.84.155-1.748.282-3.5.4-5.249.145-2.169.271-4.338.394-6.508.1-1.731.193-3.464.263-5.2.1-2.5.246-5,.254-7.506.015-4.506-.035-9.015-.1-13.52-.034-2.195-.192-4.387-.254-6.581-.04-1.448-.007-2.9-.007-4.412a4.844,4.844,0,0,0-1.771-1.22,21.418,21.418,0,0,0-8.05-1.874,32.654,32.654,0,0,1-3.9-.455c-2.134-.333-4.259-.722-6.4-.984a17.052,17.052,0,0,1-3.39-.7A6.447,6.447,0,0,1,96.58,32.85c-.54-1.119-1.021-2.268-1.551-3.392q-.989-2.1-2.016-4.184a2.283,2.283,0,0,0-.925-1.08,1.576,1.576,0,0,0-.737,1.338,6.262,6.262,0,0,0,.334,2.713c.509,1.323,1.043,2.638,1.577,3.951.469,1.154.943,2.305,1.431,3.451a2.815,2.815,0,0,0,1.447,1.47,18.405,18.405,0,0,0,1.809.784c2.094.719,4.2,1.4,6.3,2.106.224.075.436.184.661.281.012.515.447.909.245,1.41l-.562.5c-.348-.08-.733-.141-1.1-.259-1.434-.459-2.862-.938-4.294-1.4a19.839,19.839,0,0,1-3.318-1.393,5.1,5.1,0,0,1-2.6-3.154c-.21-.709-.429-1.421-.706-2.106a34.346,34.346,0,0,1-2.285-6.995,1.3,1.3,0,0,0-1.566,1.277,8.038,8.038,0,0,0,.125,1.823,32.686,32.686,0,0,0,1.7,5.962,7.245,7.245,0,0,0,4.163,4.412c.957.374,1.95.658,2.937.949,1.006.3,2.023.55,2.958.8a1.751,1.751,0,0,1,.244,1.36c-.066.518-.369.753-.873.622a42.114,42.114,0,0,1-5.872-1.818,8,8,0,0,1-4.474-4.488c-.361-.888-.659-1.8-.965-2.709-.2-.587-.359-1.186-.537-1.78a1.3,1.3,0,0,0-.068.61c.169,1.163.305,2.333.539,3.484a6.906,6.906,0,0,0,3.6,5,18.794,18.794,0,0,0,6.8,2.1c.516.059,1.025.167,1.5.246.223.641.223.641-.174,1.677a2.319,2.319,0,0,1-1.2.07,20.882,20.882,0,0,1-4.605-.952c-2.434-.823-4.8-1.771-6.316-4.049a.963.963,0,0,0,.044.26c.022.085.041.17.062.255a5.822,5.822,0,0,0,2.916,3.946A19.956,19.956,0,0,0,96,47.78c1.61.39,3.233.732,4.86,1.041s3.268.548,4.9.822c.6.1,1.2.211,1.874.331a6.217,6.217,0,0,1,.056,1.247c-.2,1.268-.423,2.537-.707,3.789-.516,2.271-1.119,4.523-1.621,6.8-.837,3.782-1.611,7.576-2.433,11.361q-.879,4.047-1.82,8.079a25.128,25.128,0,0,1-1.655,5.512l1.846.993a2.648,2.648,0,0,0,.435.837c-.2.766-.835,1.126-1.45,1.5-.254-.122-.457-.2-.647-.311a22.722,22.722,0,0,0-4.573-1.94c-1.292-.393-2.58-.8-3.871-1.2l-1.927-.6a107.016,107.016,0,0,1-6.349,21.543m71.541-21.35c-.147-.362-.285-.638-.374-.929-1.383-4.474-2.789-8.943-4.13-13.43-.9-3.015-1.787-6.038-2.543-9.09-1.041-4.2-1.952-8.437-2.924-12.657-.115-.5-.26-1-.389-1.49l-1.21.207a1.743,1.743,0,0,1-.108-1.777l5.617-1.683c-.022-.4-.044-.8-.063-1.171a2.083,2.083,0,0,1,.352-.227,58.594,58.594,0,0,0,8.132-3.557,6.5,6.5,0,0,0,3.266-3.711,14.226,14.226,0,0,0,.623-5.114,3.616,3.616,0,0,0-.232-.869,6.842,6.842,0,0,0-.36,1.588,16.043,16.043,0,0,1-1.554,5.238,7.292,7.292,0,0,1-4.081,3.808c-1.514.568-3.03,1.13-4.561,1.651a6.573,6.573,0,0,1-2.105.411c-.425-.5-.336-1.122-.483-1.681l-1.864.529a1.618,1.618,0,0,1-.337-2.078,2.5,2.5,0,0,1,.274-.145c1.635-.633,3.281-1.241,4.905-1.9a6.221,6.221,0,0,0,3.584-2.943,32.136,32.136,0,0,0,1.657-4.132,38.392,38.392,0,0,0,.815-3.824c.114-.559.22-1.12.329-1.679a2.412,2.412,0,0,0-.735.694,11.258,11.258,0,0,0-.874,1.387c-.909,1.842-1.78,3.7-2.683,5.547a6.978,6.978,0,0,1-.832,1.41,7.937,7.937,0,0,1-4.553,2.791,10.529,10.529,0,0,1-1.3.15q-2.293.192-4.588.37c-1.2.094-2.414.109-3.6.291-1.526.236-3.045.548-4.541.93a16.81,16.81,0,0,0-4.052,1.48,3.851,3.851,0,0,0-1.959,2.509,2.069,2.069,0,0,0-.079.959,33.794,33.794,0,0,1,.879,5.553c.041.522.106,1.043.164,1.565q.176,1.564.359,3.126c.1.89.193,1.782.306,2.671.105.823.241,1.642.35,2.464.15,1.126.292,2.253.433,3.38.125,1,.25,1.994.361,2.993.106.956.187,1.915.291,2.872.117,1.064.247,2.126.37,3.19.1.846.183,1.694.3,2.539.154,1.146.33,2.289.493,3.434.148,1.035.279,2.074.44,3.108.193,1.248.413,2.491.615,3.737.19,1.181.33,2.371.569,3.541.441,2.151.9,4.3,1.42,6.432a47.874,47.874,0,0,0,3.02,8.978,15.169,15.169,0,0,0,5.62,6.553,18.388,18.388,0,0,0,8.985,2.6,31.369,31.369,0,0,0,6.241-.273c1.841-.253,3.681-.556,5.495-.954,3.333-.732,6.648-1.546,9.969-2.337.65-.155,1.288-.365,1.942-.553-.057-.335-.111-.59-.143-.849-.142-1.148-.3-2.3-.41-3.447-.147-1.5-.259-3.008-.385-4.513-.015-.175-.012-.351-.028-.527-.077-.893-.164-1.786-.235-2.679-.057-.72-.089-1.442-.142-2.162-.044-.588-.1-1.176-.157-1.763-.071-.695-.155-1.388-.231-2.083-.1-.933-.2-1.867-.3-2.8-.073-.672-.157-1.343-.225-2.016-.04-.4-.06-.806-.091-1.236-2.545.672-5.031,1.327-7.517,1.985a66.468,66.468,0,0,1-6.844,1.469c-1.3.2-2.585.449-3.883.621a7.335,7.335,0,0,1-2.563.082,2.855,2.855,0,0,1,.022-2.183l2.074-.383m51.211-50.872a6.256,6.256,0,0,1,.177-6.324c-.265-.8-1.128-1-1.521-1.642.082-.456.16-.892.24-1.337a4.9,4.9,0,0,0-2.022.251,22.092,22.092,0,0,0-4.645,2.124c-.856.533-1.716,1.064-2.6,1.542a9.994,9.994,0,0,1-5.76,1.484c-.339-.033-.678-.076-1.046-.117-.018.154-.033.259-.043.365-.077.806-.119,1.617-.243,2.416a10.687,10.687,0,0,1-.407,1.414c1.312-.311,2.606-.645,3.913-.915a5.815,5.815,0,0,1,2.485-.043,1.049,1.049,0,0,1,.894,1.489,2.625,2.625,0,0,1-.443.865,6.391,6.391,0,0,1-1.863,1.542,15.9,15.9,0,0,1-4.076,1.41c-.911.2-1.846.276-2.915.428-.448,1.317-.957,2.773-1.439,4.238a14.666,14.666,0,0,0-.65,4.983c.014.593,0,1.189.039,1.781a8.79,8.79,0,0,0,.213,1.552,9.177,9.177,0,0,0,3.543,5,9.392,9.392,0,0,0,3.9,1.656c1.6.337,3.207.672,4.827.895a30.536,30.536,0,0,0,3.933.248,6.508,6.508,0,0,1,2,.321c.007.1.048.214.011.268a2.724,2.724,0,0,1-1.151,1.131,9.921,9.921,0,0,1-1.493.474c-.541.115-1.1.144-1.689.216a59.8,59.8,0,0,1,2.64,7.258l-.2.535c2.223-.607,4.375-1.2,6.531-1.779,2.411-.648,4.828-1.281,7.24-1.924.18-.048.35-.128.525-.193-.254-.656-.485-1.258-.713-1.847a4.416,4.416,0,0,1-4.769-3.748,4.552,4.552,0,0,1-2.14-3.082,4.063,4.063,0,0,1,.649-3.682,2.232,2.232,0,0,1-1.3-2.293,3.521,3.521,0,0,1,1.7.255c.686.219,1.36.479,2.05.685a4.107,4.107,0,0,0,3.415-.4,16.576,16.576,0,0,0,2.883-2.075,4.941,4.941,0,0,0,1.451-2.086,1.562,1.562,0,0,0-.185-1.441,5.419,5.419,0,0,0-2.115-1.834,3.993,3.993,0,0,0-2.756-.259,15.852,15.852,0,0,0-4.105,1.691,1.469,1.469,0,0,1-1.076.158,1.808,1.808,0,0,1-1.438-1.527,4.086,4.086,0,0,1,.051-1.988c-2.564-1.55-2.787-5.495-.507-8.136M45.958,29.78a2,2,0,0,1,.149,1.349c-.08.685-.417.865-1.016,1.049-2.158.664-3.118,1.69-3.2,4.089a4.574,4.574,0,0,0,1.953,3.906c.562.422,1.159.8,1.741,1.19a12.524,12.524,0,0,1,3,2.552,6.014,6.014,0,0,1,1.186,5.552,3.907,3.907,0,0,1-1.313,2.111,11.62,11.62,0,0,1,7.873,6.658A5.486,5.486,0,0,0,58.39,55.71c.379-1.114.764-2.231,1.057-3.369a8.64,8.64,0,0,0,.314-2.8c-.026-.369-.087-.736-.128-1.105-.063-.562-.122-1.126-.189-1.733a9.322,9.322,0,0,0-2.963-.732,1.2,1.2,0,0,0-1.037.319,5.036,5.036,0,0,0,2.965,1.617c.358.072.719.125,1.069.185a1.419,1.419,0,0,1-.4,1.5c-.4-.059-.831-.1-1.253-.192a6.468,6.468,0,0,1-3.076-1.536A1.981,1.981,0,0,1,56.263,44.4a9.331,9.331,0,0,1,2.457.406,3.467,3.467,0,0,0,.443.1,28.005,28.005,0,0,1,.268-2.985,26.631,26.631,0,0,1,.858-2.8,5.629,5.629,0,0,1-2.277.169,10.223,10.223,0,0,1-5.574-2.837,12.5,12.5,0,0,1-1.721-2.235A19.7,19.7,0,0,0,45.8,28.765a16.116,16.116,0,0,0-4.665-2.638c-.642-.205-1.31-.333-2-.5.493,1.021,1,1.924,1.373,2.879s.621,1.956.925,2.938a4.769,4.769,0,0,1,4.524-1.659M35.026,52.344a4.052,4.052,0,0,1-2.047-.736,2.933,2.933,0,0,1-.818-2.492,2.553,2.553,0,0,0-2.023.269.632.632,0,0,1-.58-.618.611.611,0,0,1,.459-.65,3.9,3.9,0,0,1,1.254-.306,15.753,15.753,0,0,1,1.94.26c-.1-.629-.2-1.289-.305-2a3.233,3.233,0,0,0-2.731-.335,4.611,4.611,0,0,0-2.5,2.231,1.726,1.726,0,0,0-.292,1.378,6.616,6.616,0,0,0,.89,1.8,6.917,6.917,0,0,0,5.8,2.545c.551,0,1.1-.094,1.7-.149l-.755-1.194M186.41,38.809a2.219,2.219,0,0,0,.343,0c.966-.193,1.938-.363,2.9-.594a11.2,11.2,0,0,0,3.773-1.658c.255-.177.558-.329.669-.725a3.014,3.014,0,0,0-.814-.1c-1.1.188-2.2.371-3.274.643-1.009.255-1.991.618-2.978.932-.2.5-.393.961-.614,1.5m22.935-11.987a14.521,14.521,0,0,0-4.1-.746,3.9,3.9,0,0,1,1.933,1.512l2.166-.766" transform="translate(0 -2.803)"/>
    <path id="Path_1554" data-name="Path 1554" d="M254.846,55.7a12.4,12.4,0,0,1,6.025-1.484l.41.47a.882.882,0,0,1-.342.986,7.7,7.7,0,0,0-3.324.548,1.8,1.8,0,0,0,.19.305,1.659,1.659,0,0,1-.484,2.485,4.457,4.457,0,0,1-1.22.444,1.267,1.267,0,0,1-1.067-.411,2.306,2.306,0,0,1-.188-3.344m1.177,2.248.727-.42c-.7-.511-.816-.522-1.346-.129.2.173.382.337.62.548" transform="translate(-45.502 -9.701)"/>
    <path id="Path_1555" data-name="Path 1555" d="M242.053,35.3a1.615,1.615,0,0,1-1.521,1.342c-.48.07-1,.313-1.417-.234a1.192,1.192,0,0,1,.365-1.278,3.049,3.049,0,0,0,.871-1.267,4.987,4.987,0,0,1,3.37.975,1.9,1.9,0,0,1,.66,1.252c.074.471-.117.733-.65.943-.083-.1-.239-.2-.26-.319-.135-.784-.7-1.111-1.417-1.413" transform="translate(-42.792 -6.061)"/>
    <path id="Path_1556" data-name="Path 1556" d="M55.513,42.311c-.672-.137-.87-.488-.672-1.126a3.341,3.341,0,0,1,1.031-1.577,2.414,2.414,0,0,1,2.592-.433c.027.268.057.565.089.884.933.869,1.4,2.3.457,3.039-1.433.164-2.835-1.319-1.877-2.665a2.939,2.939,0,0,0-1.621,1.878" transform="translate(-9.803 -6.977)"/>
  </g>
</svg>
