<svg id="Group_57" data-name="Group 57" xmlns="http://www.w3.org/2000/svg" xmlns:xlink="http://www.w3.org/1999/xlink" width="114.353" height="170.171" viewBox="0 0 114.353 170.171">
  <defs>
    <clipPath id="clip-path">
      <rect id="Rectangle_32" data-name="Rectangle 32" width="114.353" height="170.171" fill="none"/>
    </clipPath>
  </defs>
  <g id="Group_56" data-name="Group 56" clip-path="url(#clip-path)">
    <path id="Path_225" data-name="Path 225" d="M29.927,26.2a7.136,7.136,0,0,0-.687.93,7.115,7.115,0,0,1-.747.878,2.9,2.9,0,0,1-1.684.876,1.607,1.607,0,0,1-.867-.124,1.186,1.186,0,0,1-.483-.43,1.3,1.3,0,0,1-.243-.611c-.015-.2.038-.424.038-.658.159-.417-.448-.847-.736-.452-.737.414-.509,1.664-.185,2.284A2.538,2.538,0,0,0,26.5,30.184a3.761,3.761,0,0,0,2.551-.937,6.581,6.581,0,0,0,1-1.059,5.492,5.492,0,0,0,.843-1.315.6.6,0,0,0-.965-.671"/>
    <path id="Path_226" data-name="Path 226" d="M47.471,21.214c-.394,0-.189.029-.567.135l-1.18.328-2.179.606-4.629,1.288c-1.513.421-3.026.84-4.536,1.27l-2.265.644a12.113,12.113,0,0,0-2.27.761c-.487.253-.178,1.011.318.98a12.116,12.116,0,0,0,2.343-.535l2.182-.594c1.546-.42,3.089-.85,4.632-1.279l4.539-1.263,2.269-.631a5.272,5.272,0,0,0,1.7-.6.611.611,0,0,0-.361-1.113"/>
    <path id="Path_227" data-name="Path 227" d="M24.879,26.146a76.661,76.661,0,0,0-8-5.341c-.8-.481-1.444.819-.65,1.3,2.689,1.628,5.3,3.382,8,5,.557.336,1.171-.55.653-.958"/>
    <path id="Path_228" data-name="Path 228" d="M17.6,26.1a5.038,5.038,0,0,0-1.36-.016c-.111-.7-.212-1.4-.3-2.1a17.717,17.717,0,0,1-.264-2.564c.01-.641.974-.907,1.147-.221.206.816.28,1.686.4,2.522.115.793.242,1.583.377,2.376"/>
    <path id="Path_229" data-name="Path 229" d="M19.946,41.756c-.214-.682-.424-1.364-.623-2.05a.606.606,0,0,0,.095.015.548.548,0,0,0,.217-1.074,4.858,4.858,0,0,1-.68-.217c-.042-.149-.084-.3-.126-.445.156.023.384.092.509.122.247.061.49.129.741.171.084.015.171.027.255.038.283,1.008.585,2.016.9,3.016a.679.679,0,0,1-1.29.424"/>
    <path id="Path_230" data-name="Path 230" d="M28.34,46.047l-3.327-2.2Q23.9,43.119,22.789,42.4a18.062,18.062,0,0,0-2.259-1.382.514.514,0,0,0-.571.836A17.877,17.877,0,0,0,22.1,43.393q1.1.753,2.2,1.49l2.212,1.476,1.106.738c.342.228.7.522,1.122.33a.49.49,0,0,0,.316-.469c.009-.471-.38-.682-.726-.911"/>
    <path id="Path_231" data-name="Path 231" d="M29.377,46.383c-.964-3.159-1.856-6.322-2.643-9.532q-.577-2.358-1.112-4.727-.267-1.184-.522-2.37c-.182-.842-.314-1.726-.576-2.546a.431.431,0,0,0-.838.161,21.867,21.867,0,0,0,.462,2.5q.247,1.19.506,2.376.528,2.418,1.108,4.825c.781,3.238,1.589,6.476,2.453,9.693.206.765,1.4.378,1.162-.384"/>
    <path id="Path_232" data-name="Path 232" d="M33.743,46.363a3.528,3.528,0,0,0-.29.414,1.887,1.887,0,0,1-.172.251,2.487,2.487,0,0,1-1.95.955,2.586,2.586,0,0,1-1.351-.447,4.234,4.234,0,0,1-1.012-1.16.511.511,0,0,0-.933.309,2.967,2.967,0,0,0,1.158,1.86,3.605,3.605,0,0,0,2.138.806,3.666,3.666,0,0,0,2.108-.612,2.983,2.983,0,0,0,1.406-1.812.647.647,0,0,0-1.1-.564"/>
    <path id="Path_233" data-name="Path 233" d="M35.463,45.865c-.808-3.136-1.549-6.291-2.25-9.454-.347-1.565-.674-3.134-1-4.7q-.25-1.2-.491-2.4a13.579,13.579,0,0,0-.532-2.384.411.411,0,0,0-.8.154,12.312,12.312,0,0,0,.363,2.417q.216,1.177.443,2.354c.309,1.606.648,3.2,1,4.8.7,3.2,1.476,6.37,2.3,9.536.167.642,1.135.319.97-.321"/>
    <path id="Path_234" data-name="Path 234" d="M51.518,41.111c-1.35.371-3.5,1.263-4.841,1.671q-1.972.6-3.966,1.127t-4,.987a32.76,32.76,0,0,0-4.093.95.557.557,0,0,0,.2,1.08,21.078,21.078,0,0,0,4.118-.735q2.06-.452,4.1-.993t4.052-1.157c1.332-.408,3.546-1.159,4.832-1.7a.647.647,0,0,0-.4-1.23"/>
    <path id="Path_235" data-name="Path 235" d="M23.5,34.824a2.166,2.166,0,0,0-.428-1.364.7.7,0,0,0,.082-.514,4.284,4.284,0,0,0-1.924-2.7.423.423,0,0,1,.019-.057,3.159,3.159,0,0,0-.168-2.611c-.545-.869-1.655-1.036-2.559-1.283A6.846,6.846,0,0,0,17.6,26.1a5.08,5.08,0,0,0-1.36-.016,3.845,3.845,0,0,0-3.269,2.377,7.224,7.224,0,0,0,.3,4.466,12.669,12.669,0,0,0,2.087,4.347,7.586,7.586,0,0,0,1.758,1.618,5.063,5.063,0,0,0,2.208.816.646.646,0,0,0,.095.015.548.548,0,0,0,.218-1.074,4.858,4.858,0,0,1-.68-.217c-2.805-1.1-4.126-4.393-4.736-7.167-.318-1.449-.181-3.071,1.39-3.642a3.309,3.309,0,0,1,.85-.186,4.422,4.422,0,0,1,1.364.089c.744.16,2,.322,2.353,1.088a1.461,1.461,0,0,1-.032,1.077,12.545,12.545,0,0,0-1.98-.4c-.144-.015-.288-.026-.433-.029-.3-.011-.622-.018-.941-.006a7.124,7.124,0,0,0-1.937.269c-.478.15-.484.978.06,1.031a15.677,15.677,0,0,0,2.119-.066c.095,0,.186-.008.281-.008a9.483,9.483,0,0,1,1.1.055,5.533,5.533,0,0,1,1.2.27,3.953,3.953,0,0,1,2.016,1.548A11.771,11.771,0,0,0,19.12,31.7c-.156-.031-.315-.057-.475-.088-.467-.083-.946-.162-1.421-.215a9.568,9.568,0,0,0-1.367-.07.635.635,0,0,0-.088,1.25c.581.091,1.17.136,1.758.2.221.027.445.057.665.1.255.041.513.087.768.136q.8.155,1.6.361a2.367,2.367,0,0,1,1.586.959.685.685,0,0,1-.488,1.052.344.344,0,0,0-.095.05c-.479-.2-.961-.393-1.455-.553-.247-.08-.5-.16-.753-.236-.49-.149-.988-.286-1.485-.384-.289-.061-.578-.11-.867-.144a.57.57,0,0,0-.225,1.116c.471.133.946.244,1.421.365.368.091.733.187,1.1.3.137.042.274.084.411.129.277.088.551.183.824.271a9.116,9.116,0,0,1,1.11.389,1.172,1.172,0,0,1,.217.118s.015,0,.015.054a.551.551,0,0,1-.1.333.885.885,0,0,1-.812.339,2.572,2.572,0,0,1-.923-.277l-.175-.073c-.194-.08-.388-.152-.585-.217-.213-.069-.437-.091-.65-.156a.441.441,0,0,0-.118-.019.63.63,0,0,0-.6.653.612.612,0,0,0,.787.539.428.428,0,0,1,.137,0c.156.023.383.092.509.122.247.061.49.13.741.171.083.015.171.027.254.038a2.956,2.956,0,0,0,1.219-.033,1.531,1.531,0,0,0,1.056-1.87.277.277,0,0,0-.027-.076,1.883,1.883,0,0,0,.916-1.513"/>
    <path id="Path_236" data-name="Path 236" d="M21.053,18.681a.467.467,0,0,0-.64-.14c-.593.4-1.194.793-1.779,1.206A13.043,13.043,0,0,0,16.919,21.1c-.257.254.052.78.4.617a7.319,7.319,0,0,0,.995-.552c.287-.194.576-.385.861-.582.589-.409,1.163-.84,1.744-1.26a.481.481,0,0,0,.138-.646"/>
    <path id="Path_237" data-name="Path 237" d="M27.473,24.723c-.152-.4-.258-.812-.416-1.208A6.166,6.166,0,0,0,25.7,21.3a10.689,10.689,0,0,0-2.309-1.652,13.54,13.54,0,0,0-2.641-1.172c-.528-.155-.724.62-.3.875.734.445,1.549.756,2.305,1.165a10.1,10.1,0,0,1,2.071,1.432,8.348,8.348,0,0,1,1.5,1.679,2.513,2.513,0,0,1,.423,1.126c.022.387-.137.819.007,1.186a.466.466,0,0,0,.852.066,1.69,1.69,0,0,0-.131-1.286"/>
    <path id="Path_238" data-name="Path 238" d="M43.926,16.123,38.77,18.032c-1.668.618-3.358,1.2-5,1.9a15.856,15.856,0,0,0-4.089,2.344c-1,.847-2.342,2.144-2.416,3.547-.021.407.523.519.763.272.477-.49.761-1.158,1.191-1.693a9.106,9.106,0,0,1,1.5-1.476A16,16,0,0,1,34.67,20.73c3.163-1.271,6.4-2.377,9.6-3.554.664-.244.324-1.3-.341-1.053"/>
    <path id="Path_239" data-name="Path 239" d="M45.449,19.153a5.03,5.03,0,0,0-.626.128c-.141.035-.285.069-.426.108q-.155-.574-.321-1.149c-.077-.276-.206-.587-.275-.893a1.442,1.442,0,0,1-.024-.556.45.45,0,0,1,.74-.243.825.825,0,0,1,.11.13,4.061,4.061,0,0,1,.455,1.23c.007.023.015.05.023.072.118.388.233.778.344,1.173"/>
    <path id="Path_240" data-name="Path 240" d="M51.593,36.578q-.463-2.527-.98-5.044c-.336-1.647-.684-3.293-1.063-4.931q-.285-1.229-.586-2.453a14.23,14.23,0,0,0-.688-2.519.521.521,0,0,0-1.012.194,15.761,15.761,0,0,0,.5,2.525q.26,1.189.505,2.381c.347,1.683.694,3.365,1.012,5.053q.468,2.481.874,4.974c.277,1.685.484,3.4.839,5.074.172.807,1.474.542,1.4-.269-.153-1.664-.5-3.343-.8-4.985"/>
    <path id="Path_241" data-name="Path 241" d="M46.347,21.769c-.133-.468-.271-.939-.409-1.406-.057-.2-.119-.41-.175-.617a1.959,1.959,0,0,0-.166-.564.2.2,0,0,0-.147-.03,4.993,4.993,0,0,0-.626.128c-.142.035-.286.07-.427.108-.3.074-.6.159-.9.24a84.478,84.478,0,0,0-8.81,2.883,29.042,29.042,0,0,0-3.748,1.737,25.929,25.929,0,0,0-3.288,2.388c-.447.358-.893-.32-.6-.712.076-.1.152-.2.236-.292A10.838,10.838,0,0,1,30.26,23.31c.3-.173.6-.335.894-.489a54.482,54.482,0,0,1,9.18-3.5q1.263-.387,2.54-.737c.4-.109.8-.232,1.2-.344.342-.1.688-.186,1.029-.259a1.07,1.07,0,0,1,.125-.027,1.28,1.28,0,0,1,1.578.9c.283.828.493,1.686.734,2.525.23.782-.965,1.179-1.195.394"/>
    <path id="Path_242" data-name="Path 242" d="M55.686,24.831a5.706,5.706,0,0,0-.473-1.361,5.3,5.3,0,0,0-1.9-2.128,5.037,5.037,0,0,0-5.584.142.482.482,0,0,0,.518.811,4.419,4.419,0,0,1,4.495.067,4.231,4.231,0,0,1,1.777,2.693,6.89,6.89,0,0,0,.13,1.215.57.57,0,0,0,1.039.08,2.493,2.493,0,0,0,0-1.519"/>
    <path id="Path_243" data-name="Path 243" d="M54.136,23.868a7.312,7.312,0,0,0-2.778-.5,5.036,5.036,0,0,0-2.686.715.5.5,0,0,0,.425.9c.392-.078.771-.214,1.163-.293a6.467,6.467,0,0,1,1.127-.114,5.907,5.907,0,0,1,2.21.361.6.6,0,0,0,.539-1.074"/>
    <path id="Path_244" data-name="Path 244" d="M53.812,26.064c-.3-.2-.86-.1-1.209-.082q-.549.033-1.094.1c-.378.05-.752.116-1.125.2a3.442,3.442,0,0,0-1.086.375.53.53,0,0,0-.21.6.537.537,0,0,0,.519.356,5.051,5.051,0,0,0,1.041-.135c.336-.053.673-.1,1.011-.144s.678-.072,1.019-.091a2.34,2.34,0,0,0,1.186-.165.6.6,0,0,0,.266-.529.62.62,0,0,0-.318-.488"/>
    <path id="Path_245" data-name="Path 245" d="M53.491,28.932a1.58,1.58,0,0,0-1-.306c-.307-.033-.615-.057-.924-.064q-.406-.008-.811.01a3.027,3.027,0,0,0-.919.131A.572.572,0,0,0,49.9,29.8a1.732,1.732,0,0,0,.3.034l.063,0,.149.011c.121,0,.242,0,.362.005.141,0,.282.009.423.017l.108.008.172.014c.26.025.519.049.778.082A1.918,1.918,0,0,0,53.264,30a.664.664,0,0,0,.42-.476.653.653,0,0,0-.193-.594"/>
    <path id="Path_246" data-name="Path 246" d="M55.62,25.033a.511.511,0,0,0-1.019.062,13.553,13.553,0,0,1-.369,3.685,11.872,11.872,0,0,1-1.549,3.333.68.68,0,0,0,.145.8.5.5,0,0,0,.146.1.669.669,0,0,0,.788-.146,11.065,11.065,0,0,0,1.664-3.777,9.72,9.72,0,0,0,.194-4.055"/>
    <path id="Path_247" data-name="Path 247" d="M61.476,36.947a6.794,6.794,0,0,1-1.008-.776c-.1-.081-.2-.161-.3-.241-.2-.165-.4-.325-.608-.482-.274-.21-.552-.42-.833-.627-.32-.241-.647-.478-.974-.711-.62-.436-1.251-.845-1.887-1.257a18.754,18.754,0,0,1-1.928-1.331c-.4-.336-.044-1.15.484-.963a17.047,17.047,0,0,1,4,2.319c.053.042.106.076.159.114.423.295.837.593,1.248.907.224.164.449.336.673.508a9.682,9.682,0,0,1,1.838,1.576c.408.543-.3,1.254-.86.964"/>
    <path id="Path_248" data-name="Path 248" d="M69.946,39.2a10.578,10.578,0,0,1-2.278,5.549A6.008,6.008,0,0,1,62.6,46.856l-.1-.011a8.791,8.791,0,0,1-2.295-.609c-.361-.141-.719-.3-1.068-.473-.639-.309-1.263-.653-1.856-.993-.175-.1-.346-.2-.517-.3-.9-.523-1.772-1.089-2.624-1.689a20.368,20.368,0,0,1-1.758-1.419c-.235-.206-.471-.416-.707-.627a.512.512,0,0,1,.511-.856.545.545,0,0,1,.178.1A37.828,37.828,0,0,0,57.7,43.531a29.611,29.611,0,0,0,2.813,1.39,6.353,6.353,0,0,0,3.093.618,5.306,5.306,0,0,0,3.78-2.669,11.662,11.662,0,0,0,1.379-5.459,25.076,25.076,0,0,0-.422-5.582c-.085-.467-.177-.931-.277-1.4-.368-1.678-.835-3.334-1.321-4.962q-.424-1.421-.871-2.836a11.49,11.49,0,0,0-.966-2.367,4.594,4.594,0,0,0-3.643-2.262c-3.218-.269-5.551,2.584-5.822,5.614a.522.522,0,0,1-.072.215.746.746,0,0,1-.751.335.618.618,0,0,1-.274-.13.389.389,0,0,1-.114-.111.838.838,0,0,1-.157-.59,7.457,7.457,0,0,1,.2-1.2c.019-.077.038-.15.06-.219a7.7,7.7,0,0,1,1.328-2.664,6.1,6.1,0,0,1,.454-.541c.1-.112.19-.2.281-.285a6.97,6.97,0,0,1,1.535-1.138,6.273,6.273,0,0,1,4.363-.638,6,6,0,0,1,4.1,3.2,18.125,18.125,0,0,1,1.055,2.769c.336,1.085.673,2.169.99,3.257.218.747.425,1.5.613,2.265.122.491.241.985.345,1.483.076.349.145.694.211,1.043.034.184.069.36.1.544a25.723,25.723,0,0,1,.233,7.982"/>
    <path id="Path_249" data-name="Path 249" d="M69.5,30.6a5.935,5.935,0,0,0-2.686-.047l-2.709.248q-1.356.125-2.71.259c-.675.067-1.354.116-2.024.223q-.67-3.843-1.393-7.677c-.1-.529-1-.358-.918.175q.563,4,1.188,7.98a.64.64,0,0,0,.079.512c.032.2.061.4.093.6.1.647.2,1.3.308,1.943.281.206.559.417.833.627.205.157.407.317.608.482a.127.127,0,0,0,0-.054Q60,34.887,59.825,33.9c-.072-.426-.15-.852-.223-1.279.688-.022,1.377-.109,2.061-.169q1.31-.115,2.617-.24l2.616-.25a6.05,6.05,0,0,0,2.645-.525.485.485,0,0,0-.043-.83"/>
    <path id="Path_250" data-name="Path 250" d="M58.126,17.051l-.189.242c-1.2,1.54-2.4,3.088-3.6,4.628-.042.05-.08.1-.122.153-.094.12-.185.242-.28.361-.507.649-1.443-.215-.94-.864.076-.1.152-.192.224-.288.587-.753,1.174-1.5,1.757-2.255.121-.153.242-.311.364-.464l.4-.511.4-.515q.358-.454.712-.91c-.468-.578-.937-1.156-1.4-1.741-.273.364-.527.76-.777,1.125-.223.33-.427.637-.632.948-.015.023-.03.046-.049.073-.155.238-.31.476-.469.714-.042.065-.084.127-.125.192q-.506.76-.988,1.536c-.235.376-.462.818-.735,1.2a3.1,3.1,0,0,1-.469.55.492.492,0,0,1-.837-.428,1.563,1.563,0,0,1,.064-.222,6.059,6.059,0,0,1,.727-1.386c.056-.092.113-.18.166-.269.174-.284.348-.564.526-.844.208-.331.413-.642.617-.952.065-.1.133-.2.2-.3.329-.5.67-.979,1.018-1.459a17.065,17.065,0,0,0,1.231-1.728.61.61,0,0,1,.956-.179c.792.915,1.543,1.872,2.308,2.814a.663.663,0,0,1-.063.778"/>
    <path id="Path_251" data-name="Path 251" d="M56.373,17.8a1.065,1.065,0,0,0-.265-.283c-.068-.06-.134-.122-.2-.184-.127-.12-.257-.239-.38-.364-.228-.231-.444-.475-.655-.723a1.138,1.138,0,0,0-.41-.374.53.53,0,0,0-.516.027.538.538,0,0,0-.237.472,1.553,1.553,0,0,0,.351.764,6.868,6.868,0,0,0,.483.617q.207.246.43.475c.074.077.153.149.232.22.039.036.079.071.119.106.02.018.04.035.061.051a1,1,0,0,0,.332.165.586.586,0,0,0,.321-.019.619.619,0,0,0,.318-.247.657.657,0,0,0,.016-.7"/>
    <path id="Path_252" data-name="Path 252" d="M56.045,18.35a1.078,1.078,0,0,0-.436-.377l-.294-.195c-.183-.121-.367-.242-.553-.36-.382-.243-.758-.5-1.16-.708a.549.549,0,0,0-.7.183.558.558,0,0,0,.079.726c.351.3.741.547,1.118.81.219.153.44.3.662.452l.293.2c.048.032.1.067.146.1a.753.753,0,0,0,.386.088.579.579,0,0,0,.489-.324.63.63,0,0,0-.03-.59"/>
    <path id="Path_253" data-name="Path 253" d="M75.663,22.274a4.6,4.6,0,0,1-.8.4.511.511,0,0,1-.528-.056.691.691,0,0,1,.016-1.028,8.188,8.188,0,0,0,2.2-2.439,5.754,5.754,0,0,0,.642-3.188,5.847,5.847,0,0,0-1.309-3.225,2.408,2.408,0,0,0-2.342-1.046,2.712,2.712,0,0,1-.664.343c-.781.27-1.16-.776-.583-1.233a2.528,2.528,0,0,1,.626-.366A1.841,1.841,0,0,0,73.29,8.48a3.556,3.556,0,0,0-2.176-1.9,4.844,4.844,0,0,0-2.78-.1A2.661,2.661,0,0,1,65.2,8.232a.7.7,0,0,1-.367-1.137,5.991,5.991,0,0,1,2.347-1.67,1.876,1.876,0,0,0-.527-1.206c-1.264-1.336-3.283-.871-4.728-.12-1.389.723-2.674,1.754-4.242,2.068a5.17,5.17,0,0,1-4.233-1.322A10.949,10.949,0,0,0,49.611,2.8a9.977,9.977,0,0,0-4.205-.175,9.04,9.04,0,0,0-6.495,4.7A9.968,9.968,0,0,0,38,9.774a10.865,10.865,0,0,0-.24,1.489,9.879,9.879,0,0,0,.088,2.369c.18.682.372,1.364.616,2.027.069.184.145.368.229.548a.406.406,0,0,0,.023.053.342.342,0,0,0,.027.05c.042.088.087.176.133.264.183.353.416.671.618,1.011a.619.619,0,0,1,.068.154.153.153,0,0,1,.016.057.729.729,0,0,1-.295.768.713.713,0,0,1-.965-.213.946.946,0,0,1-.092-.119,6.139,6.139,0,0,1-.567-.953,9.038,9.038,0,0,1-.512-1.184,6.254,6.254,0,0,1-.326-1.5,10.9,10.9,0,0,1,1.66-8.972,10.4,10.4,0,0,1,8.171-4.392,10.97,10.97,0,0,1,4.813.894,10.57,10.57,0,0,1,2.092,1.242A10.15,10.15,0,0,0,55.741,4.8c1.718.7,3.4-.544,4.824-1.379,1.543-.905,3.425-1.71,5.23-1.15a3.8,3.8,0,0,1,2.676,2.786,6.067,6.067,0,0,1,3.685.475,4.5,4.5,0,0,1,2.6,3.226,3.106,3.106,0,0,1-.171,1.561,4.125,4.125,0,0,1,1.867,1,7.143,7.143,0,0,1,2.093,4.025,7.029,7.029,0,0,1-2.879,6.927"/>
    <path id="Path_254" data-name="Path 254" d="M40.345,17.45a.586.586,0,0,1-.766.347,4.443,4.443,0,0,1-1.369-2.3,10.429,10.429,0,0,1-.518-2.453A8.974,8.974,0,0,1,38,9.775a9.287,9.287,0,0,1,.672-1.7.422.422,0,0,1,.356-.254.494.494,0,0,1,.48.682,1.062,1.062,0,0,0-.037.1,9.762,9.762,0,0,0-.538,4.369,8.327,8.327,0,0,0,.139.881c.049.253.115.506.187.751.058.188.119.376.188.56a7.952,7.952,0,0,0,.454,1.015,3.208,3.208,0,0,1,.469,1.046.434.434,0,0,1-.026.222"/>
    <path id="Path_255" data-name="Path 255" d="M50.631,9.334a.65.65,0,0,1-.276.5,7.406,7.406,0,0,1-3.036,1.057c-.2.031-.4.058-.6.074a8.167,8.167,0,0,1-1.223.041,9.474,9.474,0,0,1-1.219-.112,8.823,8.823,0,0,1-4.809-2.287,4.326,4.326,0,0,1-.362-.4.435.435,0,0,1-.081-.384A.541.541,0,0,1,39.8,7.44a19.961,19.961,0,0,0,2.243,1.376,9.01,9.01,0,0,0,2.432.727A8.808,8.808,0,0,0,47.24,9.5a13.581,13.581,0,0,0,2.224-.71c.114-.042.228-.081.345-.12a.63.63,0,0,1,.822.662"/>
    <path id="Path_256" data-name="Path 256" d="M54.427,10.23a1.884,1.884,0,0,1-.4.982,1.2,1.2,0,0,1-.193.209.943.943,0,0,1-.178.134.968.968,0,0,1-.634.1.452.452,0,0,1-.3-.187.612.612,0,0,1-.088-.162.535.535,0,0,1,.09-.487c-.019.02-.015.005.011-.034a.513.513,0,0,1,.133-.177A1.659,1.659,0,0,1,53,10.467c.015-.026.03-.057.045-.085l.03-.084a1.483,1.483,0,0,0,.006-.754,5.5,5.5,0,0,0-.321-.955s-.076-.15-.087-.172c-.035-.058-.073-.119-.111-.177-.027-.034-.05-.069-.076-.1-.069-.069-.111-.114-.16-.157-.027-.022-.053-.046-.084-.069-.064-.03-.129-.069-.194-.1a.764.764,0,0,0-.1-.023.507.507,0,0,0-.076-.015c-.054,0-.137.011-.148.008a1.055,1.055,0,0,0-.16.05s-.087.041-.106.054a1.249,1.249,0,0,0-.178.127l-.084.076c-.049.053-.1.116-.14.172-.011.023-.064.1-.064.108-.045.081-.083.161-.121.245,0,0-.034.093-.046.117-.026.075-.045.157-.067.233-.038.126-.076.23-.125.368-.023.054-.041.112-.068.177a.6.6,0,0,1-1.128-.235,3.026,3.026,0,0,1,.029-.483,2.954,2.954,0,0,1,.885-1.735,2.088,2.088,0,0,1,2.008-.541,2.625,2.625,0,0,1,1.552,1.427,4.538,4.538,0,0,1,.518,2.287"/>
    <path id="Path_257" data-name="Path 257" d="M46.972,13.866a.68.68,0,0,0-.187-.292c-.014-.016-.027-.032-.041-.047l-.083-.1-.156-.179c-.052-.06-.1-.118-.16-.174a1.313,1.313,0,0,0-.308-.257l-.157-.055-.161-.011-.155.03a.465.465,0,0,0-.2.121.307.307,0,0,0-.108.121.325.325,0,0,0-.075.149.305.305,0,0,0-.032.16.461.461,0,0,0,.024.238,1.273,1.273,0,0,0,.195.344c.044.066.091.129.14.191l.146.187.078.1.039.05a.674.674,0,0,0,.262.238.7.7,0,0,0,.182.062.661.661,0,0,0,.339-.02.739.739,0,0,0,.385-.334.676.676,0,0,0,.071-.342.58.58,0,0,0-.033-.184"/>
    <path id="Path_258" data-name="Path 258" d="M46.665,10.324a.521.521,0,0,0-.63-.284.708.708,0,0,0-.415.533c-.068.208-.111.424-.173.633-.015.051-.029.1-.045.152-.008.028-.017.056-.026.084-.018.049-.029.077-.039.1-.022.056-.045.112-.069.167-.1.221-.208.435-.321.647l-.177.335a1.442,1.442,0,0,0-.091.2c-.013.036-.021.066-.031.1,0,0-.035.122-.011.051a.405.405,0,0,0,.053.429.379.379,0,0,0,.415.121,1.935,1.935,0,0,0,.324-.156,2.332,2.332,0,0,0,.311-.285,3.1,3.1,0,0,0,.44-.621,4.758,4.758,0,0,0,.5-1.33,1.473,1.473,0,0,0-.018-.882"/>
    <path id="Path_259" data-name="Path 259" d="M41.9,14.759c-.21-.055-.428-.066-.64-.119-.052-.013-.1-.028-.157-.045a3.233,3.233,0,0,1-.344-.149,3.027,3.027,0,0,1-.264-.154c-.088-.064-.13-.1-.174-.133-.176-.138-.335-.294-.5-.448a.481.481,0,0,0-.636-.008.5.5,0,0,0-.1.634,2.719,2.719,0,0,0,1.163,1.114,3.7,3.7,0,0,0,.745.3,1.841,1.841,0,0,0,.824.093.55.55,0,0,0,.076-1.086"/>
    <path id="Path_260" data-name="Path 260" d="M42.583,15.946a.682.682,0,0,0-.181-.307l-.057-.061-.108-.112-.222-.233a.379.379,0,0,0-.175-.1.373.373,0,0,0-.193-.032l-.126.024a.377.377,0,0,0-.165.1.245.245,0,0,0-.088.1.381.381,0,0,0-.082.184l-.009.131a.507.507,0,0,0,.079.244l.153.285c.024.047.05.094.074.141l.038.07a.537.537,0,0,0,.151.163l.124.087a.43.43,0,0,0,.215.055.278.278,0,0,0,.143-.009.422.422,0,0,0,.2-.075l.111-.1.085-.126a.424.424,0,0,0,.055-.216.431.431,0,0,0-.022-.216"/>
    <path id="Path_261" data-name="Path 261" d="M51.736,16.6a.582.582,0,0,0-.668.447c.025-.075-.036.1-.035.095-.019.05-.039.1-.059.148-.045.107-.094.213-.146.318s-.1.187-.151.279a1.676,1.676,0,0,1-.121.192,6.745,6.745,0,0,1-.886.971,6.045,6.045,0,0,1-1.074.693,4.314,4.314,0,0,1-.591.23c-.238.074-.478.015-.716.077a.448.448,0,0,0-.233.661c.381.6,1.337.41,1.878.193a5.117,5.117,0,0,0,1.4-.848,6.124,6.124,0,0,0,1.849-2.781.577.577,0,0,0-.443-.675"/>
    <path id="Path_262" data-name="Path 262" d="M53.852,11.282c0,.046-.011.092-.019.138a10.42,10.42,0,0,1-.407,1.45c-.147.511-.275,1.025-.388,1.546s-.21,1.047-.285,1.573c-.041.272-.056.556-.078.836a4.723,4.723,0,0,1-.123.809.59.59,0,0,1-1.163-.086,3.929,3.929,0,0,1,.021-.916c.041-.3.1-.61.143-.89.082-.545.183-1.089.311-1.626s.287-1.071.46-1.592a9.016,9.016,0,0,1,.4-1.052,3.145,3.145,0,0,1,.348-.591c.3-.4.824,0,.783.4"/>
    <path id="Path_263" data-name="Path 263" d="M59.133,45.763a.612.612,0,0,1-.417.2c-3.585.292-7.165.61-10.75.9-.881.071-1.762.15-2.643.217-.3.023-.607.055-.919.082a6.425,6.425,0,0,1-1.192.018,2.39,2.39,0,0,1-.239-.026,1.692,1.692,0,0,1-1.438-1.147,1.476,1.476,0,0,1-.062-.41,1.2,1.2,0,0,1,.613-1.11.581.581,0,1,1,.625.98.368.368,0,0,0,.05.242c.122.168.4.179.589.183a18.3,18.3,0,0,0,2.084-.174c1.443-.125,2.89-.24,4.337-.358,2.5-.205,5-.394,7.507-.591.455-.035.907-.075,1.359-.11a.654.654,0,0,1,.5,1.1"/>
    <path id="Path_264" data-name="Path 264" d="M76.549,19.151a8.184,8.184,0,0,1-2.2,2.439.69.69,0,0,0-.017,1.028,5.818,5.818,0,0,1,.03,1.817,4.5,4.5,0,0,1-4.458,3.76.544.544,0,0,0-.369-.114,1.623,1.623,0,0,0-.482.066c-.187-.763-.394-1.518-.612-2.265-.318-1.088-.654-2.173-.991-3.257a18.028,18.028,0,0,0-1.054-2.77,6,6,0,0,0-4.1-3.2,6.27,6.27,0,0,0-4.362.638c.064-.081.125-.162.189-.242a.663.663,0,0,0,.063-.779c-.765-.941-1.515-1.9-2.307-2.813a.611.611,0,0,0-.957.179,17.055,17.055,0,0,1-1.23,1.728c-.349.48-.689.964-1.019,1.459.022-.28.037-.564.078-.836.075-.526.173-1.051.285-1.573s.241-1.035.388-1.546a10.42,10.42,0,0,0,.407-1.45,1.276,1.276,0,0,0,.194-.208,1.891,1.891,0,0,0,.4-.982,4.542,4.542,0,0,0-.518-2.288,2.625,2.625,0,0,0-1.552-1.427,2.091,2.091,0,0,0-2.008.542,2.954,2.954,0,0,0-.885,1.734A13.489,13.489,0,0,1,47.24,9.5a8.832,8.832,0,0,1-2.768.04,8.989,8.989,0,0,1-2.432-.727A19.739,19.739,0,0,1,39.8,7.439a.54.54,0,0,0-.766.382.423.423,0,0,0-.357.253A9.432,9.432,0,0,0,38,9.774a10.009,10.009,0,0,1,.91-2.448,9.042,9.042,0,0,1,6.495-4.7,9.977,9.977,0,0,1,4.205.175,10.94,10.94,0,0,1,3.84,2.047,5.171,5.171,0,0,0,4.233,1.322c1.568-.314,2.853-1.345,4.242-2.068,1.445-.751,3.465-1.216,4.728.12a1.876,1.876,0,0,1,.527,1.206,6,6,0,0,0-2.347,1.67A.7.7,0,0,0,65.2,8.232a2.661,2.661,0,0,0,3.133-1.755,4.844,4.844,0,0,1,2.78.1,3.558,3.558,0,0,1,2.177,1.9,1.839,1.839,0,0,1-.372,1.956,2.528,2.528,0,0,0-.626.366c-.576.457-.2,1.5.584,1.233a2.73,2.73,0,0,0,.664-.343,2.407,2.407,0,0,1,2.341,1.046,5.856,5.856,0,0,1,1.31,3.225,5.763,5.763,0,0,1-.643,3.188"/>
    <path id="Path_265" data-name="Path 265" d="M75.752,24.774a6.1,6.1,0,0,1-1.27,2.76,6.007,6.007,0,0,1-5.081,2.1c-.121-.007-.239-.022-.361-.038a.74.74,0,0,1-.25-1.333,1.484,1.484,0,0,1,.266-.112,1.656,1.656,0,0,1,.482-.066.551.551,0,0,1,.369.114,4.5,4.5,0,0,0,4.458-3.759,5.824,5.824,0,0,0-.03-1.818c-.024-.195-.054-.394-.078-.6a.625.625,0,0,1,1.143-.378,3.11,3.11,0,0,1,.263.632,5.4,5.4,0,0,1,.089,2.5"/>
    <path id="Path_266" data-name="Path 266" d="M44.429,46.535c-.007.211-.018.418-.025.629-.033.713-.069,1.426-.136,2.139-.045.457-.082.917-.134,1.373a3.544,3.544,0,0,1-.267,1.262.99.99,0,0,1-.1.169.606.606,0,0,1-.969-.017.66.66,0,0,1-.148-.233,3.329,3.329,0,0,1,.042-1.484c.056-.437.124-.875.187-1.312.09-.629.206-1.254.33-1.879.045-.242.094-.484.143-.725.124-.614,1.1-.578,1.075.078"/>
    <path id="Path_267" data-name="Path 267" d="M55.569,163.78c-.4-.8-3.1-14.717-3.776-16.168s-1.542-3-1.542-3-4.033-1.444-4.229-3.478a14.869,14.869,0,0,1-.007-3.293s-10.283-8.211-11.244-8.887a35.559,35.559,0,0,1-2.98-2.706,33.338,33.338,0,0,1,5.655-2.628c1.726-.391,6.136-1.95,6.136-1.95a2.914,2.914,0,0,0-1.921-1.061c-1.44-.288-4.129-1.735-2.979-2.222s4.892-.5,4.892-.5-1.254-3.194.185-3.2a3.775,3.775,0,0,1,2.5,1.157s.285-1.356,1.436-1.359.475-2.326,2.01-2.522,3.543,1.5,3.543,1.5-.287-4.128,1.537-3.841a2.818,2.818,0,0,1,2.211,2.126s1.052-1.552,1.919,0a17.78,17.78,0,0,0,1.251,2.031s.956-1.842,2.012-1.651a4.965,4.965,0,0,1,2.113,1.255s.281-3.391,2.1-2.91a3.013,3.013,0,0,1,2.211,1.932s1.436-1.359,2.494-.2,2.307,2.417,2.02,2.611,12.66-1.964,13.332-2.062,2.2-.476,2.2-.476l1.162,3.665L91.73,114.3s-1.158-3.1.568-3.488,2.977,1.253,3.362,2.027a5.608,5.608,0,0,1,.389,2.033s.956-1.261,3.452-.492,3.457,1.252,3.46,2.8.586,4.842,1.643,5.227,7.876,4.149,8.743,5.987.767-.486.678,3.1-6.675,18.806-10.694,23.852-30.2,10.816-34.226,11.987-13.247-2.974-13.536-3.555" fill="#5d5bea"/>
    <path id="Path_268" data-name="Path 268" d="M92.008,109.107c-.9-.723-1.78-1.468-2.621-2.257-.361-.336-.719-.684-1.065-1.037a32.548,32.548,0,0,1-2.734-3.115,33.876,33.876,0,0,1-2.511-3.756c.2-.142.41-.28.611-.419a3.166,3.166,0,0,0,.993-.822.708.708,0,0,0,.2-.948c-1.851-3.247-5.588-8.427-7.148-11.829-1.534-3.34-1.748-5.621-2.9-9.115-2.347-7.107-3.665-14.6-7-21.349a31.587,31.587,0,0,0-2.9-4.794A21.574,21.574,0,0,0,62.5,46.845a12.381,12.381,0,0,0-1.491-1.227.521.521,0,0,0-.8.619q-.542-.211-1.069-.473a.612.612,0,0,1-.417.2c-3.584.291-7.164.609-10.749.9-.881.071-1.762.149-2.643.216-.3.024-.607.055-.918.083-.033.713-.07,1.426-.136,2.14-.045.456-.082.916-.134,1.373a3.565,3.565,0,0,1-.267,1.261A.6.6,0,0,0,43,51.9c-.057.05-.125.112-.2.188-1.459,1.457-5.567,7.121-6.594,8.3-1.061,1.225-2.084,2.481-3.087,3.753q-3.034,3.825-5.767,7.88c-3.646,5.39-8.79,15.562-11.572,21.458q-2.359,5-4.286,10.192c-.006.023-.015.043-.021.065-.544-.052-1.121-.012-1.634-.015-.77-.006-1.541-.012-2.312-.014-1.527-.012-3.1-.113-4.622.021a.665.665,0,0,0-.5.3.443.443,0,0,0-.213-.1,4.46,4.46,0,0,0-1.564.111.707.707,0,0,0-.423,1.208,41.069,41.069,0,0,0,7.236,6.208c1.3.913,2.64,1.781,3.993,2.625.662.409,1.324.818,1.993,1.219a6.977,6.977,0,0,0,2.2,1.146.6.6,0,0,0,.327-.043.543.543,0,0,0,.842-.006,12.466,12.466,0,0,0,1.155-2.18c.015-.035.034-.065.049-.1.246-.5.488-.994.737-1.489q.154-.316.314-.633,1.107-2.177,2.3-4.307,1.181-2.114,2.445-4.177c.243.172.49.34.738.5.509.348,1.008.8,1.657.614a.48.48,0,0,0,.645-.166c1.575-2.3,2.815-4.837,4.227-7.24s4.8-9.278,6.309-11.631q4.48-6.981,9.519-13.571c1.564-2.047,4.228-5.039,6.251-7.379.97,2.613,2.1,5.172,3.267,7.7q2.238,4.861,4.8,9.552a130.8,130.8,0,0,0,10.38,16.791q1.446,1.935,2.952,3.82a.76.76,0,0,0,.442.551q1.918,2.39,3.929,4.693a4.907,4.907,0,0,1-1.065,2.717,9,9,0,0,1-2.681,2.083c-.273.155-.553.3-.83.447-.66.339-1.324.662-1.97,1.013a10.562,10.562,0,0,0-3.017,2.261c-.334.38-.189,1.181.4,1.226a102.288,102.288,0,0,0,12.077.265.593.593,0,0,0,.653.053,1.631,1.631,0,0,0,.155-.085,10.813,10.813,0,0,0,1.727-1.311c.178-.154.352-.3.527-.446q1.176-.957,2.35-1.926c1.561-1.292,3.112-2.6,4.686-3.879a.686.686,0,0,0,.084-1.062m-71.93-2.066q-1.191,2.124-2.277,4.31c-.14.281-.28.561-.415.841-.4-.156-.8-.328-1.2-.508a24.15,24.15,0,0,1-3.475-1.955,25.173,25.173,0,0,1-4.924-4.541q1.026,0,2.047-.008a8.416,8.416,0,0,0,2.365-.147.527.527,0,0,0,.346-.281.6.6,0,0,0,.356-.353c.812-2.195,1.934-4.95,3.188-7.84a36.443,36.443,0,0,0,4.11,4.17q1.188,1.028,2.443,1.954-1.333,2.148-2.566,4.358m66.162,2.036a12.5,12.5,0,0,1-3.57,3.29,7.445,7.445,0,0,1-4.529,1.045c-.438-.045-.874-.11-1.307-.178,1.726-1.146,3.586-3.155,3.41-5.375a.772.772,0,0,0-.134-.912q-1.84-2.1-3.6-4.268c.486-.219.96-.477,1.431-.716q1.2-.618,2.367-1.293c.5-.293,1-.6,1.494-.912a36.938,36.938,0,0,0,2.625,3.783,35.811,35.811,0,0,0,3.152,3.559,22.531,22.531,0,0,1-1.344,1.977"/>
    <path id="Path_269" data-name="Path 269" d="M73.366,118.737a.7.7,0,0,0-.192-.313,3.008,3.008,0,0,0-.3-.214c-.233-.163-.476-.31-.72-.456q-.655-.393-1.33-.749a16.639,16.639,0,0,0-2.843-1.232.681.681,0,0,0-.74.362,1.2,1.2,0,0,0-.13.424.678.678,0,0,0,.341.71,1.26,1.26,0,0,0,.149.064c.033.024.064.049.092.074a.3.3,0,0,0,.442-.051c.671.331,1.349.646,2.009,1q.633.339,1.246.712c.212.128.418.263.629.391a1.409,1.409,0,0,0,.622.242l.059.019a.649.649,0,0,0,.707-.346.641.641,0,0,0-.042-.639"/>
    <path id="Path_270" data-name="Path 270" d="M76.114,118.138a7.135,7.135,0,0,0-.549-.551,3.886,3.886,0,0,0-1.588-.895,2.4,2.4,0,0,0-2.729,1.093c-.283.478.469,1.014.808.563a.967.967,0,0,1,.19-.213c-.049.035.122-.051.122-.055.037-.015.075-.028.113-.04.013,0,.065-.016.075-.019l.135-.025c.014,0,.1-.01.109-.011.087-.008.174,0,.261-.008s.126.01.174.016a2.393,2.393,0,0,1,.29.056l.11.032c.131.061.221.1.307.153.05.028.1.059.149.09l.059.04a4.723,4.723,0,0,1,.511.436c.169.166.326.343.481.522.076.09.141.168.208.243a.848.848,0,0,0,.665.276.7.7,0,0,0,.644-.564c.073-.5-.238-.8-.545-1.139"/>
    <path id="Path_271" data-name="Path 271" d="M80.011,118.328a5.591,5.591,0,0,0-.282-.557l-.444-.827a.713.713,0,0,0-.456-.313.728.728,0,0,0-.443.06.684.684,0,0,0-.33.318.694.694,0,0,0-.041.546q.192.42.385.839c.086.186.162.388.265.564a1.359,1.359,0,0,0,.235.329.712.712,0,0,0,1.219-.589,1.213,1.213,0,0,0-.108-.37"/>
    <path id="Path_272" data-name="Path 272" d="M83.625,118.436a5.153,5.153,0,0,0-.76-1.457.643.643,0,0,0-.874-.191.654.654,0,0,0-.188.883c.061.092.119.185.174.282.025.044.049.089.073.134.011.023.023.046.035.069a1.3,1.3,0,0,1,.116.294c.039.112.073.226.1.342.013.05.025.1.036.149,0,.006,0-.012.01.05.018.119.033.223.043.328a5.66,5.66,0,0,1,.027.689,1.016,1.016,0,0,0,.066.521.732.732,0,0,0,.664.443.782.782,0,0,0,.653-.516,1.737,1.737,0,0,0,.065-.561,4.475,4.475,0,0,0-.243-1.459"/>
    <path id="Path_273" data-name="Path 273" d="M51.625,116.626c-.568-2.013-3.1-3-4.957-2.406a.694.694,0,0,0-.45.5c-.095-.069-.185-.143-.283-.21-.773-.531-1.779-1.1-2.683-.511a2.14,2.14,0,0,0-.86,2.129,3.553,3.553,0,0,0,1.689,2.2.48.48,0,0,0,.643-.713A4.269,4.269,0,0,1,43.71,116.1c-.08-.307-.048-.866.316-.991.233-.08.545.144.732.254a6.99,6.99,0,0,1,.788.545,8.637,8.637,0,0,1,1.441,1.438.692.692,0,0,0,1.233-.592l-.432-1.324a2.694,2.694,0,0,1,1.255.282,3.188,3.188,0,0,1,1.4,1.484c.372.689,1.384.133,1.185-.57"/>
    <path id="Path_274" data-name="Path 274" d="M53.71,114.663a6.655,6.655,0,0,0-.465-1.188,3.892,3.892,0,0,0-1.571-1.719,2.7,2.7,0,0,0-2.2-.246,2.178,2.178,0,0,0-1.327,1.5,1.777,1.777,0,0,0,.591,1.914.564.564,0,0,0,.756-.837c-.02-.019-.041-.045-.051-.056-.017-.028-.034-.056-.052-.083l-.035-.111c0-.042-.006-.09-.007-.132.015-.143.04-.242.059-.344a1.492,1.492,0,0,1,.087-.181c.015-.03.1-.138.037-.068s.065-.075.083-.094.054-.053.08-.079.036-.028.054-.039.058-.035.086-.052.081-.031.122-.043.172-.029.059-.018c.059-.005.118-.014.176-.017.04,0,.08,0,.118,0,.1.014.136.019.174.027.068.014.133.036.2.052l.054.022c.134.056.253.132.38.2l.072.053c.048.038.1.078.142.12s.09.084.133.128c.028.028.053.058.08.085a4.371,4.371,0,0,1,.258.379c.035.059.069.12.1.181.022.041.043.083.064.124.148.345.251.68.363,1.014.056.168.114.335.179.5a.94.94,0,0,0,.614.617.551.551,0,0,0,.532-.176c.352-.386.175-.983.055-1.433"/>
    <path id="Path_275" data-name="Path 275" d="M58.295,114.087c-.18-.454-.358-.909-.539-1.363s-.367-.9-.551-1.358a8.513,8.513,0,0,0-.54-1.2,1.954,1.954,0,0,0-2.074-1,2.438,2.438,0,0,0-1.727,1.453,5.277,5.277,0,0,0,.039,3.117.533.533,0,0,0,1.035-.2,7.686,7.686,0,0,1-.129-1.483,2.83,2.83,0,0,1,.1-.614,1.571,1.571,0,0,1,.1-.275c.008-.015.1-.179.056-.112a1.236,1.236,0,0,1,.722-.534.728.728,0,0,1,.274-.006.949.949,0,0,1,.09.034.7.7,0,0,1,.162.13,2.329,2.329,0,0,1,.247.4c.048.1.128.326.185.477.19.508.379,1.016.571,1.523.179.474.363.945.545,1.418.21.545.369,1.209.919,1.5a.584.584,0,0,0,.824-.4,2.321,2.321,0,0,0-.312-1.511"/>
    <path id="Path_276" data-name="Path 276" d="M66.406,115.729a4.549,4.549,0,0,0-.73-1.367c-.275-.427-.568-.844-.878-1.246a3.994,3.994,0,0,0-2.043-1.706A2.109,2.109,0,0,0,60.54,112.5c-.036.058-.061.119-.092.179a7.892,7.892,0,0,0-1.285-1.586,1.63,1.63,0,0,0-2.013-.384,1.173,1.173,0,0,0-.248,1.766c.4.45,1.057-.138.837-.631.02-.009.065-.023.042-.031a1.155,1.155,0,0,1,.473.288,6.306,6.306,0,0,1,.827,1,9.208,9.208,0,0,1,1.2,2.449c.228.71,1.418.529,1.307-.251a3.334,3.334,0,0,1,.085-2.078.715.715,0,0,1,1.136-.3,6.7,6.7,0,0,1,1.262,1.572c.2.3.387.6.567.9a5.255,5.255,0,0,0,.662,1.05c.52.544,1.229-.12,1.1-.721"/>
    <path id="Path_277" data-name="Path 277" d="M70.348,114.87a3.859,3.859,0,0,1-.539-.812,11.061,11.061,0,0,1-.416-1.134,6.275,6.275,0,0,0-1.191-2.335,2.647,2.647,0,0,0-2.234-.861,2.049,2.049,0,0,0-1.728,1.613,4.756,4.756,0,0,0,.317,2.5.567.567,0,0,0,1.077-.356,5.5,5.5,0,0,1-.155-.812,4.047,4.047,0,0,1-.028-.44c0-.045,0-.089,0-.134.014-.145.02-.2.03-.25s.026-.122.041-.183a.826.826,0,0,1,.033-.088c.027-.052.054-.108.077-.162.027-.038.061-.086.069-.1s.07-.069.074-.076c.026-.019.053-.037.078-.056l.045-.026.13-.048a.858.858,0,0,1,.152-.02c.034,0,.067,0,.1,0-.029,0-.116-.019.023,0,.067.01.134.022.2.038.034.008.067.018.1.028.094.041.168.075.239.114.036.02.071.042.1.064.058.045.111.089.162.136a1.4,1.4,0,0,1,.292.349,7.364,7.364,0,0,1,.753,1.836,5.222,5.222,0,0,0,1.254,2.252.705.705,0,0,0,.986-.047.724.724,0,0,0-.047-.995"/>
    <path id="Path_278" data-name="Path 278" d="M73.351,114.213a7.073,7.073,0,0,0-.319-.8,4.139,4.139,0,0,0-.965-1.366,2.467,2.467,0,0,0-2.829-.346,1.876,1.876,0,0,0-.9,1.227.546.546,0,1,0,1.07.22c-.042.137.017-.037.032-.066a.609.609,0,0,1,.043-.063.279.279,0,0,0,.039-.049c.017-.013.034-.027.051-.038.036-.023.073-.043.11-.064-.142.082.017,0,.056-.016s.083-.024.125-.037l.055-.008a2.864,2.864,0,0,1,.293-.021h.069a.9.9,0,0,1,.1.014c.061.01.122.023.181.038a2.685,2.685,0,0,0,.286.13c.093.054.063.039.03.018L71,113.1c.044.039.087.08.128.122l.059.064c.072.1.144.194.208.3.041.067.08.136.117.206.007.012.03.06.044.088.107.242.2.491.282.742.131.4.215.8.631,1a.692.692,0,0,0,.909-.3,1.293,1.293,0,0,0-.031-1.106"/>
    <path id="Path_279" data-name="Path 279" d="M87.629,118.786a5.344,5.344,0,0,0-.26-.9,3.442,3.442,0,0,0-1.147-1.568,2.487,2.487,0,0,0-1.978-.478,1.862,1.862,0,0,0-1.284,1.063,1.7,1.7,0,0,0,.254,1.86.533.533,0,0,0,.71.009.553.553,0,0,0,.107-.708.616.616,0,0,1-.041-.109c0-.031,0-.057,0-.084a.783.783,0,0,1,.024-.12c.041-.091.067-.142.094-.191a1.282,1.282,0,0,1,.129-.161,1.5,1.5,0,0,1,.164-.126c.014-.01.029-.018.044-.027s.065-.026.1-.039.085-.01.12-.012.069,0,.1,0c.078,0,.07,0-.026,0a.526.526,0,0,1,.2.038l.074.02a1.911,1.911,0,0,1,.348.187l.08.069c.055.047.108.1.158.149.022.022.043.045.064.068.041.056.083.111.121.17s.082.133.119.2l.044.085a5.992,5.992,0,0,1,.3.934c.014.061.026.123.039.184,0,.008.028.15.032.172a2.344,2.344,0,0,0,.2.687.669.669,0,0,0,.7.3.677.677,0,0,0,.54-.531,3.351,3.351,0,0,0-.124-1.138"/>
    <path id="Path_280" data-name="Path 280" d="M92.63,120.382a5.745,5.745,0,0,0-2.373-4.316,2.624,2.624,0,0,0-3.785,1.118.666.666,0,0,0,.279.862.638.638,0,0,0,.854-.282c.025-.06.055-.117.082-.175a2.149,2.149,0,0,1,.173-.209c.12-.085.174-.121.228-.155a2.35,2.35,0,0,1,.262-.1l.114-.026a2.185,2.185,0,0,1,.324-.02c.028,0,.1.01.114.011.067.011.131.029.2.045a2.982,2.982,0,0,1,.283.119c.063.033.125.069.186.106a3.391,3.391,0,0,1,.4.342c.043.044.084.09.125.136.013.02.071.1.079.107a3.551,3.551,0,0,1,.406.714,19.7,19.7,0,0,1,.591,2.006.751.751,0,0,0,1.464-.281"/>
    <path id="Path_281" data-name="Path 281" d="M40.811,118.695a14.631,14.631,0,0,1,2.828.327.648.648,0,0,0,.752-.5.655.655,0,0,0-.5-.759,13.349,13.349,0,0,0-2.724-.421,4.85,4.85,0,0,0-2.516.274,1.48,1.48,0,0,0-.267,2.331,2.628,2.628,0,0,0,1.19.664c.417.134.841.248,1.262.37l1.5.432a2.918,2.918,0,0,0,1.66.227.557.557,0,0,0,.289-.822,2.756,2.756,0,0,0-1.48-.725l-1.448-.421c-.473-.138-.949-.268-1.421-.411a1.541,1.541,0,0,1-.458-.2c.059.041-.106-.108-.106-.092a.35.35,0,0,1-.063-.12.089.089,0,0,1,.041-.044c.031-.011.163-.049.166-.053a6.115,6.115,0,0,1,1.3-.056"/>
    <path id="Path_282" data-name="Path 282" d="M56.079,162.615q-.123-.672-.249-1.345-.243-1.3-.5-2.6c-.346-1.726-.705-3.45-1.133-5.158a46.284,46.284,0,0,0-3.3-9.341,31.377,31.377,0,0,0-5.122-7.487,23.272,23.272,0,0,0-3.252-2.961c-1.141-.834-2.335-1.588-3.528-2.342a22.659,22.659,0,0,1-6.331-5.167c1.757-.585,3.527-1.136,5.292-1.7,2.073-.66,4.18-1.258,6.212-2.038a.626.626,0,0,0-.386-1.19c-2.11.53-4.179,1.252-6.256,1.9s-4.154,1.324-6.247,1.933a.748.748,0,0,0-.386,1.1c3.01,4.865,8.776,6.6,12.844,10.3,4.562,4.157,7.139,10.151,8.764,16.016.526,1.9.973,3.823,1.349,5.758.185.955.358,1.912.526,2.871q.126.717.249,1.435a4.847,4.847,0,0,0,.459,1.426.558.558,0,0,0,1.011-.192,4.033,4.033,0,0,0-.015-1.231"/>
    <path id="Path_283" data-name="Path 283" d="M102.458,130.961a26.334,26.334,0,0,1-5.225.308A37.475,37.475,0,0,1,92,130.353c-3.484-.8-7.021-1.784-10.63-1.568-3.9.234-7.357,2.193-11.142,2.952A35.776,35.776,0,0,1,58.2,131.7c-2.287-.328-4.55-.671-6.814-1.141a4.877,4.877,0,0,1-2.574-.911.921.921,0,0,1-.255-.854c.049-.259.223-.66.549-.592.477.037.655-.676.153-.761-1.375-.152-2.737-.374-4.113-.516q-2.021-.208-4.041-.4c-2.693-.258-5.419-.618-8.125-.631a.41.41,0,0,0-.056.806c2.649.488,5.383.639,8.064.886q1.975.183,3.954.352c.957.081,1.915.124,2.873.178a1.856,1.856,0,0,0,.082,2.05A3.639,3.639,0,0,0,50,131.33c1.035.253,2.09.442,3.135.648,2.146.425,4.258.919,6.433,1.182a38.562,38.562,0,0,0,6.444.3,27.375,27.375,0,0,0,6.377-1.065c2.027-.592,4.017-1.325,6.068-1.834a16.807,16.807,0,0,1,5.809-.4,44.2,44.2,0,0,1,5.665,1.069,59.186,59.186,0,0,0,6.41,1.306,12.513,12.513,0,0,0,6.33-.43c.566-.246.487-1.222-.216-1.144"/>
    <path id="Path_284" data-name="Path 284" d="M53.828,124.192a3.935,3.935,0,0,0-1.372-2.068,3.446,3.446,0,0,0-2.1-.875,2.389,2.389,0,0,0-2.113,1.186,11.606,11.606,0,0,0-1.116-1.576,2.343,2.343,0,0,0-2.687-.567,1.863,1.863,0,0,0-.559,2.734,5.629,5.629,0,0,0,2.518,2.239c.465.218,1.006-.468.541-.792a6.5,6.5,0,0,1-1.75-1.773c-.286-.439-.621-1.277.213-1.233.646.035,1.061.75,1.375,1.236a5.385,5.385,0,0,0,1.662,1.838.712.712,0,0,0,.985-.853c-.324-.864.789-1.148,1.4-.931.995.354,1.34,1.42,2.145,1.995a.534.534,0,0,0,.857-.56"/>
    <path id="Path_285" data-name="Path 285" d="M57.473,126.667a1.616,1.616,0,0,0-.086-.16,1.74,1.74,0,0,0-.184-.21l-.169-.18a4.566,4.566,0,0,0-.388-.348c-.131-.11-.261-.214-.4-.313s-.271-.219-.4-.329a.526.526,0,0,0-.69-.009.507.507,0,0,0-.178.3.516.516,0,0,0,.073.393c.1.128.217.253.314.387s.2.274.313.407c.138.165.272.335.423.489.057.058.119.113.178.169.033.031.066.064.1.095a.978.978,0,0,0,.373.193l-.162-.057a.771.771,0,0,1,.1.059l.155.055a.464.464,0,0,0,.234,0,.584.584,0,0,0,.338-.185.639.639,0,0,0,.061-.748"/>
    <path id="Path_286" data-name="Path 286" d="M59.94,125.32a8.918,8.918,0,0,0-.668-.9l-.773-.986a.665.665,0,0,0-.4-.275.624.624,0,0,0-.459.088.639.639,0,0,0-.185.865l.611.915a10.411,10.411,0,0,0,.621.909,3.184,3.184,0,0,0,.265.312.74.74,0,0,0,.71.189.626.626,0,0,0,.428-.561.932.932,0,0,0-.152-.553"/>
    <path id="Path_287" data-name="Path 287" d="M55.244,118.921a1.4,1.4,0,0,0-.3-.289,3.086,3.086,0,0,0-.351-.263c-.194-.117-.386-.233-.586-.341a.576.576,0,0,0-.442-.035.6.6,0,0,0-.292.227.56.56,0,0,0-.1.363.588.588,0,0,0,.188.4c.155.126.314.246.476.364a3.025,3.025,0,0,0,.366.239l.26.137a.7.7,0,0,0,.687-.007.508.508,0,0,0,.218-.449.8.8,0,0,0-.119-.344"/>
    <path id="Path_288" data-name="Path 288" d="M65.65,120.837c-.041-.086-.1-.16-.142-.244a2.425,2.425,0,0,0-.275-.379c-.221-.275-.464-.531-.706-.786a.564.564,0,0,0-.419-.149.587.587,0,0,0-.333.139.576.576,0,0,0-.114.751c.213.279.426.563.662.823a2.173,2.173,0,0,0,.319.324c.062.045.114.1.173.148a.8.8,0,0,0,.395.172.436.436,0,0,0,.361-.1.448.448,0,0,0,.154-.355.783.783,0,0,0-.075-.347"/>
    <path id="Path_289" data-name="Path 289" d="M70.819,124.057a.833.833,0,0,0-.037-.094,1.29,1.29,0,0,0-.254-.524c-.154-.218-.317-.429-.458-.656-.066-.107-.128-.217-.187-.328a1.171,1.171,0,0,0-.088-.173c-.012-.027-.024-.053-.035-.08a5.628,5.628,0,0,1-.271-.777.611.611,0,0,0-.767-.393.633.633,0,0,0-.389.774,6.274,6.274,0,0,0,.645,1.688,4.363,4.363,0,0,0,.541.778,2.085,2.085,0,0,0,.149.163.765.765,0,0,0,.195.133,1.139,1.139,0,0,0,.136.044,1.371,1.371,0,0,0,.136.062,1.029,1.029,0,0,0,.342.075.426.426,0,0,0,.4-.45.874.874,0,0,0-.053-.242"/>
    <path id="Path_290" data-name="Path 290" d="M102.169,114.876a4.242,4.242,0,0,0-3.152-1.454,4.14,4.14,0,0,0-3.358,1.949,3.717,3.717,0,0,0-2.323-1.994c-1.754-.5-3.754,1.18-3.066,3.051a.591.591,0,0,0,1.122-.371,1.039,1.039,0,0,1,.573-1.155,1.442,1.442,0,0,1,1.42.074c1.151.633,1.43,2.1,1.577,3.293.139.94,1.6.877,1.48-.089a2.871,2.871,0,0,1,2.6-3.273,2.651,2.651,0,0,1,2.024,1,3.1,3.1,0,0,1,.569,1.057c.133.419.1.866.246,1.28a.664.664,0,0,0,1.213.094c.623-1.091-.191-2.638-.921-3.461"/>
    <path id="Path_291" data-name="Path 291" d="M90.634,115.1c-.121-.3-.266-.584-.4-.874-.147-.314-.3-.621-.463-.927a5.275,5.275,0,0,0-.522-.8.539.539,0,0,0-.6-.213.519.519,0,0,0-.353.527,7.852,7.852,0,0,0,.628,1.875c.142.316.277.638.432.948a2.791,2.791,0,0,0,.59.888.576.576,0,0,0,.953-.46,2.67,2.67,0,0,0-.268-.968"/>
    <path id="Path_292" data-name="Path 292" d="M96.75,114.08c-.049-.214-.1-.428-.161-.64a7.479,7.479,0,0,0-.481-1.261,3.923,3.923,0,0,0-1.665-1.767,2.757,2.757,0,0,0-2.324-.183,2.343,2.343,0,0,0-1.332,1.639,1.789,1.789,0,0,0,.835,2.046c.593.319,1.124-.507.657-.963l-.038-.039a.478.478,0,0,0-.055-.1c-.023-.06-.044-.12-.064-.181a.427.427,0,0,1-.012-.081c0-.046,0-.093-.006-.14a.345.345,0,0,1,0-.069c.006-.026.01-.091.024-.153,0-.011.008-.046.015-.08s.03-.067.04-.089c.023-.052.049-.1.077-.153.009-.014.018-.028.026-.043.036-.041.065-.079.1-.115,0,0,.021-.024.037-.04.04-.029.079-.06.121-.086.1-.04.166-.066.229-.085l.091-.015c.06-.006.12-.01.18-.01l.059,0,.059.006c.07.01.139.024.208.041l.154.046.1.044c.076.035.15.074.222.116.03.017.114.073.121.075.037.028.074.055.109.085a3.617,3.617,0,0,1,.334.321c.021.028.043.055.063.083.043.058.083.119.123.179s.088.144.129.217l.051.1c.005.01.044.092.057.116.035.084.054.128.072.173.035.089.069.18.1.271.063.184.118.371.168.559a7.073,7.073,0,0,0,.28,1.137.724.724,0,0,0,1.41-.271,2.865,2.865,0,0,0-.118-.692"/>
    <path id="Path_293" data-name="Path 293" d="M92.108,112.347c.007-.036,0-.032,0,0"/>
    <path id="Path_294" data-name="Path 294" d="M94.34,123.933a.732.732,0,0,0-.178-.3c-.069-.086-.14-.17-.215-.25l-.283-.305-.556-.6a.592.592,0,0,0-.435-.155.61.61,0,0,0-.345.145.577.577,0,0,0-.2.334.6.6,0,0,0,.083.444q.253.321.5.644l.248.317c.071.09.142.18.219.265a.746.746,0,0,0,.273.228.772.772,0,0,0,.324.068.633.633,0,0,0,.367-.154.611.611,0,0,0,.186-.275.685.685,0,0,0,.009-.406"/>
    <path id="Path_295" data-name="Path 295" d="M97.529,123.183a4.275,4.275,0,0,0-.265-.629l-.281-.624a.505.505,0,0,0-.128-.222.512.512,0,0,0-.2-.168.668.668,0,0,0-.932.807l.261.645a5.217,5.217,0,0,0,.341.772.671.671,0,0,0,.854.24.644.644,0,0,0,.314-.3.748.748,0,0,0,.039-.519"/>
    <path id="Path_296" data-name="Path 296" d="M89.8,124.773l-.071-.152-.063-.082-.1-.128a3.624,3.624,0,0,0-.336-.365l-.468-.468a.525.525,0,0,0-.24-.136.5.5,0,0,0-.265-.043.514.514,0,0,0-.252.071.524.524,0,0,0-.216.155.709.709,0,0,0-.178.509.758.758,0,0,0,.224.472l.466.472a2.388,2.388,0,0,0,.234.227l.13.1.061.046a.861.861,0,0,0,.087.062.325.325,0,0,0,.154.079.321.321,0,0,0,.167.035.344.344,0,0,0,.1.005.65.65,0,0,0,.433-.209c.032-.047.064-.095.1-.142a.643.643,0,0,0,.067-.329c-.009-.069-.02-.124-.03-.179"/>
    <path id="Path_297" data-name="Path 297" d="M105.263,122.435a1.61,1.61,0,0,0-.087-.412c-.071-.19-.149-.377-.226-.565l-.455-1.107a.7.7,0,0,0-.325-.383.658.658,0,0,0-.5-.038.671.671,0,0,0-.418.831l.4,1.125c.172.484.33,1.177.9,1.3a.547.547,0,0,0,.528-.175.812.812,0,0,0,.171-.334.772.772,0,0,0,0-.244"/>
    <path id="Path_298" data-name="Path 298" d="M113.606,130.246a47.39,47.39,0,0,0-5.774.264,28.17,28.17,0,0,0-5.668,1.049.59.59,0,0,0,.216,1.144c1.882-.2,3.746-.535,5.631-.725s3.782-.253,5.682-.266c.943-.006.841-1.447-.087-1.466"/>
    <path id="Path_299" data-name="Path 299" d="M61.953,161.345q-.246-1.929-.609-3.838c-.237-1.259-.5-2.519-.844-3.752-.365-1.3-.848-2.559-1.264-3.84-.8-2.455-1.614-4.925-2.635-7.295a64.227,64.227,0,0,0-3.541-7.044c-.735-1.256-1.535-2.469-2.376-3.655Q50.03,131,49.34,130.1a6.2,6.2,0,0,0-1.506-1.591c-.328-.206-.753.191-.624.541a6.308,6.308,0,0,0,1.016,1.584q.583.772,1.147,1.56c.753,1.05,1.459,2.131,2.165,3.213a65.563,65.563,0,0,1,3.853,6.717,55.5,55.5,0,0,1,3.007,7.042,64.464,64.464,0,0,1,1.814,7.566q.438,2.16.719,4.348c.189,1.453.173,2.905.307,4.359a.6.6,0,0,0,1.2-.072c-.044-1.349-.318-2.688-.488-4.025"/>
    <path id="Path_300" data-name="Path 300" d="M67.934,156.871a13.888,13.888,0,0,0-.361-2.73c-.2-.873-.509-1.737-.784-2.591-.289-.9-.536-1.806-.841-2.7-.607-1.78-1.323-3.53-1.98-5.293q-1.017-2.73-2.079-5.443-.591-1.514-1.183-3.026c-.2-.505-.405-1.006-.613-1.506-.218-.525-.524-.979-.775-1.482s-1-.093-.861.414c.122.431.174.874.318,1.3.162.482.341.961.522,1.436q.493,1.294.992,2.587c.673,1.754,1.349,3.508,2.047,5.253.706,1.765,1.422,3.527,2.114,5.3a25.046,25.046,0,0,1,1.726,5.11,27.6,27.6,0,0,1,.339,2.922,29.138,29.138,0,0,1-.14,3.014.667.667,0,0,0,.62.627.679.679,0,0,0,.7-.533,8.34,8.34,0,0,0,.238-2.66"/>
    <path id="Path_301" data-name="Path 301" d="M69.506,152.343q-.466-2.4-1.044-4.769c-.784-3.189-1.7-6.344-2.79-9.442q-.93-2.649-2.064-5.212c-.261-.588-1.191-.314-.964.319a141.316,141.316,0,0,1,5.472,18.713c.379,1.827.65,3.675,1.04,5.5.142.664,1.212.446,1.151-.221-.153-1.641-.486-3.27-.8-4.887"/>
    <path id="Path_302" data-name="Path 302" d="M69.342,159.756c-.772,0-.7,1.21.072,1.208s.7-1.21-.072-1.208"/>
    <path id="Path_303" data-name="Path 303" d="M69.523,162.319c-.02-.043-.04-.086-.061-.129a.551.551,0,0,0-.214-.2.415.415,0,0,0-.211-.054.408.408,0,0,0-.21.022.4.4,0,0,0-.182.108.418.418,0,0,0-.139.169.576.576,0,0,0-.059.286c.005.025.009.05.013.075.019.109.028.153.037.2a.428.428,0,0,0,.059.126.532.532,0,0,0,.205.186.576.576,0,0,0,.4.031.525.525,0,0,0,.225-.148l.042-.061a.28.28,0,0,0,.064-.126.421.421,0,0,0,.024-.075c.009-.055.022-.129.022-.129a.57.57,0,0,0-.017-.284"/>
    <path id="Path_304" data-name="Path 304" d="M76,137.237a10.342,10.342,0,0,0-.778-2.77,14.649,14.649,0,0,0-.751-1.511c-.222-.387-.519-1.009-.968-1.183-.422-.279-1.093.114-.886.653a2.813,2.813,0,0,0,.552,1.139,11.248,11.248,0,0,1,.6,1.171,18.805,18.805,0,0,1,.9,2.655c.117.431.226,1.19.822,1.154.64-.039.563-.867.508-1.308"/>
    <path id="Path_305" data-name="Path 305" d="M76.651,140.428a.937.937,0,0,0-.034-.189c-.021-.046-.043-.092-.065-.139a.443.443,0,0,0-.166-.164.289.289,0,0,0-.141-.072.428.428,0,0,0-.229-.038l-.15.029-.138.066a.45.45,0,0,0-.163.167.465.465,0,0,0-.1.219,1.728,1.728,0,0,0-.02.234c0,.027,0,.054.006.081a.687.687,0,0,0,.195.412l.133.092a.441.441,0,0,0,.229.058.284.284,0,0,0,.153-.009.451.451,0,0,0,.213-.08l.119-.1a.6.6,0,0,0,.144-.287c.007-.1.021-.183.017-.236,0-.014,0-.028,0-.042"/>
    <path id="Path_306" data-name="Path 306" d="M75.79,143.617l.006.106c.05.859,1.248.742,1.292-.078,0-.036,0-.071.005-.107.045-.829-1.353-.788-1.3.079"/>
    <path id="Path_307" data-name="Path 307" d="M77.76,148.853c-.817,0-.74,1.282.076,1.28s.74-1.282-.076-1.28"/>
    <path id="Path_308" data-name="Path 308" d="M50.791,145.035a7.934,7.934,0,0,0-1.876-1.619,7.182,7.182,0,0,1-1.7-1.6,6.436,6.436,0,0,1-.9-4.222.492.492,0,0,0-.926-.194,5.538,5.538,0,0,0,.6,4.854,7.02,7.02,0,0,0,1.751,1.873c.341.264.693.513,1.035.776.376.29.7.633,1.067.93.523.425,1.365-.194.939-.8"/>
    <path id="Path_309" data-name="Path 309" d="M27.805,146.5s-5.466,1.174-4.881,5.725,3.271,4.352,4.422,4.059,5.545-9.407,4.3-10.373-3.836.589-3.836.589" fill="#5d5bea"/>
    <path id="Path_310" data-name="Path 310" d="M22.988,137.406c.469,1.6,3.541,1.4,4.509.087s2-5.235.47-5.038A4.824,4.824,0,0,0,25,133.915c-.766.679-2.49,1.845-2.007,3.491" fill="#5d5bea"/>
    <path id="Path_311" data-name="Path 311" d="M11.134,157.385c-1.174-1.18-4.695,3.013-3.444,4.56s3.085,1.149,3.644-.977.473-2.906-.2-3.583" fill="#5d5bea"/>
    <path id="Path_312" data-name="Path 312" d="M27.728,138.094a1.23,1.23,0,0,0,.338-.607,13.449,13.449,0,0,0,.4-1.309c.119-.434.226-.872.335-1.309a13.818,13.818,0,0,0,.342-1.412,1.525,1.525,0,0,0-1.511-1.783,2.874,2.874,0,0,0-2.168,1.282.693.693,0,0,0-.133.229,6.018,6.018,0,0,1-.768.6,12.756,12.756,0,0,0-1.419,1.037,2.391,2.391,0,0,0-.835,1.467,2.548,2.548,0,0,0,.7,1.98,2.871,2.871,0,0,0,1.982.879,2.95,2.95,0,0,0,1.151-.176,2.49,2.49,0,0,0,.49-.23c.214-.14.364-.323.595-.445a5.4,5.4,0,0,0,.5-.2M23.492,136.2a3.755,3.755,0,0,1,1.38-1.37,9.893,9.893,0,0,0,.964-.758.58.58,0,0,0,.62-.206,4.388,4.388,0,0,1,.652-.673,5.273,5.273,0,0,1-1.035,2.346,4.5,4.5,0,0,1-1.139,1.013,3.716,3.716,0,0,1-.646.324,6.4,6.4,0,0,1-.839.212,1.146,1.146,0,0,1,.043-.888m2.968,1.692c-.272.04-.535.123-.807.165a2.6,2.6,0,0,1-1.093-.03,5.966,5.966,0,0,0,.939-.456,5.439,5.439,0,0,0,1.434-1.241,6.046,6.046,0,0,0,.482-.694,10.907,10.907,0,0,0-.329,1.923.95.95,0,0,1-.626.333"/>
    <path id="Path_313" data-name="Path 313" d="M11.726,156.806a5.561,5.561,0,0,0-2.054.4A3.427,3.427,0,0,0,7.861,158.5a.53.53,0,0,0-.051.24,2.945,2.945,0,0,0-.65,1.123,2.786,2.786,0,0,0,.753,2.791,2.484,2.484,0,0,0,2.855.285,2.654,2.654,0,0,0,1.225-2.556c-.013-.514-.1-1.023-.1-1.537a1.864,1.864,0,0,1,.063-.573c0-.015.016-.053.023-.074.021-.047.044-.092.065-.139a1.09,1.09,0,0,1,.174-.214.628.628,0,0,0-.491-1.037M9.689,158.9a.53.53,0,0,0,.372-.467c.016-.006.03-.014.046-.021a5.172,5.172,0,0,1,.6-.2,4.689,4.689,0,0,0-.053,1.08c.019.33.048.659.06.989a.936.936,0,0,0-.1-.016,2.58,2.58,0,0,1-.37-.075l-.059-.018c-.039-.022-.1-.036-.156-.058a2.678,2.678,0,0,1-.342-.163c-.05-.028-.1-.057-.145-.088s-.05-.034-.03-.022a3.52,3.52,0,0,1-.312-.267c-.044-.041-.085-.084-.126-.128a2.069,2.069,0,0,1-.142-.2,2.117,2.117,0,0,1,.756-.346m.5,2.884c-.029.018-.059.036-.089.052l-.11.051a1.222,1.222,0,0,1-.855.039c-.064-.026-.1-.045-.145-.065s-.08-.044-.119-.068a2.243,2.243,0,0,1-.227-.2,1.61,1.61,0,0,1-.134-.164,1.467,1.467,0,0,1-.3-.934,1.358,1.358,0,0,1,.065-.354,2.916,2.916,0,0,0,.745.8,3.22,3.22,0,0,0,.949.482,2.5,2.5,0,0,0,.385.089c.041.006.082.008.122.011a2.081,2.081,0,0,1-.155.17c.061-.057-.091.064-.128.088"/>
    <path id="Path_314" data-name="Path 314" d="M31.233,145.2a2.631,2.631,0,0,0-2.851.493.591.591,0,0,0-.313-.056,6.174,6.174,0,0,0-5.106,3.609,6.319,6.319,0,0,0,.722,6.491,3.628,3.628,0,0,0,2.738,1.407,3.235,3.235,0,0,0,2.555-1.6,15.5,15.5,0,0,0,1.53-3.27c.457-1.224.854-2.469,1.227-3.721.339-1.137.8-2.642-.5-3.349m-7.191,4.946a5.341,5.341,0,0,1,3.631-3.213c.012.025.022.05.037.075a.642.642,0,0,0,.185.186,5.28,5.28,0,0,1,.325,1.155,5.98,5.98,0,0,1-.031,1.421,11.348,11.348,0,0,1-.851,2.739,2.139,2.139,0,0,1-.592.9,1.346,1.346,0,0,1-1,.115,3.616,3.616,0,0,0-1.245-.009,1.2,1.2,0,0,0-.457.215,5.292,5.292,0,0,1,0-3.587m2.674,5.608a2.064,2.064,0,0,1-1.939-.8c-.059-.065-.114-.133-.168-.2a1.422,1.422,0,0,1,.2-.1c-.015.014.157-.01.164-.011.077,0,.153,0,.23.008a5.839,5.839,0,0,0,1.352.072,1.869,1.869,0,0,0,.538-.176.434.434,0,0,0,.085.053,3.313,3.313,0,0,0,.617.251l-.165-.059c.071.025.136.045.2.062a2.068,2.068,0,0,1-1.121.894m1.743-2.017a1.02,1.02,0,0,0-.092-.066.859.859,0,0,0-.191-.071l-.078-.023a5.8,5.8,0,0,0,.409-.824,17.321,17.321,0,0,0,.856-2.626l.049.021a1.351,1.351,0,0,0,.2.069.935.935,0,0,0,.213.013.654.654,0,0,0,.117-.023c-.176.467-.363.93-.555,1.389-.3.715-.589,1.441-.925,2.141m2.423-6.508c-.12.509-.28,1.011-.434,1.51-.047.152-.1.3-.149.452a.85.85,0,0,0-.109-.13,1.293,1.293,0,0,0-.173-.119l-.093-.054c-.059-.035-.118-.075-.18-.1s-.123-.051-.186-.074a3.792,3.792,0,0,0-.447-1.884,1.506,1.506,0,0,1,1.527-.44c.375.174.329.484.244.843"/>
    <path id="Path_315" data-name="Path 315" d="M30.468,128.875a.565.565,0,0,0-.275-.324.555.555,0,0,0-.421-.032.538.538,0,0,0-.321.277c-.072.192-.148.383-.215.576-.036.105-.062.212-.09.319a.757.757,0,0,0,.027.461.421.421,0,0,0,.262.265.3.3,0,0,0,.161.026.411.411,0,0,0,.2-.067.508.508,0,0,0,.091-.059.638.638,0,0,0,.2-.223c.01-.017.018-.035.027-.052.041-.079.087-.157.122-.239.071-.165.131-.336.2-.5a.411.411,0,0,0,.053-.213.416.416,0,0,0-.021-.212"/>
    <path id="Path_316" data-name="Path 316" d="M22.037,140.764a.586.586,0,0,0-.822.039c-.455.556-.915,1.109-1.362,1.672-.235.3-.49.586-.7.9-.024.035-.047.072-.07.108l-.031.047c-.053.077-.11.151-.164.227a2.543,2.543,0,0,0-.292.556.465.465,0,0,0,.1.532.447.447,0,0,0,.537.045,7.47,7.47,0,0,0,1.512-1.6c.452-.56.891-1.13,1.334-1.7a.6.6,0,0,0-.039-.83"/>
    <path id="Path_317" data-name="Path 317" d="M13.383,145.653A62.45,62.45,0,0,0,9.055,151.6c-1.385,2.026-2.738,4.071-4.1,6.115-.36.542.564,1.193.944.657,1.421-2,2.844-4,4.238-6.028a62.48,62.48,0,0,0,3.987-6.171.46.46,0,0,0-.746-.519"/>
    <path id="Path_318" data-name="Path 318" d="M20.9,167.968a.5.5,0,0,0-.152-.322.457.457,0,0,0-.344-.122.937.937,0,0,0-.191.039,1.347,1.347,0,0,0-.213.1,1.32,1.32,0,0,0-.261.246,3.38,3.38,0,0,0-.468.591l-.446.624a.685.685,0,0,0-.159.457.634.634,0,0,0,.2.424.627.627,0,0,0,.453.161.607.607,0,0,0,.419-.2l.476-.618c.078-.1.157-.2.233-.3.037-.049.072-.1.109-.149s.093-.125.132-.191a.621.621,0,0,0,.049-.116,1.06,1.06,0,0,0,.14-.3.948.948,0,0,0,.023-.318"/>
    <path id="Path_319" data-name="Path 319" d="M69.79,3.235A3.352,3.352,0,0,0,67.966.487C65.389-.845,62.7.805,60.737,2.453c-.629.528-1.245,1.072-1.906,1.558s-1.427.87-2.091,1.376a.379.379,0,0,0,.224.689c1.521-.026,2.873-1.328,3.974-2.251a10.8,10.8,0,0,1,3.857-2.434,3.168,3.168,0,0,1,3.393.847,2.173,2.173,0,0,1,.374,1.433c-.058.63-.388.871-.751,1.33a.567.567,0,0,0,.587.914c1.054-.263,1.465-1.728,1.392-2.68"/>
    <path id="Path_320" data-name="Path 320" d="M80.392,16.857l-.089-.04a.778.778,0,0,0-.268-.068l.057,0a.677.677,0,0,1-.135-.02.676.676,0,0,0-.118-.028c-.053-.007-.106-.015-.158-.024a1.878,1.878,0,0,1-.208-.056,2.444,2.444,0,0,1-.33-.169,2.441,2.441,0,0,1-.316-.294,3.382,3.382,0,0,1-.287-.452.571.571,0,0,0-.656-.235.59.59,0,0,0-.391.581c0,.039.006.076.011.114.012.06.023.12.034.18-.02-.1-.025-.128-.016-.069a.9.9,0,0,0,.1.319,2.446,2.446,0,0,0,.377.6,2.416,2.416,0,0,0,.79.607,2.823,2.823,0,0,0,.556.195,1.2,1.2,0,0,0,.65.012.842.842,0,0,0,.368-.119.706.706,0,0,0,.327-.427.57.57,0,0,0-.294-.613"/>
    <path id="Path_321" data-name="Path 321" d="M76.591,24.741c.013,0,0-.009-.072-.04l.072.04"/>
    <path id="Path_322" data-name="Path 322" d="M77.674,25.48a.684.684,0,0,0-.5-.455c-.023-.014-.066-.023-.1-.038l-.182-.081c-.1-.046-.2-.11-.3-.165a.188.188,0,0,1-.063-.033l-.1-.073c-.053-.042-.1-.086-.154-.131s-.116-.112-.171-.171l-.038-.044a3.463,3.463,0,0,1-.262-.4c-.017-.029-.033-.059-.048-.088s-.019-.036-.028-.054l.025.052c-.026-.005-.072-.176-.083-.206-.024-.069-.046-.14-.064-.211a.764.764,0,0,1-.022-.083c-.012-.1-.017-.175-.019-.249,0-.041,0-.081,0-.121a.572.572,0,0,0-.425-.666.552.552,0,0,0-.64.428,3.29,3.29,0,0,0,.449,2.284,2.966,2.966,0,0,0,1.941,1.389.671.671,0,0,0,.638-.211.742.742,0,0,0,.143-.675"/>
  </g>
</svg>
