<svg id="Group_61" data-name="Group 61" xmlns="http://www.w3.org/2000/svg" xmlns:xlink="http://www.w3.org/1999/xlink" width="161.582" height="173.734" viewBox="0 0 161.582 173.734">
  <defs>
    <clipPath id="clip-path">
      <rect id="Rectangle_34" data-name="Rectangle 34" width="161.582" height="173.734" fill="none"/>
    </clipPath>
  </defs>
  <g id="Group_60" data-name="Group 60" clip-path="url(#clip-path)">
    <path id="Path_381" data-name="Path 381" d="M78.949,3.7c.544,0,1.089,0,1.633,0a.731.731,0,0,1,.76.588c.535,1.642,1.117,3.268,1.643,4.912.2.637.311,1.306.456,1.962s.157.69.834.595c1.3-.183,2.6-.365,3.886-.622,3.481-.694,6.968-1.368,10.427-2.164,2.4-.551,4.756-1.29,7.132-1.945q.324-.089.651-.17c.76-.189,1.128.185.912.966a.642.642,0,0,1-.4.325c-.55.172-1.109.313-1.668.451-2.3.566-4.59,1.175-6.9,1.673-1.969.424-3.98.652-5.946,1.084-2.748.6-5.472,1.322-8.208,1.982-.359.086-.408.268-.392.619a31.946,31.946,0,0,0,1.108,7.092c.5,1.816.821,3.683,1.224,5.527.032.146.091.287.137.43a2.311,2.311,0,0,0,.354-.4c.3-.566.568-1.148.86-1.717,1.316-2.565,2.641-5.124,3.948-7.693a2.4,2.4,0,0,1,1.049-1.079,12.394,12.394,0,0,1,6.994-1.221c3.195.254,5.666,1.95,7.872,4.046a17.249,17.249,0,0,1,2.2,3.129c.259.391.071.792-.117,1.182q-.9,1.86-1.761,3.736c-.311.673-.3.693.346.919a4.871,4.871,0,0,1,3.17,4.7,2.926,2.926,0,0,1-.558,1.807,5.3,5.3,0,0,1-3.4,2.328,12.043,12.043,0,0,1-4.388.195c-.42-.084-.61-.014-.744.45a23.614,23.614,0,0,1-.862,2.235,1.272,1.272,0,0,1-1.077.829,9.242,9.242,0,0,1-3.813-.034c-1.518-.389-3.032-.8-4.53-1.253a12.505,12.505,0,0,1-1.65-.76c-.144-.068-.281-.156-.43-.21-.562-.2-.763-.058-.622.494q.68,2.649,1.415,5.283c.149.534.191.524.861.355,2.016-.508,4.023-1.061,6.054-1.5,1.531-.331,3.108-.449,4.639-.781,2.252-.489,4.471-1.126,6.721-1.621,2.812-.619,5.643-1.154,8.464-1.733.931-.191,1.01-.2,1.071-1.153a19.247,19.247,0,0,0-.037-3.633,41.338,41.338,0,0,0-.892-4.126,44.18,44.18,0,0,0-1.831-6.257c-.4-1.006-.576-2.1-.881-3.141-.688-2.365-1.4-4.724-2.09-7.088-.3-1.01-.032-1.487.973-1.753a.4.4,0,0,1,.338.186,2.735,2.735,0,0,1,.121.657,34.521,34.521,0,0,0,1.52,7.316c.322.9.693,1.791,1.083,2.667a41.261,41.261,0,0,1,2.622,7.812,21.851,21.851,0,0,1,.647,4.355,33.571,33.571,0,0,1-.213,3.637,1.946,1.946,0,0,1-1.7,1.826c-1.127.241-2.267.422-3.385.7-2.486.608-4.952,1.305-7.446,1.875q-3.319.759-6.685,1.314A62.786,62.786,0,0,0,91.714,45.7c-.536.168-.731.066-.5.93.436,1.671.85,3.348,1.274,5.023a2.974,2.974,0,0,1,.114.465.785.785,0,0,1-.583.776c-.351.062-.529-.165-.669-.431a1.62,1.62,0,0,1-.127-.362c-.645-2.576-1.368-5.137-1.907-7.735a66.387,66.387,0,0,0-1.747-6.679c-.941-2.952-1.751-5.941-2.453-8.956-.536-2.305-.961-4.638-1.38-6.968-.277-1.542-.422-3.106-.69-4.65a19.126,19.126,0,0,0-.664-2.6A45.4,45.4,0,0,1,81.3,8.181c-.169-.974-.431-1.931-.631-2.9-.107-.516-.393-.623-.894-.585A23.644,23.644,0,0,0,74.264,5.91a59.5,59.5,0,0,1-7.335,2.259c-2.546.477-5.1.888-7.656,1.336-1.419.249-2.828.569-4.254.763a84.329,84.329,0,0,0-10.339,2.55c-3.525.941-7.073,1.794-10.62,2.649-2.3.554-4.607,1.1-6.931,1.55a103.224,103.224,0,0,0-14.695,4.1,30.523,30.523,0,0,1-3.622.93c-2.313.5-4.635.97-6.955,1.437-.287.058-.389.17-.312.449C2.6,27.757,3.2,31.693,4.467,35.468c.7,2.092,1.144,4.27,1.856,6.357,1.067,3.128,1.759,6.348,2.609,9.53.726,2.716,1.688,5.369,2.557,8.046.809,2.494,1.856,4.911,2.422,7.485.267,1.218.489,2.453.863,3.639.46,1.461,1.056,2.879,1.595,4.315a29.288,29.288,0,0,1,1.341,5.783c.229,1.45.6,2.878.928,4.312.549,2.434,1.136,4.859,1.657,7.3.957,4.474,1.8,8.974,2.838,13.427.836,3.58,1.88,7.111,2.858,10.657.587,2.128,1.2,4.251,1.846,6.36.387,1.252.892,2.467,1.309,3.71a.64.64,0,0,0,.512.489c.219.047.444.07.66.126,1.237.324,2.477.638,3.708.986,2.307.653,4.609,1.326,6.913,1.991a4.438,4.438,0,0,1,.641.194.731.731,0,0,1,.13,1.348,2.858,2.858,0,0,0-1.073,1.19c-.538.947-1.046,1.911-1.579,2.861-.2.354-.072.427.279.437a10.275,10.275,0,0,0,3.118-.478c1.477-.418,2.947-.9,4.452-1.163a17.466,17.466,0,0,0,3.054-.789c.657-.243,1.281-.575,1.928-.847a6.757,6.757,0,0,1,1.256-.438.681.681,0,0,1,.762.461.615.615,0,0,1-.28.833,13.513,13.513,0,0,1-3.941,1.64,37.567,37.567,0,0,0-5.495,1.295,18.123,18.123,0,0,1-5.455.974,1.134,1.134,0,0,0-.476.042c-.846.4-1.294-.09-1.739-.707a20.521,20.521,0,0,0-3.577-4,2.6,2.6,0,0,1-.4-.408,29.045,29.045,0,0,0-3.894-3.7,2.456,2.456,0,0,1-.743-1.192,15.282,15.282,0,0,0-.716-2.174,27.968,27.968,0,0,1-1.973-6.212c-.666-3.065-1.46-6.094-2.31-9.113a188.137,188.137,0,0,1-4.351-19.676,56.609,56.609,0,0,0-1.639-8.183c-.286-.879-.632-1.738-.936-2.611a31.142,31.142,0,0,1-1.359-5.783,20.415,20.415,0,0,0-1.6-5.309,37.771,37.771,0,0,1-1.492-3.951q-1.446-4.628-2.773-9.291c-.932-3.293-1.911-6.579-2.647-9.918A109.854,109.854,0,0,0,2.493,33.68,80.615,80.615,0,0,1,.026,23.811a1.441,1.441,0,0,1,1.122-1.646c2.678-.633,5.36-1.247,8.037-1.883,1-.236,2-.461,2.969-.784,3.012-1,6.092-1.744,9.183-2.448q4.21-.96,8.424-1.907c1.343-.3,2.713-.495,4.037-.862,3.083-.854,6.16-1.739,9.213-2.694A118.976,118.976,0,0,1,55.988,8.51c2.671-.516,5.376-.874,8.026-1.476,2.9-.659,5.765-1.478,8.623-2.3A19.729,19.729,0,0,1,78.949,3.7m25.343,31.991a19.411,19.411,0,0,0,2.948-.573c2.072-.73,3.345-2.821,1.47-5a4.668,4.668,0,0,0-1.906-1.4c-.719-.271-.808-.542-.523-1.255.083-.208.182-.409.278-.612.607-1.27,1.2-2.547,1.831-3.806a.787.787,0,0,0-.043-.958,8.655,8.655,0,0,0-2.128-2.191,17.636,17.636,0,0,1-1.952-1.4,9.48,9.48,0,0,0-4.495-2.037,10.7,10.7,0,0,0-6.124.565,2.316,2.316,0,0,0-1.306,1.18Q89.693,23.594,87,28.959a1.693,1.693,0,0,0-.068,1.293c.508,1.851,1.023,3.7,1.521,5.552a1.327,1.327,0,0,0,.779.907c.691.325,1.355.712,2.056,1.015a11.686,11.686,0,0,0,2.152.776c1.219.261,2.469.365,3.693.6a6.65,6.65,0,0,0,2.19-.013.849.849,0,0,0,.775-.6c.245-.691.489-1.384.689-2.09.306-1.082.649-1.291,1.733-1.038.556.129,1.125.206,1.771.322M39.763,131.284a2.575,2.575,0,0,0-.413-.274,31.343,31.343,0,0,0-8.663-2.646,2.552,2.552,0,0,0-.37.013,1.057,1.057,0,0,0,.14.312c.874.931,1.735,1.875,2.642,2.774,1.245,1.236,2.535,2.427,3.788,3.655.525.515.524.547.9-.131.632-1.146,1.237-2.308,1.853-3.463.03-.056.059-.113.125-.24" fill="#5d5bea"/>
    <path id="Path_382" data-name="Path 382" d="M68.941,51.851a11.37,11.37,0,0,1-1.665-.381.648.648,0,0,0-.889.244,16.722,16.722,0,0,1-3.092,3.141,9.823,9.823,0,0,1-3.9,1.987,2.406,2.406,0,0,1-2.671-.82c-.222-.3-.381-.208-.614-.015-1.233,1.019-2.464,2.041-3.727,3.022a10.155,10.155,0,0,1-1.562.936,2.149,2.149,0,0,1-2.108.188.66.66,0,0,0-.509.067c-.255.13-.464.348-.719.475a2.366,2.366,0,0,1-2.708-.115c-.364-.291-.577-.237-.883.059-.69.668-1.41,1.306-2.126,1.946a12.362,12.362,0,0,1-.965.791,1.684,1.684,0,0,1-2.131.149c-.418-.3-.713-.181-1.095.108a9.434,9.434,0,0,1-1.648.961.5.5,0,0,1-.728-.256.548.548,0,0,1,.25-.738c.134-.086.285-.146.417-.235.318-.215.627-.443.943-.661a.8.8,0,0,0,.294-1.065,4.619,4.619,0,0,1,1.048-4.554,2.45,2.45,0,0,1,.569-.511,1.418,1.418,0,0,1,2.226.786,3.148,3.148,0,0,1-.268,2.687c-.384.66-.882,1.253-1.326,1.878-.133.187-.471.325-.191.629a.588.588,0,0,0,.767.2,3.3,3.3,0,0,0,.642-.413c.976-.877,1.935-1.775,2.91-2.654a1.472,1.472,0,0,0,.411-.931,5.164,5.164,0,0,1,.45-1.344.647.647,0,0,1,.9-.3c.348.148.339.461.293.735a8.666,8.666,0,0,1-.311,1.1c-.193.616.024,1.023.668,1.06a1.953,1.953,0,0,0,1.09-.244,6.715,6.715,0,0,0,1.21-1.073c.525-.546.8-.554,1.111.138.158.354.324.346.571.214a8.077,8.077,0,0,0,1.324-.771c1.515-1.228,3-2.492,4.495-3.748a1.955,1.955,0,0,0,.646-1.244,16.675,16.675,0,0,1,.576-2.52,5.775,5.775,0,0,1,.888-1.564.962.962,0,0,1,1.12-.352,1.047,1.047,0,0,1,.664,1.06,3.994,3.994,0,0,1-.56,2.486c-.356.568-.73,1.126-1.113,1.677-.453.651-.179,1.334.608,1.34A3.774,3.774,0,0,0,60,55.092a12.313,12.313,0,0,0,3.6-2.519c.508-.486.958-1.033,1.456-1.531a1.965,1.965,0,0,0,.662-1.789,1.732,1.732,0,0,1,1.158-1.813,1.043,1.043,0,0,1,1.252.12.993.993,0,0,1,.182,1.234,8.313,8.313,0,0,1-.5.929c-.132.224-.058.4.155.44a5.207,5.207,0,0,0,1.5.145,8.148,8.148,0,0,0,3.017-1.191c.249-.145.486-.31.737-.45.518-.289.875-.249,1.081.125.249.452-.048.74-.363.966a15.505,15.505,0,0,1-1.764,1.156,7.222,7.222,0,0,1-3.23.937M38.367,60.42l.126.383a2.428,2.428,0,0,0,.33-.318,3.833,3.833,0,0,0,.506-.8,6.937,6.937,0,0,0,.336-1.273c.023-.126-.11-.28-.172-.421a1.52,1.52,0,0,0-.288.222,3.438,3.438,0,0,0-.838,2.209M58.58,50.14l-.073-.154c-.054.03-.141.049-.157.093-.222.61-.434,1.225-.649,1.838.044.009.122.035.126.026q.378-.806.741-1.616a.547.547,0,0,0,.012-.187" fill="#5d5bea"/>
    <path id="Path_383" data-name="Path 383" d="M62.309,39.175a9.927,9.927,0,0,0,1.8-.612c1.308-.737,2.589-1.529,3.832-2.371,1.033-.7,2-1.505,2.989-2.261a2.231,2.231,0,0,0,1.012-1.444.732.732,0,0,1,.874-.693.84.84,0,0,1,.577,1.061,2.228,2.228,0,0,1-.116.364c-.237.673.008,1,.692.761a19.052,19.052,0,0,0,2.322-1.121c.254-.13.462-.377.726-.455a.777.777,0,0,1,.678.113.7.7,0,0,1-.043.682,6.574,6.574,0,0,1-3.786,2.111,2.417,2.417,0,0,1-1.259-.355c-.642-.329-.608-.346-1.212.1-1.675,1.235-3.338,2.489-5.056,3.662A8.713,8.713,0,0,1,62.46,40.3a3.117,3.117,0,0,1-1.493-.11c-.468-.193-.7-.012-1.016.217-1.221.879-2.438,1.764-3.692,2.6a6.326,6.326,0,0,1-1.567.705,1.5,1.5,0,0,1-1.971-.874c-.308-.6-.306-.6-.836-.189-1.091.842-2.171,1.7-3.283,2.509a5.352,5.352,0,0,1-1.5.839c-1.511.466-2.054-.163-2.258-1.26a2.81,2.81,0,0,1-.049-.284c-.027-.349-.048-.7-.072-1.047-.3.214-.615.415-.9.646-1.477,1.179-2.938,2.378-4.427,3.541a11.129,11.129,0,0,1-1.464.916,3.189,3.189,0,0,1-3.209.129.57.57,0,0,0-.761.081,2.484,2.484,0,0,1-.723.461.663.663,0,0,1-.844-.266c-.209-.31-.042-.543.171-.76a1.08,1.08,0,0,1,.217-.189,1.337,1.337,0,0,0,.615-1.565,4.932,4.932,0,0,1,.412-3,1.072,1.072,0,0,1,.938-.714c.617-.032.856.139,1.038.744a4.465,4.465,0,0,1-.125,2.087,5.32,5.32,0,0,1-.386,1.283.623.623,0,0,0,.288.885,1.371,1.371,0,0,0,1.375.123,6.785,6.785,0,0,0,1.511-.822q3.114-2.492,6.163-5.061A3.652,3.652,0,0,0,45.3,40.91c.351-.609.666-1.238,1.009-1.852a1.814,1.814,0,0,1,.352-.454.89.89,0,0,1,1.15-.031.743.743,0,0,1,.216,1.023,7.248,7.248,0,0,1-1.25,1.568c-1,.854-.963,1.973-.93,3.086.021.7.339.878.94.509.952-.585,1.866-1.238,2.761-1.91.819-.615,1.572-1.318,2.391-1.932a1.766,1.766,0,0,1,1.026-.384c.447.018.664.439.8.857.371,1.124.459,1.2,1.49.571,1.363-.834,2.659-1.778,3.985-2.673a.905.905,0,0,0,.393-1.062,3.062,3.062,0,0,1,.379-2.042,1.333,1.333,0,0,1,1.611-.722,1.292,1.292,0,0,1,.816,1.47,6.254,6.254,0,0,1-.645,1.575c-.277.533-.284.565.288.582.064,0,.128,0,.192,0,.01.028.019.057.029.085" fill="#5d5bea"/>
    <path id="Path_384" data-name="Path 384" d="M31.472,104.291c-1.283.041-1.576-.15-1.955-1.179q-1.254-3.418-2.5-6.839c-.153-.419-.239-.862-.387-1.283a1.966,1.966,0,0,1,.687-2.314,7.631,7.631,0,0,1,2.066-1.362c2.244-.832,4.528-1.56,6.814-2.273.842-.262,1.259.009,1.515.845.665,2.168,1.34,4.333,1.936,6.52.369,1.353.6,2.743.885,4.119a3.386,3.386,0,0,1,.046.669.9.9,0,0,1-.731.982c-2.465.668-4.927,1.354-7.394,2.013a5.226,5.226,0,0,1-.979.1m-.143-1.3c.621-.143,1.248-.261,1.86-.435,1.783-.5,3.556-1.038,5.337-1.549.585-.168.579-.15.478-.756-.263-1.574-.525-3.148-.774-4.723a20.4,20.4,0,0,0-1.319-4.594c-.254-.619-.365-.667-.935-.467-1.778.623-3.556,1.248-5.32,1.91A6.969,6.969,0,0,0,28.3,93.83a.829.829,0,0,0-.3.987c.445,1.4.815,2.824,1.256,4.225.345,1.1.754,2.173,1.137,3.258a.853.853,0,0,0,.933.692"/>
    <path id="Path_385" data-name="Path 385" d="M30.919,66.431c-.054.571-.142,1.526-.235,2.481a1.454,1.454,0,0,1-.908,1.245,39.636,39.636,0,0,1-6.942,2.509c-1.231.339-1.926-.13-2.077-1.413a40.489,40.489,0,0,0-1.876-7.91,3.855,3.855,0,0,1-.173-.845c-.066-.718-.36-1.5.188-2.121a3.73,3.73,0,0,1,2.756-1.543,16,16,0,0,0,5.435-1.021,4.658,4.658,0,0,1,.458-.142c.813-.219,1.21-.086,1.566.673.323.691.542,1.432.811,2.15a19.5,19.5,0,0,1,1,5.937m-1.565-.107c-.2-2.057-.354-3.873-.559-5.683a11.08,11.08,0,0,0-.408-1.675.438.438,0,0,0-.658-.331c-.177.073-.361.13-.539.2a29.686,29.686,0,0,1-5.441,1.517A1.932,1.932,0,0,0,20,62.377a10.323,10.323,0,0,0,.653,3.565c.532,1.573,1.149,3.117,1.716,4.677.121.332.309.322.594.24,1.722-.494,3.447-.969,5.169-1.456.184-.052.355-.145.538-.205a.9.9,0,0,0,.695-1c-.029-.7-.007-1.406-.007-1.872"/>
    <path id="Path_386" data-name="Path 386" d="M18.292,56.03c-.255,0-.51,0-.766,0a1.113,1.113,0,0,1-1.1-.771,12.965,12.965,0,0,1-.466-1.359c-.454-1.73-.91-3.461-1.32-5.2-.421-1.787-.081-2.3,1.69-2.726,2.018-.486,4.03-.994,6.054-1.455.869-.2,1.758-.313,2.642-.436.488-.068.8.142.933.75a13.43,13.43,0,0,1,.4,2.646,18.228,18.228,0,0,0,.616,4.063,6.031,6.031,0,0,1,.145.751,1.4,1.4,0,0,1-.708,1.448,11.8,11.8,0,0,1-4.5,1.815c-1.2.21-2.4.351-3.6.523l-.008-.047m6.468-8.548c0-.48,0-.96,0-1.44,0-.387-.136-.622-.586-.5-.153.043-.319.037-.474.073-2.394.571-4.788,1.14-7.18,1.722-.615.149-.719.261-.565.867q.706,2.785,1.5,5.548c.2.7.275.717.961.617,1.139-.165,2.29-.3,3.4-.571,1.047-.259,2.056-.679,3.077-1.041.442-.157.538-.468.411-.918a14.658,14.658,0,0,1-.548-4.361"/>
    <path id="Path_387" data-name="Path 387" d="M36.126,83.619a2.53,2.53,0,0,1-.563.638,4.092,4.092,0,0,1-1.078.379c-2.682.729-5.368,1.446-8.049,2.177-.913.248-1.393.09-1.808-.761a9.18,9.18,0,0,1-.611-1.712c-.571-2.195-1.118-4.4-1.662-6.6-.185-.747-.11-.9.558-1.33A4.415,4.415,0,0,1,23.668,76q3.129-1.212,6.266-2.4c.209-.08.421-.154.632-.227,1.257-.432,1.438-.388,1.775.866a39.726,39.726,0,0,0,3.432,8.212,6.589,6.589,0,0,1,.308.7,2.457,2.457,0,0,1,.045.469m-1.728-.55c-.142-.287-.261-.513-.368-.744-1.14-2.462-2.372-4.894-2.7-7.641-.051-.423-.231-.45-.574-.319-2.268.865-4.544,1.706-6.805,2.589-.708.277-.71.363-.523,1.086.047.185.111.367.171.549.477,1.455.959,2.908,1.428,4.366.2.638.363,1.291.578,1.925s.262.628.9.433c1.313-.4,2.623-.812,3.946-1.176,1.139-.313,2.295-.562,3.44-.849a3.415,3.415,0,0,0,.508-.219"/>
    <path id="Path_388" data-name="Path 388" d="M53.011,75.438a11.975,11.975,0,0,1-1.129-.638.388.388,0,0,0-.578.012q-.355.323-.739.614a2.431,2.431,0,0,1-2.516.454c-.359-.148-.527.019-.745.217a29.419,29.419,0,0,1-2.452,2.148,8.28,8.28,0,0,1-2.225,1.075,2.412,2.412,0,0,1-2.59-.536.441.441,0,0,0-.721-.019,6.2,6.2,0,0,1-.68.533c-.424.28-.751.247-1.022-.076-.3-.357-.14-.652.133-.923a6.265,6.265,0,0,1,.5-.451,2.267,2.267,0,0,0,1-2.131,3.881,3.881,0,0,1,.249-1.408,4.212,4.212,0,0,1,.474-1.043,1.572,1.572,0,0,1,1.745-.892,1.726,1.726,0,0,1,1,1.975,5.814,5.814,0,0,1-.628,1.586,9.66,9.66,0,0,1-.842,1.041c-.123.163-.3.446-.239.551a.867.867,0,0,0,.583.392,2.152,2.152,0,0,0,1.026-.146,7.268,7.268,0,0,0,1.573-.9c.748-.6,1.417-1.293,2.136-1.929A2.868,2.868,0,0,0,47.412,73a1.611,1.611,0,0,1,.159-.549,1.1,1.1,0,0,1,1.452-.566c.545.212.729.7.465,1.355-.12.294-.32.554-.466.838a2.511,2.511,0,0,0-.133.426,1.515,1.515,0,0,0,.508-.1,5.847,5.847,0,0,0,.759-.584c.291-.251.556-.532.853-.775.736-.605,1.343-.471,1.745.368.347.726.548.831,1.247.461a12.586,12.586,0,0,0,1.505-1.019c.332-.245.459.013.6.212s.5.352.191.71a6.553,6.553,0,0,1-3.288,1.664M41.353,74.283l-.14-.3c-.063.066-.158.122-.182.2-.09.289-.158.585-.23.879a4.939,4.939,0,0,0,.552-.776" fill="#5d5bea"/>
    <path id="Path_389" data-name="Path 389" d="M54.23,92.846c-.185-.014-.3.013-.373-.033-.776-.5-1.3.062-1.89.416a21.26,21.26,0,0,1-2.1,1.153,5.167,5.167,0,0,1-3.47.347,1.013,1.013,0,0,0-.887.166c-.617.4-1.26.758-1.9,1.116a3.282,3.282,0,0,1-.713.283.833.833,0,0,1-1.054-.41c-.128-.319.069-.586.572-.852.649-.343,1.283-.713,1.928-1.063a1.218,1.218,0,0,0,.634-1.265,3.631,3.631,0,0,1,2.355-3.62,2.591,2.591,0,0,1,.828-.22c.862-.072,1.377.409,1.268,1.263a3.256,3.256,0,0,1-.5,1.321,19.034,19.034,0,0,1-1.276,1.559c-.1.12-.172.259-.258.389a1.425,1.425,0,0,0,.538.047,11.864,11.864,0,0,0,1.877-.709c.876-.464,1.695-1.034,2.549-1.54a3.094,3.094,0,0,1,.872-.38c.236-.053.6-.069.737.069.559.561,1.076.223,1.579-.013.985-.463,1.941-.989,2.927-1.449a7.753,7.753,0,0,1,1.45-.488.749.749,0,0,1,.9.519.66.66,0,0,1-.416.784q-2.508,1.2-5.044,2.341a5.749,5.749,0,0,1-1.127.269m-6.483-2.314c-.051-.026-.105-.077-.153-.073a1.657,1.657,0,0,0-1.065,1.229.574.574,0,0,0,.052.177c.055-.023.127-.031.162-.071.31-.361.614-.726.916-1.093a.872.872,0,0,0,.088-.169" fill="#5d5bea"/>
    <path id="Path_390" data-name="Path 390" d="M25.1,26.266a4.522,4.522,0,0,1,.946.129c.174.06.418.316.4.451a.781.781,0,0,1-.413.548,1.687,1.687,0,0,1-.834-.036,2.345,2.345,0,0,0-2.165.764.305.305,0,0,0-.1.244c.02.06.148.112.232.12.669.058,1.346.059,2.006.168a4.732,4.732,0,0,1,1.542.474,1.514,1.514,0,0,1,.14,2.679,4.874,4.874,0,0,1-3.349.938c-.535-.034-.822-.343-.793-.765.027-.381.3-.638.809-.628a3.893,3.893,0,0,0,2.1-.573c.355-.211.364-.365.005-.5-.384-.14-.8-.188-1.2-.292a10.609,10.609,0,0,1-1.919-.548c-.968-.466-1.048-1.141-.31-1.906a3.656,3.656,0,0,1,2.9-1.271"/>
    <path id="Path_391" data-name="Path 391" d="M33.077,23.718a.925.925,0,0,1,.867.672.8.8,0,0,1-.489.94,6.653,6.653,0,0,1-1.106.3c-.755.185-.754.182-.6.928q.339,1.644.676,3.287c.032.156.131.33.09.46-.07.221-.187.519-.361.587s-.457-.08-.656-.195a.8.8,0,0,1-.261-.394,10.826,10.826,0,0,1-1.045-3.472c-.032-.688-.068-.7-.734-.494-.428.131-.846.293-1.266.447a.545.545,0,0,1-.726-.285.625.625,0,0,1,.141-.861,1.456,1.456,0,0,1,.322-.206,19.641,19.641,0,0,1,4.893-1.66c.094-.016.187-.04.256-.055"/>
    <path id="Path_392" data-name="Path 392" d="M13.845,35.956c-.632,0-.913-.249-1.079-.9-.278-1.082-.533-2.17-.807-3.253-.1-.4-.249-.793-.341-1.2a.747.747,0,0,1,.4-.963.712.712,0,0,1,.971.521c.341,1.1.609,2.213.9,3.324a3.721,3.721,0,0,1,.1.566c.044.4.209.537.618.37.472-.193.965-.338,1.452-.494.182-.059.374-.084.559-.136.339-.095.672-.1.794.293.142.453-.195.613-.553.731-.4.13-.791.256-1.178.407-.417.163-.821.358-1.235.527-.235.094-.48.163-.6.2"/>
    <path id="Path_393" data-name="Path 393" d="M17.924,28.73c.081-.1.2-.4.405-.468.391-.127.57.173.614.533a10.835,10.835,0,0,0,1.52,3.988.932.932,0,0,1,.183.529,1.355,1.355,0,0,1-.353.714c-.256.231-.54.058-.755-.159a1.039,1.039,0,0,1-.215-.314,18.655,18.655,0,0,1-1.367-4.366c-.015-.094-.014-.191-.032-.457"/>
    <path id="Path_394" data-name="Path 394" d="M90.9,28.34a7.039,7.039,0,0,1,.151-1.1,1.406,1.406,0,0,1,2.364-.861,2.593,2.593,0,0,1,.6.607c.495.678.48.678,1.229.183a5.484,5.484,0,0,1,2.944-1.051,1.97,1.97,0,0,1,1.929,1.015A1.758,1.758,0,0,1,99.9,29.2a11.011,11.011,0,0,1-1.92,1.855A23.524,23.524,0,0,1,95.4,32.535c-.616.339-1.242.662-1.867.984-.652.336-.962.243-1.345-.373A9.824,9.824,0,0,1,90.9,28.34m1.6-.717a3.216,3.216,0,0,0-.1.486,12.953,12.953,0,0,0,.57,3.783c.115.442.289.385.6.242.812-.377,1.678-.664,2.444-1.117a21.063,21.063,0,0,0,2.565-1.833c.4-.329.9-.829.523-1.394-.349-.532-1-.359-1.5-.162-1.215.482-2.471.937-2.783,2.475a.686.686,0,0,1-.807.536.735.735,0,0,1-.645-.728,2.3,2.3,0,0,0-.009-.478c-.178-.538-.38-1.069-.588-1.6-.028-.072-.138-.113-.267-.212" fill="#5d5bea"/>
    <path id="Path_395" data-name="Path 395" d="M103.067,24.256A14.269,14.269,0,0,1,98,23.194a27.44,27.44,0,0,1-3.284-1.57,5.832,5.832,0,0,1-1.5-1.177,1.9,1.9,0,0,1,.692-3.108.928.928,0,0,1,.788.076c.272.215.2.556-.013.854-.707.968-.7,1.136.3,1.74a20.541,20.541,0,0,0,8.636,2.938,8.306,8.306,0,0,0,1.048.106c.562-.015,1.1-.121,1.243-.807a.479.479,0,0,1,.616-.439c.425.093.4.447.358.769a1.68,1.68,0,0,1-1.461,1.438c-.791.108-1.589.165-2.359.242" fill="#5d5bea"/>
    <path id="Path_396" data-name="Path 396" d="M103.692,34.828c-1.421.156-1.979-.589-1.178-1.916.577-.958,1.08-1.961,1.627-2.939a1.287,1.287,0,0,1,1.814-.741,2.491,2.491,0,0,1,1.913,3.221,2.553,2.553,0,0,1-.961,1.282,5.428,5.428,0,0,1-3.215,1.093m2.814-3a1.483,1.483,0,0,0-.721-1.405c-.458-.278-.614-.264-.823.2-.344.756-.646,1.53-.969,2.3-.114.273-.076.441.265.393a3.419,3.419,0,0,0,2.02-1.01,1.386,1.386,0,0,0,.228-.471" fill="#5d5bea"/>
    <path id="Path_397" data-name="Path 397" d="M150.292,115.43c.171-1.072.364-2.141.483-3.218a1.372,1.372,0,0,0-.679-1.4,6.717,6.717,0,0,0-2.01-.844c-2.018-.339-4.054-.592-6.089-.805-1.687-.18-3.384-.257-5.077-.37-1.054-.071-2.108-.154-3.164-.177a2.508,2.508,0,0,0-2.562,1.657c-.089.208-.167.416-.257.623-.267.621-.308.649-.738.175A23.358,23.358,0,0,0,125,107c-.764-.472-1.508-.975-2.236-1.5-.426-.3-.4-.336.041-.67,3.377-2.567,5.315-5.849,4.975-10.222a6.781,6.781,0,0,0-2.057-4.914.7.7,0,0,1-.192-.864c.082-.21.171-.415.259-.62a12.868,12.868,0,0,0,1.051-5.427,6.365,6.365,0,0,0-1.54-4.149,8.8,8.8,0,0,0-7.938-3.219c-1.019.1-2.039.2-3.06.293a3.184,3.184,0,0,1-2.785-1.234c-.356-.41-.638-.882-.974-1.308a16.773,16.773,0,0,0-3.606-3.952c-.775-.51-1.568-1-2.385-1.433-1.018-.541-2.093-.972-3.1-1.531-1.033-.572-2.013-1.239-3.013-1.867a.668.668,0,0,1-.259-1.039,4.69,4.69,0,0,0,.485-2.893c-.155-1.4-.344-2.795-.539-4.19a7.221,7.221,0,0,0-3.085-5.414,11.66,11.66,0,0,0-5.478-1.89c-.574-.049-1.151-.077-1.726-.118q-2.685-.18-5.367-.369c0,.041,0,.079-.005.12-.7,0-1.411-.038-2.113.008a24.234,24.234,0,0,0-7.876,1.544,35.876,35.876,0,0,0-7.293,4.029,21.606,21.606,0,0,0-7.3,9.453,19.576,19.576,0,0,0-1.162,4.046,5.75,5.75,0,0,1-.587,1.86,3.484,3.484,0,0,0-.387,2.321,8.3,8.3,0,0,0,.864,2.631,2.533,2.533,0,0,1,.32.792c.262,1.867.577,3.734.716,5.614.126,1.752.09,3.521.059,5.283a3.523,3.523,0,0,1-1.485,2.972c-.91.651-1.762,1.39-2.665,2.049a5.586,5.586,0,0,0-1.9,6.252,6.136,6.136,0,0,0,1.585,2.26,4.858,4.858,0,0,1,1.457,5.16,11.676,11.676,0,0,1-1.049,2.667c-1.136,1.9-1.044,3.918-.736,5.965a4.214,4.214,0,0,0,.566,1.51,25.377,25.377,0,0,0,1.7,2.439,1.191,1.191,0,0,1,.264,1.054c-.18.944-.316,1.895-.513,2.834-.262,1.251-.628,2.482-.828,3.744-.321,1.988-.59,3.985-.785,5.988-.136,1.4-.082,2.813-.167,4.216a67.16,67.16,0,0,1-.913,8.194,32.861,32.861,0,0,0-.482,9.46c.333,3.15.5,6.317.813,9.471a11.93,11.93,0,0,0,2.675,6.775,16.219,16.219,0,0,0,1.831,1.829,10.9,10.9,0,0,0,7.024,2.721,32.423,32.423,0,0,0,11.2-2.006,34.119,34.119,0,0,0,7.483-3.9,96.928,96.928,0,0,0,11.056-8.468,29.021,29.021,0,0,0,6.76-7.9,29.7,29.7,0,0,1,3.772-5.077c.452-.536.89-1,1.68-.885a.933.933,0,0,0,.549-.141c1.159-.672,2.344-1.308,3.449-2.062a5.521,5.521,0,0,0,1.695-2.185c.1-.2.169-.454.477-.241a2.424,2.424,0,0,0,2.215.092,6.208,6.208,0,0,0,2.891-1.82c.3-.334.566-.7.864-1.031.062-.072.234-.139.29-.1a1.555,1.555,0,0,1,.431,1.441,8.235,8.235,0,0,0-.416,1.47,1.535,1.535,0,0,0,1.137,1.867c1.5.541,3.028,1.018,4.536,1.544a3.093,3.093,0,0,1,.805.469,43.289,43.289,0,0,0,5.229,3.188,2.24,2.24,0,0,0,.457.146c.886.266,1.774.538,2.664.8a12.688,12.688,0,0,0,7.084.4,6.707,6.707,0,0,0,4.323-3.375,12.983,12.983,0,0,0,1.375-7.806,3.1,3.1,0,0,1,.3-1.936,18.011,18.011,0,0,0,1.221-2.911c.454-1.331.821-2.69,1.226-4.036.274-.918.616-1.824.805-2.76.281-1.408.439-2.841.68-4.259a8.225,8.225,0,0,0-.318-4.54c-.264-.659-.446-1.238.126-1.82a.879.879,0,0,0,.159-.447M54.6,98.551a1.012,1.012,0,0,1-.02.277,1.188,1.188,0,0,1-.228-.144,4.223,4.223,0,0,1-.88-5.1,5.752,5.752,0,0,1,1.269-1.261c.041-.041.116-.044.236-.082a1.584,1.584,0,0,1-.005.354c-.166.712-.377,1.42-.505,2.141a9.366,9.366,0,0,0,.133,3.811m.213,15.71a1.026,1.026,0,0,1-.036.346c-.069-.061-.141-.123-.21-.187-.859-.769-.815-1.818-.867-2.834a5.809,5.809,0,0,1,1.082-3.611,2.137,2.137,0,0,1,.185-.207,1,1,0,0,1,.069.323c-.128.854-.266,1.7-.4,2.557a8.156,8.156,0,0,0,.182,3.613m82.407,2.9a.622.622,0,0,1,.532-.236c1.011.293,2.011.621,3,.967.482.17.541.372.271.785a2.427,2.427,0,0,1-1.862,1.08,2.386,2.386,0,0,1-1.866-.972,1.408,1.408,0,0,1-.078-1.624m-19.889-40.3c.382-.029.764-.044,1.146-.064a7.084,7.084,0,0,1,5.565,2.582,5.065,5.065,0,0,1,1.313,3.511c.008.636-.087,1.274-.141,1.91a2.047,2.047,0,0,1-.059.28,2.2,2.2,0,0,1-.09-.326c-.056-.572-.089-1.146-.161-1.718a6.336,6.336,0,0,0-5.9-5.8c-.572-.062-1.141-.139-1.711-.211a2.5,2.5,0,0,1-.274-.069,1.531,1.531,0,0,1,.313-.1M66.378,65.689a14.59,14.59,0,0,0,2.908-4.375c.7-1.475,1.426-2.934,2.116-4.414a1.362,1.362,0,0,1,.977-.815,8.8,8.8,0,0,1,3.131-.341,2.847,2.847,0,0,0,.86-.015.586.586,0,0,0,.4-.334.553.553,0,0,0-.177-.492,2.537,2.537,0,0,0-.869-.359,6.844,6.844,0,0,0-2.86.079c-.359.077-.466.039-.354-.359a13.641,13.641,0,0,0,.418-1.872.744.744,0,0,1,.552-.682c2.808-.977,5.639-1.464,8.55-.446.661.231,1.321.479,1.974.736.1.038.154.161.229.243a.922.922,0,0,1-.231.139c-2.077.623-2.636,1.508-2.147,3.608a6.057,6.057,0,0,0,.844,2.016,23.492,23.492,0,0,0,2.142,2.577,4.11,4.11,0,0,1,.966,1.631,1.555,1.555,0,0,1-.056,1.1,2.5,2.5,0,0,0-.1,1.2.387.387,0,0,0,.707.213,2.75,2.75,0,0,0,.775-2.806A6.237,6.237,0,0,0,85.7,59.57a25.6,25.6,0,0,1-1.923-2.262,4.17,4.17,0,0,1-.751-2.346c-.052-.747.177-1.17.877-1.267a20.261,20.261,0,0,1,2.769-.1c.162,0,.341.164.48.287a8.571,8.571,0,0,1,2.561,3.308c.309.806.6,1.616.957,2.4a6.014,6.014,0,0,0,.808,1.3,15.64,15.64,0,0,1,3.406,7.417c.131.787.415,1.554.5,2.344a9.135,9.135,0,0,1-.185,3.336c-.254.993-.395,2.014-.685,2.993a9.92,9.92,0,0,1-6.185,6.742,10.637,10.637,0,0,0-2.346,1.447.793.793,0,0,0-.224.731,1.472,1.472,0,0,1,.011,1.282c-.041.156-.1.305-.136.461C85.3,88.988,85.3,89,83.925,89.118c-.477.041-.96.006-1.352.006a14.494,14.494,0,0,1-5-.772c-1.333-.4-1.272-.372-1.356-1.631a14.152,14.152,0,0,0-3.388-8.2c-1.282-1.556-2.521-3.149-3.806-4.7a15.261,15.261,0,0,1-2.97-7.093,1.038,1.038,0,0,1,.326-1.034M82.937,96.774c-.174-.177-.323-.383-.484-.575a5.176,5.176,0,0,1,.7.357,6.95,6.95,0,0,1,3.005,4.728,2.313,2.313,0,0,1-.228,1.67c-.231.374-.5.726-.746,1.087-.026-.418-.049-.836-.074-1.254a7.173,7.173,0,0,0-2.178-6.013m2.07-6.042c-.262,1.443-.526,2.887-.8,4.328a1.875,1.875,0,0,1-.226.462c-.161-.1-.248-.141-.323-.2A20.789,20.789,0,0,0,79.6,92.968a6.443,6.443,0,0,1-2.754-3.2c-.036-.07-.021-.252,0-.257a.8.8,0,0,1,.341-.01c1.4.287,2.8.659,4.221.844a20.113,20.113,0,0,0,3.144.013c.313-.011.518,0,.449.377M57.364,72.47a3.2,3.2,0,0,1,2.988-4.242c.192-.015.384,0,.577,0,.128-.007.256-.012.384-.007.906.038.916.059.721.938-.126.557-.241,1.113-.362,1.67-.525-.121-1.051-.254-1.579-.362a2.956,2.956,0,0,0-.76-.072c-.323.023-.674.093-.73.488s.22.569.548.674a4.092,4.092,0,0,0,.465.113c.156.031.315.054.474.077A2.235,2.235,0,0,1,62.306,73.8a13.9,13.9,0,0,0,.779,2.464c.123.369.013.536-.389.528a4.387,4.387,0,0,1-3.388-1.287,8.211,8.211,0,0,1-1.944-3.036m60.869,63.589a6.678,6.678,0,0,1-3.983,3.927,3.068,3.068,0,0,1-.934.169c-.655.01-.874-.369-.525-.936a4.783,4.783,0,0,1,1.938-1.808,3.472,3.472,0,0,1,.444-.175c.39-.138.277-.364.1-.582a1.068,1.068,0,0,0-.308-.223,2.165,2.165,0,0,0-2.613.467c-.161.192-.192.326.12.359a2.923,2.923,0,0,1,.352.079,3.688,3.688,0,0,1-.259.272c-.239.213-.49.413-.728.626-.29.259-.6.5-.38.977a.684.684,0,0,1-.074.451,7.811,7.811,0,0,1-6.1,4.86,1.927,1.927,0,0,0-1.231.641c-1.257,1.575-2.516,3.147-3.75,4.74-.4.515-.467.569-.946.12a7.329,7.329,0,0,1-.833-.926,18.377,18.377,0,0,1-2.839-4.872,6.287,6.287,0,0,1-.062-4.147c.2-.61.385-1.223.586-1.829a3.1,3.1,0,0,1,1.327-1.692,10.573,10.573,0,0,0,1.252-.888,4.706,4.706,0,0,0,1.351-1.825,35.364,35.364,0,0,1,4.763-7.976,23.917,23.917,0,0,1,4.441-4.09,33.475,33.475,0,0,1,10.9-5.54,9.076,9.076,0,0,1,1.4-.3,1.8,1.8,0,0,1,1.619.672,1.088,1.088,0,0,1-.106,1.69,2.2,2.2,0,0,1-.469.328c-1.256.631-2.454,1.354-3.775,1.877a15.246,15.246,0,0,0-4.508,2.886,3.014,3.014,0,0,1-1.7.743c-1.328.19-2.652.408-3.972.641a8.649,8.649,0,0,0-1.19.367.56.56,0,0,0-.364.695.477.477,0,0,0,.543.428,4.8,4.8,0,0,0,1.044-.094,24.6,24.6,0,0,1,7.05-.66,2.418,2.418,0,0,1,2.469,2.524c.011.474-.064.5-.551.433a12.743,12.743,0,0,0-2.275-.256c-2.236.077-4.47.215-6.7.374a4.211,4.211,0,0,0-1.272.4.578.578,0,0,0-.385.77.63.63,0,0,0,.836.425,37.423,37.423,0,0,1,7.84-.477,3.165,3.165,0,0,1,1.944.406,1.255,1.255,0,0,1,.546.713,6.562,6.562,0,0,1-.021,1.72c-.128.916-.577,1.2-1.484.988-.965-.229-1.929-.47-2.875-.757a14.649,14.649,0,0,0-4.437-.71c-.318,0-.641-.023-.959.005a.751.751,0,0,0-.749.723.783.783,0,0,0,.659.723,1.246,1.246,0,0,0,.38.041,23.514,23.514,0,0,1,4.467.6c1.131.2,2.28.29,3.421.429.254.03.511.048.764.084,1.039.149,1.224.408.8,1.39m7.406-11.966c-1.077,2.878-2.1,5.778-3.29,8.607-.706,1.674-1.688,3.234-2.547,4.842-.12.225-.251.23-.434.041a.963.963,0,0,1-.276-1.18,2.066,2.066,0,0,0-.093-2.272c-.092-.118-.034-.429.049-.608a6.715,6.715,0,0,0,.426-3.747,3.715,3.715,0,0,1,.072-.646,10.844,10.844,0,0,0,.061-2.1,3.274,3.274,0,0,0-2.69-2.788c-.215-.054-.446-.059-.659-.12-.049-.013-.059-.17-.077-.262a24.275,24.275,0,0,1,3.87-2.282,24.8,24.8,0,0,0,3.844-1.947,2.686,2.686,0,0,0,.39-4.183,3.11,3.11,0,0,0-2.767-1.048,10.875,10.875,0,0,0-1.965.443,32.8,32.8,0,0,0-6.411,2.813c-.136.083-.282.149-.418.234-.262.161-.428.082-.49-.2-.1-.436-.195-.874-.254-1.318a11.657,11.657,0,0,0-4.408-8.135,32.932,32.932,0,0,0-4.07-2.528c-.723-.395-1.087-.821-.944-1.647a2.5,2.5,0,0,0-.023-.761.6.6,0,0,0-.637-.593c-.378.018-.545.3-.522.672.02.318.054.636.1.952.041.269.13.531-.326.446-.308-.056-.6.026-.664.385-.078.4.192.6.531.669a8.432,8.432,0,0,1,3.439,1.836,22.967,22.967,0,0,1,4.708,4.5,9.156,9.156,0,0,1,1.862,5.635,2,2,0,0,1-.944,1.846,38.955,38.955,0,0,0-3.277,2.513,31.274,31.274,0,0,0-7.212,9.632,11.329,11.329,0,0,0-.582,1.213,4.437,4.437,0,0,1-2.208,2.432c-.99.518-2.016.972-2.993,1.51-1.234.677-2.445,1.4-3.644,2.131-.764.467-1.487,1-2.236,1.49a1.989,1.989,0,0,1-1.923.226,3.294,3.294,0,0,0-2.529.044c-1.041.418-2.075.851-3.113,1.269-.59.238-.665.187-.621-.446.144-2.044.341-4.086.433-6.132a45.992,45.992,0,0,0,.006-4.9,23.28,23.28,0,0,1,.335-4.4c.195-1.521.442-3.036.662-4.554.054-.359.1-.775-.305-.913a1.127,1.127,0,0,0-.877.1,1.071,1.071,0,0,0-.31.749,12.979,12.979,0,0,0-.034,1.921,22.906,22.906,0,0,1-.443,5.16c-.239,1.482-.485,2.964-.685,4.454a30.993,30.993,0,0,0,.179,7.565c.067.6.08,1.211.1,1.819a.451.451,0,0,1-.179.287,1.32,1.32,0,0,1-.349.156c-.841.344-.857.357-1.449-.346a8.167,8.167,0,0,0-4.408-2.744,7.978,7.978,0,0,0-3.224-.2,16.255,16.255,0,0,1-1.916.051,3.353,3.353,0,0,0-1.023.193.609.609,0,0,0-.313.5.6.6,0,0,0,.485.328,15.2,15.2,0,0,1,4.549.536,14.8,14.8,0,0,1,4.865,1.988.938.938,0,0,1,.187.208c-.074.048-.143.125-.225.138-1.07.182-2.136.408-3.216.523a8.5,8.5,0,0,0-6.929,4.383c-.065.113-.185.236-.17.339a1.64,1.64,0,0,0,.226.671.451.451,0,0,0,.682.065,2.184,2.184,0,0,0,.49-.454,10.03,10.03,0,0,1,6.427-3.68,37.606,37.606,0,0,0,7.214-2.311c1-.431,2.023-.8,3.039-1.187a2.362,2.362,0,0,1,1.961.051,3.155,3.155,0,0,0,3.006-.251c1.822-.875,3.449-2.065,5.209-3.037.194-.108.382-.236.582-.336a.431.431,0,0,1,.246.005.393.393,0,0,1,0,.172,4.628,4.628,0,0,1-.138.462c-1.416,3.962-.136,7.278,2.5,10.24a15.648,15.648,0,0,0,1.957,1.7c.285.231.457.431.244.792a7.673,7.673,0,0,1-.762,1.3,69.017,69.017,0,0,1-10.737,9.72,73.022,73.022,0,0,1-9.315,5.919,30.492,30.492,0,0,1-10.524,3.149c-.985.113-1.98.167-2.97.205a12.678,12.678,0,0,1-6.64-1.613,5.142,5.142,0,0,1-1.551-1.393,12.438,12.438,0,0,1-2.234-5.154,56.757,56.757,0,0,1-1.226-8.835c-.01-.256,0-.513,0-.769l-.134-.008c.142-1.911.265-3.824.431-5.734.216-2.485.472-4.968.7-7.455.285-3.152.572-6.306.834-9.461.138-1.692.133-3.4.356-5.078.277-2.087.693-4.157,1.108-6.221.372-1.849.831-3.683,1.231-5.527.295-1.343.531-2.7.844-4.039a10.348,10.348,0,0,1,.662-1.992c.592-1.277,1.246-2.529,1.9-3.778a9.7,9.7,0,0,1,2.385-2.99c1.252-1.046,2.557-2.029,3.842-3.036a2.423,2.423,0,0,1,.323-.211c1.023-.577,1.367-.505,1.885.523q1.3,2.574,2.513,5.186a5.081,5.081,0,0,1,.295,3.749A2.818,2.818,0,0,0,72.954,111a8.052,8.052,0,0,0,5.952,2.914,4.4,4.4,0,0,0,4.2-3.562,3.349,3.349,0,0,0,.067-1.049,2.188,2.188,0,0,1,1.256-2.342,8.315,8.315,0,0,0,2.857-3.659,3.536,3.536,0,0,0,.167-2.349,7.825,7.825,0,0,0-2.121-4.121c-.233-.218-.267-.37-.072-.711a6.956,6.956,0,0,0,.613-1.8c.113-.466.249-.592.79-.584,2.849.046,5.7.074,8.549-.041a23.507,23.507,0,0,1,5.25.366,40.489,40.489,0,0,1,11.151,4.05,17.745,17.745,0,0,1,2.762,2.057c1.7,1.356,3.39,2.733,5.074,4.11.319.259.586.577.894.852a5.115,5.115,0,0,0,.6.438,11.956,11.956,0,0,1,1.052.654c1.78,1.413,3.565,2.824,5.311,4.278.809.674,1.539,1.449,2.311,2.172a.6.6,0,0,1,.136.767c-.789,1.992-1.452,4.029-2.391,5.97-.718,1.49-1.146,3.121-1.728,4.68m17.481,22.024a4.119,4.119,0,0,1-2.705,1.839c-.594.126-1.187.259-1.784.369a5.259,5.259,0,0,1-2.472-.077c-1.72-.5-3.464-.923-5.142-1.528a9.663,9.663,0,0,1-2.052-1.372c-.044-.031-.054-.108-.08-.164a.674.674,0,0,1,.247-.1c.768.015,1.536.051,2.3.067,1.146.023,2.295.061,3.441.038a1.387,1.387,0,0,1,.871.285,2.947,2.947,0,0,0,3.871-.257,1.028,1.028,0,0,0,.267-.272,21.339,21.339,0,0,1,3.058-4.139c.571-.69,1.14-1.379,1.717-2.064a2.119,2.119,0,0,1,.281-.244,1.325,1.325,0,0,1,.052.336c-.041.541-.1,1.08-.136,1.472a8.706,8.706,0,0,1-1.737,5.806m3.12-13.243c-.036,1.77-1.312,3.021-1.89,4.562-.241.642-.926,1.116-1.407,1.672-1.168,1.36-2.34,2.716-3.494,4.086a2.16,2.16,0,0,0-.4.749,1.533,1.533,0,0,1-2.235.779c-.058-.041-.039-.287.028-.364a42.492,42.492,0,0,0,3.9-5.816,26.36,26.36,0,0,0,1.287-2.565c.206-.428.162-.479-.306-.492-1.694-.041-3.39-.082-5.082-.108a1.393,1.393,0,0,1-1.444-.89.708.708,0,0,1,.2-.938,2.724,2.724,0,0,1,.892-.534,35.453,35.453,0,0,1,3.56-.746c1.077-.149,2.175-.126,3.261-.2.765-.054,1.53-.146,2.293-.221a7.643,7.643,0,0,1,1.11-.054,4.671,4.671,0,0,0-.283,1.08m1.464-4.867c-.159.62-.377,1.226-.521,1.846a.659.659,0,0,1-.651.575,6.815,6.815,0,0,1-1.334.066,41.649,41.649,0,0,0-7.373-.189,9.874,9.874,0,0,1-1.343-.029c-.386-.03-.8-.1-.962-.513a1.281,1.281,0,0,1,.223-1.351,2.878,2.878,0,0,1,1.534-.936,13.614,13.614,0,0,1,3.877-.593c2.011.121,4.024.236,6.032.37.559.036.658.195.518.754m.882-4.219c-.082.536-.2,1.064-.3,1.6-.052.295-.164.456-.511.387-.377-.072-.769-.051-1.14-.133a30.442,30.442,0,0,0-6.4-.362c-.8-.008-1.6-.051-2.393-.059a2.313,2.313,0,0,1-1.649-.864,1.281,1.281,0,0,1,.074-1.883,3.518,3.518,0,0,1,2-1.059c.823-.092,1.643-.207,2.459-.313.838.124,1.669.193,2.475.377,1.585.365,3.162.757,4.723,1.211.8.231.788.3.662,1.1m.331-2.744c-.075.357-.2.428-.5.251a.94.94,0,0,0-.262-.12,3.065,3.065,0,0,1-1.908-1.416,5.883,5.883,0,0,0-2.951-2.049c-1.226-.461-2.491-.815-3.722-1.256a4.774,4.774,0,0,1-1.261-.665,1.281,1.281,0,0,1-.219-1.941,2.582,2.582,0,0,1,2.164-1.069c1.6.282,3.224.443,4.556,1.556a17.776,17.776,0,0,0,1.826,1.231,4.425,4.425,0,0,1,1.792,2.3,5.683,5.683,0,0,1,.485,3.175"/>
    <path id="Path_398" data-name="Path 398" d="M86.9,70.295a10.5,10.5,0,0,1-1.938-.429c-1.059-.435-2.067-1-3.082-1.534a1.789,1.789,0,0,1-.63-.574.666.666,0,0,1-.043-.6.652.652,0,0,1,.567-.176,4.483,4.483,0,0,1,.871.387c.9.422,1.774.885,2.689,1.259a4.6,4.6,0,0,0,3.553,0c.059-.024.12-.046.177-.074.251-.12.5-.169.681.1.214.325,0,.571-.243.725a7.567,7.567,0,0,1-1.343.716,6.508,6.508,0,0,1-1.259.2"/>
    <path id="Path_399" data-name="Path 399" d="M75.62,60.134a.733.733,0,0,1-.833.81,1.887,1.887,0,0,1-1.505-1.529.715.715,0,0,1,.744-.8,1.745,1.745,0,0,1,1.594,1.518"/>
    <path id="Path_400" data-name="Path 400" d="M87.18,58.634a.668.668,0,0,1-.731.63,1.973,1.973,0,0,1-1.532-1.413c-.073-.577.508-1.072.97-.754a7.994,7.994,0,0,1,1.251,1.287c.053.058.033.184.042.25"/>
    <path id="Path_401" data-name="Path 401" d="M83.414,64.628c-.259.021-.6-.492-.458-.8a5.2,5.2,0,0,1,.715-1.094c.167-.2.406-.136.55.091a.9.9,0,0,1,.129.35,2.458,2.458,0,0,1-.936,1.451"/>
    <path id="Path_402" data-name="Path 402" d="M109.044,4.956q-.6,1.413-1.213,2.819a.226.226,0,0,1-.151.1c-.023,0-.083-.069-.09-.114-.026-.126-.032-.254-.054-.463a1.283,1.283,0,0,1,.094-.477c.391-.661.81-1.3,1.226-1.95.032-.05.119-.065.181-.1,0,.062.029.133.007.184M114.1,6.22c-.6.734-1.216,1.46-1.83,2.185a.823.823,0,0,1-.2.133.684.684,0,0,1,.01-.261q.817-1.751,1.65-3.492c.036.141.073.283.118.422a.429.429,0,0,0,.354.3c.02.122.041.247.064.384a1.293,1.293,0,0,1-.164.332" fill="#5d5bea"/>
    <path id="Path_403" data-name="Path 403" d="M114.97,10.75a15.418,15.418,0,0,1-5.491,2.659,1.691,1.691,0,0,1-2.049-.861,6.916,6.916,0,0,1-.808-2.037c-.31-1.695-.5-3.413-.725-5.121a5.7,5.7,0,0,1-.005-.762,8.48,8.48,0,0,0-.018-.859.967.967,0,0,1,.094-.418.424.424,0,0,1,.195-.392,15.707,15.707,0,0,1,6.045-2.37c.077-.038.151-.077.228-.112A3.05,3.05,0,0,1,113.6.138a1.344,1.344,0,0,1,.318.023.425.425,0,0,1,.744.141c.031.131.059.264.087.4a2.628,2.628,0,0,1,.331,1.1c.09.62.156,1.244.207,1.869.267,1.549.521,3.1.752,4.658a2.5,2.5,0,0,1-1.072,2.423" fill="#5d5bea"/>
    <path id="Path_404" data-name="Path 404" d="M151.123,89.842a1.828,1.828,0,0,1-.371.572c-3.64,2.924-6.612,6.518-9.874,9.82-.068.068-.131.141-.2.205-.622.549-1.182.489-1.548-.252-.751-1.522-1.45-3.069-2.168-4.607a3.961,3.961,0,0,1-.292-.71c-.109-.445-.687-.922-.308-1.3a6.768,6.768,0,0,1,1.9-1.249c.411-.2.851.143,1.1.713.251.588.43,1.206.681,1.794a10.878,10.878,0,0,0,.586,1.046c.237-.294.5-.57.707-.884a21.827,21.827,0,0,1,6.664-6.282,2.278,2.278,0,0,1,2.452-.108,1.228,1.228,0,0,1,.679,1.245" fill="#5d5bea"/>
    <path id="Path_405" data-name="Path 405" d="M132.539,76.914c-.292-.2-.628-.3-.718-.509a45.455,45.455,0,0,0-3.695-5.938,1.715,1.715,0,0,1-.316-.586.932.932,0,0,1,.114-.7,6.681,6.681,0,0,1,1.419-1.113c.685-.37,1.166-.14,1.429.589.162.45.234.932.4,1.382a14.021,14.021,0,0,0,.869,2.117c.371.658.724.643,1.108-.011a20.652,20.652,0,0,1,3.939-4.69,9.093,9.093,0,0,0,1.106-1.324,1.8,1.8,0,0,1,1.259-.76c.911-.15,1.8-.431,2.7-.668.316-.083.623-.051.725.265a1.286,1.286,0,0,1-.113.7c-.035.107-.174.182-.268.268-1.229,1.124-2.467,2.239-3.686,3.373-.961.895-1.919,1.793-2.843,2.726a10.261,10.261,0,0,0-2.219,3.339,4.421,4.421,0,0,1-.451.951,3.721,3.721,0,0,1-.754.592" fill="#5d5bea"/>
    <path id="Path_406" data-name="Path 406" d="M151.122,47.986a4.471,4.471,0,0,1,.784.791,14.322,14.322,0,0,1,.646,1.5c.1.241.219.265.413.071a81.252,81.252,0,0,1,7.351-6.158c.076-.059.141-.131.219-.186a.648.648,0,0,1,.878-.022.592.592,0,0,1-.045.863,3.731,3.731,0,0,1-.734.745,36.5,36.5,0,0,0-5.719,4.809,17,17,0,0,0-1.652,1.984c-.618.829-.844.868-1.567.186-.464-.438-.95-.855-1.444-1.262-.634-.522-.663-.579-.379-1.372a6.657,6.657,0,0,1,.461-1.155,4.849,4.849,0,0,1,.788-.79" fill="#5d5bea"/>
    <path id="Path_407" data-name="Path 407" d="M18.721,49.016a2.22,2.22,0,0,1,.434.284c.278.264.523.563.788.841.449.473.463.475.657-.192a48,48,0,0,1,2.9-7.52c.264-.547.569-1.076.872-1.6a3.434,3.434,0,0,1,.457-.617c.336-.362.742-.435,1.015-.173.305.293.222.626.034.958-.345.611-.71,1.214-1.011,1.846a39.071,39.071,0,0,0-2.892,8.33,4.769,4.769,0,0,1-.354,1.091.879.879,0,0,1-1.435.363,6.8,6.8,0,0,1-2.035-2.635.65.65,0,0,1,.573-.973" fill="#5d5bea"/>
    <path id="Path_408" data-name="Path 408" d="M27.536,83.265a1.741,1.741,0,0,1-.567-.382c-.777-1.055-1.518-2.136-2.266-3.212a.8.8,0,0,1-.2-.425.816.816,0,0,1,.224-.566.6.6,0,0,1,.575.056c.434.422.82.895,1.219,1.354.188.217.359.45.549.666s.327.148.4-.094c.209-.672.406-1.347.613-2.02A17.627,17.627,0,0,1,31.1,73.109a2.2,2.2,0,0,1,.6-.61,1.176,1.176,0,0,1,.8-.137.789.789,0,0,1,.406.56.589.589,0,0,1-.321.486c-.488.091-.675.466-.892.809-1.792,2.83-2.137,2.987-2.986,7.436a8.675,8.675,0,0,1-.225,1.031c-.133.413-.4.587-.949.581" fill="#5d5bea"/>
    <path id="Path_409" data-name="Path 409" d="M37.027,88.509c-.127.378-.215.651-.31.922-.57,1.627-1.176,3.243-1.7,4.885a12.893,12.893,0,0,0-.462,4.745,2.476,2.476,0,0,1,.025.382.982.982,0,0,1-.517.865.811.811,0,0,1-.958-.217q-1.617-1.431-3.243-2.851a1.851,1.851,0,0,1-.2-.206.481.481,0,0,1-.036-.69.464.464,0,0,1,.686-.034c.2.153.4.323.6.483.622.5,1.241,1.009,1.87,1.5.269.211.472.175.513-.21.017-.159.029-.319.045-.478a29.158,29.158,0,0,1,2.232-8.6,5.125,5.125,0,0,1,.383-.771c.164-.254.418-.465.719-.262.177.12.26.379.358.532" fill="#5d5bea"/>
    <path id="Path_410" data-name="Path 410" d="M31.137,55.519a1.438,1.438,0,0,1-.243.315,13.58,13.58,0,0,0-3.17,4.183,32.186,32.186,0,0,0-2.315,5.265,4.422,4.422,0,0,1-.541,1.114.948.948,0,0,1-1.424.3c-.74-.442-1.446-.941-2.164-1.42a.465.465,0,0,1-.2-.2c-.051-.169-.135-.395-.065-.517a.6.6,0,0,1,.478-.174,1.553,1.553,0,0,1,.535.2c.232.107.457.232.687.343,1.033.5,1.039.489,1.569-.5,1.32-2.453,2.417-4.52,3.4-6.236a16.509,16.509,0,0,1,1.7-2.318,3.571,3.571,0,0,1,1.078-.768.5.5,0,0,1,.672.418" fill="#5d5bea"/>
    <path id="Path_411" data-name="Path 411" d="M112.523,7.262a10.271,10.271,0,0,0-.727,1.31,2.675,2.675,0,0,0-.193.67,3.9,3.9,0,0,1-.1.687.4.4,0,0,1-.726.1,1.032,1.032,0,0,1-.121-.267c-1.522-1.272-2.968-2.767-3.113-4.857a.455.455,0,0,1,.677-.387,6.286,6.286,0,0,1,1.972,1.6c.009-.043.012-.09.018-.133a4.918,4.918,0,0,1,1.136-2.4.98.98,0,0,1,1.317-.259,1.768,1.768,0,0,1,.645,1.218,4.244,4.244,0,0,1-.782,2.726" fill="#fff"/>
  </g>
</svg>
