<svg id="Group_59" data-name="Group 59" xmlns="http://www.w3.org/2000/svg" xmlns:xlink="http://www.w3.org/1999/xlink" width="144.879" height="160.776" viewBox="0 0 144.879 160.776">
  <defs>
    <clipPath id="clip-path">
      <rect id="Rectangle_33" data-name="Rectangle 33" width="144.879" height="160.776" fill="none"/>
    </clipPath>
  </defs>
  <g id="Group_58" data-name="Group 58" clip-path="url(#clip-path)">
    <path id="Path_323" data-name="Path 323" d="M105.677,32.4a9.342,9.342,0,0,0-.961-.978c-.026-.024-.052-.048-.076-.074-.083-.088-.051-.065-.023-.032-.043-.065-.152-.2-.163-.211-.047-.068-.089-.14-.137-.208a.73.73,0,0,0-.814-.3.715.715,0,0,0-.487.54,1.452,1.452,0,0,0,.1.821,2.68,2.68,0,0,0,.447.642c.072.081.772.678.741.739,0,.012-.109-.148-.036-.039.03.045.063.087.091.133.013.021.024.042.036.064.028.094.045.146.06.2,0,.072,0,.119.006.163a1.61,1.61,0,0,1-.036.2c-.026.053-.042.089-.061.123l-.03.052a1.783,1.783,0,0,1-.124.13c-.057.036-.111.076-.169.11l-.1.059c-.125.074.014,0,.036-.014a.957.957,0,0,0-.591.65.73.73,0,0,0,.088.571c.036.05.246.285.024.029a.91.91,0,0,0,.518.355,1.772,1.772,0,0,0,1.548-.717,2.439,2.439,0,0,0,.115-3.009"/>
    <path id="Path_324" data-name="Path 324" d="M62.936,74.586c-.272-.091-19.5-7.619-21.133-10.43s-.363-5.261,1-7.347,6.621-7.256,6.621-7.256L44.887,49.1l.907-7.256A44.076,44.076,0,0,0,52.233,43.2c2.721.272,8.8-1.27,8.8-1.27s10.249-2.539,13.7-2.9,9.8-1.27,9.705,5.714-3.991,18.593-3.991,18.593L69.648,60.346Z" fill="#5d5bea"/>
    <path id="Path_325" data-name="Path 325" d="M103.451,35.23c-.568.879-.977,1.848-1.575,2.712a14.768,14.768,0,0,1-2.015,2.33,10.735,10.735,0,0,1-5.432,2.791,10.546,10.546,0,0,1-6.042-.9,26.112,26.112,0,0,1-2.883-1.5,17.093,17.093,0,0,0-2.823-1.6c-.489-.175-1.235.345-.795.877a15.791,15.791,0,0,0,4.49,3.28A13.729,13.729,0,0,0,91.7,44.991a12.3,12.3,0,0,0,10-3.969,15.376,15.376,0,0,0,1.855-2.446,9.932,9.932,0,0,0,1.336-2.844c.216-.9-.992-1.186-1.434-.5"/>
    <path id="Path_326" data-name="Path 326" d="M102.481,37.413a30.691,30.691,0,0,0-1.684-2.885c-.484-.778-1.189-1.688-2.227-1.549a2.054,2.054,0,0,0-1.546,2.413,7.979,7.979,0,0,0,.942,2.73,7.744,7.744,0,0,0,.823,1.223,2.934,2.934,0,0,0,1.4,1.167.683.683,0,0,0,.782-.875,4.689,4.689,0,0,0-.976-1.179,7.168,7.168,0,0,1-.781-1.135,6.192,6.192,0,0,1-.514-1.181,2.826,2.826,0,0,1-.2-1.32.3.3,0,0,1,.076-.193c.006-.009.085-.067.044-.047.1-.051.095-.081.209-.03-.069-.031.03.031.06.059a2.1,2.1,0,0,1,.19.187c.053.062.2.294.289.43a34.194,34.194,0,0,0,1.9,2.961.718.718,0,0,0,1.209-.776"/>
    <path id="Path_327" data-name="Path 327" d="M100.566,27.3a1.925,1.925,0,0,0-.089-.255,5.2,5.2,0,0,0-.308-.621,3.422,3.422,0,0,0-.8-.913.63.63,0,0,0-.82-.013.62.62,0,0,0-.127.811,3.772,3.772,0,0,1,.321.482c.08.144.162.286.237.433.046.1.091.208.128.315.022.066.047.132.069.2.011.033.023.066.036.1a.966.966,0,0,0,.15.256,1.14,1.14,0,0,0,.116.133.676.676,0,0,0,.661.142.66.66,0,0,0,.288-.185.67.67,0,0,0,.162-.319.962.962,0,0,0-.02-.562"/>
    <path id="Path_328" data-name="Path 328" d="M99.44,28.187l-.081-.1c-.011-.014-.024-.028-.036-.042l.117.139"/>
    <path id="Path_329" data-name="Path 329" d="M102.563,26.638c-.005-.081-.014-.078-.026.009,0-.061.01-.123.013-.185a1.476,1.476,0,0,0-.058-.3,2.289,2.289,0,0,0-.21-.5,6.466,6.466,0,0,0-.4-.637,7.607,7.607,0,0,0-1.105-1.246,5.916,5.916,0,0,0-2.871-1.488.485.485,0,0,0-.317.9c.208.123.409.254.611.383.176.112.344.234.5.349a8.842,8.842,0,0,1,1.062.918c.081.082.16.165.238.25.037.041.074.083.109.124.181.223.322.417.456.616a6.776,6.776,0,0,1,.361.586,3.378,3.378,0,0,0,.194.321c.036.051.076.1.114.147.021.024.215.252.131.138a.666.666,0,0,0,.748.267.652.652,0,0,0,.448-.656"/>
    <path id="Path_330" data-name="Path 330" d="M88.717,24.738A4.218,4.218,0,0,0,86,26.437a4.038,4.038,0,0,0-.638,3.225,4.313,4.313,0,0,0,.674,1.556,3.293,3.293,0,0,0,.618.657,1.88,1.88,0,0,0,.938.427.538.538,0,0,0,.553-.808,7.9,7.9,0,0,1-1.207-1.879,2.59,2.59,0,0,1,.121-2.007A2.723,2.723,0,0,1,88.6,26.3a2.32,2.32,0,0,1,2.006.258,2.917,2.917,0,0,1,1.25,1.9.588.588,0,0,0,1.174-.067,3.738,3.738,0,0,0-4.314-3.654"/>
    <path id="Path_331" data-name="Path 331" d="M100.471,18.648a.794.794,0,0,0-1.048.113c-.533.755-1,1.533-1.6,2.241a14.848,14.848,0,0,1-1.9,1.883,16.649,16.649,0,0,1-2.219,1.52c-.378.216-.764.421-1.161.6a7.064,7.064,0,0,0-1.343.66.678.678,0,0,0,.4,1.238,6.879,6.879,0,0,0,2.8-1.055,15.177,15.177,0,0,0,2.452-1.641,17.019,17.019,0,0,0,2.134-2.059,11.777,11.777,0,0,0,1.752-2.48.8.8,0,0,0-.263-1.02"/>
    <path id="Path_332" data-name="Path 332" d="M99.4,16.958c-5.086-3.585-11.437-3.7-17.323-2.449a28.826,28.826,0,0,1-4.672.773,8.257,8.257,0,0,1-4.263-.93c-1.314-.679-2.5-1.571-3.782-2.307a15.559,15.559,0,0,0-3.694-1.516,16.414,16.414,0,0,0-7.959-.1,15.411,15.411,0,0,0-3.785,1.442,39.563,39.563,0,0,1-3.511,2.133,2.278,2.278,0,0,1-2.064-.038,18.311,18.311,0,0,1-1.752-1.35,8.206,8.206,0,0,0-4.338-1.547,7.83,7.83,0,0,0-7.313,4.071c-.482.867.835,1.5,1.353.689A6.69,6.69,0,0,1,42.419,12.8a6.546,6.546,0,0,1,3.471,1.43c1.016.823,1.985,1.686,3.365,1.72a6.5,6.5,0,0,0,3.623-1.411,17.427,17.427,0,0,1,3.3-1.844,14.706,14.706,0,0,1,7.316-.889,13.887,13.887,0,0,1,3.661,1,24.738,24.738,0,0,1,3.416,1.963,14.827,14.827,0,0,0,3.68,1.834,10.673,10.673,0,0,0,4.361.253c1.492-.184,2.954-.548,4.425-.85a28.542,28.542,0,0,1,4.454-.566A18.6,18.6,0,0,1,95.755,16.8a12.986,12.986,0,0,1,6.286,5.474,10.081,10.081,0,0,1,.694,8.3c-.349.933,1,1.672,1.413.719,2.279-5.222-.3-11.206-4.747-14.343"/>
    <path id="Path_333" data-name="Path 333" d="M101.213,104.064l-5.74,1.565-5.217,1.422-4.878,1.331s-5.989,1.632-5.989,1.632-5.5,1.5-5.5,1.5L67.48,113.26l-7.315,1.991L53.7,117.013l-5.433,1.479-6.286,1.713.2-.808c0-.005,2.881-11.614,2.881-11.614l8.866-2.537,1.929-.55,5.237-.3,3.083-.177,4.38-.249s.067.191.172.5c.316.952,1,3.049,1.278,4.212.067.278.172.421.3.479.6.263,1.694-1.384,1.694-1.384a5.317,5.317,0,0,0,1.542.359c.631,0,2.446-2.991,2.446-2.991a9.21,9.21,0,0,0,0,2.36c.182.995.818.631,2-2.724a4.01,4.01,0,0,0-1.379-4.543,5.414,5.414,0,0,0-.89-.627L77.47,99.1l7.022-2.106,6.343-1.9s1.853-.555,1.853-.555l.258.292.058.062,1.632,1.824,2.13,2.379,2.178,2.432Z" fill="#5d5bea"/>
    <path id="Path_334" data-name="Path 334" d="M68.734,104.476q-3.218,3.791-6.28,7.7c-.785,1-1.532,2.044-2.289,3.073L53.7,117.013c2.284-2.805,4.557-5.615,6.855-8.406,1.206-1.465,2.4-2.934,3.624-4.385l4.38-.249s.067.192.172.5"/>
    <path id="Path_335" data-name="Path 335" d="M94.636,96.716q-3.712,4.667-7.415,9.335c-.617.775-1.23,1.555-1.843,2.331,0,0-5.988,1.632-5.988,1.632q2.922-3.862,5.849-7.721c1.843-2.413,3.667-4.854,5.6-7.2,0,0,1.853-.555,1.853-.555l.258.292c-.014.024-.033.048-.048.072a.76.76,0,0,1,.106-.01Z"/>
    <path id="Path_336" data-name="Path 336" d="M61.1,104.4c-.962,1.068-1.929,2.13-2.9,3.2q-4.1,4.5-8.219,9c-.574.627-1.143,1.264-1.713,1.9l-6.286,1.713.2-.809q3.387-4.107,6.782-8.2,1.869-2.247,3.743-4.485l1.221-1.465,1.929-.55Z"/>
    <path id="Path_337" data-name="Path 337" d="M84.468,98.181c-2.843,3.322-5.428,6.879-8.157,10.3-.809,1.014-1.613,2.025-2.422,3.034l-6.41,1.748c.948-1.36,1.891-2.729,2.834-4.093.6.263,1.695-1.384,1.695-1.384a5.3,5.3,0,0,0,1.541.36c.632,0,2.446-2.992,2.446-2.992a9.21,9.21,0,0,0,0,2.36c.182.995.819.632,2-2.724a4.01,4.01,0,0,0-1.378-4.543c.282-.383.565-.766.857-1.149l7.022-2.106a.873.873,0,0,1-.024,1.192"/>
    <path id="Path_338" data-name="Path 338" d="M98.944,101.527q-1.242,1.465-2.48,2.93c-.33.392-.66.785-.991,1.172l-5.217,1.422a53.8,53.8,0,0,1,6.51-7.956Z"/>
    <path id="Path_339" data-name="Path 339" d="M90.246,90.024a10.882,10.882,0,0,1-.579,1.589c-.077-.052-.149-.1-.22-.153-.584-.407-1.2.551-.7,1.01.1.1.215.2.32.3A11.244,11.244,0,0,1,87.039,95.3c-1.254.311-2.513.623-3.768.938l-1.019.259q-3.476.868-6.941,1.771A10.979,10.979,0,0,0,71.926,96.9a15.773,15.773,0,0,0-3.614-.321A16.24,16.24,0,0,0,66.5,96.7c-.191.024-.412.048-.632.081,3.394-6.294,6.773-12.6,9.77-19.1.053-.119.11-.234.163-.354.287-.622.57-1.249.847-1.876,4.27.038,8.377,1.034,11.235,4.4a11.318,11.318,0,0,1,2.36,10.172"/>
    <path id="Path_340" data-name="Path 340" d="M54.153,71.881a79.172,79.172,0,0,1-7.731-3.949c-1.211-.708-2.408-1.445-3.576-2.221-.1-.072-.211-.139-.311-.21.316-.273.632-.551.943-.833a.592.592,0,0,0,.206-.532,11.126,11.126,0,0,1-.938-.7.694.694,0,0,0-.221.1c-.435.306-.866.622-1.3.938-6.347,4.663-12.69,10.56-14.681,18.382a17.85,17.85,0,0,0,.6,11.3,14.365,14.365,0,0,0,7.736,7.477c-2.063.22-4.256-.019-6.161.895-1.872.9-2.556,2.71-3.207,4.557q-1.185,3.354-2.178,6.764a122.79,122.79,0,0,0-3.145,13.681c-.283,1.666-1.106,4.486.943,5.39,2.092.929,3.628-1.594,4.581-3.01A122.273,122.273,0,0,0,33.2,117.075a6.919,6.919,0,0,0,1.882-.082c.234-.024.473-.052.708-.086-.033.761-.057,1.527-.067,2.288-.009,1.063.512,2.04,1.733,1.886a7.081,7.081,0,0,0,1.417-.426c.584-.2,1.168-.4,1.752-.6.1-.034.191-.062.287-.1.283-.1.57-.2.852-.292.134-.043.263-.091.4-.134a5.534,5.534,0,0,0,.9-.349,1.469,1.469,0,0,0,.182-.125c-.053.015-.11.029-.163.048.077-.349.158-.7.235-1.053.024-.115.053-.23.077-.345a.92.92,0,0,0-.106-.076,1.958,1.958,0,0,0-1.709.11c-.067.024-.134.043-.2.067.752-3.461,1.47-6.922,2.236-10.378a.873.873,0,0,1,1.082-.685c2.168-.756,4.413-1.326,6.615-1.953.45-.129.9-.253,1.345-.378a4.137,4.137,0,0,1-.7-.55,3.8,3.8,0,0,1-.809-1.135,4.109,4.109,0,0,1-.35-1.671,7.916,7.916,0,0,1,.862-3.336c.521-1.1,1.173-2.14,1.766-3.2.622-1.116,1.23-2.241,1.829-3.366q3.115-5.887,5.8-11.981c.245-.541.484-1.092.719-1.637.052-.12.1-.235.148-.355.3-.679.584-1.364.866-2.048a80.7,80.7,0,0,1-8.635-3.256M35.881,115.093c-.081.014-.163.024-.239.038A14.726,14.726,0,0,0,32.42,109.2a12.879,12.879,0,0,0,2.609-2.661,10.091,10.091,0,0,0,1.728-3.475,5.68,5.68,0,0,0,.732-.283,67.8,67.8,0,0,0-1.608,12.312"/>
    <path id="Path_341" data-name="Path 341" d="M62.128,76.7l2.164-.2c-.043.11-.091.215-.134.325-.24.575-.484,1.154-.733,1.728-.727.063-1.45.13-2.178.192q-3.116.28-6.228.565c-3.934.349-7.888.838-11.842.928a.837.837,0,0,1-.1-1.67c4.6-.728,9.315-.967,13.958-1.388,1.695-.153,3.394-.316,5.089-.479" fill="#fff"/>
    <path id="Path_342" data-name="Path 342" d="M90.438,92.48c-.374,1.01-2.02.393-1.766-.617a9.212,9.212,0,0,0,.008-4.917,10.535,10.535,0,0,0-2.5-4.351C83.3,79.6,79.456,78.43,75.454,78.086c-.694-.058-1.392-.1-2.091-.11.09-.178.172-.359.258-.541q.324-.69.641-1.389c.686.034,1.37.087,2.05.163a22.135,22.135,0,0,1,4.489.958,15.317,15.317,0,0,1,8.181,5.849,10.812,10.812,0,0,1,1.456,9.464" fill="#fff"/>
    <path id="Path_343" data-name="Path 343" d="M85.22,46.669A52.582,52.582,0,0,1,83.31,56.9a116,116,0,0,1-5.749,16.463c-.263.622-.536,1.244-.809,1.862-.034.076-.067.148-.1.225-.11.253-.225.507-.339.756-.168.373-.336.747-.508,1.12-.053.12-.11.235-.163.354l-.186.4c-2.949,6.352-6.262,12.527-9.584,18.692-.11.206-.225.417-.335.623a.962.962,0,0,1-1.714-.871c3.294-6.123,6.582-12.26,9.541-18.555.091-.177.172-.359.258-.54q.324-.69.642-1.389c.086-.177.167-.359.249-.541.028-.062.057-.129.086-.191A116.459,116.459,0,0,0,81.73,55.367c.422-1.68.785-3.38,1.1-5.084a23.4,23.4,0,0,0,.517-4.4,6.78,6.78,0,0,0-1.015-3.925,5.078,5.078,0,0,0-3.427-1.92,17.7,17.7,0,0,0-4.418-.057,39.608,39.608,0,0,0-4.7.632,44.352,44.352,0,0,0-8.77,2.695,45.056,45.056,0,0,0-14.241,9.684c-.325.32-.646.651-.962.986a.734.734,0,0,1-1.082-.991c.244-.283.489-.56.742-.838.278-.316.57-.627.862-.933A43.344,43.344,0,0,1,62.7,40.743,44.814,44.814,0,0,1,72.1,38.426a23.235,23.235,0,0,1,7.262-.187,8.776,8.776,0,0,1,2.2.714,1.518,1.518,0,0,1,.143.076,2.835,2.835,0,0,1,.288.158,6.109,6.109,0,0,1,2.522,2.93,10.358,10.358,0,0,1,.7,4.552"/>
    <path id="Path_344" data-name="Path 344" d="M72.951,49.532a59.929,59.929,0,0,1-1.929,7.855Q69.9,61.279,68.6,65.109,66.624,70.875,64.291,76.5c-.043.111-.09.216-.134.326-.239.574-.483,1.154-.732,1.728-.038.086-.072.168-.11.254q-2.793,6.483-6.084,12.743c-1.1,2.082-2.264,4.121-3.4,6.179-.8,1.441-2.025,3.964-.1,5.074a6.322,6.322,0,0,0,2.293.666c.2.029.387.053.579.077a31.3,31.3,0,0,0,3.767.258c.431,0,.866,0,1.3-.01a34.389,34.389,0,0,0,6.238-.732,1.072,1.072,0,0,1,.885.172.861.861,0,0,1,.306.436.952.952,0,0,1-.607,1.192c-.082.019-.168.038-.249.053a34.816,34.816,0,0,1-8.679.794,33.872,33.872,0,0,1-3.676-.311c-.225-.033-.45-.072-.675-.11a7.307,7.307,0,0,1-2.552-.871,4.093,4.093,0,0,1-.7-.551,3.8,3.8,0,0,1-.809-1.134,4.116,4.116,0,0,1-.35-1.671,7.913,7.913,0,0,1,.862-3.336c.522-1.1,1.173-2.14,1.766-3.2.623-1.115,1.23-2.24,1.829-3.365q3.115-5.887,5.8-11.982c.062-.143.129-.287.191-.431.177-.4.354-.8.527-1.206.052-.119.1-.234.148-.354.072-.163.139-.321.206-.483.225-.517.445-1.044.66-1.566.235-.565.465-1.13.7-1.694q1.989-4.926,3.681-9.957,1.191-3.532,2.259-7.094c.728-2.442,1.321-4.931,2.178-7.329.287-.814,1.455-.278,1.35.469"/>
    <path id="Path_345" data-name="Path 345" d="M72.74,102.687a4.723,4.723,0,0,0-3.2-3.018,8.543,8.543,0,0,0-4.916.242.631.631,0,0,0,.23,1.225c1.981-.044,4.677-.738,5.991,1.254a5.03,5.03,0,0,1,.558,3.52,11.3,11.3,0,0,1-.433,1.993c-.051.151-.159.284-.215.422-.082-.292-.251-.63-.341-.932-.12-.4-.243-.8-.358-1.2-.231-.81-.457-1.615-.629-2.44-.2-.941-1.792-.458-1.437.467.341.889.618,1.8.885,2.709a8.783,8.783,0,0,0,.751,2.253,1.384,1.384,0,0,0,1.973.462,2.938,2.938,0,0,0,1.026-1.835,8.65,8.65,0,0,0,.119-5.117"/>
    <path id="Path_346" data-name="Path 346" d="M79.169,104.624c-.01,1.484-.8,4.447-2.9,3.681a1.72,1.72,0,0,1-1-1,3.266,3.266,0,0,1-.235-.876c-.076-.56.144-1.5-.455-1.747a.727.727,0,0,1,.283-1.364,1.571,1.571,0,0,1,.861.292,2.126,2.126,0,0,1,.795,1.326c.1.416.067.833.125,1.249a1.028,1.028,0,0,0,.119.45.541.541,0,0,1,.053.082c.335-.111.479-.848.541-1.121a4.717,4.717,0,0,0,.091-1.244,5.547,5.547,0,0,0-.953-2.733,6.166,6.166,0,0,0-1.335-1.422c-.12-.091-.24-.182-.364-.268-.153-.106-.311-.206-.469-.3-.039-.024-.072-.043-.11-.062s-.067-.039-.106-.058c-.062-.038-.115-.067-.162-.091s-.1-.052-.149-.076c-.22-.106-.44-.206-.67-.3q-.165-.072-.33-.129a10.684,10.684,0,0,0-1.121-.331,14.064,14.064,0,0,0-3.494-.33c-.072,0-.144,0-.215,0-.536.014-1.068.053-1.6.072a3.467,3.467,0,0,1-1.661-.139.516.516,0,0,1-.292-.35.663.663,0,0,1,.239-.65,2.37,2.37,0,0,1,1.216-.422c.22-.033.44-.057.632-.081a16,16,0,0,1,1.809-.115,15.773,15.773,0,0,1,3.614.321,10.955,10.955,0,0,1,3.385,1.364A9.262,9.262,0,0,1,77.1,99.7a6.938,6.938,0,0,1,2.068,4.926"/>
    <path id="Path_347" data-name="Path 347" d="M63.329,75.309c-.182-.057-.359-.11-.541-.172a81.01,81.01,0,0,1-8.636-3.255,79.166,79.166,0,0,1-7.73-3.95c-1.211-.708-2.408-1.445-3.576-2.221-.106-.071-.211-.139-.311-.21a10.4,10.4,0,0,1-1.312-1.03,5.074,5.074,0,0,1-.933-1.12c-1.48-2.465.464-5.189,1.847-7.223a23.87,23.87,0,0,1,3.337-3.978,17.837,17.837,0,0,1,2.259-1.824.558.558,0,0,1,.709.843c-.56.6-1.12,1.206-1.666,1.823a34.2,34.2,0,0,0-3.543,4.6,11.262,11.262,0,0,0-1.67,3.312,2.547,2.547,0,0,0,1.163,2.514,10.959,10.959,0,0,0,.957.722c.671.46,1.384.872,2.073,1.288,1.111.675,2.24,1.331,3.385,1.953a79.078,79.078,0,0,0,14.341,6.065c.072.024.144.043.216.067,1.124.345.761,2.15-.369,1.8"/>
    <path id="Path_348" data-name="Path 348" d="M52.228,102.489c-.354.091-.718.172-1.082.244a4.107,4.107,0,0,1-.349-1.67c.387-.015.775-.015,1.163,0,.771.034,1.125,1.2.268,1.422"/>
    <path id="Path_349" data-name="Path 349" d="M86.656,30.842a.8.8,0,0,0-.833.4A8.457,8.457,0,0,0,85.3,32.48a12.921,12.921,0,0,1-.621,1.2A10.926,10.926,0,0,1,81.074,37.4a10.332,10.332,0,0,1-1.085.6c-.485.228-1.187.334-1.422.866a.8.8,0,0,0,.342,1.051c.556.29,1.15-.059,1.664-.3A12.518,12.518,0,0,0,86.18,34.5a10.149,10.149,0,0,0,.637-1.315,4.395,4.395,0,0,0,.447-1.644.773.773,0,0,0-.608-.7"/>
    <path id="Path_350" data-name="Path 350" d="M73.456,19.439A42.814,42.814,0,0,0,67.241,16.8a23.719,23.719,0,0,0-6.493-1.354,13.926,13.926,0,0,0-6.306,1.1,36.844,36.844,0,0,0-5.279,3.153c-2.7,1.771-6.394,3.66-9.6,1.939a4.282,4.282,0,0,1-1.61-1.6,3.235,3.235,0,0,0-2.226-1.769c-2.212-.32-3.52,1.548-4.832,2.969a12.061,12.061,0,0,1-5.285,3.292,17.3,17.3,0,0,1-6.246.415.72.72,0,0,0-.283,1.35c3.482,1.276,7.869.018,10.809-2.031a13.354,13.354,0,0,0,2.086-1.792,14.224,14.224,0,0,1,2.035-2.153,1.513,1.513,0,0,1,2.285.221,8.129,8.129,0,0,0,1.633,2.02c2.737,2.148,6.684,1.558,9.577.077,3.681-1.885,6.65-4.993,10.932-5.5,5.123-.611,9.821,1.613,14.5,3.326.668.245,1.18-.66.516-1.013"/>
    <path id="Path_351" data-name="Path 351" d="M68.57,21.378c-2.494-2.185-6-2.169-8.955-.977-3.374,1.361-5.872,4.1-8.734,6.238-2.549,1.907-6.2,3.694-9.378,2.241-1.488-.682-2.741-1.9-4.4-2.176a4.576,4.576,0,0,0-4.223,1.77c-1.212,1.426-1.693,3.3-2.879,4.735-.848,1.024-2.626,1.857-3.68.634-.572-.664-1.66.277-1.168.985a3.334,3.334,0,0,0,3.829,1.122,6.108,6.108,0,0,0,3.357-3.2c.749-1.368,1.333-3.023,2.665-3.954,1.466-1.023,2.913-.118,4.221.709A9.213,9.213,0,0,0,43.9,31.162a11,11,0,0,0,5.085-1.216c3.273-1.56,5.707-4.317,8.659-6.353,2.692-1.856,6.953-3.373,9.841-1.027.8.648,1.868-.5,1.085-1.188"/>
    <path id="Path_352" data-name="Path 352" d="M80.162,23.464a10.461,10.461,0,0,1-10.143,2.6c-2.013-.582-3.943-1.565-6.092-1.476a8.542,8.542,0,0,0-4.871,2.026c-3.027,2.411-5.137,6.14-8.812,7.687a7.732,7.732,0,0,1-2.955.64,6.629,6.629,0,0,1-2.82-.723,4.819,4.819,0,0,0-2.89-.576,4.579,4.579,0,0,0-2.412,1.4c-1.481,1.517-2.06,3.667-4.052,4.679a6.022,6.022,0,0,1-5.3-.018.756.756,0,0,0-.685,1.346,6.748,6.748,0,0,0,5.138.7,7.171,7.171,0,0,0,4.307-3.072c.992-1.462,2.152-4.068,4.367-3.3a27.5,27.5,0,0,0,2.731,1.1,7.8,7.8,0,0,0,3.245.009c4.258-.823,6.829-4.362,9.721-7.234a9.479,9.479,0,0,1,4.616-2.9c2.083-.406,4.1.611,6.036,1.213a10.877,10.877,0,0,0,11.687-3.359.55.55,0,0,0-.812-.742"/>
    <path id="Path_353" data-name="Path 353" d="M69.617,32.585c-4.815-2.259-9.384,1.8-13.077,4.379a11.265,11.265,0,0,1-6.561,2.489c-2.544-.033-5.032-1.02-7.591-.665-2.228.309-4.519,1.451-5.059,3.811-.185.8,1.094,1.3,1.406.492a4.611,4.611,0,0,1,4.075-2.632c2.434-.24,4.835.671,7.267.7,4.791.061,8.023-3.627,11.84-5.9,2.187-1.3,4.731-2.21,7.264-1.431.721.222,1.107-.93.436-1.245"/>
    <path id="Path_354" data-name="Path 354" d="M88.864,30.954c0-.031.005-.062.007-.093,0-.01-.014.183-.007.093"/>
    <path id="Path_355" data-name="Path 355" d="M90.361,29.67a3.525,3.525,0,0,0-.836-1.472.632.632,0,0,0-1.028.662,5.721,5.721,0,0,1,.223.593c.032.1.059.2.082.3a.731.731,0,0,0,.032.182,3.919,3.919,0,0,1,.052.64c0,.045,0,.09,0,.136s-.008.1-.011.153a2.414,2.414,0,0,1-.031.353,1.722,1.722,0,0,0,.014.278.8.8,0,0,0,.6.7c.569.12.958-.433,1.024-.931a4.154,4.154,0,0,0-.118-1.592"/>
    <path id="Path_356" data-name="Path 356" d="M45.421,107.8c-.033.191-.067.383-.1.574-.556,3.121-1.24,6.238-1.925,9.335-.024.115-.052.23-.076.345-.077.349-.158.7-.235,1.053a.422.422,0,0,1-.019.076c-.125.56-.249,1.125-.378,1.685Q40.972,128.425,39,135.912q-1.193,4.494-2.465,8.97-.646,2.233-1.326,4.462c-.445,1.455-2.571,9.693-3.289,11.043a.722.722,0,0,1-1.345-.469c.191-1.747,2.585-10.158,3.069-11.843q.7-2.455,1.4-4.921,2.491-8.838,4.629-17.778.646-2.7,1.24-5.414c.158-.718.316-1.432.469-2.15.751-3.461,1.47-6.921,2.235-10.378a.873.873,0,0,1,1.082-.684.886.886,0,0,1,.723,1.053"/>
    <path id="Path_357" data-name="Path 357" d="M61.668,103.8c-1.489.412-2.977.819-4.466,1.235-.441.124-.876.244-1.317.369q-2.455.688-4.916,1.388c-1.876.531-3.748,1.13-5.648,1.589-.2.048-.4.1-.594.139a.842.842,0,0,1-.522-1.6c.163-.057.326-.115.493-.167,2.169-.757,4.414-1.326,6.616-1.954.45-.129.9-.253,1.345-.378q1.68-.48,3.365-.948c.2.029.388.053.58.077a31.094,31.094,0,0,0,3.767.259c.431,0,.866,0,1.3-.01"/>
    <path id="Path_358" data-name="Path 358" d="M92.381,95.888Q84.727,97.733,77.1,99.7l-1.943.5c-.12-.091-.24-.182-.364-.268-.153-.1-.311-.206-.469-.3-.039-.024-.072-.043-.11-.062s-.067-.038-.106-.058c-.062-.038-.115-.067-.162-.09s-.1-.053-.149-.077c-.22-.1-.44-.206-.67-.3q-.165-.072-.33-.129c.177-.048.359-.1.536-.139l1.977-.517q3.46-.9,6.941-1.771l1.02-.258c1.254-.316,2.513-.628,3.767-.939s2.5-.617,3.748-.919c.431.4.857.809,1.288,1.216l.306.292"/>
    <path id="Path_359" data-name="Path 359" d="M109.174,90.34a.764.764,0,0,0-.068.062,1.321,1.321,0,0,0-.1-.139,1.113,1.113,0,0,1,.164.077"/>
    <path id="Path_360" data-name="Path 360" d="M105.813,114.188q-1.745,8.238-3.49,16.467-1.321,6.319-2.652,12.633c-.445,2.1-.876,4.207-1.33,6.315q-.338,1.572-.675,3.154a18.616,18.616,0,0,1-.814,3.092.784.784,0,0,1-1.47-.307,21.128,21.128,0,0,1,.6-3.618c.249-1.212.493-2.423.751-3.629q.732-3.51,1.475-7.017,2.656-12.63,5.3-25.261.467-2.247.938-4.486.61,1.121,1.177,2.261c.067.128.13.263.192.4"/>
    <path id="Path_361" data-name="Path 361" d="M143.639,109.311a3.708,3.708,0,0,0-3.925.321,4.492,4.492,0,0,0-1.23.253c-.6.173-1.2.374-1.8.575-1.264.421-2.518.876-3.758,1.374q-1.809.725-3.576,1.536c-.569.263-1.139.536-1.7.809-.335.163-.718.321-1.058.527-1.015-2.063-2.274-4.031-3.442-6q-1.923-3.225-3.92-6.4-4-6.348-8.3-12.5a93.11,93.11,0,0,0-8.344-10.895,20.691,20.691,0,0,0-10.91-6.453,25.862,25.862,0,0,0-7.85-.191,49.064,49.064,0,0,0-6.261,1.1c-.264.622-.536,1.245-.809,1.862-.034.077-.067.148-.1.225,4.27.038,8.377,1.034,11.235,4.4a11.319,11.319,0,0,1,2.36,10.172,10.936,10.936,0,0,1-.579,1.59,9.392,9.392,0,0,1-.6,1.158q.862.8,1.719,1.609c.431.4.857.808,1.288,1.215.1.1.205.2.306.292,1,.953,1.977,1.934,2.915,2.939a61.244,61.244,0,0,1,4.04,4.811c.407.532.8,1.068,1.183,1.614.162.225.316.45.474.674a63.5,63.5,0,0,1,3.451,5.606c.407.747.8,1.5,1.178,2.259.067.13.129.264.191.4.249.507.488,1.024.723,1.536a5.428,5.428,0,0,0,1.154,1.843c1.335,1.216,3,.536,4.269-.392.359-.263.718-.527,1.073-.8a48.842,48.842,0,0,0,2.25,4.653q1.335,2.657,2.69,5.309c.684,1.336,1.431,2.872,2.977,3.346,1.724.536,3.174-.795,4.438-1.752q4.731-3.583,9.459-7.171,2.268-1.724,4.538-3.442l2.273-1.723a15.185,15.185,0,0,0,2.126-1.762,3.634,3.634,0,0,0,1.1-2.407,2.541,2.541,0,0,0-1.24-2.116M109.107,90.4a1.553,1.553,0,0,0-.1-.139,1.1,1.1,0,0,1,.163.076.652.652,0,0,0-.067.063m14.59,23.173a10.118,10.118,0,0,0-1.455,6.352,26.007,26.007,0,0,0-2.848-.574,17.242,17.242,0,0,0-3.031-.235,31.334,31.334,0,0,0-2.063-3.686l2.59-1.938c1.6-1.2,3.269-2.351,4.816-3.629q.732,1.235,1.46,2.475c.215.364.421.737.631,1.106a.673.673,0,0,0-.1.129"/>
    <path id="Path_362" data-name="Path 362" d="M100.519,105.251q-3.259.94-6.52,1.876-12.852,3.663-25.744,7.166-6.448,1.746-12.91,3.437-3.2.834-6.415,1.647c-2.068.527-4.14,1.092-6.242,1.494-.1.024-.191.038-.287.057-.723.134-.991-.771-.637-1.259a.7.7,0,0,1,.355-.258c.32-.106.641-.206.966-.3.053-.019.111-.033.163-.048,2.035-.608,4.117-1.1,6.166-1.637q3.6-.941,7.2-1.9,12.861-3.4,25.668-6.989,6.434-1.8,12.848-3.662,2.1-.61,4.208-1.235c.407.531.8,1.067,1.182,1.613"/>
    <path id="Path_363" data-name="Path 363" d="M64.157,76.827q-.409.991-.842,1.982c-.757.119-1.508.244-2.26.368.244-.541.484-1.091.718-1.637.053-.119.1-.234.149-.354q1.113-.187,2.235-.359"/>
    <path id="Path_364" data-name="Path 364" d="M76.651,75.453c-.278.627-.56,1.254-.847,1.876l-.532.015c-.55.019-1.1.052-1.651.091.3-.642.6-1.283.89-1.929.714-.043,1.427-.063,2.14-.053"/>
    <path id="Path_365" data-name="Path 365" d="M87.039,95.3a11.484,11.484,0,0,1-3.633,2.307.893.893,0,0,1-1.154-1.11l1.02-.259c1.254-.316,2.513-.627,3.767-.938"/>
    <path id="Path_366" data-name="Path 366" d="M89.667,91.613a9.47,9.47,0,0,1-.6,1.159c-.106-.106-.216-.2-.321-.3-.5-.46.115-1.417.7-1.01.072.048.143.1.22.153"/>
    <path id="Path_367" data-name="Path 367" d="M89.667,91.613a9.47,9.47,0,0,1-.6,1.159c-.106-.106-.216-.2-.321-.3-.5-.46.115-1.417.7-1.01.072.048.143.1.22.153"/>
    <path id="Path_368" data-name="Path 368" d="M77.561,73.366c-.263.622-.536,1.245-.809,1.862-.206.034-.407.067-.613.1-.876.129-1.1-1.259-.282-1.5.565-.163,1.13-.316,1.7-.46"/>
    <path id="Path_369" data-name="Path 369" d="M109.174,90.34a.764.764,0,0,0-.068.062,1.321,1.321,0,0,0-.1-.139,1.113,1.113,0,0,1,.164.077"/>
    <path id="Path_370" data-name="Path 370" d="M80.759,62.721a34.7,34.7,0,0,0-5.113-2.039,24.436,24.436,0,0,0-5.27-1.325.9.9,0,0,0-.36,1.752c1.672.518,3.4.833,5.071,1.378,1.65.54,3.216,1.245,4.813,1.92a.947.947,0,0,0,.859-1.686"/>
    <path id="Path_371" data-name="Path 371" d="M75.373,100.379c-.239-1.089-1.169-2.887-2.537-2.569a.742.742,0,0,0-.393,1.1c.219.344.609.449.867.757a2.667,2.667,0,0,1,.493,1.14,12.927,12.927,0,0,1,.221,3,12.188,12.188,0,0,1-.32,2.831,1.009,1.009,0,0,1-.4.665c-.243.119-.377-.051-.576-.164a.7.7,0,0,0-1.016.663c.167,1.395,2,1.383,2.829.6.937-.887.98-2.494,1.064-3.689a15.371,15.371,0,0,0-.237-4.34"/>
    <path id="Path_372" data-name="Path 372" d="M33.679,43.883c.781-.669,1.758-1.02,2.519-1.7.511-.459-.025-1.136-.557-1.17a4.322,4.322,0,0,0-2.729,1.157,10.173,10.173,0,0,0-2.043,2.1,13.169,13.169,0,0,0-2.324,5.991,26.83,26.83,0,0,0,.2,7.335c.353,2.506.858,4.991,1.443,7.452.675,2.838,1.485,5.635,2.349,8.42.311,1,1.785.5,1.537-.5-1.157-4.648-2.484-9.27-3.265-14-.694-4.2-1.253-8.924.975-12.776a8.911,8.911,0,0,1,1.893-2.306"/>
    <path id="Path_373" data-name="Path 373" d="M42.069,56.15q-.132-1.04-.192-2.088c-.04-.7-.062-1.4-.058-2.1a11.953,11.953,0,0,0,.012-2.089.725.725,0,0,0-1.427-.1,7.7,7.7,0,0,0-.2,2.286c-.015.7-.005,1.4.034,2.1s.1,1.394.189,2.088a9.58,9.58,0,0,0,.4,2.267.8.8,0,0,0,1.545-.29,17.977,17.977,0,0,0-.306-2.072"/>
    <path id="Path_374" data-name="Path 374" d="M49.571,49.047a1.578,1.578,0,0,0-1.376-.578c-.429-.034-.858-.062-1.289-.077a22.947,22.947,0,0,0-2.6.054,24.812,24.812,0,0,0-2.577.336,5.262,5.262,0,0,0-2.568.872.814.814,0,0,0,.434,1.337,7.156,7.156,0,0,0,2.416-.319,24.273,24.273,0,0,1,2.493-.293c.806-.053,1.616-.068,2.424-.046.378.01.756.028,1.132.059a5.075,5.075,0,0,0,.682.058,1.2,1.2,0,0,0,.738-.381.838.838,0,0,0,.087-1.022"/>
    <path id="Path_375" data-name="Path 375" d="M44.58,41.941a23.624,23.624,0,0,0-.518,3.61,16.853,16.853,0,0,0-.03,1.741,9.782,9.782,0,0,0,.293,1.836.673.673,0,0,0,.768.45.692.692,0,0,0,.552-.7A41.284,41.284,0,0,1,46.31,42.3a.884.884,0,0,0-1.73-.355"/>
    <path id="Path_376" data-name="Path 376" d="M21.053,53.719a6.532,6.532,0,0,0-1.834-.093,11.162,11.162,0,0,0-2.022.5A11.593,11.593,0,0,0,13.826,56c-.26.21-.523.43-.781.665a6.336,6.336,0,0,0-5.8-.043A17.936,17.936,0,0,0,.133,62.6c-.481.668.456,1.553.961.877a18.425,18.425,0,0,1,4.439-4.237c1.636-1.109,3.787-2.3,5.831-1.741a3.535,3.535,0,0,1,.644.248,5.717,5.717,0,0,0-.789,1.263,2.478,2.478,0,0,0,.967,3.325A2.046,2.046,0,0,0,14.851,61a3.34,3.34,0,0,0-.524-3.156,9.992,9.992,0,0,1,.805-.67,15.265,15.265,0,0,1,5.981-2.385.557.557,0,0,0-.06-1.069M13.6,60.091c-.03.227-.195.715-.47.761s-.424-.25-.463-.478a1.831,1.831,0,0,1,.487-1.246c.049-.067.105-.13.157-.194.01.017.022.032.032.05a1.886,1.886,0,0,1,.257,1.107" fill="#5d5bea"/>
    <path id="Path_377" data-name="Path 377" d="M128.328,48.867c-3.4-2.54-7.752-3.163-11.893-2.686a38.753,38.753,0,0,0-6.77,1.5,26.5,26.5,0,0,0-5.316,2.14,7.641,7.641,0,0,0-3.818-1.438A17.4,17.4,0,0,0,93.2,49.792a.606.606,0,0,0,.374,1.152c2.858-.947,6.644-2.02,9.362-.213a10.067,10.067,0,0,0-2.663,2.792c-.971,1.575-1.033,3.9.922,4.732a3.78,3.78,0,0,0,4.545-1.552,4.792,4.792,0,0,0,.141-5.053,5.543,5.543,0,0,0-.387-.6c.232-.124.465-.25.7-.362a30.842,30.842,0,0,1,4.516-1.624,35.4,35.4,0,0,1,5.588-1.236c3.76-.468,7.795-.034,10.98,2.18.8.555,1.853-.54,1.045-1.144M104.792,55.1c-.407,1.142-1.67,2.232-2.936,1.69-1.567-.673-.034-2.768.649-3.512a9.871,9.871,0,0,1,1.654-1.42,3.453,3.453,0,0,1,.633,3.242" fill="#5d5bea"/>
    <path id="Path_378" data-name="Path 378" d="M91.814,5.187c-.065-.544-.133-1.093-.245-1.63-.043-.2-.073-.412-.109-.618a3.415,3.415,0,0,0-.28-.857.644.644,0,0,0-.623-.425.63.63,0,0,0-.569.492,3.949,3.949,0,0,0-.091.88c.008.239.037.476.046.714.02.516.078,1.032.139,1.544q.186,1.542.377,3.082a.881.881,0,0,0,.908.81.869.869,0,0,0,.809-.909Q92,6.728,91.814,5.187" fill="#5d5bea"/>
    <path id="Path_379" data-name="Path 379" d="M105.174.163a22.9,22.9,0,0,0-4.122,5.4,48.994,48.994,0,0,0-3.161,6.014c-.4.9.947,1.6,1.373.7A57.834,57.834,0,0,1,102.479,6.4c1.175-1.883,2.629-3.606,3.7-5.545.363-.657-.515-1.119-1.006-.7" fill="#5d5bea"/>
    <path id="Path_380" data-name="Path 380" d="M113.611,11.54a24.521,24.521,0,0,0-4.6,2.26q-2.207,1.3-4.4,2.634c-.9.546-.03,1.854.873,1.36q2.251-1.233,4.485-2.493a24.469,24.469,0,0,0,4.223-2.849c.435-.383-.089-1.08-.588-.912" fill="#5d5bea"/>
  </g>
</svg>
