<svg xmlns="http://www.w3.org/2000/svg" xmlns:xlink="http://www.w3.org/1999/xlink" width="315.566" height="230.008" viewBox="0 0 315.566 230.008">
  <defs>
    <clipPath id="clip-path">
      <rect id="Rectangle_447" data-name="Rectangle 447" width="82.819" height="316.568" transform="translate(0 0)" fill="none"/>
    </clipPath>
  </defs>
  <g id="Group_505" data-name="Group 505" transform="matrix(0.5, -0.866, 0.866, 0.5, 0.001, 71.724)">
    <g id="Group_504" data-name="Group 504" transform="translate(0 -0.001)" clip-path="url(#clip-path)">
      <path id="Path_2049" data-name="Path 2049" d="M285.452,467.019q-.125,12.881-.25,25.761-.335,34.457-.67,68.913l-.614,63.146a19.187,19.187,0,0,1,11.352,13.876V467.331a.889.889,0,0,0,.075-.152c0-.028,0-.055,0-.082.013-.492.034-.982.054-1.471q-.037-1.377-.19-2.736-.143-1.274-.378-2.533a20.878,20.878,0,0,0-9.381,6.662" transform="translate(-212.827 -345.086)" fill="#ff8c43"/>
      <path id="Path_2050" data-name="Path 2050" d="M188.971,624.78q-.06-16.985-.121-33.97-.122-34.081-.243-68.163-.1-27.727-.2-55.454a29.418,29.418,0,0,0-8.19-7.964q-.181.772-.346,1.548a33.088,33.088,0,0,0-.5,4.082c-.025.678-.068,1.354-.117,2.03v170.98a19.181,19.181,0,0,1,9.714-13.089" transform="translate(-134.372 -344.241)" fill="#d95813"/>
      <path id="Path_2051" data-name="Path 2051" d="M238.8,525.545q.283-29.114.566-58.228a9.281,9.281,0,0,0-13.62-.472q.053,14.869.106,29.739.122,34.082.243,68.163l.223,62.557a19.229,19.229,0,0,1,11.5-.513q.157-16.166.314-32.332.335-34.456.67-68.913" transform="translate(-169.222 -347.889)" fill="#ff8c43"/>
      <path id="Path_2052" data-name="Path 2052" d="M215.691,1126.652a19.164,19.164,0,1,0,.376,3.785,19.188,19.188,0,0,0-.376-3.785m-15.144,3.951a4.857,4.857,0,0,1-7.323,2.877,4.513,4.513,0,0,1-1.743-5.426,4.423,4.423,0,0,1,3.8-3.6,4.924,4.924,0,0,1,5.261,6.147" transform="translate(-133.248 -833.023)" fill="#feefdb"/>
      <path id="Path_2053" data-name="Path 2053" d="M191.286,407.834l.025.035h.079a9.679,9.679,0,0,1,2.386-4.032,9.281,9.281,0,0,1,13.62.472,9.7,9.7,0,0,1,1.782,2.954l.37-.03c.106-.142.217-.28.327-.419a20.878,20.878,0,0,1,9.381-6.662,57.448,57.448,0,0,0-3.873-12.024c-1.156-2.7-2.352-5.407-3.6-8.086a36.219,36.219,0,0,1-22.214.626q-.845,2.022-1.648,4.062a111.56,111.56,0,0,0-4.821,15.14,29.42,29.42,0,0,1,8.19,7.963" transform="translate(-137.25 -284.882)" fill="#feefdb"/>
      <path id="Path_2054" data-name="Path 2054" d="M74.529,95.16q-.533-1.14-1.08-2.274c-1.241-2.569-2.538-5.109-3.917-7.591-1.088-1.958-2.269-4.311-4.277-5.469a30.9,30.9,0,0,0,3.35-5.912,21.6,21.6,0,0,0,1.334-3.881c.178-.163.36-.323.535-.49a32.483,32.483,0,0,0,6.674-8.873c1.51-3.05,2.318-7.149-.551-9.7a7.432,7.432,0,0,0-4.629-1.732c-.921-.152-1.949-.168-1.812-.285-.851.145-1.884.29-3.025.544-.57.125-1.167.271-1.781.448l-.462.139-.387.122c-.18.054-.36.124-.523.175-.016-.171-.035-.336-.065-.5l-.023-.123-.042-.2c-.034-.15-.069-.3-.108-.45a9.989,9.989,0,0,0-.636-1.75c-.142-.428-.054-.257.055-.036s.225.5.171.259c-.228-.472-.472-.991-.819-1.634a14.56,14.56,0,0,0-1.523-2.334l.187.188a11.515,11.515,0,0,0-3.3-2.81,11.723,11.723,0,0,0-1.724-.792l-.323-.108c-.077-.029-.156-.046-.233-.069l-.115-.032c-.015,0-.007-.013,0-.022l.009-.03.019-.059.074-.233.22-.713c.089-.289.168-.583.255-.882.174-.6.341-1.219.517-1.877.341-1.32.711-2.791,1.049-4.556l-.216.5.319-1.57c.073-.357.137-.612.2-.968.032-.891-.11.185-.305,1.269s-.424,2.181-.366,1.373a33.7,33.7,0,0,0,1.006-6.292c.025-.329.05-.657.074-.98s.029-.644.043-.955c.04-.621.028-1.213.045-1.742s-.006-1,.006-1.38.019-.674.034-.85c-.1-1.195-.119-1.016-.138-.838-.01.089-.02.178-.039.1s-.034-.336-.119-.927l-.009-.639c-.061-.2-.11-.391-.18-.584a15.577,15.577,0,0,1-.325-2.408c.082.374.282,1.053.348,1.458a16.791,16.791,0,0,0-.359-1.741c-.067-.317-.18-.635-.275-.954s-.194-.637-.317-.934l-.333-.86c-.114-.267-.232-.511-.331-.731l-.261-.571-.082-.16c.136.284.254.576.377.866l.225.536.194.548a22.814,22.814,0,0,0-2.4-4.565A19.583,19.583,0,0,0,50.8,3.589,15.859,15.859,0,0,0,46.141.874C45.933.8,45.727.718,45.52.648l-.634-.17L44.259.312C44.047.272,43.835.24,43.626.2A12.493,12.493,0,0,0,41.158,0c.162.016.323.042.484.07A16.136,16.136,0,0,0,38.9.241l-.472.07L38.011.39c-.271.045-.517.107-.769.161a15.437,15.437,0,0,0-1.708.5,17.964,17.964,0,0,0-2.726,1.234l.163-.1c-.913.543-2.107,1.293-3.278,2.129.522-.413-.006-.078-.49.234s-.919.6-.24.052c-1.028.8-1.632,1.343-2.036,1.7s-.591.545-.737.7c-.292.3-.423.464-1.6,1.7l-.636.471c-.778.866-.83.951-2.649,2.818,1.443-1.581-1.269,1.089.338-.7a47.793,47.793,0,0,0-4.39,4.712c-1.06,1.285-1.854,2.3-2.748,3.2-.672,1.074.076.151.917-.87a14.267,14.267,0,0,1,1.344-1.589c.823-.846-1.2,1.7-2.261,3.049-.536.689-1.054,1.228-1.75,2.052a33.506,33.506,0,0,0-2.779,3.779c.24-.367.24-.4.48-.769-.967,1.344-1.667,2.773-2.764,4.479a21.183,21.183,0,0,0-1.237,2.692q.9-1.808,1.9-3.566c-.555,1-1.034,2.007-1.589,3.176l-2,4.2c.08-.285.5-1.329.805-2.037-.529.971-.865,1.941-1.367,2.97a13.657,13.657,0,0,1,1.078-2.681C5.92,32.729,6.73,31.163,7.26,30.05a25.248,25.248,0,0,0-1.209,2.323c-.369.778-.608,1.282-.433.679a28.978,28.978,0,0,1-1.254,2.966,31.319,31.319,0,0,0-1.495,3.838l-.04-.226c-.154.446-.453,1.379-.748,2.2q.194-.769.4-1.532A49.949,49.949,0,0,0,.377,47.019,20.443,20.443,0,0,1,.937,44.8c.116-.348.15-.389.162-.345.025.09-.045.517.293-.46-.405,1.451-.613,2.4-.776,3.1L.247,48.72A10.2,10.2,0,0,0,0,50.545a8.177,8.177,0,0,0,.522,3.112,7.034,7.034,0,0,1-.334-1.3c-.084-.6-.078-.884.06-.144a10.186,10.186,0,0,0,.623,2.1L1.1,54.8c.073.156.165.3.24.435a7.967,7.967,0,0,0,.436.683,2.867,2.867,0,0,0,.285.325l.261.269c.165.162.326.277.449.381l.172.136.148.092.193.114c.172.095.024-.021-.195-.186-.422-.354-1.046-.974-.238-.329a2.7,2.7,0,0,0,.22.206L3.3,57.1a2.636,2.636,0,0,0,.447.28c.152.075.3.143.452.208s.313.093.472.138l.243.063c.083.017.17.023.257.035.176.019.358.049.553.06h.625c.223,0,.458-.042.716-.062l.028.119c.171-.008.329-.049.481-.07A3.951,3.951,0,0,0,8,57.788c.26-.078.495-.134.69-.212l.508-.213c.145-.064.258-.137.36-.192a2.4,2.4,0,0,0,.621-.447c.1-.1.2-.186.5-.43l.268-.209.353-.3.218-.182.238-.219.271-.247.292-.29A12.506,12.506,0,0,1,10.95,56.3a13.9,13.9,0,0,0,1.77-1.7c-.075.158-.163.307-.247.461a27.84,27.84,0,0,0,1.885-2.4c.248-.347.492-.693.761-1.085s.557-.842.9-1.384c-.189.235-.189.135-.009-.27.09-.2.226-.481.41-.831s.384-.787.644-1.288c.362-.679.293-.474.307-.458s.032-.034.14-.259l.231-.492c.1-.223.214-.514.368-.884a9.582,9.582,0,0,1-1.167,2.67c-.032.144-.258.673-.3.82.218-.357.439-.773.671-1.206s.43-.9.637-1.351l.527-1.3.372-1.03c-.163.419-.345.924-.471,1.17a36.23,36.23,0,0,0,1.272-4.479c.212-.7.12-.127.01.44.114-.458.183-.852.274-1.3s.161-.951.29-1.631a2.893,2.893,0,0,1,.042.533,7.96,7.96,0,0,1-.125,1.024c.1-.5.184-1,.269-1.506.1-.736.2-1.471.258-2.21.1-.286.308-2.267.306-1.688a26.285,26.285,0,0,0-.054-4.371c-.142-1.612-.409-3.306-.706-4.916-.054-.163-.139-.494-.315-1.166-.188-.8-.4-1.563-.627-2.323-.116-.38-.237-.758-.37-1.136-.066-.189-.131-.379-.2-.568l-.042-.117a.7.7,0,0,0-.029-.075l2.611-3.133q.739-.689,1.493-1.358c1.892-2.032-2.053,1.809,1.114-1.566,1.137-1.182,1.393-1.358,1.454-1.352s-.055.21.376-.169c.557-.594,1.327-1.4,2.266-2.287a24.26,24.26,0,0,1,3.287-2.657c-.774.609-1.394,1.072-2.092,1.678q.9-.7,1.833-1.34C29.924,8.7,29.057,9.5,28.634,9.894s-.378.384.478-.264a14.683,14.683,0,0,1,3.5-2.892,27.877,27.877,0,0,1,2.6-1.511,6.393,6.393,0,0,0,1.3-.732c.466-.154.938-.284,1.411-.392-.4.112-.46.15-.853.279.684-.195,1.154-.3,1.524-.4.187-.046.348-.092.5-.138l.45-.125A7.39,7.39,0,0,1,40.669,3.5a7.939,7.939,0,0,1,2.035.067c.157.022.307.052.447.086s.273.058.393.093c.238.072.433.125.559.176.252.1.251.119-.166.019a11.379,11.379,0,0,1,2.631,1.02,2.35,2.35,0,0,1,.369.232c.068.051.086.072.061.065-.051-.013-.266-.152-.635-.337a13.942,13.942,0,0,1,3.446,2.617l-.03-.016a14.246,14.246,0,0,1,1.848,2.023c.282.486.195.375.061.17s-.354-.476-.286-.349a17.878,17.878,0,0,1,1.32,2.056c.185.466.037.249-.271-.257-.151-.254-.336-.585-.566-.924L51.548,9.7l-.369-.519c.126.257.253.464.347.663s.188.369.28.528l.566.96a12.881,12.881,0,0,1,.732,1.435c.126.327.283.7.428,1.14s.3.953.423,1.555l-.16-.551c-.057-.183-.124-.361-.186-.542l-.188-.541c-.067-.179-.144-.353-.215-.53.043.181.1.362.146.55s.094.385.147.585c.117.4.213.827.326,1.288a18.776,18.776,0,0,1,.489,3.282,23.313,23.313,0,0,0-.208-2.478c-.028-.221-.05-.419-.063-.57a1.256,1.256,0,0,1-.021-.291c.012-.073.116.115.268.761l.113.6.113.708c.046.255.094.532.131.835s.1.626.14.987c-.06.012-.057.368-.023.939.018.573.061,1.364.058,2.246l-.161-.12c.022,1.9.082,1.754.094,2.88-.05.531-.092.956-.143,1.3s-.1.612-.151.828a6.136,6.136,0,0,1-.271.9c-.253,1.682-.131,1.108.011.613.063-.248.124-.478.138-.395a2.319,2.319,0,0,1-.021.4c-.028.234-.077.583-.152,1.083-.55,2.791-.929,4.755-1.764,8.073-.61,1.905.005-.362-.239.314l-.094.434-.024.107-.005.045-.012.095-.014.1c-.008.033,0,.086-.041.078l-.2.034-.148,0c-.049,0-.071-.006-.076-.012s.043-.03.079-.042a2.314,2.314,0,0,0-.941.176,2.8,2.8,0,0,1-.393.1c-.228.048-.587.112-1.176.238-.3.152-1.519.338-2.974.788a20.226,20.226,0,0,0-4.406,1.877c-.668.292.269-.249.044-.2l-1.158.643c-.333.184-.617.338-.852.5l-1.152.743-.488.32-.258.172-.27.206-1.5,1.154-.3.19-.286.207-.572.415-1.146.832c.857-.6.782-.454.279.024-.26.229-.587.59-.975.968s-.817.795-1.214,1.214l.189-.15c-.14.132-.276.267-.415.4l.226-.251-.317.271-.251.313q-.7.69-1.365,1.411a.067.067,0,0,1,.008-.039,2.154,2.154,0,0,1,.2-.321c.108-.14.248-.311.4-.494l1.009-.871c.145-.177.282-.358.415-.516s.258-.3.355-.417c.193-.239.284-.388.181-.359-.164.178-.514.484-.87.849.148-.191.25-.307.156-.245a9.863,9.863,0,0,0-.752.833l-.724.472-.094.195a43.955,43.955,0,0,0-3.254,3.619c-.521.7-.936,1.44-1.387,2.17s-.855,1.512-1.3,2.335l-.34.629c-.114.215-.212.443-.322.671l-.684,1.431c-.059.125-.124.249-.18.379l-.166.4-.347.826c-.238.565-.505,1.153-.722,1.8.359-1.32-.095-.354-.213-.48.16-.342.376-.744.586-1.214s.434-1,.682-1.568l.87-1.763.234-.463c.083-.153.176-.3.265-.454.181-.3.366-.607.555-.911-.79,1.267-.684.951-.508.611l-.316.556c-.107.184-.192.381-.289.571l-.563,1.148c-.4.754-.694,1.556-1.028,2.337-.035-.078-.168.16-.367.567s-.409,1.007-.675,1.622c.148-.215.147-.095.054.235-.047.165-.117.382-.2.637s-.161.557-.259.876l-.3,1.014c-.1.352-.225.7-.294,1.061-.16.709-.309,1.382-.409,1.89-.056.054-.076-.044-.008-.465.034-.21.091-.5.177-.894a12.855,12.855,0,0,1,.393-1.491,9.369,9.369,0,0,0-.488,1.722c-.1.5-.168.951-.233,1.4-.045.448-.072.9-.136,1.4-.031.251-.07.515-.119.8l-.083.445-.076.493c.055-.626.145-.944.136-1.194-.02.18-.048.391-.08.621s-.048.49-.073.751c-.033.527-.062,1.085-.044,1.573.019.976.139,1.668.028,1.251-.039-.21-.057-.42-.076-.631a9.326,9.326,0,0,0,.3,1.749,6.7,6.7,0,0,0,.847,1.9,5.165,5.165,0,0,0,1.58,1.573,6.207,6.207,0,0,0,2.033.806,6.6,6.6,0,0,0,3.616-.3,8,8,0,0,0,1.077-.5,3.115,3.115,0,0,0,.477-.336c.025,0-.063.122-.186.263-.062.071-.132.146-.2.214a1.734,1.734,0,0,1-.195.156,4.3,4.3,0,0,0,.407-.251c.132-.089.265-.173.394-.265.25-.193.506-.373.738-.581A14.215,14.215,0,0,0,30.9,80.546c.3-.326.578-.667.85-1.012.125-.13.248-.261.368-.392q.609-.667,1.207-1.347a1.056,1.056,0,0,1,.27-.054c.18.009.14.279-.958,1.571a41.464,41.464,0,0,0,2.777-3.187c-.451.489-1.273,1.085-.7.386,1.753-1.772,1.205-1.238,3.248-3.531-.648.755-.18-.282.774-1.524-.115.22.305.067-.021.541q1.079-1.637,2.094-3.31c-.524.823.1.281.665-.389a15.675,15.675,0,0,1,.933-1.384c.583-.845,1.254-1.849,1.524-2.3-.319.451-.639.9-.966,1.348a27.338,27.338,0,0,0,2.213-3.783c.481-.977.952-1.951,2.034-3.846-.212.486-.327,1.32.789-.61.2-.517.629-1.709,1.205-3.247q1.112-2.2,2.108-4.457-.134.4-.278.8c-.623,1.78-1.372,3.652-1.952,4.951.411-.718.483-.811.594-1s.268-.469.8-1.587c.454-.754-.484,1.269-.816,1.92Q51,52.548,52.185,49.905a9.141,9.141,0,0,1,.657-1.987A9.423,9.423,0,0,0,53.48,45.9c-.682,1.975-1.448,3.921-2.268,5.846-.264.154,1.124-3.467,2.511-7.293.414-.954.021.832.1.772.034-.129.123-.425.246-.8l.2-.613.135-.437.058-.185a1.67,1.67,0,0,1,.179.032c.119.026.227.056.33.089a4.084,4.084,0,0,1,.651.261c-.127-.048-.255-.089-.384-.13l-.195-.056-.093-.025-.054-.011a1.33,1.33,0,0,0-.373-.036,2.4,2.4,0,0,1,.341.083l.1.029.169.054q.168.055.329.115a7.1,7.1,0,0,1,1.234.587,6.944,6.944,0,0,1,1.186.862,6.489,6.489,0,0,1,1.094,1.344A7.034,7.034,0,0,1,59.7,47.9c.1.266.167.521.237.707a1.05,1.05,0,0,0,.139.352,2.685,2.685,0,0,1-.02-1.4.2.2,0,0,1,.083-.084,11.082,11.082,0,0,1,.9,3.066l-.086-.124c.029.2.068.4.085.608l.062-.03c.042.372.071.747.083,1.124-.633.335-1.251.7-1.856,1.079-.148.019.185-.279.551-.565.24-.2.491-.39.609-.5.042-.046.046-.07.024-.079a.117.117,0,0,0-.058,0c-.044.014-.1.037-.18.07-.029.066-.747.551-1.039.762-.431.251-.363.166-.415.166s-.228.077-1.112.71c-.23.3-3.463,2.734-.737.728-.413.331-.722.592-.989.817s-.488.416-.722.611a20.545,20.545,0,0,0-1.808,1.736c.155-.126.154-.071.045.107s-.327.478-.592.854c-.172.239-.363.51-.56.8q-.849,1.054-1.591,2.188l-.089.106a16.666,16.666,0,0,0-1.4,2.55,9.089,9.089,0,0,0-.7,2.413,4.271,4.271,0,0,0,.332,2.442,3.967,3.967,0,0,0,2.056,1.838,3.714,3.714,0,0,0,1.176.362c.445.053.749.045.308.1a3.843,3.843,0,0,0,.966-.186,6.155,6.155,0,0,0,1.336-.616c.541-.295.647-.376.559-.289a5.143,5.143,0,0,1-.743.5,6.815,6.815,0,0,1-.927.427c-.188.074-.161.1.32-.021.03-.039.245-.141.55-.32a8.209,8.209,0,0,0,1.089-.777,13.842,13.842,0,0,0,2.109-2.309c-.233.163-.861.971-1.723,1.782a8.342,8.342,0,0,1-1.446,1.111,4.7,4.7,0,0,1-1.524.6c-.017-.075.364-.18.936-.495,1.977-.83,3.644-3.072,4.773-4.684a33.144,33.144,0,0,0,3.036-5.261,21.337,21.337,0,0,0,1.741-5.312c.074-.372.12-.755.173-1.14q.027-.282.055-.565l.014-.14c.02-.036.079-.043.117-.066l.258-.113a23.232,23.232,0,0,1,2.175-.822,17.888,17.888,0,0,1,4.072-.9,9.965,9.965,0,0,1,1.388-.1c.154,0,.276,0,.348,0a5.408,5.408,0,0,1,2.343.751c2.883,1.8,1.305,5.691,0,7.99a31.349,31.349,0,0,1-2.858,4.194c.014-.044,0-.057-.055-.02-.239.314-.486.624-.735.929q-.274.33-.567.668c-.067.074-.134.147-.2.22.029-.05.131-.181.195-.272.078-.115.1-.163-.1.038a.865.865,0,0,1-.1.162l-.1.131-.03.038c-.008,0-.012-.019-.018-.029l-.038-.078c-.042-.086-.1-.187-.165-.3a3.669,3.669,0,0,0-1.449-1.453,3.83,3.83,0,0,0-1.347-.464c-.044-.009-.088-.019-.132-.026s-.114-.007-.167-.008a6.094,6.094,0,0,0-2.781.526c-.091.035-.21.082-.361.147-.2.108-.424.215-.628.332a14.542,14.542,0,0,0-3.417,2.666,5.077,5.077,0,0,0-1.527,4.333,3.46,3.46,0,0,0,3.27,2.925c1.812.087,3.46-.979,4.895-1.958.109-.074.215-.154.323-.23-.193.437-.363.793-.467,1.01a29.154,29.154,0,0,1-3.223,5.214c-1.948.105-3.454,1.623-4.417,3.386-1.48,2.711-2.622,5.663-3.865,8.489q-.544,1.238-1.078,2.481-.49,1.139-.968,2.283a36.219,36.219,0,0,0,22.214-.626M7.287,37.439a.352.352,0,0,1-.135.252.681.681,0,0,1,.135-.252M5.093,44.084c0,.092.018.284-.069.325-.1-.138-.016-.193.069-.325m12.045-5.461c-.045.224-.1.446-.145.669-.123.1-.253.2-.353.156.138.366-.5.749-.343,1.334-.077.1-.049-.116-.119-.071a.707.707,0,0,1-.085.593l-.015-.04a11.367,11.367,0,0,1-.8,1.988l.135-.025a.98.98,0,0,1-.194.29c.089.281.2-.53.318-.264-.308.173-.515,1.337-.843,1.4-.123.285.162-.03.039.255l-.1.046.057.11c-.1.181-.225.236-.284.217a1.018,1.018,0,0,0,.058-.185c-.186.2-.279.688-.346.757l.169-.249c-.289.8-.859,1.667-1.13,2.463l.079-.028c-.219.6-.3.412-.606,1.03v-.028a1.221,1.221,0,0,1-.2.477c.035-.182-.279.211-.222-.021-.269.63-.1.329-.176.819l-.136.033a.791.791,0,0,1-.165.507c.1-.274-.244.094-.144-.221a1.845,1.845,0,0,0-.51.665c-.1.2-.186.346-.406.372-.007.207.119.113.239-.012s.222-.288.188-.2c.162-.07-.016.337-.188.491-.154.175-.5.084-.886.49.041-.038.03-.054.07-.093-.2.1-.23.357-.494.451-.005.211-.256.212-.16.391.12-.127.243-.25.36-.379-.181.231-.241.6-.706.811a.954.954,0,0,1,.15-.27c-.148.039-.192.2-.347.237-.083-.184.478-.408.607-.738-.084.018-.17.14-.239.227s-.126.126-.132,0c0,.174-.117.252-.25.334a.834.834,0,0,0-.393.343l-.043-.114a.684.684,0,0,1-.21.21l.089-.228a.626.626,0,0,1-.373.213,1,1,0,0,0-.379.136c.5-.238.174.082.433.047-.29.24-.425.2-.558.155a.846.846,0,0,0-.62,0c.09-.028.379-.015.24.079a.811.811,0,0,1-.425-.06c-.464.052.081.124-.115.206-.171-.139-.236.068-.467.088l.014-.12c-.262-.077-.3-.04-.354.016s-.092.105-.315-.041a1.545,1.545,0,0,0,.258-.079,1.6,1.6,0,0,1-.252-.054l.1-.1a.642.642,0,0,1-.534-.295.1.1,0,0,1-.111.092.344.344,0,0,1-.251-.129c-.036-.089,0-.09.017-.1s0-.027-.121-.17c.112.022.235.026.261.209.04-.017.105,0,.145-.016a.774.774,0,0,0-.176-.247c-.069-.081-.15-.147-.185-.2a.564.564,0,0,1,.062.127,1.931,1.931,0,0,1-.22-.164,1.872,1.872,0,0,1-.211-.186c0-.1.064-.054.126-.015-.06-.088-.154-.122-.226-.268a.3.3,0,0,1,.332.114,1.717,1.717,0,0,1-.157-.192,2.332,2.332,0,0,1-.146-.207c.028-.049.024-.278.08-.229a1.591,1.591,0,0,0-.185-.455,1.05,1.05,0,0,1-.134-.561.28.28,0,0,1-.065-.138,4.312,4.312,0,0,0,.018-1.144c.064-.08.129-.158.2-.235,0-.354-.259.322-.259-.273,0-.427.17-.135.239-.273a1.242,1.242,0,0,1,.054-.983,2.52,2.52,0,0,1-.049.356l.153-.278c.088.39-.015.635.173.384-.333-.107.2-1.153-.116-1.268l.114-.179c-.016.055,0,.069-.014.123.246-.341-.172-.339,0-.818.07-.164.149-.27.157-.144l.019-.4c.037-.108.086-.066.05.042l.134-.583L4.7,45.4a2.683,2.683,0,0,1-.059-.407c.09-.132.013.084.065.058l.016-.342c.124-.1.125.184.049.4.412-.2-.006-.289.382-.869L5.1,44.55c.242-.135.25-.388.472-.686-.085.059-.5.58-.475.212a.711.711,0,0,0,.1-.419c.115.036.147-.153.216-.381l.147.066c.037-.258-.045-.264-.065-.431a.423.423,0,0,1,.366-.31c.177-.423-.293.233-.14-.289a2.9,2.9,0,0,0,.284-1.076c.145-.232.075.078.152,0l-.037-.267c.023-.053.053-.022.069-.006.024-.2-.144-.072-.073-.382-.135-.142.47-.513.427-.947.078-.072.074.079.143.074a4.146,4.146,0,0,0,.08-.933q.118-.154.24-.306c-.218.207-.213-.17-.2-.5L6.768,38l.042-.1c0,.024,0,.045,0,.07l.052-.039-.025-.089c.032-.075.063-.15.1-.225.044.019.07.1.09.189l-.16.125c.042.15.1.3.194.309a.484.484,0,0,1,.023-.165c.012.039.026.067.046.06s.009-.07,0-.16l.208-.033-.055-.053c.117-.183.234-.364.357-.544a4.634,4.634,0,0,1,.186-1.661c.042.22.177.126.313.2-.232.112-.179.539-.36.871.1-.173.146-.1.148-.046.044-.226.1-.449.145-.674.109.067.147-.089.269-.226-.283.014.059-.527.114-.806.083.022.131.118-.033.409.331-.249-.056-.557.247-.813-.034.074-.065.108-.041.156.017-.2.275-.6.292-.466l-.034.074c.269-.471.752-1.468.606-1.638a1.083,1.083,0,0,1,.216.232l-.12-.826.144-.265c.191.06.423.117.337.425a1.188,1.188,0,0,0,.263-.495c-.065.064-.338.065-.294-.049a2.8,2.8,0,0,0,.556-.42c-.1.1-.278-.173-.167-.351.021.05.255.124.243.205l.015-.59c-.021.138.2.138.323.078-.075.019.228-.386.273-.52l-.166.158c.331-.485-.046-.7.266-1.195.013.091.217.334.4.1a4.086,4.086,0,0,1-.143-.626q.172-.28.345-.558a7.381,7.381,0,0,1-.018.95c.171-.152.115,0,.281-.284.127-.058.006.213-.041.3l.444-.621c-.163-.062.169-.583.036-.633q-.152.4-.294.8c-.161-.059-.154-.663.168-1.1.131-.08.2.249.25.269a1.142,1.142,0,0,1,.246-.513L13,27.433c.214-.22.08-.536.415-.749.078-.1.387-.191.316-.264a.907.907,0,0,1-.6-.174c.079-.119.157-.239.237-.358l.045.052.044-.07-.055-.034c.082-.121.165-.241.248-.362.143.044.073.454.254.391-.034-.032-.016-.158,0-.208.107-.086.087.125.231-.122-.114-.136.34-.471-.043-.193.119-.258.2-.227.379-.5-.1.015-.126-.191-.1-.407l.207-.293.024-.005c.353-.475.567-.626.846-1.01.04.013.169-.074.126.109a1.171,1.171,0,0,1,.141-.344c.13.076-.165.259-.059.418a2.306,2.306,0,0,1,.284-.689c.012-.017.016.005.024,0a.555.555,0,0,0,0-.154c-.028-.015-.1.1-.177.236s-.144.294-.188.4a1.445,1.445,0,0,1,.067-.456q.175-.234.351-.467c.123.357.238.717.348,1.077a6.385,6.385,0,0,0,.176.738,7.124,7.124,0,0,1,.235,1.156,1.039,1.039,0,0,0,.149.2c.072.313.137.628.2.943l.019.285.01-.092-.025-.178c.079.4.152.8.217,1.206a.072.072,0,0,0-.056.011l.1.271c0,.011,0,.022.005.033-.03-.006-.083-.089-.094-.006.034,0,.074.041.108.1.022.153.045.306.065.46,0,.009,0,.017,0,.026a.121.121,0,0,0,.01.015c.017.128.031.257.046.386a.386.386,0,0,0,0,.055.256.256,0,0,1,.02.077,31.516,31.516,0,0,1-.4,9.676M53.6,14.036a7.057,7.057,0,0,1,.683,2.329c-.146-.64-.592-1.859-.683-2.329M41.247,46.474a.636.636,0,0,1-.35.175,1.3,1.3,0,0,1,.35-.175m-7.434,5.969c-.07.1-.189.326-.3.336,0-.194.126-.222.3-.336m-4.129-.456c-.411.482-.9,1.011-1.439,1.593a16.734,16.734,0,0,1,1.439-1.593m21.322-8.028a.214.214,0,0,0-.169-.138.255.255,0,0,0-.131.009.125.125,0,0,0-.06.038.554.554,0,0,0-.066.112,5.552,5.552,0,0,1,.194.682c0,.022.007.047.011.07q-.161.428-.327.854c-.036-.431-.058-.918-.049-1.235-.165.259-.12.044-.275.467-.13.12-.02-.27.023-.395l-.427.957c.174.018-.134.808.011.823l.252-1.125c.174.017.206.787-.093,1.472-.131.151-.226-.244-.284-.251a1.961,1.961,0,0,1-.23.742l.039-.325c-.219.357-.056.708-.4,1.1-.077.154-.4.387-.318.453a.755.755,0,0,1,.649,0c-.077.181-.154.361-.233.541l-.051-.05-.045.1.061.022q-.12.274-.243.547c-.162.009-.1-.548-.3-.4.038.028.025.194.015.26-.11.149-.1-.126-.242.24.128.13-.342.721.055.229A6.277,6.277,0,0,1,48,50.54c.108-.056.147.2.125.478-.069.147-.139.293-.208.439l-.032.02c-.361.7-.6,1.057-.941,1.71-.068.042-.274.335-.271.167a1.217,1.217,0,0,1-.114.424c-.331.323.21-.46-.1-.243.075.07-.145.584-.237.9.181-.018.367-.651.459-.967.067.033.1.134.108.279q-.524,1.027-1.074,2.042a9.7,9.7,0,0,0-.548.923,14.926,14.926,0,0,1-.862,1.381,1.469,1.469,0,0,0-.072.333q-.566.973-1.154,1.934l-.009.012h0q-.2.323-.4.645a.055.055,0,0,0-.051-.03l-.171.385-.01.016c-.023-.016.017-.161-.067-.075.026.028.02.1-.011.2-.107.171-.216.341-.325.511-.013.012-.024.025-.037.037s0,.02-.007.031c-.094.146-.187.293-.281.44a.6.6,0,0,0-.05.058.536.536,0,0,1-.054.1,117.746,117.746,0,0,1-7.885,10.742c-.192.234-.387.478-.585.727-.184.07-.378.145-.447.058-.11.483-.972.73-1.192,1.485-.139.093.027-.154-.071-.123a1.267,1.267,0,0,1-.46.679l.01-.052a8.789,8.789,0,0,1-.962,1.033c-.311.292-.653.574-1.141.974l.148.025a1.555,1.555,0,0,1-.4.235c-.119.343.584-.491.5-.158a3.745,3.745,0,0,0-.951.619c-.372.272-.758.5-.929.43-.351.2.171.061-.184.261l-.131-.02-.05.13c-.249.1-.4.07-.436.012a1.039,1.039,0,0,0,.213-.121,3.9,3.9,0,0,0-.563.2,1.881,1.881,0,0,1-.413.135c.122-.014.246-.027.369-.05a3.672,3.672,0,0,1-1.649.207,3.253,3.253,0,0,1-1.455-.515l.018.091a1.146,1.146,0,0,1-.466-.5c-.062-.155-.142-.3-.308-.695l.022.026a1.408,1.408,0,0,1-.244-.608c.055.1.065-.007.078-.106s.038-.192.1-.055a4.411,4.411,0,0,0-.182-.6,1.507,1.507,0,0,1-.2-.4l.092-.141a1.2,1.2,0,0,1-.133-.7c.06.39.157-.294.24.141.24-.965-.095-1.477.241-1.894-.2-.482-.231.833-.257.574-.1.205-.158-.394-.092-.7a1.423,1.423,0,0,1,.235-.461,2.367,2.367,0,0,0,.293-.807c-.016.077,0,.086-.014.163.121-.278.018-.588.2-.922-.106-.232.115-.458-.065-.56-.038.241-.084.481-.115.722.013-.208-.006-.418,0-.659a1.936,1.936,0,0,1,.178-.828,1.829,1.829,0,0,1,.018.414c.1-.18.061-.382.172-.567.088.054.04.27-.024.532a2.93,2.93,0,0,0-.1.8c.129-.188.048-.846.207-.58-.2-.378.231-.744.168-1.318l.1.067a1.751,1.751,0,0,1,.054-.419l.064.314c.006-.452.346-.767.419-1.179-.271.827-.2.14-.394.466a1.109,1.109,0,0,1,.358-.794,1.59,1.59,0,0,0,.456-.776c-.074.177-.253.443-.22.219a2.851,2.851,0,0,1,.363-.582c.261-.754-.159.07-.105-.274.235-.2.094-.385.185-.73l.112.044c.422-.813-.139-.323.278-1.042l.011.386.135-.409.089.137a2.482,2.482,0,0,1,.415-.983c-.122.059-.172-.149,0-.517.19-.215.033.189.278-.331a.5.5,0,0,1-.182.493c.024.041.013.148.037.189a4.119,4.119,0,0,0,.442-.844,1.032,1.032,0,0,1-.126.187c.077-.271.148-.547.234-.816.1-.094.085.015.068.122.068-.154.075-.283.183-.507.056.1.152.138.027.468l.28-.747c.064-.026.3-.3.284-.188a3.04,3.04,0,0,0,.329-.7,3.128,3.128,0,0,1,.41-.782.512.512,0,0,1,.069-.209,6.992,6.992,0,0,0,.92-1.4l.35-.2c.26-.435-.47.279-.036-.447.3-.521.252-.1.412-.237a2.345,2.345,0,0,1,.713-1.167,4.671,4.671,0,0,1-.282.406l.329-.275c-.175.5-.436.756-.092.527-.244-.259.961-1.3.74-1.552l.232-.166c-.053.059-.046.081-.1.139.471-.3.062-.467.554-.96.18-.164.328-.257.249-.107l.293-.459c.1-.1.121-.059.056.025l.5-.577,0,.011a3.576,3.576,0,0,1,.229-.489c.182-.115-.048.1.021.091l.26-.382c.193-.07-.011.259-.24.473.543-.062.2-.335.991-.834-.092.11-.187.216-.275.329.329-.058.523-.335.95-.583-.123.032-.9.451-.61.049a1.314,1.314,0,0,0,.4-.43c.085.086.256-.11.491-.334l.091.133c.227-.269.151-.313.257-.5a.617.617,0,0,1,.586-.184c.488-.388-.456.131.084-.376a5.825,5.825,0,0,0,1.109-1.03c.323-.179.01.116.142.072l.178-.3c.065-.046.068,0,.07.025.187-.205-.081-.143.237-.436-.007-.208.858-.32,1.184-.776.134-.037,0,.116.072.145a9.463,9.463,0,0,0,.865-.909l.488-.186c-.382.1-.053-.278.248-.6l-.054.008.111-.068-.056.06.083-.012.052-.1c.1-.058.192-.119.289-.177.025.041-.021.132-.082.232l-.259.041c-.093.169-.167.344-.089.405a.835.835,0,0,1,.165-.153c-.024.045-.035.08-.009.083s.07-.064.142-.155l.223.074-.005-.08c.27-.118.54-.233.812-.344a7,7,0,0,1,1.678-1.475c-.166.227.047.215.1.36-.318-.028-.657.409-1.125.622.245-.112.228-.018.18.036q.369-.282.746-.555c.038.122.217,0,.455-.06-.273-.147.543-.451.855-.669.056.068.008.181-.413.354.533-.039.47-.54.99-.59-.1.046-.162.058-.185.115.208-.176.822-.361.71-.237l-.1.044c.347-.128.87-.33,1.315-.522s.811-.371.832-.489a.926.926,0,0,1-.043.328c.237-.251.484-.5.736-.738.132-.037.266-.07.4-.1.1.176.236.378-.151.555a2.343,2.343,0,0,0,.729-.193c-.12,0-.351-.189-.195-.243a6.545,6.545,0,0,0,.9.1c-.083,0-.1-.084-.05-.17a.312.312,0,0,1,.243-.185c-.037.05-.028.292-.083.332a2.382,2.382,0,0,1,.573-.37c-.176.075-.18.268-.193.354.007-.03.081-.037.166-.039h.1s.013,0,.014,0l-.006.016a.264.264,0,0,0-.024.089l.072-.1c.019-.032.069-.089.041-.087.04-.011.007.032.005.05a.284.284,0,0,0-.013.057.135.135,0,0,0,.013.079.78.78,0,0,0,.1.118c.078.084.131.251-.007.614m1.956,19.3c.017.047-.025.076-.093.1a.162.162,0,0,1,.093-.1m-1.207,2.911c.014.043.071.132-.005.14-.123-.075-.05-.091.005-.14m8.017-6.882c-.043.1-.091.193-.135.29a.558.558,0,0,1-.325-.033c.13.227-.45.222-.284.573-.068.027-.049-.076-.112-.074.065.1.051.178-.053.281l-.016-.025a3.454,3.454,0,0,1-.59.812l.119.029a.292.292,0,0,1-.149.1c.105.182.137-.226.263-.045-.27-.007-.329.58-.61.515-.074.124.14.032.066.157l-.083,0,.064.08a.187.187,0,0,1-.222.039c.018-.016.018-.065.026-.089-.138.061-.151.312-.2.334l.111-.1a7.787,7.787,0,0,0-.564,1.137l.063.005c-.073.305-.18.167-.315.466l0-.017a.331.331,0,0,1-.065.244c-.011-.1-.19.06-.193-.069-.08.328-.012.18.047.47l-.1-.01a.286.286,0,0,1,0,.284c.006-.154-.175.008-.181-.174-.354.168-.108.531-.441.49.125.273.282-.16.279-.057.11-.013.086.214.005.287s-.374-.036-.526.184c.017-.021,0-.034.018-.055-.112.043-.042.212-.2.248.084.147-.1.122.045.257l.11-.225c-.042.141.067.39-.166.5a.4.4,0,0,1-.015-.18c-.088.018-.049.126-.139.144-.144-.137.149-.262.116-.473-.11.007-.053.311-.18.122.151.25-.185.186-.134.454l-.085-.084c0,.034,0,.114-.032.153l-.061-.17c.012.2-.264.139-.3.289.182-.221.15.044.3.006-.112.378-.369-.044-.586.284.024-.048.186-.1.172,0a.441.441,0,0,1-.246.07c-.159.206.116.055.093.186-.165-.035-.047.132-.1.248l-.086-.085c-.26.145.12.236-.133.338-.007-.065-.02-.131-.032-.195a1.239,1.239,0,0,1-.066.114l-.067-.122c-.043.162-.093.173-.227.216a.163.163,0,0,1,.006.265c-.112-.016-.021-.122-.163-.016,0-.086-.02-.188.1-.133-.015-.037-.01-.085-.025-.122-.116-.02-.2.1-.247.132a.117.117,0,0,1,.07-.01c-.04.093-.09.175-.139.266-.056-.022-.043-.07-.033-.116-.038.036-.044.1-.108.139-.024-.1-.068-.185,0-.27-.05.067-.1.126-.158.191-.031-.03-.146-.071-.133-.113-.119-.017-.214.275-.369.218a.09.09,0,0,1-.043.058c-.07.005-.116-.044-.17-.055a.123.123,0,0,0-.149.032.808.808,0,0,1,.026-.18.206.206,0,0,0-.059.121c-.013.053-.033.124-.106.118-.108-.007.06-.141.07-.191a.271.271,0,0,1-.154.053c-.06.01-.087-.057-.052-.127.046.012.035.047.059.068a1.109,1.109,0,0,1,.052-.111c.174,0,.134.012.23-.076-.136.095-.169.056-.208,0-.027-.073-.067-.141-.233-.112l.058-.084c0,.02.02.019.02.038.142-.157-.271-.049-.233-.254.022-.069.067-.114.111-.072a1.428,1.428,0,0,1-.082-.148.03.03,0,1,1,.059.013,1.418,1.418,0,0,1-.009-.232l.01,0a.763.763,0,0,1-.147-.176c.061-.054.029.038.074.029l-.053-.152c.1-.036.158.093.127.18.364-.057-.072-.126.2-.344l.008.132c.212-.03.159-.136.322-.231-.073.007-.37.18-.413.016a.147.147,0,0,0,.027-.181c.116.038.109-.046.141-.142l.147.064c0-.115-.082-.138-.125-.226.061-.108.189-.081.294-.064.1-.167-.237.042-.169-.183.127-.124.117-.257.13-.483.1-.079.077.065.137.049l-.063-.154c.016-.021.046.005.061.018,0-.1-.137-.084-.1-.23-.134-.123.369-.126.289-.381.062-.014.073.069.133.089a1.422,1.422,0,0,0-.017-.5l.182-.094c-.17.047-.205-.169-.227-.352l-.032,0,.027-.042.005.039.042,0-.031-.059c.019-.031.04-.062.059-.093a.306.306,0,0,1,.1.135l-.128.017a.519.519,0,0,0,.2.239.147.147,0,0,1,0-.086c.015.026.03.047.047.049s0-.036-.014-.089l.179.051L53,63.516l.253-.188a1.577,1.577,0,0,1-.023-.9c.06.144.166.136.291.228-.187-.017-.089.254-.215.379a.069.069,0,0,1,.124.025l.051-.339c.1.078.116,0,.2-.037-.24-.091-.009-.288.006-.433.073.043.124.116.019.23.252-.029-.111-.349.118-.391-.021.032-.043.041-.017.078-.009-.115.167-.254.2-.17l-.021.031c.166-.188.463-.6.317-.765a2.094,2.094,0,0,1,.206.223c-.068-.184-.13-.369-.193-.554l.088-.107c.164.11.361.234.325.39a.258.258,0,0,0,.158-.2c-.046.014-.269-.09-.246-.144.254.012.152-.013.4-.046-.069.022-.245-.215-.176-.284.023.039.221.177.221.224l-.057-.364c0,.078.174.164.269.176-.058-.018.139-.152.16-.218l-.116.033c.21-.174-.121-.466.076-.655.02.064.209.3.328.225a4.164,4.164,0,0,1-.184-.462c.07-.074.139-.149.209-.223a5.387,5.387,0,0,1,.093.609c.116-.029.09.046.187-.069.092.015.03.14,0,.176.092-.073.181-.149.275-.219-.132-.106.066-.308-.043-.4l-.141.394a.483.483,0,0,1,.009-.649c.093,0,.18.245.223.28-.019-.064.088-.246.133-.234l-.011.139c.141-.053,0-.32.235-.32.049-.032.274.038.212-.041a1.737,1.737,0,0,1-.474-.369l.144-.138.04.054.026-.028-.045-.046c.049-.047.1-.094.147-.141.112.09.1.339.234.372A.234.234,0,0,1,57,58.506c.071-.013.078.12.162.017-.1-.14.209-.169-.052-.148.063-.123.126-.066.233-.173-.073-.033-.114-.185-.114-.321l.125-.113.016.007c.214-.163.374-.2.564-.357.044.017.167-.022.175.067.008-.046,0-.111.054-.162.209.022-.118.124.082.191-.056-.083.067-.23.113-.346-.122-.1-.216.135-.261.251a.431.431,0,0,1-.083-.212q.306-.252.621-.493c.184-.056.519-.4.739-.424a1.349,1.349,0,0,0,.074-.177c.122-.087.248-.169.372-.255l.089-.02-.022-.018-.048.025c.155-.107.309-.217.467-.32a1.046,1.046,0,0,0-.057.109c.05-.058.1-.118.16-.176l.01-.006c-.03.054-.1.152-.095.178a1.193,1.193,0,0,1,.134-.2l.181-.113s0,0,0,.008l.016-.02.156-.1s0,.012,0,.013a.308.308,0,0,1,.053-.047l.12-.075a17.236,17.236,0,0,1-1.219,4.193M63.6,67.932c.007.043-.027.04-.078.02.013-.021.037-.031.078-.02m-1.3,1.363c0,.034.014.125-.046.082-.07-.122-.011-.086.046-.082m2.613,1.582-.151.107a.892.892,0,0,1-.235-.218c.051.225-.373-.119-.313.211-.054-.022-.023-.079-.069-.114.03.1.007.148-.086.157l-.007-.026c-.172.151-.31.124-.556.206l.081.089c-.054.017-.084-.008-.121-.019.047.185.132-.075.195.122-.192-.16-.325.205-.51,0-.071.041.092.1.021.146l-.057-.052.032.093c-.055.015-.125-.052-.158-.1.015,0,.023-.034.032-.046-.1-.04-.151.123-.186.11h.09c-.159.172-.435.206-.56.426l.037.045c-.107.158-.141,0-.283.1V72.09a.127.127,0,0,1-.094.115c.02-.075-.114-.1-.084-.183-.121.153-.047.1-.1.337l-.046-.085c-.017.089-.012.134-.093.175.054-.09-.075-.13-.021-.247-.1-.088-.141-.028-.184.013s-.083.072-.111-.078c-.075.258.131.142.094.2.043.082-.057.2-.115.168-.06-.007-.075-.331-.158-.344.009,0,.014-.016.022-.013-.017-.068-.091.068-.094-.045-.082.136-.038-.029-.134.146a.5.5,0,0,0,.106,0c-.035.018-.086.073-.141.1s-.113.029-.126-.047a.582.582,0,0,1,.116-.069c.011-.064-.066,0-.053-.062.123-.152.118.027.226-.09.023-.083-.14.091-.016-.087-.079.11-.1.088-.1.064s-.006-.061-.1-.005l.087-.082c-.019.009-.073.027-.083.01q.069-.037.133-.079c-.126.047.032-.142-.047-.125.059.063-.1.1-.145.184-.115-.006-.058-.075.013-.135s.151-.12.108-.149c.012.005-.039.072-.1.077a.2.2,0,0,1,.1-.1c-.043-.053-.114.044-.193.036.133-.062-.075-.021-.122-.066l.12-.017c.071-.109-.261-.007-.165-.128a1.2,1.2,0,0,0,.166.047.261.261,0,0,1-.04-.054l.136.016c-.094-.058-.074-.078-.024-.128-.087,0-.214-.045-.2-.11.079-.025.107.049.108-.039.069.04.158.078.042.087.038.012.07.033.108.043.092-.02.033-.085.046-.116a.055.055,0,0,1-.037.022,1.72,1.72,0,0,1-.118-.17.136.136,0,0,1,.107.051c0-.028-.051-.065-.047-.105.087.047.182.084.21.145a.667.667,0,0,1-.057-.147c.043.009.133-.007.159.023.072-.028-.093-.234.021-.281a.083.083,0,0,1-.026-.057c.074-.067.209-.066.17-.234l.179.054c.021-.095-.23-.063-.193-.223.023-.12.143.061.2.063-.036-.094-.117-.287.06-.267,0,.047-.035.048-.044.081l.123.007c.061.172-.016.184.129.221-.253-.229.159-.234-.081-.471l.087.013c-.012.008,0,.024-.012.032.185.044-.128-.224,0-.282.051-.013.107,0,.114.051l.013-.13c.026-.015.061.033.036.048l.092-.122.006.008a.846.846,0,0,1-.041-.193c.063.01.008.041.044.065l.013-.121a.112.112,0,0,1,.032.187c.287.2,0-.113.265-.082l-.035.088c.167.109.17.014.32.045-.057-.034-.341-.108-.323-.234.038,0,.072-.012.068-.1.079.092.1.036.142-.01l.1.125c.022-.079-.034-.138-.05-.219.069-.036.16.049.24.119.109-.057-.191-.1-.1-.215.117-.017.131-.11.167-.262.09,0,.051.085.1.1l-.03-.139c.014-.007.034.027.044.044.012-.071-.095-.129-.055-.214-.088-.154.291.1.254-.12.048.022.048.086.091.132a.954.954,0,0,0,.032-.36l.142.03c-.129-.058-.134-.227-.13-.371l-.024-.014.024-.017v.031l.031.019-.016-.059.053-.037a.47.47,0,0,1,.058.15l-.095-.055a.8.8,0,0,0,.122.279.094.094,0,0,1,.011-.06.141.141,0,0,0,.029.06c.013.012,0-.025,0-.071l.124.131-.034-.063c.067,0,.135,0,.2,0,0-.215-.048-.5.087-.662.024.138.1.19.175.325-.128-.114-.092.134-.192.158.053-.013.082.056.085.085l.072-.217c.061.111.08.063.146.085-.156-.2.029-.211.056-.311.044.072.07.156-.015.179.174.121-.032-.317.128-.221-.018.012-.034.006-.022.048.009-.092.145-.094.152-.015l-.018.011c.138-.038.381-.178.321-.38.012.025.082.244.092.287-.013-.174-.019-.35-.022-.526l.076-.027c.077.181.172.393.123.486.04.014.086.029.128-.054-.029-.018-.141-.231-.117-.257.147.164.093.08.243.215-.043-.028-.1-.312-.039-.318a2.971,2.971,0,0,1,.076.3q.02-.152.048-.307a.586.586,0,0,0,.1.3c-.027-.052.106-.023.131-.055l-.067-.053c.146.016.058-.421.219-.43-.011.06.014.359.088.385a3.331,3.331,0,0,1,.061-.461c.026,0,.052-.008.077-.01s.067,0,.1,0l-.028.075-.139.426c.059.058.025.095.1.077a.1.1,0,0,1-.049.129.853.853,0,0,1,.162.037c-.016-.167.118-.177.114-.312-.062.057-.123.121-.177.18-.026-.164.087-.489.23-.45.03.069-.038.3-.035.354.015-.057.116-.1.123-.062l-.056.087c.051.063.129-.21.174-.039.027.013.011.224.039.13.017-.116.064-.372.117-.586.039.01.075.023.112.036l-.027.061.021,0,.021-.061c.038.014.075.029.11.045a.765.765,0,0,1-.1.166.54.54,0,0,0-.107.21.29.29,0,0,1,.077-.1c.006.047-.069.125-.015.128.092-.15.084.068.093-.115.074-.011.03.065.087.092a.5.5,0,0,1,.253-.194c.024.022.049.044.07.068l-.009.014c.086.133.062.239.115.361-.033.03-.056.1-.134.108.034,0,.1,0,.113.036-.116.117-.049-.073-.2.04.1-.033.156.047.234.087.141-.054-.006-.146-.088-.169a.57.57,0,0,1,.219-.038,2.1,2.1,0,0,1,.1.45.6.6,0,0,0-.02.206.477.477,0,0,1-.062.3.766.766,0,0,0,.1.083c0,.065-.008.131-.014.2-.1.088-.2.174-.306.261a.231.231,0,0,0-.036-.04l-.02.088-.009.007c-.015-.024-.023-.067-.055-.071a.18.18,0,0,1,.035.088l-.1.084h-.007s0,0,0,.006l-.085.072s-.008,0-.014,0a.024.024,0,0,1-.009.021q-1.017.845-2.1,1.6" transform="translate(0 0.001)" fill="#000d33"/>
      <path id="Path_2055" data-name="Path 2055" d="M235.5,1163.77a4.423,4.423,0,0,0-3.8,3.6,4.513,4.513,0,0,0,1.743,5.425,4.857,4.857,0,0,0,7.322-2.876,4.924,4.924,0,0,0-5.261-6.147" transform="translate(-173.465 -872.337)" fill="#000d33"/>
      <path id="Path_2056" data-name="Path 2056" d="M277.731,505.225q.125-12.88.25-25.761c-.11.139-.221.277-.328.419l-.37.03a9.7,9.7,0,0,0-1.782-2.954q-.283,29.114-.566,58.228-.335,34.456-.67,68.913-.157,16.166-.314,32.332a18.991,18.991,0,0,1,2.5.852q.307-31.573.614-63.146.335-34.456.669-68.913" transform="translate(-205.356 -357.531)" fill="#000d33"/>
      <path id="Path_2057" data-name="Path 2057" d="M218.4,504.814q-.053-14.869-.106-29.739a9.68,9.68,0,0,0-2.386,4.032h-.079l-.025-.035q.1,27.727.2,55.455.122,34.081.243,68.163l.121,33.97a19.057,19.057,0,0,1,2.5-1.126q-.112-31.278-.223-62.557-.121-34.081-.243-68.163" transform="translate(-161.769 -356.119)" fill="#000d33"/>
      <path id="Path_2058" data-name="Path 2058" d="M247.75,277.765l-.029-.04c.01.027.02.045.029.04" transform="translate(-185.693 -208.184)" fill="#000d33"/>
      <path id="Path_2059" data-name="Path 2059" d="M244.363,282.619l.079.085c.024-.044-.035-.054-.079-.085" transform="translate(-183.176 -211.853)" fill="#000d33"/>
      <path id="Path_2060" data-name="Path 2060" d="M251.633,285.232a.132.132,0,0,1,.016.006c-.007-.013-.011-.011-.016-.006" transform="translate(-188.626 -213.808)" fill="#000d33"/>
      <path id="Path_2061" data-name="Path 2061" d="M268.591,267.977l0,0c-.009.021-.008.018,0,0" transform="translate(-201.332 -200.875)" fill="#000d33"/>
      <path id="Path_2062" data-name="Path 2062" d="M243.366,288.415v.012c.041-.026.03-.025,0-.012" transform="translate(-182.428 -216.19)" fill="#000d33"/>
      <path id="Path_2063" data-name="Path 2063" d="M259.763,269.342s0,0,0-.006l-.006,0Z" transform="translate(-194.717 -201.894)" fill="#000d33"/>
      <path id="Path_2064" data-name="Path 2064" d="M259.25,268.621c-.008-.143.024-.139.067-.124l-.148-.28Z" transform="translate(-194.275 -201.058)" fill="#000d33"/>
      <path id="Path_2065" data-name="Path 2065" d="M253.533,272.175a.271.271,0,0,1-.045-.048.057.057,0,0,0,.045.048" transform="translate(-190.016 -203.988)" fill="#000d33"/>
      <path id="Path_2066" data-name="Path 2066" d="M244.3,282.555l0,0a.127.127,0,0,0,.017.014Z" transform="translate(-183.124 -211.805)" fill="#000d33"/>
      <path id="Path_2067" data-name="Path 2067" d="M266.361,268.468a.191.191,0,0,1,0-.07c-.012.027-.016.053,0,.07" transform="translate(-199.659 -201.193)" fill="#000d33"/>
      <path id="Path_2068" data-name="Path 2068" d="M269.543,274.806l.051-.032-.092.033Z" transform="translate(-202.02 -205.972)" fill="#000d33"/>
      <path id="Path_2069" data-name="Path 2069" d="M269.066,271.53l-.155.016.064.031a.257.257,0,0,1,.091-.047" transform="translate(-201.577 -203.54)" fill="#000d33"/>
      <path id="Path_2070" data-name="Path 2070" d="M268.525,270.731c-.043,0-.143-.077-.114.01.043,0,.092.067.114-.01" transform="translate(-201.199 -202.918)" fill="#000d33"/>
      <path id="Path_2071" data-name="Path 2071" d="M262.523,268.448c-.043.074-.077.045-.021.2.1.043-.008-.162.084-.1.011-.063-.075-.052-.063-.106" transform="translate(-196.751 -201.23)" fill="#000d33"/>
      <path id="Path_2072" data-name="Path 2072" d="M249.814,277.084l.1.037-.022-.033a.056.056,0,0,0-.076,0" transform="translate(-187.262 -207.694)" fill="#000d33"/>
      <path id="Path_2073" data-name="Path 2073" d="M247.032,278.9l.012-.007-.123-.086Z" transform="translate(-185.094 -208.992)" fill="#000d33"/>
      <path id="Path_2074" data-name="Path 2074" d="M245.976,281.417c.021-.016.016-.061.037-.077-.016.06-.186-.03-.037.077" transform="translate(-184.339 -210.894)" fill="#000d33"/>
      <path id="Path_2075" data-name="Path 2075" d="M206.3,266.455l-.047-.015c.025.02.043.029.047.015" transform="translate(-154.608 -199.725)" fill="#000d33"/>
      <path id="Path_2076" data-name="Path 2076" d="M210.962,254.431a.4.4,0,0,0,.121-.063Z" transform="translate(-158.138 -190.676)" fill="#000d33"/>
      <path id="Path_2077" data-name="Path 2077" d="M209.417,270.542l.026-.114c-.067.008-.029.06-.026.114" transform="translate(-156.971 -202.714)" fill="#000d33"/>
      <path id="Path_2078" data-name="Path 2078" d="M230.561,247.142a.137.137,0,0,1,.021-.01c-.012-.009-.017,0-.021.01" transform="translate(-172.83 -185.248)" fill="#000d33"/>
      <path id="Path_2079" data-name="Path 2079" d="M229.109,230.744l0,0c.027,0,.022,0,0,0" transform="translate(-171.739 -172.967)" fill="#000d33"/>
      <path id="Path_2080" data-name="Path 2080" d="M221.376,263.122a.088.088,0,0,1,.016,0c0-.072-.011-.048-.016,0" transform="translate(-165.945 -197.201)" fill="#000d33"/>
      <path id="Path_2081" data-name="Path 2081" d="M218.558,244.5s0-.005,0-.008l-.009,0Z" transform="translate(-163.826 -183.269)" fill="#000d33"/>
      <path id="Path_2082" data-name="Path 2082" d="M217.637,244.282c-.054-.152-.009-.179.054-.211l-.286-.145Z" transform="translate(-162.968 -182.848)" fill="#000d33"/>
      <path id="Path_2083" data-name="Path 2083" d="M211.092,254.173a.174.174,0,0,1-.065-.019c.008.025.028.037.065.019" transform="translate(-158.187 -190.515)" fill="#000d33"/>
      <path id="Path_2084" data-name="Path 2084" d="M209.435,270.906h0a.093.093,0,0,0,0-.022Z" transform="translate(-156.994 -203.057)" fill="#000d33"/>
      <path id="Path_2085" data-name="Path 2085" d="M227.845,234.2a.161.161,0,0,1-.1.007c.019.023.049.029.1-.007" transform="translate(-170.721 -175.56)" fill="#000d33"/>
      <path id="Path_2086" data-name="Path 2086" d="M234.58,227.055l.02-.09c-.048,0-.068-.017-.111-.036Z" transform="translate(-175.774 -170.107)" fill="#000d33"/>
      <path id="Path_2087" data-name="Path 2087" d="M233.572,228.215c.015.043-.092.232.05.106-.015-.043.08-.165-.05-.106" transform="translate(-175.069 -171.059)" fill="#000d33"/>
      <path id="Path_2088" data-name="Path 2088" d="M222.287,240.087c-.017-.071-.134.053-.144-.013-.026.12-.087.139.069.214.163-.088-.089-.136.075-.2" transform="translate(-166.495 -179.953)" fill="#000d33"/>
      <path id="Path_2089" data-name="Path 2089" d="M222.243,239.906a.363.363,0,0,0,.009-.066.161.161,0,0,0-.009.066" transform="translate(-166.594 -179.785)" fill="#000d33"/>
      <path id="Path_2090" data-name="Path 2090" d="M207.844,263.616l.11-.041-.035-.021c-.044,0-.055.021-.076.062" transform="translate(-155.801 -197.561)" fill="#000d33"/>
      <path id="Path_2091" data-name="Path 2091" d="M206.578,268.228l0-.019-.144.049Z" transform="translate(-154.746 -201.051)" fill="#000d33"/>
      <path id="Path_2092" data-name="Path 2092" d="M208.141,269.933c.005-.008-.015.017-.019.016-.007.02-.066.113.019-.016" transform="translate(-155.99 -202.342)" fill="#000d33"/>
      <path id="Path_2093" data-name="Path 2093" d="M126.09,218.784l-.1.151a1.232,1.232,0,0,0,.1-.151" transform="translate(-94.446 -164.002)" fill="#000d33"/>
      <path id="Path_2094" data-name="Path 2094" d="M129.754,214.851l-.014-.056c-.021.062-.023.093.014.056" transform="translate(-97.243 -161.011)" fill="#000d33"/>
      <path id="Path_2095" data-name="Path 2095" d="M160.069,188.745a2.217,2.217,0,0,0,.327-.12Z" transform="translate(-119.989 -141.394)" fill="#000d33"/>
      <path id="Path_2096" data-name="Path 2096" d="M110.158,241.473l-.012.234c.165-.277.045-.184.012-.234" transform="translate(-82.566 -181.009)" fill="#000d33"/>
      <path id="Path_2097" data-name="Path 2097" d="M106.485,317.942c.017,0,.037-.01.054-.011,0-.016-.023-.006-.054.011" transform="translate(-79.822 -238.317)" fill="#000d33"/>
      <path id="Path_2098" data-name="Path 2098" d="M191.174,205.545l.007-.013c-.041.036-.034.03-.007.013" transform="translate(-143.289 -154.068)" fill="#000d33"/>
      <path id="Path_2099" data-name="Path 2099" d="M90.1,283.949c-.006.01-.011.022-.018.032.006.174.016.1.018-.032" transform="translate(-67.528 -212.85)" fill="#000d33"/>
      <path id="Path_2100" data-name="Path 2100" d="M194.118,173.92l.017-.01-.025,0Z" transform="translate(-145.506 -130.364)" fill="#000d33"/>
      <path id="Path_2101" data-name="Path 2101" d="M191.969,173.426a.758.758,0,0,1,.536-.249l-.274-.248q-.135.248-.262.5" transform="translate(-143.901 -129.628)" fill="#000d33"/>
      <path id="Path_2102" data-name="Path 2102" d="M161.069,188.311a.107.107,0,0,1-.079-.029c-.03.043-.019.063.079.029" transform="translate(-120.669 -141.137)" fill="#000d33"/>
      <path id="Path_2103" data-name="Path 2103" d="M110.168,241.3l-.011.016a.051.051,0,0,0,.009.028Z" transform="translate(-82.574 -180.88)" fill="#000d33"/>
      <path id="Path_2104" data-name="Path 2104" d="M193.3,196.021a.7.7,0,0,1,.15-.18c-.025-.018-.069.021-.15.18" transform="translate(-144.901 -146.8)" fill="#000d33"/>
      <path id="Path_2105" data-name="Path 2105" d="M173.114,238.029l.156-.242-.241.332Z" transform="translate(-129.704 -178.246)" fill="#000d33"/>
      <path id="Path_2106" data-name="Path 2106" d="M181.318,222.524a.429.429,0,0,1,.177-.127l-.13-.086Z" transform="translate(-135.917 -166.645)" fill="#000d33"/>
      <path id="Path_2107" data-name="Path 2107" d="M183.253,217.418c.02.061-.163.468.064.126-.018-.06.184-.631-.064-.126" transform="translate(-137.329 -162.822)" fill="#000d33"/>
      <path id="Path_2108" data-name="Path 2108" d="M201.558,173.766c-.121.155.164.011.021.183.041.065.12-.15.158-.1-.017-.141.042-.2-.179-.081" transform="translate(-151.066 -130.208)" fill="#000d33"/>
      <path id="Path_2109" data-name="Path 2109" d="M202.375,174.359a.155.155,0,0,0-.012-.08.757.757,0,0,0,.012.08" transform="translate(-151.693 -130.64)" fill="#000d33"/>
      <path id="Path_2110" data-name="Path 2110" d="M137.617,207.827l.254-.108-.008-.046c-.067,0-.126.054-.246.154" transform="translate(-103.159 -155.673)" fill="#000d33"/>
      <path id="Path_2111" data-name="Path 2111" d="M125.284,220.294l.054-.056-.208.013Z" transform="translate(-93.799 -165.091)" fill="#000d33"/>
      <path id="Path_2112" data-name="Path 2112" d="M116.845,231.6c.094-.122.173-.289.268-.412-.173.289-.441.34-.268.412" transform="translate(-87.546 -173.297)" fill="#000d33"/>
      <path id="Path_2113" data-name="Path 2113" d="M17.906,185.043l-.006.132a.689.689,0,0,0,.006-.132" transform="translate(-13.418 -138.709)" fill="#000d33"/>
      <path id="Path_2114" data-name="Path 2114" d="M18.808,181.346l-.041-.036c.014.049.029.072.041.036" transform="translate(-14.068 -135.911)" fill="#000d33"/>
      <path id="Path_2115" data-name="Path 2115" d="M27.988,153.052a1.26,1.26,0,0,0,.162-.2Z" transform="translate(-20.98 -114.576)" fill="#000d33"/>
      <path id="Path_2116" data-name="Path 2116" d="M15.622,204.5l.122.122c-.02-.208-.067-.111-.122-.122" transform="translate(-11.71 -153.282)" fill="#000d33"/>
      <path id="Path_2117" data-name="Path 2117" d="M57.763,179.992c.01-.01.019-.024.029-.033-.012-.009-.02.007-.029.033" transform="translate(-43.3 -134.896)" fill="#000d33"/>
      <path id="Path_2118" data-name="Path 2118" d="M58.3,96.385l-.007.009c.039-.018.032-.015.007-.009" transform="translate(-43.695 -72.247)" fill="#000d33"/>
      <path id="Path_2119" data-name="Path 2119" d="M36.932,212.856a.234.234,0,0,1,.026-.008c.066-.108.029-.071-.026.008" transform="translate(-27.684 -159.502)" fill="#000d33"/>
      <path id="Path_2120" data-name="Path 2120" d="M40.163,129c0-.006,0-.01,0-.015l-.012.014Z" transform="translate(-30.099 -96.69)" fill="#000d33"/>
      <path id="Path_2121" data-name="Path 2121" d="M39,129.408a.455.455,0,0,1,.124-.425l-.344-.021Z" transform="translate(-29.07 -96.67)" fill="#000d33"/>
      <path id="Path_2122" data-name="Path 2122" d="M28.245,152.7a.11.11,0,0,1-.075.01c.005.04.027.05.075-.01" transform="translate(-21.116 -114.466)" fill="#000d33"/>
      <path id="Path_2123" data-name="Path 2123" d="M15.53,204.444v.013a.051.051,0,0,0,.023.01Z" transform="translate(-11.641 -153.252)" fill="#000d33"/>
      <path id="Path_2124" data-name="Path 2124" d="M55.68,102.9a.415.415,0,0,1-.144.1c.022.02.064,0,.144-.1" transform="translate(-41.63 -77.133)" fill="#000d33"/>
      <path id="Path_2125" data-name="Path 2125" d="M64.592,93.64a.841.841,0,0,1,.037-.214l-.115.162a.809.809,0,0,1,.077.052" transform="translate(-48.361 -70.032)" fill="#000d33"/>
      <path id="Path_2126" data-name="Path 2126" d="M63.523,91.94c.023-.071.114.088.065-.179-.032.046-.148-.043-.065.179" transform="translate(-47.595 -68.784)" fill="#000d33"/>
      <path id="Path_2127" data-name="Path 2127" d="M46.065,117.776c-.064.231-.157.316.042.311.248-.3-.089-.159.154-.416-.006-.108-.2.21-.2.1" transform="translate(-34.472 -88.19)" fill="#000d33"/>
      <path id="Path_2128" data-name="Path 2128" d="M46.3,117.794a1.122,1.122,0,0,0,.027-.121.487.487,0,0,0-.027.121" transform="translate(-34.707 -88.208)" fill="#000d33"/>
      <path id="Path_2129" data-name="Path 2129" d="M21.836,173.95l.147-.152-.031-.03c-.052.023-.073.076-.116.182" transform="translate(-16.368 -130.257)" fill="#000d33"/>
      <path id="Path_2130" data-name="Path 2130" d="M17.781,186.224l.017-.054-.168.067Z" transform="translate(-13.216 -139.554)" fill="#000d33"/>
      <path id="Path_2131" data-name="Path 2131" d="M16.537,196.171c.02-.1.005-.232.031-.338-.014.233-.214.341-.031.338" transform="translate(-12.339 -146.797)" fill="#000d33"/>
      <path id="Path_2132" data-name="Path 2132" d="M172.608,15.155c.324.057.547.111.717.145l-.45-.1Z" transform="translate(-129.388 -11.36)" fill="#000d33"/>
      <path id="Path_2133" data-name="Path 2133" d="M197.908,29.334l.151.086c-.238-.209-.34-.288-.151-.086" transform="translate(-148.279 -21.901)" fill="#000d33"/>
      <path id="Path_2134" data-name="Path 2134" d="M130.622,190.948c-.343.252-.808.647-1.468,1.2.49-.4.971-.809,1.468-1.2" transform="translate(-96.815 -143.136)" fill="#000d33"/>
      <path id="Path_2135" data-name="Path 2135" d="M80.971,101.549c-.03-.04-.023.126-.064.061.112.373.222.748.321,1.126a6.114,6.114,0,0,0-.257-1.187" transform="translate(-60.648 -76.117)" fill="#000d33"/>
      <path id="Path_2136" data-name="Path 2136" d="M231.63,64.611l.046.321c.02.028-.005-.113-.046-.321" transform="translate(-173.631 -48.433)" fill="#000d33"/>
      <path id="Path_2137" data-name="Path 2137" d="M202.1,246.232l.044-.066c-.168.216-.139.179-.044.066" transform="translate(-151.441 -184.527)" fill="#000d33"/>
      <path id="Path_2138" data-name="Path 2138" d="M22.269,132.966l.095-.174c.367-.853.191-.486-.095.174" transform="translate(-16.693 -99.169)" fill="#000d33"/>
      <path id="Path_2139" data-name="Path 2139" d="M130,316.833l.066-.081-.094.1Z" transform="translate(-97.426 -237.439)" fill="#000d33"/>
      <path id="Path_2140" data-name="Path 2140" d="M120.376,319.49c.544-.493.941-.9,1.316-1.257l.542-.534.544-.554c-.328.2-.655.4-.991.581a15.6,15.6,0,0,1-1.411,1.764" transform="translate(-90.235 -237.734)" fill="#000d33"/>
      <path id="Path_2141" data-name="Path 2141" d="M2.723,215.948c-.042-.1-.082-.19-.12-.283.042.1.082.2.12.283" transform="translate(-1.951 -161.664)" fill="#000d33"/>
      <path id="Path_2142" data-name="Path 2142" d="M79.96,161.322c-.026.125-.051.25-.08.374.031-.135.057-.258.08-.374" transform="translate(-59.879 -120.928)" fill="#000d33"/>
      <path id="Path_2143" data-name="Path 2143" d="M223.518,40.257c-.032-.066-.063-.132-.1-.2.023.05.057.117.1.2" transform="translate(-167.478 -30.03)" fill="#000d33"/>
      <path id="Path_2144" data-name="Path 2144" d="M80.259,160.08c-.02.1-.038.208-.059.311.023-.112.042-.214.059-.311" transform="translate(-60.118 -119.997)" fill="#000d33"/>
      <path id="Path_2145" data-name="Path 2145" d="M128.885,195.416a.748.748,0,0,1,.26-.143c.185-.191.174-.213-.26.143" transform="translate(-96.613 -146.276)" fill="#000d33"/>
      <path id="Path_2146" data-name="Path 2146" d="M80.648,100.987l.021.105a.447.447,0,0,0,.044.1Z" transform="translate(-60.454 -75.7)" fill="#000d33"/>
      <path id="Path_2147" data-name="Path 2147" d="M236.3,208.734a11.949,11.949,0,0,1,1.105-.587c.017-.043-.256.074-1.105.587" transform="translate(-177.129 -156.023)" fill="#000d33"/>
      <path id="Path_2148" data-name="Path 2148" d="M300.724,227.66c.092-.2.177-.4.258-.6a9.059,9.059,0,0,0,.406-1.512,9.917,9.917,0,0,1-.664,2.115" transform="translate(-225.425 -169.07)" fill="#000d33"/>
      <path id="Path_2149" data-name="Path 2149" d="M246.969,240.676l.111.132c.135-.362.281-.717.4-1.083a7.258,7.258,0,0,1-.513.951" transform="translate(-185.129 -179.699)" fill="#000d33"/>
      <path id="Path_2150" data-name="Path 2150" d="M232.5,262.359c-.081.232-2.011,2.936-.165.432.117-.22,1.456-2.27.165-.432" transform="translate(-173.561 -196.097)" fill="#000d33"/>
      <path id="Path_2151" data-name="Path 2151" d="M181.877,239.147c1.54-2.447.231-.66,1.61-2.879.289-.616-1.123,1.815-.82,1.187-.834,1.53-1.355,2.285-.79,1.692" transform="translate(-136.159 -177.032)" fill="#000d33"/>
      <path id="Path_2152" data-name="Path 2152" d="M185.74,238.95l.414-.788c-.24.444-.349.656-.414.788" transform="translate(-139.232 -178.527)" fill="#000d33"/>
      <path id="Path_2153" data-name="Path 2153" d="M217.841,81.232a4.78,4.78,0,0,0,.019-.563c0-.247-.015-.564-.045-.987.01.471,0,.943-.018,1.414Z" transform="translate(-163.262 -59.73)" fill="#000d33"/>
      <path id="Path_2154" data-name="Path 2154" d="M165.774,14.419l-.377-.086.346.155c.134.008.267.024.4.036Z" transform="translate(-123.983 -10.744)" fill="#000d33"/>
      <path id="Path_2155" data-name="Path 2155" d="M98.335,50.195c.482-.475,1.023-1.023,1.541-1.519-1.112,1.033-1.8,1.55-1.541,1.519" transform="translate(-73.672 -36.488)" fill="#000d33"/>
    </g>
  </g>
</svg>
