<svg id="Compass-Logo-Blue-2022" xmlns="http://www.w3.org/2000/svg" width="235.2" height="34.345" viewBox="0 0 235.2 34.345">
  <path id="dp_path001" d="M16.651,34.346A15.851,15.851,0,0,1,4.767,29.412,16.8,16.8,0,0,1,0,17.267v-.1A16.946,16.946,0,0,1,4.791,5.005,15.925,15.925,0,0,1,16.793,0a17.777,17.777,0,0,1,6.523,1.091,19.482,19.482,0,0,1,5.337,3.226,1.975,1.975,0,0,1,.759,1.518,1.743,1.743,0,0,1-.57,1.3,1.856,1.856,0,0,1-1.328.545,2.316,2.316,0,0,1-1.233-.427,14,14,0,0,0-9.535-3.8A12.041,12.041,0,0,0,7.566,7.4,13.65,13.65,0,0,0,3.89,17.078v.094a13.745,13.745,0,0,0,3.7,9.749,12.028,12.028,0,0,0,9.155,3.961,14.273,14.273,0,0,0,9.867-4.032,1.636,1.636,0,0,1,1.186-.522,1.865,1.865,0,0,1,1.8,1.8,1.663,1.663,0,0,1-.616,1.328A17.768,17.768,0,0,1,16.651,34.346Z" transform="translate(0 0)" fill="#fff" fill-rule="evenodd"/>
  <path id="dp_path002" d="M29.079,29.294a16.071,16.071,0,0,1-12.191,5.052,16,16,0,0,1-12.143-5A16.919,16.919,0,0,1,0,17.267v-.1A17,17,0,0,1,4.791,5.052,16.073,16.073,0,0,1,16.983,0,15.994,15.994,0,0,1,29.127,5.005a16.915,16.915,0,0,1,4.744,12.073v.094A17,17,0,0,1,29.079,29.294ZM7.614,26.9a12.28,12.28,0,0,0,9.369,3.985A12.205,12.205,0,0,0,26.3,26.945a13.647,13.647,0,0,0,3.676-9.677v-.1a13.718,13.718,0,0,0-3.724-9.725,12.28,12.28,0,0,0-9.369-3.985A12.2,12.2,0,0,0,7.566,7.4,13.65,13.65,0,0,0,3.89,17.078v.094A13.719,13.719,0,0,0,7.614,26.9Z" transform="translate(34.156 0)" fill="#fff" fill-rule="evenodd"/>
  <path id="dp_path003" d="M0,31.736V1.85A1.778,1.778,0,0,1,.546.546,1.778,1.778,0,0,1,1.85,0h.427A2.025,2.025,0,0,1,4.032,1l11.86,17.837L27.751,1a1.954,1.954,0,0,1,1.755-1h.427a1.778,1.778,0,0,1,1.3.546,1.778,1.778,0,0,1,.545,1.3V31.689a1.856,1.856,0,0,1-.545,1.329,1.744,1.744,0,0,1-1.3.569,1.946,1.946,0,0,1-1.9-1.9V6.926L17.41,22.533a1.9,1.9,0,0,1-1.566.949,1.933,1.933,0,0,1-1.612-.949L3.652,6.973V31.736a1.821,1.821,0,0,1-.521,1.3,1.756,1.756,0,0,1-1.328.546,1.7,1.7,0,0,1-1.281-.546A1.821,1.821,0,0,1,0,31.736Z" transform="translate(75.981 0.427)" fill="#fff" fill-rule="evenodd"/>
  <path id="dp_path004" d="M0,31.546V1.9A1.857,1.857,0,0,1,.546.569,1.743,1.743,0,0,1,1.85,0H12.429q5.645,0,9.037,2.823a9.5,9.5,0,0,1,3.392,7.709v.1a9.506,9.506,0,0,1-3.724,8.017,14.9,14.9,0,0,1-9.322,2.846H3.748V31.546a1.8,1.8,0,0,1-.57,1.352,1.859,1.859,0,0,1-1.328.545,1.742,1.742,0,0,1-1.3-.569A1.855,1.855,0,0,1,0,31.546ZM3.748,18.074h8.207a10.2,10.2,0,0,0,6.617-2.016,6.477,6.477,0,0,0,2.491-5.29v-.1a6.378,6.378,0,0,0-2.4-5.337,10.32,10.32,0,0,0-6.523-1.874h-8.4Z" transform="translate(117.22 0.569)" fill="#fff" fill-rule="evenodd"/>
  <path id="dp_path005" d="M0,32.116a2.206,2.206,0,0,1,.237-1L13.71,1.661A2.494,2.494,0,0,1,16.081,0h.19A2.354,2.354,0,0,1,18.6,1.661L32.068,31.072a2.586,2.586,0,0,1,.237.949,1.781,1.781,0,0,1-1.8,1.8,1.983,1.983,0,0,1-1.85-1.376L25.19,24.81H6.973L3.51,32.543a1.832,1.832,0,0,1-1.8,1.281,1.649,1.649,0,0,1-1.21-.5A1.648,1.648,0,0,1,0,32.116ZM8.444,21.395H23.719L16.081,4.412Z" transform="translate(143.659 0.19)" fill="#fff" fill-rule="evenodd"/>
  <path id="dp_path006" d="M13.283,34.156A19.662,19.662,0,0,1,.712,29.7,1.6,1.6,0,0,1,0,28.273a1.822,1.822,0,0,1,.522-1.3A1.7,1.7,0,0,1,1.8,26.424a1.538,1.538,0,0,1,1.138.427,15.794,15.794,0,0,0,10.484,3.937,8.477,8.477,0,0,0,5.36-1.589,4.923,4.923,0,0,0,2.041-4.056v-.1a4.64,4.64,0,0,0-1.8-3.842q-1.8-1.423-6.831-2.467Q6.309,17.457,3.676,15.3A7.492,7.492,0,0,1,1.044,9.156v-.1a8.088,8.088,0,0,1,3.083-6.5A11.838,11.838,0,0,1,11.955,0,17.653,17.653,0,0,1,22.533,3.273a1.852,1.852,0,0,1,.806,1.518,1.782,1.782,0,0,1-1.8,1.8,1.855,1.855,0,0,1-1.091-.332A14.325,14.325,0,0,0,11.86,3.368,8,8,0,0,0,6.737,4.91,4.7,4.7,0,0,0,4.791,8.729v.095a4.621,4.621,0,0,0,1.874,3.89q1.874,1.423,7.14,2.562,5.645,1.234,8.231,3.44a7.423,7.423,0,0,1,2.585,5.953v.095a8.344,8.344,0,0,1-3.178,6.807A12.516,12.516,0,0,1,13.283,34.156Z" transform="translate(180.725 0.095)" fill="#fff" fill-rule="evenodd"/>
  <path id="dp_path007" d="M13.283,34.156A19.662,19.662,0,0,1,.712,29.7,1.6,1.6,0,0,1,0,28.273a1.822,1.822,0,0,1,.522-1.3A1.7,1.7,0,0,1,1.8,26.424a1.538,1.538,0,0,1,1.138.427,15.794,15.794,0,0,0,10.484,3.937,8.477,8.477,0,0,0,5.36-1.589,4.923,4.923,0,0,0,2.041-4.056v-.1a4.64,4.64,0,0,0-1.8-3.842q-1.8-1.423-6.831-2.467Q6.309,17.457,3.676,15.3A7.492,7.492,0,0,1,1.044,9.156v-.1a8.088,8.088,0,0,1,3.083-6.5A11.838,11.838,0,0,1,11.955,0,17.653,17.653,0,0,1,22.533,3.273a1.852,1.852,0,0,1,.806,1.518,1.782,1.782,0,0,1-1.8,1.8,1.855,1.855,0,0,1-1.091-.332A14.325,14.325,0,0,0,11.86,3.368,8,8,0,0,0,6.737,4.91,4.7,4.7,0,0,0,4.791,8.729v.095a4.621,4.621,0,0,0,1.874,3.89q1.874,1.423,7.14,2.562,5.645,1.234,8.231,3.44a7.423,7.423,0,0,1,2.585,5.953v.095a8.344,8.344,0,0,1-3.178,6.807A12.516,12.516,0,0,1,13.283,34.156Z" transform="translate(210.58 0.095)" fill="#fff" fill-rule="evenodd"/>
  <path id="dp_path008" d="M15.055.188A.632.632,0,0,0,14.269.1L5.7,5.5a.638.638,0,0,0-.2.2L.1,14.269a.634.634,0,0,0,.875.875l8.573-5.4a.649.649,0,0,0,.2-.2l5.4-8.573A.635.635,0,0,0,15.055.188ZM2.663,12.581,6.494,6.5,8.749,8.748Z" transform="translate(43.643 9.739)" fill="#fff"/>
</svg>
