<svg xmlns="http://www.w3.org/2000/svg" width="273.597" height="277.43" viewBox="0 0 273.597 277.43">
  <g id="Group_507" data-name="Group 507" transform="translate(-1264.403 -2649.718)" opacity="0.265">
    <path id="dp_path002" d="M234.891,236.623q-38.691,40.8-98.478,40.807t-98.09-40.425Q0,196.575,0,139.48v-.768q0-57.09,38.7-97.9T137.181,0q59.777,0,98.092,40.429t38.324,97.52v.763Q273.6,195.81,234.891,236.623ZM61.5,217.269q30.074,32.186,75.677,32.189t75.3-31.808q29.7-31.8,29.7-78.17v-.768q0-46.366-30.084-78.554T136.413,27.972q-45.6,0-75.295,31.8t-29.7,78.174v.763Q31.421,185.083,61.5,217.269Z" transform="translate(1264.403 2649.718)" fill="#5d5bea" fill-rule="evenodd"/>
    <path id="dp_path008" d="M121.6,1.5A5.106,5.106,0,0,0,115.249.8L46,44.4a5.155,5.155,0,0,0-1.619,1.614L.793,115.251a5.122,5.122,0,0,0,7.068,7.068l69.249-43.6a5.245,5.245,0,0,0,1.606-1.6l43.6-69.249A5.126,5.126,0,0,0,121.6,1.5ZM21.5,101.614,52.451,52.455l18.209,18.2Z" transform="translate(1341.043 2728.4)" fill="#5d5bea"/>
  </g>
</svg>
