<?xml version="1.0" encoding="UTF-8"?>
<svg xmlns="http://www.w3.org/2000/svg" xmlns:xlink="http://www.w3.org/1999/xlink" width="365.75pt" height="86.22pt" viewBox="0 0 365.75 86.22" version="1.1">
  <defs>
    <clipPath id="clip1">
      <path d="M 335 0 L 365.75 0 L 365.75 53 L 335 53 Z M 335 0 "></path>
    </clipPath>
    <clipPath id="clip2">
      <path d="M 6 73 L 18 73 L 18 86.21875 L 6 86.21875 Z M 6 73 "></path>
    </clipPath>
    <clipPath id="clip3">
      <path d="M 32 71 L 42 71 L 42 86.21875 L 32 86.21875 Z M 32 71 "></path>
    </clipPath>
    <clipPath id="clip4">
      <path d="M 61 73 L 82 73 L 82 86.21875 L 61 86.21875 Z M 61 73 "></path>
    </clipPath>
    <clipPath id="clip5">
      <path d="M 82 73 L 96 73 L 96 86.21875 L 82 86.21875 Z M 82 73 "></path>
    </clipPath>
    <clipPath id="clip6">
      <path d="M 118 73 L 130 73 L 130 86.21875 L 118 86.21875 Z M 118 73 "></path>
    </clipPath>
    <clipPath id="clip7">
      <path d="M 153 67 L 170 67 L 170 86.21875 L 153 86.21875 Z M 153 67 "></path>
    </clipPath>
    <clipPath id="clip8">
      <path d="M 179 73 L 190 73 L 190 86.21875 L 179 86.21875 Z M 179 73 "></path>
    </clipPath>
    <clipPath id="clip9">
      <path d="M 241 73 L 253 73 L 253 86.21875 L 241 86.21875 Z M 241 73 "></path>
    </clipPath>
    <clipPath id="clip10">
      <path d="M 276 73 L 287 73 L 287 86.21875 L 276 86.21875 Z M 276 73 "></path>
    </clipPath>
    <clipPath id="clip11">
      <path d="M 298 73 L 310 73 L 310 86.21875 L 298 86.21875 Z M 298 73 "></path>
    </clipPath>
    <clipPath id="clip12">
      <path d="M 320 73 L 329 73 L 329 86.21875 L 320 86.21875 Z M 320 73 "></path>
    </clipPath>
    <clipPath id="clip13">
      <path d="M 330 73 L 342 73 L 342 86.21875 L 330 86.21875 Z M 330 73 "></path>
    </clipPath>
    <clipPath id="clip14">
      <path d="M 349 73 L 361 73 L 361 86.21875 L 349 86.21875 Z M 349 73 "></path>
    </clipPath>
  </defs>
  <g id="surface1">
    <path style=" stroke:none;fill-rule:nonzero;fill:rgb(71.398926%,0%,42.698669%);fill-opacity:1;" d="M 46.960938 18.375 L 54.125 18.375 L 39.410156 52.75 L 37.097656 52.75 L 27.0625 29.210938 L 17.277344 52.75 L 15.027344 52.75 L 0 18.375 L 7.183594 18.375 L 16.0625 38.867188 L 24.582031 18.375 L 29.574219 18.375 L 38.1875 38.867188 "></path>
    <path style=" stroke:none;fill-rule:nonzero;fill:rgb(71.398926%,0%,42.698669%);fill-opacity:1;" d="M 72.378906 24.25 C 69.167969 24.25 66.53125 25.308594 64.472656 27.417969 C 62.414063 29.53125 61.386719 32.222656 61.386719 35.488281 C 61.386719 38.730469 62.441406 41.375 64.546875 43.425781 C 66.65625 45.476563 69.363281 46.5 72.671875 46.5 C 75.957031 46.5 78.648438 45.464844 80.742188 43.390625 C 82.839844 41.316406 83.886719 38.65625 83.886719 35.414063 C 83.886719 32.195313 82.792969 29.53125 80.613281 27.417969 C 78.429688 25.308594 75.6875 24.25 72.378906 24.25 M 72.730469 18.25 C 77.863281 18.25 82.136719 19.914063 85.535156 23.234375 C 88.9375 26.558594 90.636719 30.730469 90.636719 35.757813 C 90.636719 40.636719 88.910156 44.691406 85.464844 47.914063 C 82.015625 51.140625 77.667969 52.75 72.4375 52.75 C 67.367188 52.75 63.136719 51.113281 59.734375 47.839844 C 56.335938 44.566406 54.636719 40.480469 54.636719 35.574219 C 54.636719 30.621094 56.355469 26.496094 59.792969 23.199219 C 63.230469 19.902344 67.539063 18.25 72.730469 18.25 "></path>
    <path style=" stroke:none;fill-rule:nonzero;fill:rgb(71.398926%,0%,42.698669%);fill-opacity:1;" d="M 126.425781 27.582031 L 126.425781 52.125 L 119.675781 52.125 L 119.675781 33.316406 C 119.675781 29.570313 119.175781 26.957031 118.175781 25.472656 C 117.179688 23.992188 115.4375 23.25 112.953125 23.25 C 111.566406 23.25 110.292969 23.570313 109.136719 24.207031 C 107.980469 24.84375 106.65625 25.96875 105.175781 27.582031 L 105.175781 52.125 L 98.425781 52.125 L 98.425781 18.375 L 105.175781 18.375 L 105.175781 22.769531 C 108.566406 19.339844 111.886719 17.625 115.136719 17.625 C 119.40625 17.625 122.714844 19.671875 125.058594 23.761719 C 128.652344 19.671875 132.410156 17.625 136.328125 17.625 C 139.632813 17.625 142.347656 18.824219 144.476563 21.222656 C 146.609375 23.621094 147.675781 27.277344 147.675781 32.195313 L 147.675781 52.125 L 140.925781 52.125 L 140.925781 32.003906 C 140.925781 29.171875 140.347656 27.003906 139.191406 25.503906 C 138.03125 24.003906 136.371094 23.25 134.210938 23.25 C 131.429688 23.25 128.835938 24.695313 126.425781 27.582031 "></path>
    <path style=" stroke:none;fill-rule:nonzero;fill:rgb(71.398926%,0%,42.698669%);fill-opacity:1;" d="M 162.46875 31.75 L 179.46875 31.75 C 179.296875 29.070313 178.5 27.003906 177.082031 25.554688 C 175.660156 24.101563 173.75 23.375 171.351563 23.375 C 168.953125 23.375 166.988281 24.101563 165.460938 25.554688 C 163.929688 27.003906 162.933594 29.070313 162.46875 31.75 M 186.09375 35.75 L 162.46875 35.75 C 162.636719 38.996094 163.714844 41.582031 165.695313 43.5 C 167.675781 45.417969 170.230469 46.375 173.367188 46.375 C 177.738281 46.375 181.773438 45.042969 185.46875 42.375 L 185.46875 48.847656 C 183.417969 50.203125 181.386719 51.171875 179.375 51.753906 C 177.363281 52.335938 175 52.625 172.292969 52.625 C 168.585938 52.625 165.585938 51.855469 163.292969 50.308594 C 161 48.765625 159.164063 46.6875 157.785156 44.078125 C 156.40625 41.46875 155.71875 38.449219 155.71875 35.015625 C 155.71875 29.871094 157.171875 25.683594 160.078125 22.460938 C 162.984375 19.238281 166.757813 17.625 171.398438 17.625 C 175.867188 17.625 179.433594 19.191406 182.097656 22.324219 C 184.761719 25.453125 186.09375 29.648438 186.09375 34.90625 "></path>
    <path style=" stroke:none;fill-rule:nonzero;fill:rgb(71.398926%,0%,42.698669%);fill-opacity:1;" d="M 202.035156 18.375 L 202.035156 22.625 C 205.007813 19.292969 208.386719 17.625 212.164063 17.625 C 214.261719 17.625 216.210938 18.171875 218.015625 19.261719 C 219.816406 20.355469 221.1875 21.851563 222.128906 23.75 C 223.0625 25.652344 223.535156 28.660156 223.535156 32.78125 L 223.535156 52.125 L 216.910156 52.125 L 216.910156 32.875 C 216.910156 29.421875 216.386719 26.957031 215.335938 25.472656 C 214.28125 23.992188 212.523438 23.25 210.058594 23.25 C 206.90625 23.25 204.230469 24.835938 202.035156 28 L 202.035156 52.125 L 195.160156 52.125 L 195.160156 18.375 "></path>
    <path style=" stroke:none;fill-rule:nonzero;fill:rgb(71.398926%,0%,42.698669%);fill-opacity:1;" d="M 230.296875 18.75 L 230.296875 17.3125 C 231.410156 16.230469 232.191406 15.164063 232.636719 14.105469 C 233.085938 13.046875 233.34375 11.59375 233.421875 9.75 C 230.835938 8.914063 229.546875 7.300781 229.546875 4.914063 C 229.546875 3.558594 229.988281 2.402344 230.882813 1.441406 C 231.777344 0.480469 232.839844 0 234.0625 0 C 235.554688 0 236.78125 0.667969 237.734375 1.996094 C 238.691406 3.324219 239.171875 5.019531 239.171875 7.085938 C 239.171875 9.84375 238.378906 12.261719 236.800781 14.339844 C 235.222656 16.421875 233.054688 17.890625 230.296875 18.75 "></path>
    <path style=" stroke:none;fill-rule:nonzero;fill:rgb(71.398926%,0%,42.698669%);fill-opacity:1;" d="M 235.613281 49.726563 L 235.613281 42.5 C 237.5 43.839844 239.425781 44.925781 241.398438 45.753906 C 243.371094 46.585938 245.03125 47 246.382813 47 C 247.773438 47 248.976563 46.65625 249.980469 45.964844 C 250.984375 45.277344 251.488281 44.449219 251.488281 43.488281 C 251.488281 42.503906 251.164063 41.683594 250.515625 41.027344 C 249.867188 40.375 248.46875 39.433594 246.316406 38.207031 C 242.011719 35.800781 239.191406 33.746094 237.859375 32.039063 C 236.527344 30.335938 235.863281 28.476563 235.863281 26.460938 C 235.863281 23.859375 236.871094 21.738281 238.890625 20.09375 C 240.910156 18.449219 243.511719 17.625 246.691406 17.625 C 249.996094 17.625 253.386719 18.554688 256.863281 20.410156 L 256.863281 27 C 252.914063 24.585938 249.683594 23.375 247.175781 23.375 C 245.882813 23.375 244.84375 23.65625 244.050781 24.214844 C 243.257813 24.773438 242.863281 25.515625 242.863281 26.433594 C 242.863281 27.230469 243.210938 27.988281 243.90625 28.710938 C 244.601563 29.429688 245.855469 30.292969 247.667969 31.296875 L 250.050781 32.660156 C 255.675781 35.847656 258.488281 39.382813 258.488281 43.257813 C 258.488281 46.03125 257.402344 48.304688 255.238281 50.082031 C 253.070313 51.863281 250.285156 52.75 246.882813 52.75 C 244.878906 52.75 243.09375 52.535156 241.523438 52.105469 C 239.960938 51.675781 237.988281 50.882813 235.613281 49.726563 "></path>
    <path style=" stroke:none;fill-rule:nonzero;fill:rgb(71.398926%,0%,42.698669%);fill-opacity:1;" d="M 302.492188 45.390625 L 302.492188 35.375 L 298.003906 37.101563 C 295.71875 38.007813 294.105469 38.917969 293.160156 39.835938 C 292.214844 40.753906 291.742188 41.898438 291.742188 43.265625 C 291.742188 44.660156 292.191406 45.800781 293.089844 46.679688 C 293.980469 47.5625 295.140625 48 296.566406 48 C 298.699219 48 300.679688 47.132813 302.492188 45.390625 M 309.117188 31.835938 L 309.117188 46.265625 C 309.117188 47.421875 309.515625 48 310.304688 48 C 311.117188 48 312.390625 47.417969 314.117188 46.25 L 314.117188 50.132813 C 312.597656 51.097656 311.378906 51.753906 310.460938 52.101563 C 309.539063 52.449219 308.574219 52.625 307.570313 52.625 C 304.699219 52.625 303.011719 51.511719 302.492188 49.285156 C 299.640625 51.511719 296.601563 52.625 293.382813 52.625 C 291.019531 52.625 289.054688 51.847656 287.480469 50.289063 C 285.90625 48.730469 285.117188 46.773438 285.117188 44.414063 C 285.117188 42.28125 285.882813 40.371094 287.414063 38.691406 C 288.945313 37.011719 291.117188 35.679688 293.933594 34.695313 L 302.492188 31.75 L 302.492188 29.957031 C 302.492188 25.902344 300.460938 23.875 296.394531 23.875 C 292.746094 23.875 289.195313 25.75 285.742188 29.5 L 285.742188 22.207031 C 288.347656 19.152344 292.089844 17.625 296.972656 17.625 C 300.628906 17.625 303.558594 18.585938 305.769531 20.503906 C 306.503906 21.121094 307.164063 21.9375 307.753906 22.960938 C 308.347656 23.980469 308.71875 25.003906 308.878906 26.023438 C 309.039063 27.042969 309.117188 28.980469 309.117188 31.835938 "></path>
    <path style=" stroke:none;fill-rule:nonzero;fill:rgb(71.398926%,0%,42.698669%);fill-opacity:1;" d="M 320.121094 18.375 L 326.871094 18.375 L 326.871094 52.125 L 320.121094 52.125 Z M 323.378906 4.125 C 324.476563 4.125 325.417969 4.503906 326.199219 5.261719 C 326.980469 6.019531 327.371094 6.949219 327.371094 8.046875 C 327.371094 9.121094 326.980469 10.046875 326.199219 10.828125 C 325.417969 11.609375 324.476563 12 323.378906 12 C 322.351563 12 321.449219 11.605469 320.667969 10.8125 C 319.886719 10.019531 319.496094 9.097656 319.496094 8.046875 C 319.496094 7.019531 319.886719 6.109375 320.667969 5.316406 C 321.449219 4.523438 322.351563 4.125 323.378906 4.125 "></path>
    <g clip-path="url(#clip1)" clip-rule="nonzero">
      <path style=" stroke:none;fill-rule:nonzero;fill:rgb(71.398926%,0%,42.698669%);fill-opacity:1;" d="M 359 46.5 L 359 24.957031 C 356.914063 23.902344 354.808594 23.375 352.671875 23.375 C 349.339844 23.375 346.683594 24.472656 344.710938 26.664063 C 342.734375 28.855469 341.75 31.8125 341.75 35.53125 C 341.75 39.027344 342.605469 41.722656 344.324219 43.621094 C 345.355469 44.753906 346.445313 45.515625 347.597656 45.910156 C 348.75 46.304688 350.820313 46.5 353.8125 46.5 Z M 359 0.75 L 365.75 0.75 L 365.75 52.125 L 351.441406 52.125 C 346.4375 52.125 342.445313 50.546875 339.46875 47.390625 C 336.488281 44.234375 335 40.003906 335 34.691406 C 335 29.726563 336.5625 25.640625 339.6875 22.433594 C 342.8125 19.230469 346.796875 17.625 351.648438 17.625 C 353.902344 17.625 356.355469 18.085938 359 19.003906 "></path>
    </g>
    <g clip-path="url(#clip2)" clip-rule="nonzero">
      <path style=" stroke:none;fill-rule:nonzero;fill:rgb(13.699341%,12.199402%,12.5%);fill-opacity:1;" d="M 14.589844 86 L 14.589844 84.429688 C 14.066406 84.996094 13.46875 85.4375 12.796875 85.75 C 12.128906 86.0625 11.460938 86.21875 10.792969 86.21875 C 10.011719 86.21875 9.289063 86.023438 8.625 85.636719 C 7.964844 85.242188 7.464844 84.714844 7.125 84.046875 C 6.789063 83.378906 6.621094 82.269531 6.621094 80.71875 L 6.621094 73.625 L 9.058594 73.625 L 9.058594 80.6875 C 9.058594 81.988281 9.246094 82.898438 9.621094 83.414063 C 9.996094 83.929688 10.652344 84.1875 11.59375 84.1875 C 12.769531 84.1875 13.765625 83.617188 14.589844 82.480469 L 14.589844 73.625 L 17.027344 73.625 L 17.027344 86 "></path>
    </g>
    <path style=" stroke:none;fill-rule:nonzero;fill:rgb(13.699341%,12.199402%,12.5%);fill-opacity:1;" d="M 22.851563 73.625 L 22.851563 75.15625 C 23.945313 73.949219 25.1875 73.34375 26.578125 73.34375 C 27.347656 73.34375 28.0625 73.546875 28.726563 73.945313 C 29.390625 74.347656 29.894531 74.894531 30.242188 75.59375 C 30.585938 76.289063 30.757813 77.394531 30.757813 78.902344 L 30.757813 86 L 28.320313 86 L 28.320313 78.917969 C 28.320313 77.648438 28.128906 76.738281 27.742188 76.191406 C 27.355469 75.648438 26.710938 75.375 25.800781 75.375 C 24.644531 75.375 23.660156 75.960938 22.851563 77.125 L 22.851563 86 L 20.351563 86 L 20.351563 73.625 "></path>
    <g clip-path="url(#clip3)" clip-rule="nonzero">
      <path style=" stroke:none;fill-rule:nonzero;fill:rgb(13.699341%,12.199402%,12.5%);fill-opacity:1;" d="M 32.398438 75.601563 L 36.988281 71.0625 L 36.988281 73.625 L 40.925781 73.625 L 40.925781 75.84375 L 36.988281 75.84375 L 36.988281 81.882813 C 36.988281 83.296875 37.578125 84 38.757813 84 C 39.640625 84 40.570313 83.71875 41.550781 83.15625 L 41.550781 85.429688 C 40.609375 85.957031 39.582031 86.21875 38.46875 86.21875 C 37.347656 86.21875 36.414063 85.894531 35.667969 85.238281 C 35.4375 85.039063 35.242188 84.820313 35.089844 84.574219 C 34.9375 84.328125 34.808594 84.003906 34.707031 83.605469 C 34.605469 83.207031 34.550781 82.449219 34.550781 81.328125 L 34.550781 75.84375 L 32.398438 75.84375 "></path>
    </g>
    <path style=" stroke:none;fill-rule:nonzero;fill:rgb(13.699341%,12.199402%,12.5%);fill-opacity:1;" d="M 43.304688 73.625 L 45.742188 73.625 L 45.742188 86 L 43.304688 86 Z M 44.519531 68.40625 C 44.925781 68.40625 45.269531 68.546875 45.558594 68.824219 C 45.847656 69.105469 45.992188 69.449219 45.992188 69.855469 C 45.992188 70.25 45.847656 70.59375 45.558594 70.882813 C 45.269531 71.171875 44.925781 71.3125 44.519531 71.3125 C 44.140625 71.3125 43.808594 71.167969 43.519531 70.875 C 43.230469 70.582031 43.085938 70.242188 43.085938 69.855469 C 43.085938 69.476563 43.230469 69.140625 43.519531 68.847656 C 43.808594 68.554688 44.140625 68.40625 44.519531 68.40625 "></path>
    <path style=" stroke:none;fill-rule:nonzero;fill:rgb(13.699341%,12.199402%,12.5%);fill-opacity:1;" d="M 49.292969 86 L 51.734375 86 L 51.734375 67.1875 L 49.292969 67.1875 Z M 49.292969 86 "></path>
    <g clip-path="url(#clip4)" clip-rule="nonzero">
      <path style=" stroke:none;fill-rule:nonzero;fill:rgb(13.699341%,12.199402%,12.5%);fill-opacity:1;" d="M 79.054688 73.625 L 81.679688 73.625 L 76.222656 86.21875 L 75.414063 86.21875 L 71.789063 77.597656 L 68.160156 86.21875 L 67.355469 86.21875 L 61.867188 73.625 L 64.5 73.625 L 67.726563 81.132813 L 70.890625 73.625 L 72.726563 73.625 L 75.824219 81.132813 "></path>
    </g>
    <g clip-path="url(#clip5)" clip-rule="nonzero">
      <path style=" stroke:none;fill-rule:nonzero;fill:rgb(13.699341%,12.199402%,12.5%);fill-opacity:1;" d="M 88.621094 75.8125 C 87.441406 75.8125 86.476563 76.199219 85.722656 76.96875 C 84.96875 77.742188 84.589844 78.726563 84.589844 79.917969 C 84.589844 81.101563 84.972656 82.066406 85.746094 82.816406 C 86.519531 83.566406 87.515625 83.9375 88.726563 83.9375 C 89.929688 83.9375 90.917969 83.558594 91.683594 82.800781 C 92.453125 82.042969 92.839844 81.074219 92.839844 79.890625 C 92.839844 78.714844 92.4375 77.742188 91.640625 76.96875 C 90.839844 76.199219 89.832031 75.8125 88.621094 75.8125 M 88.765625 73.59375 C 90.648438 73.59375 92.21875 74.203125 93.464844 75.417969 C 94.714844 76.632813 95.339844 78.164063 95.339844 80 C 95.339844 81.789063 94.707031 83.269531 93.4375 84.449219 C 92.171875 85.628906 90.578125 86.21875 88.65625 86.21875 C 86.796875 86.21875 85.242188 85.621094 83.992188 84.421875 C 82.746094 83.226563 82.121094 81.730469 82.121094 79.933594 C 82.121094 78.121094 82.75 76.613281 84.015625 75.40625 C 85.277344 74.199219 86.859375 73.59375 88.765625 73.59375 "></path>
    </g>
    <path style=" stroke:none;fill-rule:nonzero;fill:rgb(13.699341%,12.199402%,12.5%);fill-opacity:1;" d="M 108.121094 77.011719 L 108.121094 86 L 105.652344 86 L 105.652344 79.078125 C 105.652344 77.699219 105.46875 76.738281 105.101563 76.195313 C 104.734375 75.648438 104.09375 75.375 103.179688 75.375 C 102.664063 75.375 102.195313 75.496094 101.769531 75.738281 C 101.34375 75.976563 100.859375 76.402344 100.308594 77.011719 L 100.308594 86 L 97.871094 86 L 97.871094 73.625 L 100.308594 73.625 L 100.308594 75.246094 C 101.558594 73.980469 102.78125 73.34375 103.972656 73.34375 C 105.546875 73.34375 106.761719 74.101563 107.625 75.613281 C 108.929688 74.101563 110.296875 73.34375 111.71875 73.34375 C 112.917969 73.34375 113.90625 73.785156 114.679688 74.664063 C 115.453125 75.542969 115.84375 76.886719 115.84375 78.691406 L 115.84375 86 L 113.402344 86 L 113.402344 78.640625 C 113.402344 77.605469 113.191406 76.8125 112.773438 76.261719 C 112.351563 75.714844 111.746094 75.4375 110.957031 75.4375 C 109.945313 75.4375 109 75.964844 108.121094 77.011719 "></path>
    <g clip-path="url(#clip6)" clip-rule="nonzero">
      <path style=" stroke:none;fill-rule:nonzero;fill:rgb(13.699341%,12.199402%,12.5%);fill-opacity:1;" d="M 121.078125 78.53125 L 127.296875 78.53125 C 127.234375 77.550781 126.941406 76.796875 126.421875 76.265625 C 125.902344 75.734375 125.203125 75.46875 124.328125 75.46875 C 123.449219 75.46875 122.730469 75.734375 122.171875 76.265625 C 121.613281 76.796875 121.246094 77.550781 121.078125 78.53125 M 129.734375 80 L 121.015625 80 C 121.078125 81.195313 121.472656 82.144531 122.207031 82.847656 C 122.9375 83.554688 123.882813 83.90625 125.042969 83.90625 C 126.660156 83.90625 128.148438 83.40625 129.515625 82.40625 L 129.515625 84.792969 C 128.761719 85.296875 128.015625 85.652344 127.273438 85.867188 C 126.535156 86.082031 125.664063 86.1875 124.671875 86.1875 C 123.308594 86.1875 122.203125 85.90625 121.363281 85.339844 C 120.519531 84.773438 119.84375 84.011719 119.335938 83.050781 C 118.828125 82.09375 118.578125 80.984375 118.578125 79.726563 C 118.578125 77.839844 119.109375 76.300781 120.179688 75.121094 C 121.246094 73.9375 122.632813 73.34375 124.335938 73.34375 C 125.976563 73.34375 127.289063 73.921875 128.265625 75.070313 C 129.242188 76.21875 129.734375 77.761719 129.734375 79.691406 "></path>
    </g>
    <path style=" stroke:none;fill-rule:nonzero;fill:rgb(13.699341%,12.199402%,12.5%);fill-opacity:1;" d="M 134.792969 73.625 L 134.792969 75.15625 C 135.886719 73.949219 137.128906 73.34375 138.519531 73.34375 C 139.289063 73.34375 140.003906 73.546875 140.667969 73.945313 C 141.332031 74.347656 141.835938 74.894531 142.179688 75.59375 C 142.523438 76.289063 142.699219 77.394531 142.699219 78.902344 L 142.699219 86 L 140.261719 86 L 140.261719 78.917969 C 140.261719 77.648438 140.066406 76.738281 139.683594 76.191406 C 139.296875 75.648438 138.648438 75.375 137.742188 75.375 C 136.585938 75.375 135.601563 75.960938 134.792969 77.125 L 134.792969 86 L 132.292969 86 L 132.292969 73.625 "></path>
    <g clip-path="url(#clip7)" clip-rule="nonzero">
      <path style=" stroke:none;fill-rule:nonzero;fill:rgb(13.699341%,12.199402%,12.5%);fill-opacity:1;" d="M 160.15625 74.875 L 161.203125 74.144531 C 162.175781 73.464844 162.660156 72.679688 162.660156 71.78125 C 162.660156 71.230469 162.460938 70.769531 162.058594 70.398438 C 161.65625 70.03125 161.148438 69.84375 160.53125 69.84375 C 159.9375 69.84375 159.445313 70.015625 159.054688 70.355469 C 158.667969 70.699219 158.472656 71.128906 158.472656 71.640625 C 158.472656 72.136719 158.621094 72.675781 158.925781 73.253906 C 159.222656 73.835938 159.636719 74.375 160.15625 74.875 M 161.933594 82.105469 L 162.539063 81.554688 L 159.476563 78.039063 L 158.292969 78.871094 C 156.890625 79.8125 156.191406 80.765625 156.191406 81.734375 C 156.191406 82.265625 156.421875 82.71875 156.878906 83.09375 C 157.335938 83.46875 157.890625 83.65625 158.535156 83.65625 C 159.039063 83.65625 159.609375 83.515625 160.242188 83.226563 C 160.875 82.9375 161.4375 82.566406 161.933594 82.105469 M 166.410156 86 L 164.1875 83.445313 C 163.996094 83.636719 163.675781 83.90625 163.214844 84.269531 L 163.1875 84.296875 C 162.550781 84.824219 161.761719 85.277344 160.824219 85.652344 C 159.886719 86.03125 159.003906 86.21875 158.179688 86.21875 C 156.875 86.21875 155.773438 85.796875 154.863281 84.945313 C 153.957031 84.101563 153.503906 83.0625 153.503906 81.84375 C 153.503906 80.964844 153.726563 80.171875 154.171875 79.460938 C 154.613281 78.753906 155.339844 78.03125 156.34375 77.296875 L 156.382813 77.253906 C 156.972656 76.8125 157.484375 76.476563 157.914063 76.242188 C 156.496094 74.730469 155.785156 73.273438 155.785156 71.882813 C 155.785156 70.601563 156.222656 69.5625 157.09375 68.761719 C 157.96875 67.964844 159.101563 67.5625 160.496094 67.5625 C 161.863281 67.5625 162.988281 67.957031 163.867188 68.738281 C 164.75 69.523438 165.191406 70.519531 165.191406 71.738281 C 165.191406 73.386719 164.082031 74.988281 161.867188 76.546875 L 161.675781 76.695313 L 164.324219 79.710938 C 165.109375 78.859375 165.796875 77.84375 166.378906 76.65625 L 169.066406 76.65625 C 168.414063 78.332031 167.390625 79.980469 165.988281 81.601563 L 169.816406 86 "></path>
    </g>
    <g clip-path="url(#clip8)" clip-rule="nonzero">
      <path style=" stroke:none;fill-rule:nonzero;fill:rgb(13.699341%,12.199402%,12.5%);fill-opacity:1;" d="M 189.3125 83.125 L 189.3125 85.539063 C 188.078125 85.992188 186.875 86.21875 185.695313 86.21875 C 183.75 86.21875 182.203125 85.644531 181.046875 84.492188 C 179.890625 83.339844 179.3125 81.796875 179.3125 79.863281 C 179.3125 77.910156 179.875 76.335938 181.003906 75.140625 C 182.128906 73.941406 183.613281 73.34375 185.449219 73.34375 C 186.089844 73.34375 186.664063 73.40625 187.175781 73.527344 C 187.683594 73.648438 188.3125 73.875 189.0625 74.207031 L 189.0625 76.8125 C 187.8125 76.023438 186.65625 75.625 185.589844 75.625 C 184.480469 75.625 183.566406 76.015625 182.851563 76.796875 C 182.136719 77.578125 181.78125 78.574219 181.78125 79.78125 C 181.78125 81.054688 182.164063 82.066406 182.9375 82.8125 C 183.707031 83.5625 184.746094 83.9375 186.054688 83.9375 C 187 83.9375 188.085938 83.667969 189.3125 83.125 "></path>
    </g>
    <path style=" stroke:none;fill-rule:nonzero;fill:rgb(13.699341%,12.199402%,12.5%);fill-opacity:1;" d="M 191.988281 67.1875 L 194.429688 67.1875 L 194.429688 75.203125 C 195.449219 73.964844 196.71875 73.34375 198.234375 73.34375 C 199.0625 73.34375 199.800781 73.550781 200.457031 73.964844 C 201.113281 74.378906 201.597656 74.953125 201.917969 75.679688 C 202.234375 76.410156 202.394531 77.492188 202.394531 78.929688 L 202.394531 86 L 199.957031 86 L 199.957031 78.3125 C 199.957031 77.402344 199.734375 76.667969 199.289063 76.113281 C 198.84375 75.558594 198.257813 75.28125 197.53125 75.28125 C 196.988281 75.28125 196.480469 75.421875 196.007813 75.699219 C 195.527344 75.980469 195.003906 76.441406 194.429688 77.085938 L 194.429688 86 L 191.988281 86 "></path>
    <path style=" stroke:none;fill-rule:nonzero;fill:rgb(13.699341%,12.199402%,12.5%);fill-opacity:1;" d="M 205.816406 73.625 L 208.253906 73.625 L 208.253906 86 L 205.816406 86 Z M 207.027344 68.40625 C 207.433594 68.40625 207.78125 68.546875 208.070313 68.824219 C 208.359375 69.105469 208.503906 69.449219 208.503906 69.855469 C 208.503906 70.25 208.359375 70.59375 208.070313 70.882813 C 207.78125 71.171875 207.433594 71.3125 207.027344 71.3125 C 206.652344 71.3125 206.316406 71.167969 206.027344 70.875 C 205.742188 70.582031 205.597656 70.242188 205.597656 69.855469 C 205.597656 69.476563 205.742188 69.140625 206.027344 68.847656 C 206.316406 68.554688 206.652344 68.40625 207.027344 68.40625 "></path>
    <path style=" stroke:none;fill-rule:nonzero;fill:rgb(13.699341%,12.199402%,12.5%);fill-opacity:1;" d="M 211.804688 86 L 214.242188 86 L 214.242188 67.1875 L 211.804688 67.1875 Z M 211.804688 86 "></path>
    <path style=" stroke:none;fill-rule:nonzero;fill:rgb(13.699341%,12.199402%,12.5%);fill-opacity:1;" d="M 226.015625 83.90625 L 226.015625 76.050781 C 225.25 75.664063 224.480469 75.46875 223.699219 75.46875 C 222.480469 75.46875 221.507813 75.871094 220.785156 76.671875 C 220.0625 77.46875 219.699219 78.546875 219.699219 79.90625 C 219.699219 81.179688 220.015625 82.164063 220.644531 82.855469 C 221.019531 83.269531 221.417969 83.550781 221.839844 83.691406 C 222.261719 83.835938 223.023438 83.90625 224.117188 83.90625 Z M 226.015625 67.1875 L 228.484375 67.1875 L 228.484375 86 L 223.246094 86 C 221.417969 86 219.957031 85.421875 218.867188 84.261719 C 217.777344 83.105469 217.234375 81.554688 217.234375 79.605469 C 217.234375 77.785156 217.804688 76.285156 218.949219 75.109375 C 220.089844 73.933594 221.550781 73.34375 223.324219 73.34375 C 224.148438 73.34375 225.046875 73.519531 226.015625 73.867188 "></path>
    <path style=" stroke:none;fill-rule:nonzero;fill:rgb(13.699341%,12.199402%,12.5%);fill-opacity:1;" d="M 234.390625 73.625 L 234.390625 76.429688 L 234.523438 76.214844 C 235.703125 74.300781 236.886719 73.34375 238.066406 73.34375 C 238.988281 73.34375 239.949219 73.8125 240.953125 74.75 L 239.664063 76.90625 C 238.8125 76.09375 238.027344 75.6875 237.300781 75.6875 C 236.515625 75.6875 235.832031 76.066406 235.257813 76.820313 C 234.679688 77.578125 234.390625 78.472656 234.390625 79.507813 L 234.390625 86 L 231.921875 86 L 231.921875 73.625 "></path>
    <g clip-path="url(#clip9)" clip-rule="nonzero">
      <path style=" stroke:none;fill-rule:nonzero;fill:rgb(13.699341%,12.199402%,12.5%);fill-opacity:1;" d="M 243.949219 78.53125 L 250.167969 78.53125 C 250.105469 77.550781 249.8125 76.796875 249.292969 76.265625 C 248.773438 75.734375 248.074219 75.46875 247.199219 75.46875 C 246.320313 75.46875 245.601563 75.734375 245.042969 76.265625 C 244.484375 76.796875 244.117188 77.550781 243.949219 78.53125 M 252.605469 80 L 243.886719 80 C 243.949219 81.195313 244.34375 82.144531 245.078125 82.847656 C 245.808594 83.554688 246.753906 83.90625 247.914063 83.90625 C 249.53125 83.90625 251.019531 83.40625 252.386719 82.40625 L 252.386719 84.792969 C 251.632813 85.296875 250.886719 85.652344 250.144531 85.867188 C 249.40625 86.082031 248.539063 86.1875 247.542969 86.1875 C 246.179688 86.1875 245.074219 85.90625 244.234375 85.339844 C 243.390625 84.773438 242.714844 84.011719 242.207031 83.050781 C 241.699219 82.09375 241.449219 80.984375 241.449219 79.726563 C 241.449219 77.839844 241.980469 76.300781 243.050781 75.121094 C 244.117188 73.9375 245.503906 73.34375 247.207031 73.34375 C 248.847656 73.34375 250.160156 73.921875 251.136719 75.070313 C 252.113281 76.21875 252.605469 77.761719 252.605469 79.691406 "></path>
    </g>
    <path style=" stroke:none;fill-rule:nonzero;fill:rgb(13.699341%,12.199402%,12.5%);fill-opacity:1;" d="M 257.664063 73.625 L 257.664063 75.15625 C 258.757813 73.949219 259.996094 73.34375 261.386719 73.34375 C 262.160156 73.34375 262.875 73.546875 263.539063 73.945313 C 264.203125 74.347656 264.707031 74.894531 265.050781 75.59375 C 265.394531 76.289063 265.566406 77.394531 265.566406 78.902344 L 265.566406 86 L 263.132813 86 L 263.132813 78.917969 C 263.132813 77.648438 262.9375 76.738281 262.554688 76.191406 C 262.164063 75.648438 261.519531 75.375 260.613281 75.375 C 259.453125 75.375 258.472656 75.960938 257.664063 77.125 L 257.664063 86 L 255.164063 86 L 255.164063 73.625 "></path>
    <g clip-path="url(#clip10)" clip-rule="nonzero">
      <path style=" stroke:none;fill-rule:nonzero;fill:rgb(13.699341%,12.199402%,12.5%);fill-opacity:1;" d="M 282.710938 83.546875 L 282.710938 79.84375 L 281.066406 80.480469 C 280.230469 80.816406 279.640625 81.152344 279.292969 81.488281 C 278.945313 81.828125 278.773438 82.25 278.773438 82.753906 C 278.773438 83.269531 278.9375 83.691406 279.265625 84.015625 C 279.59375 84.339844 280.019531 84.5 280.539063 84.5 C 281.320313 84.5 282.046875 84.183594 282.710938 83.546875 M 285.117188 78.535156 L 285.117188 83.804688 C 285.117188 84.226563 285.257813 84.4375 285.539063 84.4375 C 285.828125 84.4375 286.28125 84.21875 286.898438 83.78125 L 286.898438 85.28125 C 286.351563 85.632813 285.910156 85.871094 285.578125 85.996094 C 285.246094 86.125 284.902344 86.1875 284.539063 86.1875 C 283.507813 86.1875 282.898438 85.78125 282.710938 84.972656 C 281.664063 85.78125 280.550781 86.1875 279.367188 86.1875 C 278.503906 86.1875 277.777344 85.902344 277.203125 85.332031 C 276.625 84.761719 276.335938 84.042969 276.335938 83.179688 C 276.335938 82.394531 276.617188 81.695313 277.179688 81.078125 C 277.738281 80.460938 278.539063 79.972656 279.570313 79.613281 L 282.710938 78.53125 L 282.710938 77.867188 C 282.710938 76.375 281.964844 75.625 280.46875 75.625 C 279.128906 75.625 277.824219 76.3125 276.554688 77.6875 L 276.554688 75.019531 C 277.507813 73.902344 278.878906 73.34375 280.667969 73.34375 C 282.007813 73.34375 283.078125 73.695313 283.890625 74.398438 C 284.160156 74.621094 284.402344 74.921875 284.617188 75.292969 C 284.835938 75.667969 284.972656 76.039063 285.027344 76.410156 C 285.089844 76.785156 285.117188 77.492188 285.117188 78.535156 "></path>
    </g>
    <path style=" stroke:none;fill-rule:nonzero;fill:rgb(13.699341%,12.199402%,12.5%);fill-opacity:1;" d="M 291.671875 73.625 L 291.671875 76.429688 L 291.808594 76.214844 C 292.988281 74.300781 294.167969 73.34375 295.351563 73.34375 C 296.273438 73.34375 297.234375 73.8125 298.234375 74.75 L 296.945313 76.90625 C 296.097656 76.09375 295.308594 75.6875 294.585938 75.6875 C 293.796875 75.6875 293.113281 76.066406 292.539063 76.820313 C 291.960938 77.578125 291.671875 78.472656 291.671875 79.507813 L 291.671875 86 L 289.203125 86 L 289.203125 73.625 "></path>
    <g clip-path="url(#clip11)" clip-rule="nonzero">
      <path style=" stroke:none;fill-rule:nonzero;fill:rgb(13.699341%,12.199402%,12.5%);fill-opacity:1;" d="M 301.246094 78.53125 L 307.464844 78.53125 C 307.398438 77.550781 307.109375 76.796875 306.589844 76.265625 C 306.070313 75.734375 305.371094 75.46875 304.496094 75.46875 C 303.617188 75.46875 302.898438 75.734375 302.339844 76.265625 C 301.78125 76.796875 301.414063 77.550781 301.246094 78.53125 M 309.898438 80 L 301.183594 80 C 301.246094 81.195313 301.640625 82.144531 302.371094 82.847656 C 303.105469 83.554688 304.050781 83.90625 305.210938 83.90625 C 306.828125 83.90625 308.316406 83.40625 309.683594 82.40625 L 309.683594 84.792969 C 308.929688 85.296875 308.183594 85.652344 307.441406 85.867188 C 306.703125 86.082031 305.835938 86.1875 304.839844 86.1875 C 303.476563 86.1875 302.371094 85.90625 301.53125 85.339844 C 300.6875 84.773438 300.011719 84.011719 299.503906 83.050781 C 298.996094 82.09375 298.746094 80.984375 298.746094 79.726563 C 298.746094 77.839844 299.277344 76.300781 300.347656 75.121094 C 301.414063 73.9375 302.800781 73.34375 304.503906 73.34375 C 306.144531 73.34375 307.453125 73.921875 308.433594 75.070313 C 309.410156 76.21875 309.898438 77.761719 309.898438 79.691406 "></path>
    </g>
    <g clip-path="url(#clip12)" clip-rule="nonzero">
      <path style=" stroke:none;fill-rule:nonzero;fill:rgb(13.699341%,12.199402%,12.5%);fill-opacity:1;" d="M 320.277344 85.113281 L 320.277344 82.46875 C 320.96875 82.953125 321.679688 83.34375 322.40625 83.644531 C 323.132813 83.945313 323.742188 84.09375 324.238281 84.09375 C 324.753906 84.09375 325.195313 83.96875 325.566406 83.71875 C 325.933594 83.46875 326.121094 83.167969 326.121094 82.816406 C 326.121094 82.457031 326 82.160156 325.761719 81.921875 C 325.523438 81.683594 325.007813 81.339844 324.214844 80.886719 C 322.632813 80.007813 321.59375 79.253906 321.105469 78.628906 C 320.613281 78.003906 320.371094 77.324219 320.371094 76.585938 C 320.371094 75.632813 320.742188 74.851563 321.484375 74.25 C 322.226563 73.644531 323.179688 73.34375 324.351563 73.34375 C 325.566406 73.34375 326.8125 73.683594 328.089844 74.367188 L 328.089844 76.78125 C 326.625 75.90625 325.429688 75.46875 324.5 75.46875 C 324.019531 75.46875 323.632813 75.574219 323.339844 75.777344 C 323.046875 75.980469 322.902344 76.25 322.902344 76.585938 C 322.902344 76.875 323.035156 77.152344 323.304688 77.414063 C 323.578125 77.675781 324.046875 77.992188 324.710938 78.359375 L 325.589844 78.859375 C 327.652344 80.027344 328.683594 81.324219 328.683594 82.742188 C 328.683594 83.757813 328.285156 84.59375 327.488281 85.242188 C 326.691406 85.894531 325.667969 86.21875 324.417969 86.21875 C 323.679688 86.21875 323.023438 86.140625 322.449219 85.984375 C 321.871094 85.828125 321.148438 85.539063 320.277344 85.113281 "></path>
    </g>
    <g clip-path="url(#clip13)" clip-rule="nonzero">
      <path style=" stroke:none;fill-rule:nonzero;fill:rgb(13.699341%,12.199402%,12.5%);fill-opacity:1;" d="M 336.828125 83.546875 L 336.828125 79.84375 L 335.1875 80.480469 C 334.347656 80.816406 333.757813 81.152344 333.414063 81.488281 C 333.0625 81.828125 332.894531 82.25 332.894531 82.753906 C 332.894531 83.269531 333.058594 83.691406 333.386719 84.015625 C 333.714844 84.339844 334.136719 84.5 334.660156 84.5 C 335.441406 84.5 336.164063 84.183594 336.828125 83.546875 M 339.234375 78.535156 L 339.234375 83.804688 C 339.234375 84.226563 339.378906 84.4375 339.660156 84.4375 C 339.949219 84.4375 340.398438 84.21875 341.019531 83.78125 L 341.019531 85.28125 C 340.46875 85.632813 340.03125 85.871094 339.699219 85.996094 C 339.367188 86.125 339.019531 86.1875 338.660156 86.1875 C 337.625 86.1875 337.015625 85.78125 336.828125 84.972656 C 335.785156 85.78125 334.667969 86.1875 333.484375 86.1875 C 332.621094 86.1875 331.898438 85.902344 331.320313 85.332031 C 330.746094 84.761719 330.453125 84.042969 330.453125 83.179688 C 330.453125 82.394531 330.734375 81.695313 331.296875 81.078125 C 331.859375 80.460938 332.65625 79.972656 333.6875 79.613281 L 336.828125 78.53125 L 336.828125 77.867188 C 336.828125 76.375 336.082031 75.625 334.589844 75.625 C 333.246094 75.625 331.941406 76.3125 330.675781 77.6875 L 330.675781 75.019531 C 331.628906 73.902344 332.996094 73.34375 334.789063 73.34375 C 336.125 73.34375 337.199219 73.695313 338.011719 74.398438 C 338.28125 74.621094 338.519531 74.921875 338.734375 75.292969 C 338.953125 75.667969 339.089844 76.039063 339.148438 76.410156 C 339.207031 76.785156 339.234375 77.492188 339.234375 78.535156 "></path>
    </g>
    <path style=" stroke:none;fill-rule:nonzero;fill:rgb(13.699341%,12.199402%,12.5%);fill-opacity:1;" d="M 343.449219 73.625 L 343.449219 72.886719 C 343.449219 70.898438 343.871094 69.414063 344.71875 68.4375 C 345.5625 67.460938 346.578125 66.96875 347.761719 66.96875 C 348.269531 66.96875 348.875 67.050781 349.574219 67.210938 L 349.574219 69.59375 C 349.179688 69.46875 348.800781 69.40625 348.445313 69.40625 C 347.484375 69.40625 346.816406 69.664063 346.445313 70.171875 C 346.074219 70.679688 345.886719 71.585938 345.886719 72.890625 L 345.886719 73.625 L 348.105469 73.625 L 348.105469 75.84375 L 345.886719 75.84375 L 345.886719 86 L 343.449219 86 L 343.449219 75.84375 L 341.667969 75.84375 L 341.667969 73.625 "></path>
    <g clip-path="url(#clip14)" clip-rule="nonzero">
      <path style=" stroke:none;fill-rule:nonzero;fill:rgb(13.699341%,12.199402%,12.5%);fill-opacity:1;" d="M 351.621094 78.53125 L 357.839844 78.53125 C 357.773438 77.550781 357.484375 76.796875 356.964844 76.265625 C 356.445313 75.734375 355.746094 75.46875 354.871094 75.46875 C 353.992188 75.46875 353.273438 75.734375 352.714844 76.265625 C 352.15625 76.796875 351.789063 77.550781 351.621094 78.53125 M 360.273438 80 L 351.558594 80 C 351.621094 81.195313 352.015625 82.144531 352.746094 82.847656 C 353.480469 83.554688 354.425781 83.90625 355.585938 83.90625 C 357.203125 83.90625 358.691406 83.40625 360.058594 82.40625 L 360.058594 84.792969 C 359.304688 85.296875 358.558594 85.652344 357.816406 85.867188 C 357.078125 86.082031 356.210938 86.1875 355.214844 86.1875 C 353.851563 86.1875 352.746094 85.90625 351.90625 85.339844 C 351.0625 84.773438 350.386719 84.011719 349.878906 83.050781 C 349.371094 82.09375 349.121094 80.984375 349.121094 79.726563 C 349.121094 77.839844 349.652344 76.300781 350.722656 75.121094 C 351.789063 73.9375 353.175781 73.34375 354.878906 73.34375 C 356.519531 73.34375 357.828125 73.921875 358.808594 75.070313 C 359.785156 76.21875 360.273438 77.761719 360.273438 79.691406 "></path>
    </g>
  </g>
</svg>
